<svg width="1596" height="686" viewBox="0 0 1596 686" fill="none" xmlns="http://www.w3.org/2000/svg">
<mask id="path-1-inside-1" fill="white">
<path fill-rule="evenodd" clip-rule="evenodd" d="M1595.17 20.4429H26.269V622.114H546V686H654.819L671.97 622.114H1595.17V20.4429Z"/>
</mask>
<path fill-rule="evenodd" clip-rule="evenodd" d="M1595.17 20.4429H26.269V622.114H546V686H654.819L671.97 622.114H1595.17V20.4429Z" fill="#1E8CA2"/>
<path d="M26.269 20.4429V18.4429H24.269V20.4429H26.269ZM1595.17 20.4429H1597.17V18.4429H1595.17V20.4429ZM26.269 622.114H24.269V624.114H26.269V622.114ZM546 622.114H548V620.114H546V622.114ZM546 686H544V688H546V686ZM654.819 686V688H656.353L656.75 686.519L654.819 686ZM671.97 622.114V620.114H670.436L670.038 621.596L671.97 622.114ZM1595.17 622.114V624.114H1597.17V622.114H1595.17ZM26.269 22.4429H1595.17V18.4429H26.269V22.4429ZM28.269 622.114V20.4429H24.269V622.114H28.269ZM546 620.114H26.269V624.114H546V620.114ZM548 686V622.114H544V686H548ZM654.819 684H546V688H654.819V684ZM670.038 621.596L652.887 685.481L656.75 686.519L673.901 622.633L670.038 621.596ZM1595.17 620.114H671.97V624.114H1595.17V620.114ZM1593.17 20.4429V622.114H1597.17V20.4429H1593.17Z" fill="#1E8CA2" mask="url(#path-1-inside-1)"/>
<mask id="path-3-inside-2" fill="white">
<path fill-rule="evenodd" clip-rule="evenodd" d="M1567.09 0H0V599.5H520V666H638.329L655.61 599.5H1567.09V0Z"/>
</mask>
<path fill-rule="evenodd" clip-rule="evenodd" d="M1567.09 0H0V599.5H520V666H638.329L655.61 599.5H1567.09V0Z" fill="#FBD4CA"/>
<path d="M0 0V-2H-2V0H0ZM1567.09 0H1569.09V-2H1567.09V0ZM0 599.5H-2V601.5H0V599.5ZM520 599.5H522V597.5H520V599.5ZM520 666H518V668H520V666ZM638.329 666V668H639.876L640.265 666.503L638.329 666ZM655.61 599.5V597.5H654.064L653.675 598.997L655.61 599.5ZM1567.09 599.5V601.5H1569.09V599.5H1567.09ZM0 2H1567.09V-2H0V2ZM2 599.5V0H-2V599.5H2ZM520 597.5H0V601.5H520V597.5ZM522 666V599.5H518V666H522ZM638.329 664H520V668H638.329V664ZM653.675 598.997L636.393 665.497L640.265 666.503L657.546 600.003L653.675 598.997ZM1567.09 597.5H655.61V601.5H1567.09V597.5ZM1565.09 0V599.5H1569.09V0H1565.09Z" fill="#1E8CA2" mask="url(#path-3-inside-2)"/>
<path d="M949.109 344.984C942.453 344.984 936.672 343.609 931.766 340.859C926.891 338.078 923.109 334.156 920.422 329.094C917.766 324 916.438 317.984 916.438 311.047V308.75C916.438 302.125 917.719 296.266 920.281 291.172C922.875 286.047 926.547 282.031 931.297 279.125C936.078 276.219 941.781 274.766 948.406 274.766C953 274.766 957.328 275.422 961.391 276.734C965.453 278.047 969.078 280.047 972.266 282.734V299.234H962.094L960.688 288.875C959.125 287.781 957.359 286.922 955.391 286.297C953.422 285.641 951.203 285.312 948.734 285.312C942.953 285.312 938.406 287.422 935.094 291.641C931.781 295.828 930.125 301.5 930.125 308.656V311.047C930.125 318.234 931.844 323.938 935.281 328.156C938.719 332.375 943.406 334.484 949.344 334.484C951.312 334.484 953.281 334.266 955.25 333.828C957.25 333.359 959.062 332.766 960.688 332.047L962.094 322.438H972.266V338.75C969.609 340.5 966.297 341.984 962.328 343.203C958.359 344.391 953.953 344.984 949.109 344.984ZM1012.34 344.984C1006.91 344.984 1002.14 344.047 998.047 342.172C993.953 340.297 990.766 337.578 988.484 334.016C986.203 330.453 985.062 326.125 985.062 321.031V285.406L977.797 284V275.75H1006.06V284L998.75 285.406V321.031C998.75 325.531 999.953 328.906 1002.36 331.156C1004.8 333.375 1008.12 334.484 1012.34 334.484C1016.62 334.484 1019.98 333.375 1022.42 331.156C1024.86 328.938 1026.08 325.562 1026.08 321.031V285.406L1018.81 284V275.75H1047.08V284L1039.77 285.406V321.031C1039.77 326.125 1038.61 330.469 1036.3 334.062C1034.02 337.625 1030.81 340.344 1026.69 342.219C1022.59 344.062 1017.81 344.984 1012.34 344.984ZM1051.53 344V335.797L1058.8 334.391V285.406L1051.53 284V275.75H1081.86C1089.89 275.75 1096.16 277.312 1100.66 280.438C1105.16 283.562 1107.41 288.234 1107.41 294.453C1107.41 297.609 1106.56 300.438 1104.88 302.938C1103.22 305.406 1100.8 307.266 1097.61 308.516C1101.7 309.391 1104.77 311.266 1106.8 314.141C1108.86 317.016 1109.89 320.344 1109.89 324.125C1109.89 330.656 1107.73 335.609 1103.42 338.984C1099.11 342.328 1093 344 1085.09 344H1051.53ZM1072.48 304.344H1082.33C1085.98 304.344 1088.8 303.594 1090.77 302.094C1092.73 300.594 1093.72 298.406 1093.72 295.531C1093.72 289.375 1089.77 286.297 1081.86 286.297H1072.48V304.344ZM1072.48 333.5H1085.09C1092.53 333.5 1096.25 330.375 1096.25 324.125C1096.25 320.781 1095.44 318.234 1093.81 316.484C1092.19 314.703 1089.62 313.812 1086.12 313.812H1072.48V333.5ZM1114.53 344V335.797L1121.8 334.391V285.406L1114.53 284V275.75H1167.5V294.172H1157L1156.39 286.297H1135.48V303.453H1158.59V314H1135.48V333.5H1157.52L1158.12 325.344H1168.53V344H1114.53ZM915.922 490V481.797L920.797 481.094L942.5 421.75H956.516L978.078 481.094L982.953 481.797V490H959.703V481.797L964.438 480.953L961.438 471.578H937.438L934.438 480.953L939.172 481.797V490H915.922ZM940.672 461.5H958.203L950.234 438.109L949.578 436.047H949.297L948.594 438.25L940.672 461.5ZM987.5 490V481.797L994.766 480.391V431.406L987.5 430V421.75H1008.64L1038.36 469.094L1038.64 469.047V431.406L1029.92 430V421.75H1058.19V430L1050.88 431.406V490H1037.66L1007.28 443.125L1007 443.172V480.391L1015.77 481.797V490H987.5ZM1062.69 490V481.797L1069.95 480.391V431.406L1062.69 430V421.75H1090.91V430L1083.64 431.406V480.391L1090.91 481.797V490H1062.69ZM1096.16 490V481.797L1103.42 480.391V431.406L1096.16 430V421.75H1123.67L1142.28 469.328H1142.56L1160.56 421.75H1188.12V430L1180.81 431.406V480.391L1188.12 481.797V490H1159.86V481.797L1167.5 480.391V467.312L1167.73 436.516L1167.45 436.469L1147.06 489.062H1136.7L1115.84 436.891L1115.56 436.938L1116.36 465.906V480.391L1124.42 481.797V490H1096.16ZM1187.8 490V481.797L1192.67 481.094L1214.38 421.75H1228.39L1249.95 481.094L1254.83 481.797V490H1231.58V481.797L1236.31 480.953L1233.31 471.578H1209.31L1206.31 480.953L1211.05 481.797V490H1187.8ZM1212.55 461.5H1230.08L1222.11 438.109L1221.45 436.047H1221.17L1220.47 438.25L1212.55 461.5ZM1268.05 490V481.797L1275.36 480.391V432.297H1262.94L1262.19 440.453H1251.83V421.75H1312.72V440.453H1302.31L1301.56 432.297H1289.05V480.391L1296.41 481.797V490H1268.05ZM1317.5 490V481.797L1324.77 480.391V431.406L1317.5 430V421.75H1345.72V430L1338.45 431.406V480.391L1345.72 481.797V490H1317.5ZM1382.23 490.984C1376.08 490.984 1370.69 489.5 1366.06 486.531C1361.44 483.531 1357.83 479.422 1355.23 474.203C1352.67 468.984 1351.39 463.047 1351.39 456.391V455.359C1351.39 448.734 1352.67 442.812 1355.23 437.594C1357.83 432.375 1361.42 428.266 1366.02 425.266C1370.64 422.266 1376.03 420.766 1382.19 420.766C1388.34 420.766 1393.75 422.266 1398.41 425.266C1403.09 428.266 1406.73 432.375 1409.33 437.594C1411.95 442.812 1413.27 448.734 1413.27 455.359V456.391C1413.27 463.047 1411.97 468.984 1409.38 474.203C1406.78 479.422 1403.14 483.531 1398.45 486.531C1393.8 489.5 1388.39 490.984 1382.23 490.984ZM1382.23 480.344C1388.02 480.344 1392.36 478.156 1395.27 473.781C1398.17 469.375 1399.62 463.578 1399.62 456.391V455.266C1399.62 450.547 1398.97 446.406 1397.66 442.844C1396.34 439.25 1394.39 436.453 1391.8 434.453C1389.23 432.453 1386.03 431.453 1382.19 431.453C1376.44 431.453 1372.14 433.641 1369.3 438.016C1366.48 442.391 1365.08 448.141 1365.08 455.266V456.391C1365.08 463.578 1366.5 469.375 1369.34 473.781C1372.22 478.156 1376.52 480.344 1382.23 480.344ZM1418.75 490V481.797L1426.02 480.391V431.406L1418.75 430V421.75H1439.89L1469.61 469.094L1469.89 469.047V431.406L1461.17 430V421.75H1489.44V430L1482.12 431.406V490H1468.91L1438.53 443.125L1438.25 443.172V480.391L1447.02 481.797V490H1418.75Z" fill="#04839D"/>
<path d="M926.221 20.2588C935.399 32.2267 944.497 44.2251 953.753 56.1321C969.84 76.8399 986.022 97.4717 1002.38 118.393C993.31 130.01 984.385 141.506 975.35 153.017C960.443 172.126 945.441 191.19 930.708 210.406C929.829 211.755 928.582 212.845 927.104 213.554C925.627 214.263 923.976 214.564 922.333 214.425C912.7 214.136 903.066 214.334 892.299 214.334L966.456 118.408C954.477 102.999 942.624 87.8181 930.865 72.6679C917.936 56.1727 905.029 39.6876 892.142 23.2127C891.524 22.2773 890.997 21.2884 890.568 20.2588L926.221 20.2588Z" fill="#04839D"/>
<path d="M1058.62 20.2588C1073.37 39.2511 1088.12 58.2435 1102.87 77.2358C1113.46 90.8482 1124.09 104.445 1134.96 118.347C1127.06 128.498 1119.16 138.679 1111.24 148.891C1095.31 169.294 1079.29 189.622 1063.48 210.131C1062.51 211.606 1061.13 212.788 1059.49 213.546C1057.86 214.305 1056.04 214.609 1054.24 214.425C1045.18 214.075 1036.09 214.319 1025.91 214.319L1100.1 118.393C1092.64 108.8 1085.27 99.2683 1077.86 89.7823C1060.67 67.7244 1043.41 45.6563 1026.08 23.5781C1025.33 22.5097 1024.63 21.4015 1024 20.2588L1058.62 20.2588Z" fill="#04839D"/>
<path d="M990.382 20.2588L1067.04 118.408C1052.76 136.68 1038.71 154.769 1024.54 172.797C1014.53 185.617 1004.57 198.468 994.349 211.137C992.816 212.877 990.642 213.97 988.289 214.182C979.678 214.517 970.973 214.319 961.245 214.319C986.29 181.948 1010.77 150.368 1035.45 118.393L958.821 20.2588H990.382Z" fill="#04839D"/>
<path d="M856.975 20.2588C873.766 41.8802 890.556 63.5067 907.347 85.1383C915.91 96.1469 924.505 107.125 933.32 118.408L903.664 156.382C889.497 174.578 875.219 192.743 861.162 211.015C860.402 212.158 859.333 213.077 858.07 213.673C856.807 214.269 855.399 214.519 854 214.395C845.594 214.182 837.189 214.395 827.649 214.395L901.743 118.484L825.398 20.2588H856.975Z" fill="#04839D"/>
<path d="M1198.54 21.7815C1207.72 33.7494 1216.82 45.7478 1226.08 57.6548C1242.16 78.3626 1258.34 98.9944 1274.7 119.915C1265.63 131.533 1256.64 143.029 1247.67 154.54C1232.77 173.649 1217.76 192.713 1203.03 211.928C1202.15 213.278 1200.9 214.367 1199.43 215.077C1197.95 215.786 1196.3 216.087 1194.66 215.948C1185.02 215.659 1175.39 215.857 1164.62 215.857L1238.78 119.931C1226.77 104.506 1214.95 89.3256 1203.11 74.2515C1190.23 57.7157 1177.35 41.2103 1164.46 24.7354C1163.85 23.8 1163.32 22.8111 1162.89 21.7815H1198.54Z" fill="#04839D"/>
<path d="M1330.94 21.7815C1345.69 40.7738 1360.44 59.7662 1375.19 78.7585C1385.78 92.3709 1396.41 105.968 1407.29 119.87C1399.38 130.021 1391.48 140.202 1383.56 150.414C1367.63 170.817 1351.61 191.144 1335.81 211.654C1334.83 213.128 1333.45 214.311 1331.82 215.069C1330.18 215.827 1328.37 216.132 1326.57 215.948C1317.5 215.598 1308.42 215.841 1298.23 215.841L1372.42 119.915C1364.96 110.323 1357.59 100.791 1350.18 91.305C1332.99 69.2471 1315.73 47.1791 1298.4 25.1008C1297.65 24.0324 1296.96 22.9242 1296.33 21.7815H1330.94Z" fill="#04839D"/>
<path d="M1262.7 21.7815L1339.36 119.93C1325.09 138.202 1311.03 156.291 1296.86 174.319C1286.85 187.139 1276.89 199.99 1266.67 212.659C1265.14 214.399 1262.96 215.492 1260.61 215.704C1252 216.039 1243.37 215.841 1233.57 215.841C1258.61 183.47 1283.09 151.89 1307.77 119.915L1231.14 21.7815H1262.7Z" fill="#04839D"/>
<path d="M1403.18 21.7815C1412.36 33.7494 1421.45 45.7478 1430.71 57.6548C1446.8 78.3626 1462.98 98.9944 1479.34 119.915C1470.27 131.533 1461.28 143.029 1452.31 154.54C1437.4 173.649 1422.4 192.713 1407.67 211.928C1406.79 213.278 1405.54 214.367 1404.06 215.077C1402.58 215.786 1400.93 216.087 1399.29 215.948C1389.66 215.659 1380.02 215.857 1369.26 215.857L1443.41 119.931C1431.4 104.506 1419.58 89.3256 1407.74 74.2515C1394.87 57.7157 1381.99 41.2103 1369.1 24.7354C1368.48 23.8 1367.95 22.8111 1367.53 21.7815H1403.18Z" fill="#04839D"/>
<path d="M1467.34 21.7815L1544 119.93C1529.72 138.202 1515.67 156.291 1501.5 174.319C1491.49 187.139 1481.52 199.99 1471.31 212.659C1469.77 214.399 1467.6 215.492 1465.25 215.704C1456.64 216.039 1448.01 215.841 1438.2 215.841C1463.25 183.47 1487.72 151.89 1512.41 119.915L1435.78 21.7815H1467.34Z" fill="#04839D"/>
<path d="M1129.3 21.7815C1146.09 43.4029 1162.88 65.0294 1179.67 86.661C1188.23 97.6696 1196.83 108.648 1205.64 119.931L1175.99 157.905C1161.82 176.101 1147.54 194.266 1133.49 212.537C1132.73 213.68 1131.66 214.6 1130.39 215.196C1129.13 215.792 1127.72 216.042 1126.32 215.918C1117.92 215.704 1109.51 215.918 1099.97 215.918L1174.07 120.007L1097.72 21.7815H1129.3Z" fill="#04839D"/>
<rect x="14" y="20" width="784" height="547" fill="#04839D"/>
</svg>
