<svg width="123" height="311" viewBox="0 0 123 311" fill="none" xmlns="http://www.w3.org/2000/svg">
<path d="M1.2744 77.9265C1.19218 72.2765 0 8.34461 0 2.69462V2.34692L0.534425 2.65115L61.0067 36.725C61.1362 36.8307 61.2952 36.8881 61.4589 36.8881C61.6225 36.8881 61.7816 36.8307 61.9111 36.725L121.273 0.304231L121.726 0L123 76.1012H122.589L63.2677 112.696L62.8977 113H62.61L62.1989 112.696L1.2744 77.9265Z" fill="#04839D"/>
<path d="M1.2744 176.927C1.19218 171.277 0 107.345 0 101.695V101.347L0.534425 101.651L61.0067 135.725C61.1362 135.831 61.2952 135.888 61.4589 135.888C61.6225 135.888 61.7816 135.831 61.9111 135.725L121.273 99.3042L121.726 99L123 175.101H122.589L63.2677 211.696L62.8977 212H62.61L62.1989 211.696L1.2744 176.927Z" fill="#04839D"/>
<path d="M1.2744 275.927C1.19218 270.277 0 206.345 0 200.695V200.347L0.534425 200.651L61.0067 234.725C61.1362 234.831 61.2952 234.888 61.4589 234.888C61.6225 234.888 61.7816 234.831 61.9111 234.725L121.273 198.304L121.726 198L123 274.101H122.589L63.2677 310.696L62.8977 311H62.61L62.1989 310.696L1.2744 275.927Z" fill="#04839D"/>
</svg>
