<svg width="537" height="391" viewBox="0 0 537 391" fill="none" xmlns="http://www.w3.org/2000/svg">
<path d="M536.456 126.756C536.394 146.394 536.456 368.911 536.456 388.549C536.456 388.845 536.456 389.142 536.373 389.673C535.49 389.295 534.729 389.009 534.01 388.651C446.169 347.828 358.34 306.972 270.52 266.081C269.892 265.732 269.184 265.549 268.464 265.549C267.745 265.549 267.037 265.732 266.409 266.081C178.48 307.04 90.5297 347.965 2.55929 388.856C1.86046 389.172 1.19246 389.54 0.503906 389.878V125.182C1.15135 124.936 1.82963 124.732 2.45652 124.435C90.3516 83.5788 178.257 42.7119 266.173 1.83477C266.747 1.53158 267.3 1.19004 267.827 0.8125H269.132C269.676 1.18815 270.242 1.52958 270.828 1.83477L536.456 126.756Z" fill="#FFD87E" stroke="#B33F4C" stroke-miterlimit="10"/>
</svg>
