<svg width="282" height="172" viewBox="0 0 282 172" fill="none" xmlns="http://www.w3.org/2000/svg">
<path d="M280.639 55.8598C280.639 64.4155 280.639 161.371 280.639 169.927C280.639 170.046 280.639 170.179 280.639 170.405C280.176 170.246 279.776 170.126 279.408 169.98C233.561 152.178 187.714 134.376 141.867 116.573C141.541 116.426 141.175 116.348 140.804 116.348C140.432 116.348 140.066 116.426 139.74 116.573C93.8933 134.411 48.0037 152.24 2.07154 170.06C1.7037 170.193 1.35185 170.352 1 170.511V55.169C1.33586 55.0627 1.6877 54.9697 2.02356 54.8501L139.58 1.43021C139.885 1.29535 140.179 1.14448 140.46 0.978516H141.132C141.435 1.12465 141.707 1.29736 142.027 1.43021L280.639 55.8598Z" fill="#FFD87E" stroke="#B33F4C" stroke-miterlimit="10"/>
</svg>
