<svg width="960" height="583" viewBox="0 0 960 583" fill="none" xmlns="http://www.w3.org/2000/svg">
<path d="M959.51 188.967C959.4 218.296 959.51 550.626 959.51 579.955C959.51 580.398 959.51 580.84 959.363 581.634C957.782 581.069 956.422 580.642 955.136 580.107C798.04 519.139 640.962 458.119 483.903 397.049C482.78 396.527 481.514 396.254 480.227 396.254C478.941 396.254 477.675 396.527 476.552 397.049C319.296 458.221 162.005 519.342 4.6759 580.413C3.4261 580.886 2.23143 581.436 1 581.94V186.616C2.15791 186.249 3.37096 185.944 4.49211 185.501C161.686 124.482 318.898 63.4469 476.129 2.39688C477.156 1.94407 478.144 1.43398 479.088 0.870117H481.422C482.394 1.43116 483.406 1.94108 484.455 2.39688L959.51 188.967Z" fill="#FFD87E" stroke="#B33F4C" stroke-miterlimit="10"/>
</svg>
