<svg width="791" height="233" viewBox="0 0 791 233" fill="none" xmlns="http://www.w3.org/2000/svg">
<g clip-path="url(#clip0)">
<path d="M789.65 198.068L36.6746 231.669L8.80566 214.559L29.0518 52.0678L752.976 1.34454L782.04 18.4676L789.65 198.068Z" fill="#FFD87D" stroke="#B43F4D" stroke-width="2" stroke-miterlimit="10"/>
<path d="M752.995 1.5046L0.00390625 34.945L7.65156 214.546L760.642 181.106L752.995 1.5046Z" fill="#B43F4D"/>
<path d="M44.555 136.936L43.765 120.755C43.5569 116.494 43.3465 112.866 43.1336 109.873C42.9873 106.877 42.8524 104.113 42.7288 101.583L35.3377 101.944C35.1963 100.416 35.0566 98.9206 34.9184 97.4589C34.7803 95.9972 34.6739 94.5006 34.5991 92.9691C34.5244 91.4376 34.4829 89.9045 34.4747 88.3697C34.4665 86.835 34.4599 85.3335 34.455 83.8653L65.2184 82.3634C65.3597 83.8916 65.4678 85.4215 65.5426 86.953C65.6141 88.418 65.6872 89.9162 65.762 91.4477C65.8368 92.9792 65.9099 94.4774 65.9814 95.9423C66.053 97.4073 66.0928 98.9071 66.101 100.442L58.8097 100.798C58.8943 105.266 59.009 109.665 59.1537 113.997C59.3651 118.325 59.6008 123.153 59.8608 128.48L60.2363 136.17L67.8273 135.8C68.0109 138.194 68.1596 140.556 68.2734 142.886C68.3872 145.217 68.5026 147.581 68.6196 149.978C68.7334 152.309 68.8488 154.672 68.9658 157.07C69.0796 159.4 69.1601 161.732 69.2073 164.066L38.444 165.568C38.2636 163.241 38.0832 160.913 37.9028 158.586C37.7192 156.192 37.5705 153.83 37.4567 151.499C37.3397 149.102 37.2576 146.737 37.2104 144.403C37.1632 142.069 37.1144 139.702 37.0639 137.302L44.555 136.936ZM109.216 98.7373L97.7297 99.2981C97.8859 105.231 98.0802 111.262 98.3127 117.391C98.542 123.454 98.8289 130.014 99.1735 137.073C99.3946 141.601 99.5734 145.263 99.7099 148.06C99.8432 150.79 99.9538 153.054 100.042 154.851C100.126 156.583 100.196 158.014 100.251 159.146C100.37 160.209 100.458 161.339 100.517 162.537L83.7369 163.357C83.6604 160.424 83.5791 157.391 83.4929 154.258C83.4034 151.058 83.2693 147.627 83.0905 143.965C82.975 140.233 82.8133 136.236 82.6052 131.975C82.4605 127.643 82.2613 122.88 82.0077 117.687C81.8224 113.891 81.6615 110.595 81.525 107.798C81.3884 105.002 81.23 102.44 81.0496 100.112L69.5633 100.673L68.6611 82.1953L108.314 80.2593L109.216 98.7373ZM111.088 90.0357C110.996 89.5062 110.94 89.0417 110.92 88.6422C110.901 88.2427 110.878 87.7766 110.852 87.2439C110.719 84.5138 111.442 82.2425 113.022 80.4299C114.599 78.5508 116.819 77.5413 119.683 77.4016C122.945 77.2423 125.531 78.2507 127.439 80.4269C129.348 82.6031 130.391 85.5223 130.57 89.1846C130.677 91.382 130.45 93.5624 129.888 95.7257C129.326 97.889 128.458 99.9337 127.284 101.86C126.177 103.783 124.761 105.554 123.038 107.173C121.315 108.793 119.378 110.122 117.226 111.162L112.851 107.671C114.65 106.248 116.007 104.647 116.921 102.867C117.899 101.017 118.345 99.2261 118.261 97.4948C118.173 95.6969 117.496 94.1281 116.229 92.7883C115.025 91.3786 113.312 90.4611 111.088 90.0357ZM133.554 99.3512C133.346 95.0897 133.974 91.5548 135.439 88.7467C136.967 85.8688 138.924 83.5706 141.31 81.8522C143.759 80.064 146.467 78.7971 149.434 78.0515C152.465 77.2361 155.378 76.7601 158.175 76.6236C158.974 76.5846 159.974 76.5691 161.176 76.5772C162.445 76.582 163.748 76.6185 165.086 76.6866C166.491 76.7515 167.899 76.883 169.31 77.0811C170.785 77.2093 172.165 77.4423 173.449 77.7801C173.667 79.5049 173.847 81.1314 173.988 82.6596C174.126 84.1213 174.242 85.8177 174.337 87.7487C174.431 89.6797 174.489 91.5458 174.51 93.3469C174.528 95.0814 174.509 96.751 174.454 98.3556C173.918 98.315 173.214 98.2493 172.342 98.1583C171.536 98.0642 170.666 98.0066 169.73 97.9855C168.861 97.9612 167.959 97.9385 167.024 97.9174C166.155 97.8931 165.321 97.9004 164.522 97.9394C161.326 98.0955 159.019 98.7087 157.603 99.779C156.187 100.849 155.521 102.25 155.606 103.981C155.655 104.98 155.935 105.934 156.446 106.844C156.955 107.687 157.595 108.49 158.366 109.253C159.204 110.013 160.107 110.737 161.075 111.424C162.11 112.107 163.143 112.758 164.174 113.375C165.827 114.429 167.487 115.616 169.154 116.936C170.883 118.187 172.461 119.745 173.887 121.611C175.31 123.41 176.516 125.554 177.505 128.042C178.491 130.464 179.064 133.306 179.223 136.568C179.431 140.83 178.874 144.462 177.552 147.463C176.23 150.464 174.45 152.954 172.21 154.932C170.034 156.841 167.535 158.298 164.714 159.303C161.957 160.239 159.18 160.775 156.383 160.911C155.118 160.973 153.548 160.95 151.674 160.841C149.87 160.795 148.027 160.652 146.146 160.41C144.269 160.234 142.488 159.988 140.804 159.669C139.116 159.285 137.759 158.817 136.731 158.266C136.406 157.081 136.113 155.86 135.851 154.605C135.656 153.346 135.521 151.951 135.446 150.42C135.394 149.354 135.364 148.054 135.356 146.519C135.415 144.981 135.471 143.41 135.526 141.806C135.582 140.201 135.64 138.663 135.702 137.192C135.83 135.717 135.936 134.477 136.021 133.472C136.773 133.835 137.861 134.249 139.285 134.714C140.706 135.112 142.227 135.505 143.848 135.893C145.535 136.278 147.22 136.596 148.901 136.847C150.582 137.099 152.055 137.194 153.32 137.132C155.451 137.028 157.028 136.517 158.051 135.6C159.071 134.616 159.543 133.358 159.468 131.826C159.387 130.161 158.716 128.726 157.456 127.519C156.192 126.246 154.631 125.021 152.771 123.843C150.911 122.666 148.882 121.43 146.683 120.136C144.547 118.772 142.533 117.168 140.641 115.325C138.749 113.481 137.14 111.291 135.815 108.752C134.486 106.147 133.733 103.014 133.554 99.3512ZM229.19 92.8799L217.704 93.4407C217.86 99.3734 218.055 105.404 218.287 111.534C218.516 117.596 218.803 124.157 219.148 131.215C219.369 135.743 219.548 139.405 219.684 142.202C219.818 144.932 219.928 147.196 220.016 148.994C220.1 150.725 220.17 152.157 220.225 153.289C220.344 154.351 220.433 155.481 220.491 156.68L203.711 157.499C203.635 154.566 203.553 151.533 203.467 148.4C203.378 145.201 203.244 141.77 203.065 138.108C202.949 134.376 202.788 130.379 202.579 126.117C202.435 121.786 202.236 117.023 201.982 111.829C201.797 108.034 201.636 104.738 201.499 101.941C201.363 99.1443 201.204 96.5823 201.024 94.255L189.538 94.8158L188.635 76.3378L228.288 74.4019L229.19 92.8799ZM241.879 127.302L241.089 111.121C240.881 106.86 240.67 103.232 240.457 100.239C240.311 97.2428 240.176 94.4794 240.052 91.9491L232.661 92.3099C232.52 90.7817 232.38 89.2867 232.242 87.825C232.104 86.3634 231.997 84.8668 231.923 83.3353C231.848 81.8038 231.806 80.2706 231.798 78.7359C231.79 77.2011 231.784 75.6996 231.779 74.2315L262.542 72.7295C262.683 74.2578 262.791 75.7877 262.866 77.3192C262.938 78.7841 263.011 80.2823 263.086 81.8138C263.16 83.3453 263.233 84.8435 263.305 86.3085C263.377 87.7734 263.416 89.2732 263.425 90.808L256.133 91.164C256.218 95.6318 256.333 100.031 256.477 104.363C256.689 108.691 256.924 113.519 257.184 118.846L257.56 126.536L265.151 126.166C265.334 128.56 265.483 130.922 265.597 133.253C265.711 135.583 265.826 137.947 265.943 140.344C266.057 142.675 266.172 145.039 266.289 147.436C266.403 149.766 266.484 152.098 266.531 154.432L235.768 155.934C235.587 153.607 235.407 151.28 235.226 148.952C235.043 146.558 234.894 144.196 234.78 141.866C234.663 139.468 234.581 137.103 234.534 134.769C234.487 132.435 234.438 130.068 234.387 127.668L241.879 127.302ZM318.17 101.751L307.558 148.925L298.269 149.378L283.974 104.722C284.438 112.843 284.971 121.027 285.574 129.274C286.243 137.517 286.836 145.565 287.353 153.416L271.572 154.186C271.37 147.321 271.138 140.524 270.877 133.796C270.612 127.001 270.312 120.174 269.977 113.315C269.642 106.457 269.277 99.6665 268.882 92.9444C268.484 86.1557 268.051 79.3354 267.583 72.4834L288.957 71.4398L301.832 117.767L311.431 70.3426L331.607 69.3576C332.07 82.9512 332.635 96.5732 333.301 110.224C333.968 123.874 334.733 137.486 335.595 151.06L319.615 151.841L318.17 101.751ZM378.188 149.281C376.321 149.306 373.854 149.359 370.787 149.442C367.724 149.592 364.427 149.719 360.894 149.825C357.432 149.994 353.936 150.165 350.407 150.337C346.944 150.506 343.881 150.656 341.218 150.786C341.216 149.384 341.158 147.518 341.044 145.188C340.997 142.854 340.901 140.189 340.754 137.192C340.608 134.196 340.45 130.966 340.281 127.504C340.109 123.975 339.932 120.346 339.75 116.617C339.503 111.556 339.222 106.497 338.909 101.44C338.662 96.379 338.432 91.6846 338.221 87.3565C338.006 82.9617 337.788 79.1678 337.565 75.9749C337.409 72.7787 337.299 70.5147 337.234 69.183C339.831 69.0562 342.694 68.9164 345.823 68.7636C348.953 68.6108 352.149 68.4548 355.412 68.2955C358.671 68.0696 361.864 67.8469 364.991 67.6276C368.117 67.4082 371.044 67.1986 373.771 66.9987C373.813 67.8643 373.85 68.6301 373.883 69.2959C373.979 69.892 374.054 70.756 374.109 71.888C374.148 72.687 374.162 73.6542 374.151 74.7894C374.203 75.8548 374.225 76.9884 374.217 78.1902C374.272 79.3222 374.296 80.4891 374.288 81.6909C374.343 82.8229 374.362 83.8899 374.344 84.892L354.268 85.8722L354.833 97.4584L372.313 96.605L373.039 111.487L355.56 112.341L356.106 123.527L376.482 122.533C376.623 124.061 376.766 125.622 376.911 127.217C377.055 128.812 377.177 130.608 377.274 132.606C377.438 134.6 377.587 136.962 377.72 139.693C377.85 142.356 378.006 145.552 378.188 149.281ZM428.27 83.1603L416.783 83.7211C416.939 89.6538 417.134 95.6849 417.366 101.814C417.596 107.877 417.882 114.437 418.227 121.496C418.448 126.024 418.627 129.686 418.763 132.483C418.897 135.213 419.007 137.477 419.095 139.274C419.18 141.006 419.25 142.437 419.305 143.569C419.423 144.631 419.512 145.762 419.57 146.96L402.79 147.78C402.714 144.847 402.633 141.814 402.546 138.681C402.457 135.481 402.323 132.05 402.144 128.388C402.029 124.656 401.867 120.659 401.659 116.397C401.514 112.066 401.315 107.303 401.061 102.11C400.876 98.3141 400.715 95.0181 400.579 92.2214C400.442 89.4247 400.284 86.8627 400.103 84.5354L388.617 85.0962L387.715 66.6182L427.367 64.6823L428.27 83.1603ZM457.303 62.0193C467.224 61.5349 474.721 64.7065 479.794 71.5339C484.866 78.3613 487.73 88.5004 488.387 101.951C489.054 115.601 487.237 126.236 482.936 133.855C478.703 141.47 471.525 145.525 461.404 146.019C456.41 146.263 452.036 145.542 448.283 143.857C444.526 142.104 441.362 139.489 438.789 136.01C436.213 132.465 434.231 128.09 432.842 122.885C431.45 117.613 430.588 111.581 430.256 104.789C429.59 91.1387 431.452 80.7356 435.841 73.5797C440.227 66.3572 447.381 62.5037 457.303 62.0193ZM460.146 120.25C462.277 120.146 464.118 119.589 465.671 118.579C467.287 117.498 468.587 116.1 469.571 114.383C470.552 112.6 471.252 110.53 471.671 108.174C472.086 105.75 472.224 103.107 472.085 100.244C471.945 97.3807 471.55 94.7635 470.9 92.3924C470.247 89.9547 469.344 87.8629 468.191 86.117C467.038 84.3712 465.605 83.0395 463.891 82.122C462.244 81.2012 460.355 80.7928 458.225 80.8968C456.094 81.0009 454.255 81.6246 452.709 82.768C451.227 83.8416 449.963 85.305 448.919 87.1581C447.941 89.008 447.246 91.1778 446.834 93.6675C446.418 96.0907 446.279 98.7006 446.415 101.497C446.555 104.36 446.95 106.978 447.599 109.349C448.246 111.653 449.144 113.645 450.294 115.325C451.507 116.934 452.904 118.201 454.484 119.125C456.128 119.979 458.015 120.354 460.146 120.25ZM502.841 81.3217C502.632 77.0601 503.261 73.5252 504.726 70.7171C506.254 67.8392 508.211 65.541 510.596 63.8226C513.045 62.0344 515.754 60.7675 518.721 60.0219C521.751 59.2065 524.665 58.7305 527.462 58.594C528.261 58.555 529.261 58.5395 530.463 58.5476C531.731 58.5524 533.035 58.5889 534.373 58.657C535.778 58.7219 537.186 58.8534 538.597 59.0515C540.072 59.1798 541.451 59.4128 542.736 59.7505C542.954 61.4753 543.133 63.1018 543.275 64.6301C543.413 66.0917 543.529 67.7881 543.623 69.7191C543.718 71.6501 543.775 73.5162 543.796 75.3173C543.814 77.0518 543.796 78.7214 543.741 80.326C543.205 80.2854 542.501 80.2197 541.629 80.1288C540.823 80.0346 539.952 79.977 539.017 79.9559C538.148 79.9316 537.246 79.9089 536.31 79.8878C535.442 79.8635 534.608 79.8708 533.809 79.9098C530.612 80.0659 528.306 80.6791 526.89 81.7494C525.474 82.8197 524.808 84.2205 524.893 85.9518C524.941 86.9506 525.222 87.9048 525.733 88.8142C526.242 89.6571 526.881 90.4602 527.653 91.2235C528.491 91.9835 529.394 92.707 530.362 93.394C531.397 94.0777 532.43 94.7281 533.461 95.3452C535.114 96.3991 536.774 97.5863 538.44 98.9066C540.17 100.157 541.748 101.715 543.174 103.581C544.597 105.381 545.803 107.524 546.792 110.013C547.778 112.434 548.35 115.276 548.51 118.539C548.718 122.8 548.161 126.432 546.839 129.433C545.517 132.435 543.736 134.924 541.497 136.903C539.321 138.811 536.822 140.268 534.001 141.273C531.243 142.209 528.466 142.745 525.67 142.882C524.405 142.943 522.835 142.92 520.961 142.811C519.156 142.766 517.314 142.622 515.433 142.38C513.556 142.205 511.775 141.958 510.091 141.64C508.403 141.255 507.045 140.787 506.017 140.237C505.692 139.051 505.399 137.831 505.138 136.575C504.943 135.317 504.808 133.922 504.733 132.39C504.681 131.325 504.651 130.025 504.643 128.49C504.701 126.952 504.758 125.381 504.813 123.776C504.868 122.171 504.927 120.633 504.988 119.162C505.117 117.687 505.223 116.447 505.307 115.442C506.059 115.806 507.147 116.22 508.572 116.684C509.993 117.082 511.514 117.475 513.135 117.863C514.822 118.248 516.506 118.566 518.187 118.818C519.868 119.07 521.341 119.165 522.606 119.103C524.737 118.999 526.314 118.488 527.337 117.57C528.357 116.586 528.83 115.328 528.755 113.797C528.674 112.132 528.003 110.696 526.743 109.49C525.479 108.216 523.917 106.991 522.058 105.814C520.198 104.636 518.169 103.4 515.97 102.106C513.834 100.742 511.82 99.1383 509.928 97.2951C508.036 95.4518 506.427 93.261 505.102 90.7226C503.773 88.1176 503.019 84.984 502.841 81.3217ZM596.634 56.4182C596.639 60.623 596.666 64.5931 596.715 68.3285C596.83 72.0606 596.944 75.7595 597.056 79.425C597.165 83.024 597.277 86.6895 597.393 90.4217C597.572 94.084 597.764 98.0126 597.968 102.208C598.209 107.135 598.471 112.495 598.753 118.288C599.103 124.078 599.493 130.701 599.924 138.155L583.343 138.965C583.281 134.963 583.178 130.796 583.033 126.465C582.885 122.067 582.708 117.069 582.502 111.473L567.719 112.195C567.911 116.123 568.118 120.352 568.339 124.879C568.623 129.338 568.93 134.262 569.26 139.652L552.68 140.462C552.603 137.529 552.524 134.529 552.441 131.463C552.358 128.396 552.263 125.097 552.158 121.565C552.052 118.032 551.897 114.169 551.692 109.974C551.487 105.779 551.26 101.117 551.009 95.9902C550.788 91.4622 550.598 87.5669 550.439 84.3041C550.276 80.9747 550.095 77.9466 549.895 75.2198C549.762 72.4897 549.633 69.8595 549.51 67.3292C549.383 64.7323 549.243 61.869 549.09 58.7394L565.97 57.9153C565.974 63.4551 566.024 68.5921 566.122 73.3263C566.216 77.9939 566.347 82.7265 566.515 87.524L581.297 86.8023C581.148 83.7393 581.013 80.9759 580.893 78.5122C580.769 75.9818 580.619 73.5863 580.442 71.3256C580.328 68.995 580.217 66.7311 580.11 64.5337C579.999 62.2697 579.881 59.8393 579.754 57.2424L596.634 56.4182ZM629.266 53.6236C639.188 53.1392 646.684 56.3107 651.757 63.1382C656.829 69.9656 659.694 80.1047 660.35 93.5553C661.017 107.206 659.2 117.84 654.9 125.459C650.666 133.075 643.488 137.129 633.367 137.624C628.373 137.867 623.999 137.146 620.246 135.461C616.49 133.709 613.325 131.093 610.752 127.614C608.176 124.069 606.194 119.694 604.805 114.489C603.413 109.217 602.551 103.185 602.22 96.3934C601.553 82.743 603.415 72.3399 607.804 65.184C612.191 57.9615 619.345 54.108 629.266 53.6236ZM632.109 111.854C634.24 111.75 636.082 111.193 637.634 110.183C639.25 109.103 640.55 107.704 641.534 105.988C642.515 104.204 643.215 102.134 643.634 99.7779C644.05 97.3547 644.187 94.7115 644.048 91.8483C643.908 88.985 643.513 86.3678 642.863 83.9967C642.21 81.559 641.307 79.4672 640.154 77.7213C639.001 75.9755 637.568 74.6438 635.854 73.7263C634.207 72.8055 632.319 72.3971 630.188 72.5011C628.057 72.6052 626.218 73.2289 624.672 74.3723C623.19 75.4459 621.926 76.9093 620.882 78.7624C619.904 80.6122 619.209 82.7821 618.797 85.2718C618.381 87.6949 618.242 90.3049 618.378 93.1015C618.518 95.9648 618.913 98.582 619.563 100.953C620.209 103.258 621.107 105.25 622.257 106.929C623.47 108.538 624.867 109.805 626.447 110.729C628.091 111.583 629.978 111.958 632.109 111.854ZM722.784 50.2593L739.364 49.4498L731.167 131.747L711.491 132.708L700.665 89.3844L694.111 133.557L674.934 134.493L658.36 53.4046L674.941 52.5951L683.959 108.121L692.654 52.4311L705.409 51.2077L719.417 106.39L722.784 50.2593Z" fill="#FFD87E"/>
</g>
<defs>
<clipPath id="clip0">
<rect width="791" height="233" fill="white"/>
</clipPath>
</defs>
</svg>
