<svg width="725" height="214" viewBox="0 0 725 214" fill="none" xmlns="http://www.w3.org/2000/svg">
<path d="M719.759 212.656L52.1871 199.836L1.51074 174.012L22.5641 20.3828L683.803 14.0453L723.575 33.4004L719.759 212.656Z" fill="#FFD87D" stroke="#B43F4D" stroke-width="2" stroke-miterlimit="10"/>
<path d="M684.239 12.8218L4.04395 0.000244141L0.343804 174.368L680.539 187.189L684.239 12.8218Z" fill="#B43F4D"/>
<path d="M17.2316 128.962L33.956 47.504L58.6503 48.0374L71.4189 130.132L54.5229 129.767L52.41 113.318L37.0136 112.985L34.2276 129.329L17.2316 128.962ZM40.1348 95.1485L50.1325 95.3644L45.9114 62.2656L40.1348 95.1485ZM73.7363 130.182C74.0856 123.855 74.3674 117.56 74.5817 111.296C74.7976 104.966 74.9724 98.9684 75.1059 93.3033C75.296 85.2389 75.4101 77.5729 75.448 70.3054C75.5527 63.0393 75.6247 55.7392 75.6643 48.405C78.938 48.1423 82.2102 47.9463 85.4808 47.8169C88.8197 47.6223 92.1887 47.5617 95.5879 47.6351C100.453 47.7402 105.01 48.2054 109.259 49.0307C113.509 49.7893 117.177 51.1689 120.264 53.1693C123.353 55.1031 125.758 57.7557 127.479 61.127C129.266 64.4997 130.098 68.8187 129.974 74.0839C129.82 80.6154 128.333 85.7178 125.512 89.391C122.758 93.0657 119.06 95.7865 114.417 97.5533L129.923 131.396L112.127 131.012L99.5493 100.233C96.8119 100.374 93.9769 100.413 91.0442 100.349C90.9233 105.481 90.838 110.514 90.7883 115.447C90.7387 120.381 90.82 125.417 91.0323 130.556L73.7363 130.182ZM91.4025 85.1534C93.464 85.398 95.3612 85.539 97.0941 85.5764C101.626 85.6743 104.845 84.9103 106.751 83.2844C108.725 81.5933 109.751 79.0483 109.832 75.6492C109.88 73.5831 109.62 71.9104 109.05 70.6312C108.546 69.3533 107.803 68.337 106.821 67.5823C105.905 66.829 104.784 66.3047 103.457 66.0093C102.197 65.7154 100.834 65.5525 99.3674 65.5209C98.301 65.4978 97.0997 65.5386 95.7635 65.6431C94.4956 65.6824 93.1927 65.7876 91.855 65.9587L91.4025 85.1534ZM169.694 132.555C167.829 132.448 165.364 132.328 162.3 132.195C159.234 132.129 155.936 132.025 152.405 131.882C148.939 131.807 145.44 131.731 141.907 131.655C138.441 131.58 135.375 131.514 132.709 131.456C132.809 130.058 132.886 128.193 132.941 125.86C133.063 123.529 133.159 120.863 133.23 117.864C133.3 114.865 133.377 111.633 133.458 108.167C133.542 104.635 133.627 101.002 133.715 97.27C133.835 92.2048 133.921 87.1388 133.974 82.0721C134.093 77.0068 134.204 72.3081 134.306 67.976C134.41 63.5772 134.466 59.7776 134.475 56.577C134.55 53.3779 134.603 51.1119 134.635 49.7789C137.234 49.8351 140.1 49.897 143.233 49.9646C146.365 50.0323 149.565 50.1014 152.831 50.172C156.098 50.1759 159.299 50.1783 162.433 50.1794C165.567 50.1804 168.501 50.1771 171.236 50.1695C171.215 51.0359 171.197 51.8024 171.182 52.4688C171.234 53.0701 171.247 53.9373 171.22 55.0703C171.201 55.8701 171.145 56.8357 171.052 57.9673C171.027 59.0337 170.967 60.166 170.872 61.3642C170.845 62.4972 170.784 63.6628 170.689 64.8611C170.663 65.9941 170.604 67.0597 170.514 68.058L150.419 67.6239L150.145 79.2207L167.641 79.5987L167.29 94.4945L149.794 94.1166L149.53 105.313L169.925 105.754C169.956 107.288 169.986 108.856 170.015 110.457C170.043 112.058 170.034 113.858 169.987 115.858C170.007 117.859 169.984 120.225 169.92 122.958C169.857 125.624 169.782 128.823 169.694 132.555ZM220.896 51.5423L237.392 51.8987L216.676 103.263L216.57 107.762C216.463 112.294 216.377 115.96 216.311 118.759C216.246 121.491 216.193 123.757 216.15 125.557C216.109 127.29 216.076 128.723 216.049 129.856C216.09 130.924 216.097 132.057 216.069 133.257L198.773 132.883C199.008 128.554 199.215 124.024 199.393 119.294C199.571 114.563 199.767 109.099 199.98 102.902L181.805 50.6979L198.401 51.0564L208.795 85.3888L220.896 51.5423ZM261.943 51.2287C271.874 51.4433 279.122 55.134 283.688 62.3009C288.254 69.4679 290.378 79.7828 290.06 93.2457C289.738 106.909 287.157 117.389 282.317 124.686C277.544 131.984 270.092 135.524 259.961 135.305C254.962 135.197 250.652 134.171 247.03 132.225C243.409 130.213 240.442 127.382 238.127 123.731C235.814 120.014 234.153 115.51 233.145 110.22C232.137 104.864 231.714 98.7869 231.874 91.9888C232.196 78.3259 234.805 68.0799 239.7 61.2507C244.598 54.3549 252.012 51.0142 261.943 51.2287ZM260.569 109.513C262.702 109.559 264.579 109.132 266.2 108.234C267.89 107.27 269.288 105.967 270.394 104.324C271.501 102.614 272.349 100.598 272.937 98.2771C273.527 95.8893 273.855 93.2624 273.923 90.3965C273.991 87.5307 273.786 84.8923 273.309 82.4815C272.834 80.004 272.085 77.8539 271.061 76.0314C270.037 74.2089 268.703 72.7797 267.061 71.744C265.485 70.7097 263.63 70.1696 261.497 70.1235C259.365 70.0774 257.486 70.5703 255.861 71.6021C254.304 72.5687 252.938 73.9395 251.763 75.7146C250.654 77.491 249.804 79.6065 249.213 82.0609C248.623 84.4488 248.295 87.0423 248.229 89.8415C248.161 92.7074 248.366 95.3457 248.843 97.7566C249.321 100.101 250.073 102.151 251.098 103.907C252.192 105.597 253.494 106.959 255.003 107.992C256.581 108.96 258.436 109.466 260.569 109.513ZM348.936 54.2083C348.84 63.9418 348.842 72.3771 348.94 79.5142C349.04 86.5847 349.031 92.6192 348.913 97.6178C348.836 100.884 348.659 104.147 348.382 107.409C348.107 110.603 347.602 113.66 346.866 116.578C346.13 119.496 345.099 122.208 343.773 124.713C342.515 127.153 340.831 129.284 338.721 131.105C336.678 132.928 334.144 134.341 331.119 135.342C328.096 136.277 324.519 136.7 320.386 136.611C316.121 136.519 312.468 135.906 309.427 134.774C306.454 133.576 303.957 132.021 301.935 130.111C299.912 128.2 298.298 125.965 297.091 123.405C295.953 120.779 295.085 117.993 294.488 115.046C293.89 112.099 293.528 109.058 293.402 105.921C293.276 102.784 293.25 99.6494 293.324 96.517C293.382 94.051 293.477 91.4191 293.61 88.6213C293.743 85.8235 293.917 82.6932 294.132 79.2304C294.347 75.7676 294.571 71.9049 294.805 67.6423C295.105 63.3811 295.419 58.5534 295.747 53.1593L313.342 53.5394C313.001 59.5334 312.714 64.6284 312.482 68.8243C312.251 72.9536 312.036 76.4164 311.837 79.2128C311.704 82.0106 311.585 84.2418 311.479 85.9066C311.441 87.5062 311.379 88.7384 311.292 89.6034C311.271 90.4698 311.256 91.103 311.247 91.5029C311.239 91.8361 311.233 92.1027 311.228 92.3027C311.076 98.7675 311.694 103.649 313.084 106.946C314.473 110.244 317.067 111.933 320.866 112.015C324.732 112.099 327.373 110.389 328.789 106.885C330.272 103.383 331.099 98.0331 331.268 90.8351C331.276 90.5019 331.285 90.1353 331.294 89.7355C331.305 89.2689 331.288 88.5684 331.244 87.6339C331.266 86.7008 331.262 85.4671 331.231 83.9327C331.269 82.3332 331.252 80.2323 331.18 77.6302C331.176 74.9628 331.152 71.7282 331.108 67.9264C331.066 64.0579 331.009 59.3889 330.938 53.9195L348.936 54.2083ZM365.172 136.478C365.521 130.151 365.803 123.855 366.018 117.592C366.234 111.262 366.408 105.264 366.542 99.599C366.732 91.5346 366.846 83.8686 366.884 76.6011C366.989 69.335 367.061 62.0348 367.1 54.7007C370.374 54.438 373.646 54.2419 376.917 54.1125C380.256 53.9179 383.625 53.8573 387.024 53.9308C391.889 54.0359 396.446 54.5011 400.695 55.3263C404.945 56.085 408.613 57.4645 411.7 59.465C414.789 61.3988 417.194 64.0514 418.915 67.4227C420.702 70.7954 421.534 75.1143 421.41 80.3795C421.256 86.9111 419.769 92.0134 416.948 95.6867C414.194 99.3614 410.495 102.082 405.852 103.849L421.359 137.692L403.563 137.307L390.985 106.528C388.248 106.669 385.413 106.708 382.48 106.645C382.359 111.777 382.274 116.809 382.224 121.743C382.175 126.676 382.256 131.712 382.468 136.852L365.172 136.478ZM382.838 91.4491C384.9 91.6936 386.797 91.8346 388.53 91.8721C393.062 91.97 396.281 91.206 398.187 89.5801C400.16 87.889 401.187 85.3439 401.267 81.9449C401.316 79.8788 401.056 78.2061 400.486 76.9268C399.982 75.649 399.239 74.6327 398.257 73.878C397.341 73.1247 396.22 72.6004 394.893 72.305C393.633 72.011 392.27 71.8482 390.803 71.8165C389.737 71.7935 388.536 71.8342 387.199 71.9387C385.931 71.978 384.629 72.0832 383.291 72.2544L382.838 91.4491ZM461.13 138.851C459.265 138.744 456.8 138.624 453.736 138.491C450.67 138.425 447.372 138.32 443.841 138.177C440.375 138.102 436.876 138.027 433.343 137.951C429.877 137.876 426.811 137.809 424.145 137.752C424.245 136.354 424.322 134.488 424.377 132.156C424.499 129.824 424.595 127.159 424.666 124.16C424.736 121.161 424.813 117.928 424.894 114.463C424.978 110.93 425.063 107.298 425.151 103.566C425.271 98.5004 425.357 93.4345 425.409 88.3678C425.529 83.3025 425.64 78.6038 425.742 74.2717C425.845 69.8729 425.902 66.0732 425.911 62.8727C425.986 59.6736 426.039 57.4075 426.071 56.0746C428.67 56.1307 431.536 56.1926 434.669 56.2603C437.801 56.328 441.001 56.3971 444.267 56.4676C447.534 56.4716 450.735 56.474 453.869 56.475C457.003 56.4761 459.937 56.4728 462.672 56.4651C462.651 57.3316 462.633 58.098 462.617 58.7645C462.67 59.3658 462.683 60.2329 462.656 61.3659C462.637 62.1657 462.581 63.1314 462.488 64.263C462.463 65.3293 462.403 66.4616 462.308 67.6599C462.281 68.7929 462.22 69.9585 462.125 71.1567C462.099 72.2898 462.04 73.3554 461.95 74.3537L441.855 73.9196L441.581 85.5164L459.077 85.8943L458.726 100.79L441.23 100.412L440.966 111.609L461.361 112.05C461.392 113.584 461.421 115.152 461.45 116.753C461.479 118.354 461.47 120.154 461.423 122.153C461.443 124.154 461.42 126.521 461.356 129.254C461.293 131.919 461.217 135.119 461.13 138.851ZM462.44 138.579L479.165 57.1215L503.859 57.655L516.628 139.75L499.731 139.385L497.619 122.935L482.222 122.603L479.436 138.946L462.44 138.579ZM485.343 104.766L495.341 104.982L491.12 71.8831L485.343 104.766ZM520.566 58.3159C524.378 57.8648 528.019 57.5767 531.489 57.4516C534.961 57.2599 537.931 57.1907 540.397 57.244C546.262 57.3707 551.642 58.2871 556.536 59.9932C561.431 61.6993 565.696 64.6587 569.331 68.8716C572.639 72.8106 575.061 77.564 576.596 83.1318C578.134 88.6329 578.828 94.5493 578.679 100.881C578.533 107.079 577.6 112.694 575.881 117.724C574.162 122.755 571.594 127.034 568.176 130.561C564.826 134.089 560.627 136.799 555.581 138.691C550.535 140.582 544.613 141.455 537.815 141.308C536.282 141.275 533.784 141.154 530.321 140.946C526.925 140.739 523.166 140.358 519.045 139.802C519.184 136.738 519.287 133.772 519.355 130.907C519.49 127.975 519.591 125.11 519.657 122.311C519.792 119.447 519.892 116.582 519.96 113.716C520.028 110.85 520.097 107.884 520.17 104.818C520.376 96.0872 520.506 87.7214 520.561 79.7208C520.683 71.7216 520.685 64.5866 520.566 58.3159ZM539.605 73.8307C538.939 73.8163 538.305 73.836 537.704 73.8897C537.169 73.9448 536.634 73.9999 536.099 74.055C535.959 77.1861 535.852 80.3178 535.778 83.4503C535.705 86.5161 535.632 89.6152 535.559 92.7477C535.522 94.2806 535.484 95.9135 535.443 97.6463C535.469 99.3806 535.46 101.181 535.416 103.047C535.44 104.848 535.463 106.682 535.486 108.55C535.51 110.351 535.504 112.051 535.466 113.651C536.063 113.797 536.66 113.91 537.258 113.989C537.858 114.002 538.391 114.014 538.858 114.024C541.324 114.077 543.603 113.593 545.694 112.571C547.852 111.551 549.719 110.158 551.294 108.391C552.938 106.56 554.222 104.42 555.146 101.973C556.071 99.5256 556.566 96.9024 556.632 94.1031C556.681 92.0371 556.433 89.8312 555.888 87.4855C555.411 85.0747 554.496 82.8877 553.142 80.9247C551.855 78.9631 550.093 77.3247 547.856 76.0094C545.688 74.6289 542.938 73.9027 539.605 73.8307ZM613.383 60.0209L629.879 60.3773L609.162 111.742L609.056 116.24C608.949 120.773 608.863 124.438 608.797 127.237C608.733 129.97 608.679 132.236 608.637 134.036C608.596 135.768 608.562 137.201 608.535 138.334C608.577 139.402 608.584 140.536 608.555 141.736L591.259 141.362C591.495 137.033 591.702 132.503 591.88 127.772C592.058 123.042 592.254 117.578 592.466 111.381L574.292 59.1765L590.888 59.535L601.281 93.8674L613.383 60.0209ZM638.964 112.486C639.022 110.02 639.405 107.927 640.112 106.209C640.821 104.424 641.659 102.842 642.625 101.462C643.658 100.084 644.721 98.84 645.814 97.7301C646.973 96.6215 648.033 95.5108 648.993 94.398C650.02 93.2865 650.848 92.0708 651.48 90.7508C652.178 89.4322 652.548 87.8732 652.59 86.0737C652.634 84.2076 652.336 82.7341 651.694 81.6533C651.054 80.5059 650.242 79.6215 649.256 79.0001C648.27 78.3786 647.246 77.9898 646.183 77.8334C645.121 77.6104 644.19 77.4903 643.39 77.473C640.391 77.4082 637.84 78.12 635.738 79.6083C633.704 81.0313 632.031 82.6956 630.719 84.601C630.62 83.1319 630.558 81.5302 630.532 79.7959C630.575 77.9964 630.619 76.1302 630.664 74.1974C630.707 72.3979 630.745 70.765 630.78 69.2988C630.881 67.834 631.019 66.2366 631.193 64.5066C633.106 62.5475 635.709 61.0367 639.002 59.9742C642.361 58.9132 646.073 58.4266 650.139 58.5144C652.472 58.5648 654.998 58.8861 657.718 59.4783C660.44 60.0039 662.949 61.0583 665.246 62.6416C667.544 64.1583 669.428 66.2994 670.896 69.0651C672.433 71.7656 673.149 75.3152 673.046 79.714C672.969 82.9798 672.47 85.7363 671.55 87.9836C670.631 90.231 669.484 92.2067 668.11 93.9107C666.804 95.5496 665.369 97.0189 663.805 98.3188C662.24 99.6186 660.775 100.954 659.409 102.325C658.043 103.696 656.874 105.204 655.902 106.85C654.996 108.498 654.482 110.487 654.36 112.818L638.964 112.486ZM647.138 122.164C648.804 122.2 650.263 122.565 651.514 123.259C652.831 123.954 653.91 124.845 654.752 125.93C655.661 126.949 656.334 128.098 656.771 129.374C657.209 130.584 657.415 131.755 657.388 132.888C657.354 134.354 657.021 135.748 656.389 137.068C655.825 138.389 655.031 139.539 654.007 140.517C653.051 141.496 651.899 142.272 650.552 142.843C649.271 143.415 647.931 143.686 646.531 143.656C644.732 143.617 643.173 143.284 641.854 142.655C640.533 142.093 639.451 141.336 638.606 140.384C637.763 139.366 637.123 138.252 636.685 137.042C636.313 135.834 636.142 134.596 636.172 133.33C636.203 131.997 636.468 130.669 636.966 129.346C637.466 127.957 638.161 126.738 639.053 125.691C640.013 124.578 641.167 123.702 642.516 123.065C643.864 122.427 645.405 122.127 647.138 122.164Z" fill="#FFD87E"/>
</svg>
