<svg width="191" height="279" viewBox="0 0 191 279" fill="none" xmlns="http://www.w3.org/2000/svg">
<path d="M380.543 90.6706C380.543 104.65 380.543 263.066 380.543 277.045C380.543 277.24 380.543 277.457 380.543 277.826C379.913 277.566 379.371 277.37 378.871 277.132C316.645 248.045 254.419 218.958 192.193 189.871C191.75 189.629 191.254 189.503 190.75 189.503C190.245 189.503 189.749 189.629 189.306 189.871C127.08 219.015 64.7962 248.146 2.45435 277.262C1.9551 277.479 1.47755 277.74 1 278V89.5419C1.45584 89.3682 1.93339 89.2163 2.38923 89.0209L189.089 1.73803C189.502 1.51767 189.901 1.27116 190.283 1H191.195C191.607 1.23877 191.976 1.52096 192.41 1.73803L380.543 90.6706Z" fill="#FFD87E" stroke="#B33F4C" stroke-miterlimit="10"/>
</svg>
