<svg width="796" height="236" viewBox="0 0 796 236" fill="none" xmlns="http://www.w3.org/2000/svg">
<g clip-path="url(#clip0)">
<path d="M784.374 235.108L25.582 190.127L36.4355 19.9511L772.764 45.244L795.228 64.947L784.374 235.108Z" fill="#B43F4D" stroke="#B53F4E" stroke-miterlimit="10"/>
<path d="M771.259 46.1804L12.4541 1.53998L1.50903 171.71L760.314 216.351L771.259 46.1804Z" fill="#FFD87D" stroke="#B43F4D" stroke-width="2" stroke-miterlimit="10"/>
<path d="M61.4217 70.7036C61.8134 66.4549 62.933 63.0215 64.7806 60.4032C66.7009 57.7228 68.9652 55.6657 71.5736 54.2321C74.2546 52.7363 77.1195 51.7867 80.1683 51.3833C83.2898 50.9178 86.2476 50.7756 89.0417 50.9567C89.84 51.0084 90.8349 51.1063 92.0263 51.2503C93.2841 51.3986 94.5722 51.5823 95.8905 51.8013C97.2754 52.0246 98.6541 52.3143 100.027 52.6704C101.472 52.9644 102.808 53.3516 104.035 53.8318C104.009 55.5665 103.959 57.1994 103.885 58.7305C103.817 60.1953 103.694 61.8903 103.517 63.8155C103.339 65.7406 103.134 67.5973 102.903 69.3853C102.677 71.107 102.424 72.7602 102.144 74.3448C101.618 74.2439 100.929 74.0991 100.076 73.9103C99.2901 73.7257 98.4344 73.5701 97.5092 73.4434C96.6504 73.3209 95.7584 73.1963 94.8332 73.0696C93.9745 72.9471 93.1459 72.86 92.3476 72.8083C89.1543 72.6013 86.7799 72.9483 85.2245 73.8492C83.6691 74.7501 82.8119 76.0635 82.6527 77.7896C82.5609 78.7853 82.705 79.763 83.085 80.7226C83.4712 81.6158 83.9934 82.4844 84.6518 83.3285C85.3766 84.1768 86.1711 84.9963 87.0352 85.7869C87.9657 86.5818 88.8994 87.3436 89.8361 88.0721C91.3287 89.3041 92.809 90.6689 94.2772 92.1665C95.8179 93.602 97.1648 95.3255 98.3179 97.3369C99.4771 99.2819 100.373 101.544 101.005 104.122C101.643 106.635 101.813 109.517 101.513 112.77C101.121 117.019 100.059 120.556 98.3259 123.382C96.593 126.208 94.4766 128.475 91.9768 130.183C89.5496 131.829 86.8659 132.991 83.9257 133.668C81.0581 134.284 78.2273 134.501 75.4331 134.32C74.1691 134.238 72.6149 134.037 70.7705 133.717C68.9865 133.468 67.1785 133.117 65.3463 132.664C63.508 132.278 61.7757 131.832 60.1492 131.326C58.5289 130.753 57.2473 130.136 56.3045 129.474C56.1485 128.262 56.0289 127.018 55.9456 125.744C55.9289 124.474 55.9909 123.076 56.1316 121.549C56.2296 120.487 56.3822 119.194 56.5895 117.672C56.8633 116.154 57.1402 114.602 57.4201 113.018C57.7001 111.433 57.9739 109.915 58.2416 108.463C58.5758 107.015 58.8554 105.798 59.0802 104.811C59.7753 105.257 60.7969 105.79 62.145 106.412C63.4992 106.967 64.9532 107.529 66.507 108.097C68.1274 108.67 69.7538 109.176 71.3864 109.615C73.019 110.055 74.4673 110.316 75.7313 110.398C77.8602 110.536 79.4966 110.208 80.6406 109.414C81.7907 108.554 82.4362 107.36 82.5769 105.833C82.7299 104.173 82.2658 102.674 81.1846 101.335C80.1096 99.9299 78.7321 98.5383 77.0521 97.1606C75.3722 95.7828 73.532 94.3279 71.5317 92.7958C69.604 91.2017 67.8308 89.3838 66.2121 87.3422C64.5933 85.3006 63.3045 82.9465 62.3458 80.2799C61.3931 77.5469 61.0851 74.3548 61.4217 70.7036ZM157.983 56.6273C157.398 60.7966 156.867 64.7358 156.391 68.4447C155.982 72.158 155.576 75.838 155.173 79.4849C154.776 83.0654 154.372 86.7123 153.963 90.4255C153.627 94.0767 153.265 97.9934 152.88 102.176C152.427 107.088 151.934 112.432 151.402 118.208C150.936 123.988 150.393 130.597 149.774 138.037L133.209 136.963C133.709 132.988 134.192 128.846 134.656 124.535C135.127 120.158 135.652 115.183 136.233 109.611L121.464 108.654C121.103 112.571 120.714 116.786 120.298 121.3C119.954 125.753 119.568 130.669 119.139 136.051L102.573 134.977C102.909 132.061 103.251 129.078 103.599 126.028C103.947 122.979 104.317 119.697 104.708 116.183C105.099 112.669 105.487 108.821 105.873 104.638C106.258 100.456 106.687 95.8091 107.158 90.6974C107.574 86.1832 107.932 82.2997 108.232 79.0468C108.538 75.7276 108.783 72.7049 108.968 69.9788C109.219 67.257 109.46 64.6348 109.693 62.1122C109.932 59.5231 110.195 56.6686 110.482 53.5485L127.347 54.6416C126.573 60.1343 125.902 65.233 125.334 69.9378C124.773 74.5761 124.239 79.283 123.731 84.0584L138.5 85.0157C138.782 81.962 139.036 79.207 139.262 76.7507C139.495 74.2281 139.682 71.8361 139.824 69.5747C140.038 67.2512 140.246 64.9941 140.448 62.8034C140.656 60.5463 140.879 58.1232 141.118 55.5342L157.983 56.6273ZM190.754 57.5494C200.667 58.1919 207.66 62.1846 211.735 69.5276C215.81 76.8706 217.229 87.247 215.992 100.657C214.738 114.266 211.442 124.604 206.106 131.671C200.836 138.742 193.145 141.95 183.033 141.294C178.044 140.971 173.805 139.761 170.317 137.665C166.836 135.503 164.063 132.552 161.998 128.812C159.94 125.005 158.587 120.443 157.94 115.125C157.298 109.741 157.29 103.664 157.914 96.8923C159.169 83.2834 162.476 73.1799 167.836 66.5821C173.202 59.9178 180.842 56.9069 190.754 57.5494ZM185.402 115.603C187.531 115.741 189.436 115.397 191.119 114.571C192.874 113.683 194.36 112.444 195.577 110.853C196.801 109.196 197.786 107.223 198.532 104.934C199.285 102.579 199.793 99.9741 200.056 97.1195C200.319 94.2649 200.295 91.6255 199.983 89.2011C199.677 86.7104 199.074 84.5343 198.175 82.6729C197.276 80.8115 196.041 79.329 194.469 78.2254C192.965 77.1262 191.148 76.5076 189.019 76.3696C186.89 76.2316 184.978 76.6419 183.284 77.6006C181.662 78.4972 180.203 79.805 178.907 81.5241C177.677 83.2475 176.683 85.3201 175.924 87.7419C175.171 90.0972 174.667 92.669 174.41 95.4572C174.146 98.3117 174.171 100.951 174.483 103.376C174.801 105.734 175.412 107.81 176.318 109.605C177.296 111.338 178.504 112.752 179.942 113.847C181.453 114.88 183.273 115.465 185.402 115.603ZM284.018 64.7966L300.584 65.8703L280.899 146.536L261.241 145.262L256.58 101.084L243.877 144.136L224.717 142.894L219.653 60.6246L236.219 61.6983L237.373 117.77L253.817 63.5402L266.646 63.7707L272.799 120.066L284.018 64.7966ZM361.893 101.599L344.742 147.168L335.461 146.566L327.546 100.675C326.865 108.778 326.246 116.952 325.686 125.197C325.194 133.446 324.653 141.491 324.063 149.333L308.296 148.312C309.06 141.482 309.784 134.718 310.469 128.017C311.16 121.25 311.82 114.448 312.451 107.61C313.081 100.772 313.672 93.999 314.224 87.2898C314.781 80.5142 315.309 73.7033 315.806 66.857L337.161 68.2412L343.434 115.629L359.614 69.6965L379.772 71.0031C378.324 84.5327 376.972 98.102 375.718 111.711C374.463 125.32 373.311 138.902 372.262 152.458L356.296 151.423L361.893 101.599ZM420.715 73.6569L437.18 74.7241L412.966 125.044L412.553 129.525C412.136 134.039 411.8 137.69 411.543 140.479C411.292 143.2 411.084 145.457 410.918 147.25C410.759 148.976 410.628 150.403 410.524 151.532C410.492 152.598 410.421 153.729 410.311 154.924L393.048 153.805C393.578 149.498 394.094 144.991 394.595 140.282C395.097 135.573 395.665 130.133 396.301 123.964L381.697 71.1278L398.262 72.2015L406.308 106.882L420.715 73.6569ZM509.814 79.432L526.379 80.5057L506.695 161.171L487.036 159.897L482.376 115.719L469.673 158.771L450.513 157.53L445.449 75.2601L462.014 76.3338L463.169 132.405L479.613 78.1757L492.441 78.4061L498.595 134.701L509.814 79.432ZM555.711 81.2048C565.623 81.8473 572.617 85.8401 576.692 93.1831C580.766 100.526 582.185 110.902 580.949 124.312C579.694 137.921 576.399 148.259 571.063 155.326C565.793 162.397 558.102 165.605 547.99 164.95C543 164.626 538.762 163.417 535.274 161.321C531.793 159.158 529.02 156.207 526.955 152.467C524.897 148.661 523.544 144.099 522.897 138.781C522.255 133.397 522.247 127.319 522.871 120.548C524.126 106.939 527.433 96.8354 532.793 90.2375C538.159 83.5732 545.798 80.5623 555.711 81.2048ZM550.359 139.259C552.487 139.397 554.393 139.053 556.075 138.227C557.83 137.339 559.317 136.099 560.534 134.509C561.758 132.852 562.743 130.879 563.489 128.59C564.242 126.234 564.749 123.63 565.013 120.775C565.276 117.92 565.251 115.281 564.94 112.857C564.634 110.366 564.031 108.19 563.132 106.328C562.233 104.467 560.998 102.984 559.426 101.881C557.921 100.782 556.105 100.163 553.976 100.025C551.847 99.887 549.935 100.297 548.241 101.256C546.619 102.153 545.16 103.46 543.863 105.18C542.634 106.903 541.64 108.976 540.881 111.397C540.128 113.753 539.623 116.324 539.366 119.113C539.103 121.967 539.128 124.607 539.439 127.031C539.757 129.389 540.369 131.465 541.274 133.26C542.252 134.993 543.46 136.407 544.899 137.502C546.41 138.535 548.23 139.121 550.359 139.259ZM581.161 165.998C581.942 159.704 582.654 153.439 583.296 147.204C583.944 140.901 584.528 134.929 585.048 129.286C585.789 121.253 586.426 113.615 586.96 106.37C587.561 99.1299 588.131 91.8543 588.671 84.5433C591.962 84.4227 595.246 84.3684 598.524 84.3806C601.875 84.3306 605.247 84.4156 608.64 84.6355C613.496 84.9503 618.02 85.6108 622.21 86.617C626.407 87.5568 629.979 89.0907 632.929 91.2185C635.884 93.28 638.107 96.0285 639.597 99.4642C641.154 102.904 641.69 107.246 641.207 112.491C640.607 118.997 638.772 124.02 635.702 127.561C632.698 131.106 628.815 133.659 624.053 135.22L637.244 169.633L619.481 168.482L609.009 137.25C606.263 137.273 603.426 137.189 600.499 136.999C600.028 142.111 599.599 147.125 599.213 152.042C598.826 156.959 598.564 161.984 598.425 167.117L581.161 165.998ZM601.895 121.863C603.939 122.196 605.825 122.419 607.555 122.531C612.079 122.824 615.349 122.201 617.365 120.662C619.453 119.061 620.653 116.568 620.965 113.182C621.155 111.124 621.009 109.445 620.526 108.145C620.11 106.849 619.437 105.804 618.507 105.009C617.643 104.218 616.557 103.647 615.251 103.296C614.012 102.948 612.66 102.727 611.197 102.632C610.132 102.563 608.929 102.552 607.586 102.598C606.316 102.583 605.006 102.631 603.657 102.744L601.895 121.863ZM664.698 89.4712C663.66 98.553 662.802 106.044 662.125 111.943C661.513 117.847 660.988 122.822 660.548 126.867C660.114 130.846 659.772 134.196 659.521 136.918C659.27 139.64 659.016 142.395 658.759 145.183L674.481 145.601C674.412 147.8 674.313 149.964 674.184 152.093C674.054 154.222 673.892 156.348 673.696 158.472C673.494 160.663 673.256 162.885 672.981 165.138C672.713 167.324 672.405 169.575 672.057 171.889L639.825 169.8C640.881 160.519 641.893 151.002 642.859 141.247C643.892 131.497 644.837 121.975 645.693 112.681C646.091 108.366 646.477 104.184 646.85 100.135C647.224 96.0852 647.551 92.1663 647.834 88.378L664.698 89.4712ZM683.652 91.0002C687.493 90.7149 691.152 90.5848 694.63 90.6099C698.114 90.5686 701.087 90.6277 703.548 90.7872C709.403 91.1667 714.718 92.3126 719.494 94.2249C724.27 96.1373 728.331 99.2721 731.677 103.629C734.715 107.7 736.812 112.544 737.967 118.161C739.128 123.713 739.418 129.642 738.837 135.948C738.267 142.122 736.952 147.68 734.89 152.622C732.828 157.564 729.969 161.719 726.312 165.088C722.722 168.462 718.34 170.983 713.167 172.651C707.994 174.319 702.014 174.933 695.229 174.493C693.699 174.394 691.21 174.166 687.763 173.809C684.382 173.456 680.651 172.914 676.569 172.182C676.917 169.132 677.223 166.181 677.486 163.326C677.822 160.409 678.118 157.557 678.375 154.769C678.705 151.918 679.001 149.066 679.265 146.212C679.528 143.357 679.8 140.403 680.082 137.349C680.883 128.653 681.585 120.317 682.186 112.342C682.854 104.372 683.343 97.2577 683.652 91.0002ZM701.625 107.291C700.96 107.248 700.325 107.24 699.72 107.268C699.182 107.3 698.643 107.332 698.105 107.364C697.751 110.479 697.43 113.597 697.142 116.717C696.861 119.771 696.576 122.858 696.288 125.978C696.148 127.505 695.998 129.131 695.839 130.857C695.746 132.588 695.614 134.382 695.443 136.241C695.344 138.038 695.242 139.868 695.137 141.731C695.038 143.528 694.916 145.223 694.769 146.816C695.355 146.987 695.945 147.126 696.537 147.231C697.136 147.27 697.668 147.304 698.134 147.334C700.596 147.494 702.907 147.109 705.067 146.181C707.294 145.257 709.255 143.948 710.95 142.255C712.718 140.5 714.148 138.422 715.239 136.022C716.33 133.621 717.005 131.027 717.262 128.239C717.451 126.181 717.354 123.971 716.969 121.609C716.657 119.184 715.892 116.964 714.672 114.949C713.519 112.937 711.87 111.228 709.724 109.82C707.651 108.35 704.952 107.507 701.625 107.291Z" fill="#B33F4C"/>
</g>
<defs>
<clipPath id="clip0">
<rect width="796" height="235.896" fill="white"/>
</clipPath>
</defs>
</svg>
