<svg width="523" height="382" viewBox="0 0 523 382" fill="none" xmlns="http://www.w3.org/2000/svg">
<g clip-path="url(#clip0)">
<path d="M522 123.71C521.94 142.92 522 360.59 522 379.8C522 380.09 522 380.38 521.92 380.9C521.06 380.53 520.32 380.25 519.62 379.9C434.147 339.967 348.684 300 263.23 260C262.619 259.658 261.93 259.479 261.23 259.479C260.53 259.479 259.841 259.658 259.23 260C173.67 300.067 88.0902 340.1 2.49023 380.1C1.81023 380.41 1.16023 380.77 0.490234 381.1V122.17C1.12023 121.93 1.78023 121.73 2.39023 121.44C87.9169 81.4733 173.454 41.4967 259 1.51001C259.559 1.21343 260.097 0.879328 260.61 0.51001H261.88C262.409 0.877481 262.96 1.21147 263.53 1.51001L522 123.71Z" fill="#FFD87E" stroke="#B33F4C" stroke-miterlimit="10"/>
</g>
<defs>
<clipPath id="clip0">
<rect width="522.53" height="381.93" fill="white"/>
</clipPath>
</defs>
</svg>
