<svg width="710" height="231" viewBox="0 0 710 231" fill="none" xmlns="http://www.w3.org/2000/svg">
<path d="M698.873 229.818L26.4902 185.049L36.1078 15.6758L688.584 40.8493L708.49 60.4593L698.873 229.818Z" fill="#B43F4D" stroke="#B53F4E" stroke-miterlimit="10"/>
<path d="M687.312 40.6248L12.7637 1.09961L2.00028 167.777L676.548 207.302L687.312 40.6248Z" fill="#FFD87D" stroke="#B43F4D" stroke-width="2" stroke-miterlimit="10"/>
<path d="M167.314 34.7745L157.478 141.041L133.27 139.479L139.911 67.737L123.6 138.854L106.432 137.746L102.724 66.987L96.2355 137.088L72.0281 135.525L81.8648 29.258L117.715 31.5725C118.177 38.0291 118.598 45.6277 118.98 54.3683L120.292 81.6572L131.201 32.4431L167.314 34.7745ZM235.416 39.171L208.945 105.671L205.385 144.134L179.73 142.478L183.29 104.014L170.096 34.9541L195.553 36.5975C197.628 57.5528 198.574 71.6342 198.392 78.8417C200.976 67.6074 204.832 53.836 209.959 37.5276L235.416 39.171ZM364.186 47.4842L342.049 152.957L307.448 150.723C305.801 134.198 304.734 115.464 304.246 94.5234C302.327 103.336 298.044 121.723 291.397 149.687L256.994 147.466L254.464 40.4007L281.368 42.1376L280.764 79.4054L280.347 115.365C283.069 96.92 287.861 72.7983 294.722 42.9997L323.534 44.8598C323.641 47.9921 323.568 59.7407 323.315 80.1055L322.605 120.668C326.517 95.0808 331.41 70.1073 337.282 45.7473L364.186 47.4842ZM425.213 114.02C424.224 124.697 423.261 132.25 422.321 136.68C421.43 141.068 419.476 145.014 416.461 148.517C413.489 152.023 409.654 154.614 404.955 156.292C400.256 157.969 394.902 158.614 388.894 158.226C383.193 157.858 378.147 156.608 373.756 154.476C369.414 152.303 366.033 149.267 363.614 145.369C361.196 141.471 359.926 137.318 359.805 132.908C359.684 128.498 360.129 120.823 361.142 109.884L362.825 91.7022C363.813 81.0252 364.753 73.4925 365.645 69.104C366.584 64.6747 368.54 60.7071 371.511 57.2013C374.526 53.6983 378.384 51.108 383.083 49.4305C387.782 47.753 393.136 47.1082 399.144 47.496C404.845 47.8641 409.867 49.1347 414.21 51.3079C418.6 53.4402 422.005 56.4553 424.423 60.3531C426.842 64.2509 428.112 68.4047 428.233 72.8145C428.354 77.2243 427.908 84.899 426.896 95.8385L425.213 114.02ZM400.751 77.3131C401.209 72.3684 401.216 69.1995 400.771 67.8061C400.374 66.3719 399.321 65.5996 397.611 65.4892C396.163 65.3957 394.992 65.8924 394.098 66.9792C393.251 68.025 392.574 71.2828 392.068 76.7526L387.475 126.374C386.904 132.544 386.793 136.367 387.141 137.842C387.534 139.32 388.651 140.118 390.493 140.237C392.379 140.359 393.662 139.606 394.342 137.977C395.022 136.348 395.652 132.405 396.231 126.147L400.751 77.3131ZM439.345 52.3364L458.948 53.6019C472.016 54.4456 480.806 55.5193 485.318 56.823C489.873 58.1295 493.406 60.9547 495.915 65.2986C498.473 69.6016 499.332 76.282 498.494 85.34C497.728 93.6103 496.183 99.1011 493.859 101.812C491.535 104.524 487.32 105.968 481.216 106.146C486.572 107.857 490.087 109.911 491.762 112.308C493.438 114.705 494.405 116.88 494.666 118.834C494.974 120.747 494.731 125.991 493.937 134.568L491.343 162.595L465.622 160.935L468.891 125.622C469.418 119.933 469.283 116.381 468.488 114.965C467.736 113.552 465.453 112.722 461.638 112.476L457.202 160.391L429.509 158.603L439.345 52.3364ZM465.356 72.3058L463.169 95.9352C466.282 96.1363 468.492 95.8607 469.797 95.1086C471.149 94.3155 472.042 91.5779 472.476 86.8958L473.017 81.054C473.328 77.6847 472.919 75.4352 471.788 74.3058C470.701 73.1791 468.557 72.5125 465.356 72.3058ZM537.64 58.6822L529.772 143.683L546.612 144.77L544.644 166.036L500.11 163.161L509.947 56.8943L537.64 58.6822ZM559.235 60.0763L579.956 61.414C593.332 62.2775 602.309 63.4733 606.888 65.0015C611.511 66.5325 614.92 68.7775 617.117 71.7366C619.313 74.6956 620.559 77.9235 620.853 81.42C621.151 84.8728 620.834 91.6314 619.902 101.696L616.457 138.912C615.574 148.451 614.523 154.81 613.302 157.989C612.129 161.127 610.339 163.542 607.933 165.236C605.53 166.886 602.65 167.976 599.292 168.508C595.938 168.996 590.95 169.026 584.328 168.598L549.398 166.343L559.235 60.0763ZM585.246 80.0457L578.775 149.949C582.766 150.207 585.295 149.578 586.361 148.062C587.432 146.503 588.296 142.178 588.952 135.09L592.774 93.8036C593.219 88.9902 593.351 85.8953 593.17 84.519C592.988 83.1427 592.378 82.1128 591.338 81.4294C590.303 80.7023 588.272 80.241 585.246 80.0457Z" fill="#B33F4C"/>
</svg>
