<svg width="163" height="139" viewBox="0 0 163 139" fill="none" xmlns="http://www.w3.org/2000/svg">
<path d="M162 45.2861C162 52.1901 162 130.428 162 137.332C162 137.428 162 137.535 162 137.718C161.733 137.589 161.503 137.493 161.291 137.375C134.895 123.009 108.499 108.644 82.1031 94.2785C81.9153 94.1593 81.7047 94.0969 81.4908 94.0969C81.2769 94.0969 81.0663 94.1593 80.8785 94.2785C54.4825 108.672 28.062 123.059 1.61693 137.439C1.40515 137.546 1.20257 137.675 1 137.803V44.7287C1.19337 44.6429 1.39594 44.5678 1.58931 44.4714L80.7864 1.36449C80.9617 1.25567 81.1308 1.13392 81.2928 1H81.6796C81.8545 1.11792 82.011 1.25729 82.1952 1.36449L162 45.2861Z" fill="#F9D3E0" stroke="#3F52A0" stroke-miterlimit="10"/>
</svg>
