<svg width="258" height="220" viewBox="0 0 258 220" fill="none" xmlns="http://www.w3.org/2000/svg">
<path d="M257 71.4177C257 82.3954 257 206.798 257 217.776C257 217.929 257 218.1 257 218.39C256.575 218.185 256.209 218.032 255.873 217.844C213.901 195.002 171.93 172.16 129.959 149.319C129.66 149.129 129.326 149.03 128.985 149.03C128.645 149.03 128.31 149.129 128.012 149.319C86.0405 172.206 44.0303 195.082 1.98096 217.946C1.64421 218.117 1.3221 218.321 1 218.526V70.5313C1.30746 70.3949 1.62957 70.2756 1.93703 70.1222L127.865 1.57957C128.144 1.40652 128.413 1.21294 128.671 1H129.286C129.564 1.18751 129.813 1.40911 130.105 1.57957L257 71.4177Z" fill="#F9D3E0" stroke="#3F52A0" stroke-miterlimit="10"/>
</svg>
