<svg width="261" height="222" viewBox="0 0 261 222" fill="none" xmlns="http://www.w3.org/2000/svg">
<path d="M260 72.2429C260 83.3493 260 209.21 260 220.316C260 220.472 260 220.644 260 220.937C259.57 220.73 259.2 220.575 258.859 220.385C216.396 197.276 173.933 174.166 131.47 151.057C131.168 150.865 130.829 150.765 130.485 150.765C130.141 150.765 129.802 150.865 129.5 151.057C87.0371 174.212 44.5345 197.356 1.99245 220.489C1.65176 220.661 1.32588 220.868 1 221.075V71.3461C1.31107 71.2081 1.63695 71.0874 1.94801 70.9322L129.352 1.58636C129.634 1.41129 129.906 1.21544 130.167 1H130.789C131.07 1.18971 131.322 1.4139 131.618 1.58636L260 72.2429Z" fill="#F9D3E0" stroke="#3F52A0" stroke-miterlimit="10"/>
</svg>
