<svg width="150" height="128" viewBox="0 0 150 128" fill="none" xmlns="http://www.w3.org/2000/svg">
<path d="M149 41.7102C149 48.0567 149 119.977 149 126.324C149 126.412 149 126.511 149 126.678C148.755 126.56 148.543 126.471 148.348 126.363C124.084 113.158 99.819 99.9521 75.5544 86.7467C75.3817 86.6372 75.1882 86.5798 74.9915 86.5798C74.7949 86.5798 74.6013 86.6372 74.4286 86.7467C50.164 99.9784 25.8769 113.204 1.56711 126.422C1.37243 126.521 1.18622 126.639 1 126.757V41.1978C1.17775 41.1189 1.36397 41.0499 1.54172 40.9613L74.344 1.33506C74.5052 1.23502 74.6606 1.12311 74.8095 1H75.1651C75.3259 1.1084 75.4698 1.23652 75.6391 1.33506L149 41.7102Z" fill="#F9D3E0" stroke="#3F52A0" stroke-miterlimit="10"/>
</svg>
