<svg width="664" height="1502" viewBox="0 0 664 1502" fill="none" xmlns="http://www.w3.org/2000/svg">
<path d="M894.245 246.704C894.245 285.008 894.245 719.079 894.245 757.383C894.245 757.918 894.245 758.513 894.245 759.524C892.763 758.81 891.486 758.275 890.311 757.621C743.864 677.92 597.416 598.22 450.969 518.519C449.926 517.858 448.758 517.511 447.571 517.511C446.384 517.511 445.216 517.858 444.174 518.519C297.727 598.378 151.143 678.198 4.42279 757.978C3.2478 758.573 2.1239 759.286 1 760V243.611C2.07281 243.135 3.19671 242.719 4.26953 242.184L443.663 3.02226C444.636 2.41846 445.574 1.743 446.473 1H448.619C449.589 1.65426 450.458 2.42747 451.479 3.02226L894.245 246.704Z" fill="#F9D3E0" stroke="#3F52A0" stroke-miterlimit="10"/>
<path d="M503 1353.42C503 1364.4 503 1488.8 503 1499.78C503 1499.93 503 1500.1 503 1500.39C502.575 1500.19 502.209 1500.03 501.873 1499.84C459.901 1477 417.93 1454.16 375.959 1431.32C375.66 1431.13 375.326 1431.03 374.985 1431.03C374.645 1431.03 374.31 1431.13 374.012 1431.32C332.041 1454.21 290.03 1477.08 247.981 1499.95C247.644 1500.12 247.322 1500.32 247 1500.53V1352.53C247.307 1352.39 247.63 1352.28 247.937 1352.12L373.865 1283.58C374.144 1283.41 374.413 1283.21 374.671 1283H375.286C375.564 1283.19 375.813 1283.41 376.105 1283.58L503 1353.42Z" fill="#F9D3E0" stroke="#3F52A0" stroke-miterlimit="10"/>
</svg>
