<svg width="617" height="525" viewBox="0 0 617 525" fill="none" xmlns="http://www.w3.org/2000/svg">
<path d="M616 170.167C616 196.54 616 495.398 616 521.77C616 522.139 616 522.548 616 523.245C614.98 522.753 614.101 522.385 613.292 521.934C512.462 467.06 411.633 412.186 310.804 357.312C310.086 356.857 309.282 356.619 308.465 356.619C307.648 356.619 306.843 356.857 306.126 357.312C205.297 412.295 104.373 467.251 3.35659 522.18C2.54761 522.589 1.77381 523.081 1 523.572V168.038C1.73863 167.71 2.51244 167.424 3.25107 167.055L305.774 2.39232C306.444 1.97661 307.09 1.51156 307.709 1H309.186C309.854 1.45046 310.452 1.98282 311.156 2.39232L616 170.167Z" fill="#F9D3E0" stroke="#3F52A0" stroke-miterlimit="10"/>
</svg>
