<svg width="616" height="525" viewBox="0 0 616 525" fill="none" xmlns="http://www.w3.org/2000/svg">
<path d="M615 170.167C615 196.54 615 495.398 615 521.77C615 522.139 615 522.548 615 523.245C613.98 522.753 613.101 522.385 612.292 521.934C511.462 467.06 410.633 412.186 309.804 357.312C309.086 356.857 308.282 356.619 307.465 356.619C306.648 356.619 305.843 356.857 305.126 357.312C204.297 412.295 103.373 467.251 2.35659 522.18C1.54761 522.589 0.773806 523.081 0 523.572V168.038C0.738633 167.71 1.51244 167.424 2.25107 167.055L304.774 2.39232C305.444 1.97661 306.09 1.51156 306.709 1H308.186C308.854 1.45046 309.452 1.98282 310.156 2.39232L615 170.167Z" fill="#F9D3E0" stroke="#3F52A0" stroke-miterlimit="10"/>
</svg>
