<svg width="800" height="680" viewBox="0 0 800 680" fill="none" xmlns="http://www.w3.org/2000/svg">
<path d="M798.918 220.483C798.918 254.699 798.918 642.446 798.918 676.662C798.918 677.14 798.918 677.672 798.918 678.575C797.595 677.937 796.454 677.459 795.405 676.875C664.586 605.68 533.767 534.485 402.948 463.29C402.017 462.699 400.974 462.39 399.914 462.39C398.853 462.39 397.81 462.699 396.879 463.29C266.06 534.626 135.12 605.928 4.05751 677.194C3.00792 677.725 2.00396 678.362 1 679V217.72C1.95832 217.295 2.96228 216.923 3.9206 216.445L396.423 2.80644C397.291 2.26708 398.13 1.66371 398.932 1H400.849C401.716 1.58444 402.492 2.27514 403.405 2.80644L798.918 220.483Z" fill="#F9D3E0" stroke="#3F52A0" stroke-miterlimit="10"/>
</svg>
