<svg width="280" height="130" viewBox="0 0 280 130" fill="none" xmlns="http://www.w3.org/2000/svg">
<rect x="1" y="1" width="278" height="128" fill="#F9D3E0" stroke="#3F52A0" stroke-width="2"/>
<path d="M65.625 40.4062H87.9062V50.5312H78.7812V60.125H86.9062V69.75H78.7812V91H65.625V40.4062ZM104.281 40.4062V91H91.125V40.4062H104.281ZM139.75 59.0312H126.594V54.4375C126.594 51.5417 126.469 49.7292 126.219 49C125.969 48.2708 125.375 47.9062 124.438 47.9062C123.625 47.9062 123.073 48.2188 122.781 48.8438C122.49 49.4688 122.344 51.0729 122.344 53.6562V77.9375C122.344 80.2083 122.49 81.7083 122.781 82.4375C123.073 83.1458 123.656 83.5 124.531 83.5C125.49 83.5 126.135 83.0938 126.469 82.2812C126.823 81.4688 127 79.8854 127 77.5312V71.5312H124.344V63.8438H139.75V91H131.469L130.25 87.375C129.354 88.9375 128.219 90.1146 126.844 90.9062C125.49 91.6771 123.885 92.0625 122.031 92.0625C119.823 92.0625 117.75 91.5312 115.812 90.4688C113.896 89.3854 112.438 88.0521 111.438 86.4688C110.438 84.8854 109.812 83.2292 109.562 81.5C109.312 79.75 109.188 77.1354 109.188 73.6562V58.625C109.188 53.7917 109.448 50.2812 109.969 48.0938C110.49 45.9062 111.979 43.9062 114.438 42.0938C116.917 40.2604 120.115 39.3438 124.031 39.3438C127.885 39.3438 131.083 40.1354 133.625 41.7188C136.167 43.3021 137.823 45.1875 138.594 47.375C139.365 49.5417 139.75 52.6979 139.75 56.8438V59.0312ZM185.469 40.4062V91H173.969V56.8438L169.375 91H161.219L156.375 57.625V91H144.875V40.4062H161.906C162.406 43.4479 162.938 47.0312 163.5 51.1562L165.312 64.0312L168.312 40.4062H185.469ZM213.469 40.4062L221 91H207.531L206.875 81.9062H202.156L201.375 91H187.75L194.438 40.4062H213.469ZM206.5 72.9375C205.833 67.2083 205.167 60.1354 204.5 51.7188C203.167 61.3854 202.333 68.4583 202 72.9375H206.5Z" fill="#3F52A0"/>
</svg>
