<svg width="280" height="130" viewBox="0 0 280 130" fill="none" xmlns="http://www.w3.org/2000/svg">
<rect x="1" y="1" width="278" height="128" fill="#F9D3E0" stroke="#3F52A0" stroke-width="2"/>
<path d="M84.8125 58.0312H71.6562V53.4375C71.6562 50.5417 71.5312 48.7292 71.2812 48C71.0312 47.2708 70.4375 46.9062 69.5 46.9062C68.6875 46.9062 68.1354 47.2188 67.8438 47.8438C67.5521 48.4688 67.4062 50.0729 67.4062 52.6562V76.9375C67.4062 79.2083 67.5521 80.7083 67.8438 81.4375C68.1354 82.1458 68.7188 82.5 69.5938 82.5C70.5521 82.5 71.1979 82.0938 71.5312 81.2812C71.8854 80.4688 72.0625 78.8854 72.0625 76.5312V70.5312H69.4062V62.8438H84.8125V90H76.5312L75.3125 86.375C74.4167 87.9375 73.2812 89.1146 71.9062 89.9062C70.5521 90.6771 68.9479 91.0625 67.0938 91.0625C64.8854 91.0625 62.8125 90.5312 60.875 89.4688C58.9583 88.3854 57.5 87.0521 56.5 85.4688C55.5 83.8854 54.875 82.2292 54.625 80.5C54.375 78.75 54.25 76.1354 54.25 72.6562V57.625C54.25 52.7917 54.5104 49.2812 55.0312 47.0938C55.5521 44.9062 57.0417 42.9062 59.5 41.0938C61.9792 39.2604 65.1771 38.3438 69.0938 38.3438C72.9479 38.3438 76.1458 39.1354 78.6875 40.7188C81.2292 42.3021 82.8854 44.1875 83.6562 46.375C84.4271 48.5417 84.8125 51.6979 84.8125 55.8438V58.0312ZM103.094 39.4062V90H89.9375V39.4062H103.094ZM134.875 39.4062V49.5312H127.062V90H113.906V49.5312H106.125V39.4062H134.875ZM168.125 39.4062V90H154.969V68.75H151.031V90H137.875V39.4062H151.031V57.5H154.969V39.4062H168.125ZM203.344 39.4062V73.2188C203.344 77.0521 203.219 79.75 202.969 81.3125C202.719 82.8542 201.979 84.4479 200.75 86.0938C199.521 87.7188 197.896 88.9583 195.875 89.8125C193.875 90.6458 191.51 91.0625 188.781 91.0625C185.76 91.0625 183.094 90.5625 180.781 89.5625C178.469 88.5625 176.74 87.2604 175.594 85.6562C174.448 84.0521 173.771 82.3646 173.562 80.5938C173.354 78.8021 173.25 75.0521 173.25 69.3438V39.4062H186.406V77.3438C186.406 79.5521 186.521 80.9688 186.75 81.5938C187 82.1979 187.49 82.5 188.219 82.5C189.052 82.5 189.583 82.1667 189.812 81.5C190.062 80.8125 190.188 79.2083 190.188 76.6875V39.4062H203.344ZM208.438 39.4062H221.562C225.708 39.4062 228.844 39.7292 230.969 40.375C233.115 41.0208 234.844 42.3333 236.156 44.3125C237.469 46.2708 238.125 49.4375 238.125 53.8125C238.125 56.7708 237.656 58.8333 236.719 60C235.802 61.1667 233.979 62.0625 231.25 62.6875C234.292 63.375 236.354 64.5208 237.438 66.125C238.521 67.7083 239.062 70.1458 239.062 73.4375V78.125C239.062 81.5417 238.667 84.0729 237.875 85.7188C237.104 87.3646 235.865 88.4896 234.156 89.0938C232.448 89.6979 228.948 90 223.656 90H208.438V39.4062ZM221.594 48.0625V59.3125C222.156 59.2917 222.594 59.2812 222.906 59.2812C224.198 59.2812 225.021 58.9688 225.375 58.3438C225.729 57.6979 225.906 55.875 225.906 52.875C225.906 51.2917 225.76 50.1875 225.469 49.5625C225.177 48.9167 224.792 48.5104 224.312 48.3438C223.854 48.1771 222.948 48.0833 221.594 48.0625ZM221.594 67.1875V81.3438C223.448 81.2812 224.625 80.9896 225.125 80.4688C225.646 79.9479 225.906 78.6667 225.906 76.625V71.9062C225.906 69.7396 225.677 68.4271 225.219 67.9688C224.76 67.5104 223.552 67.25 221.594 67.1875Z" fill="#3F52A0"/>
</svg>
