<svg width="324" height="130" viewBox="0 0 324 130" fill="none" xmlns="http://www.w3.org/2000/svg">
<rect x="12" y="41" width="311" height="78" fill="#B43F4D" stroke="#B33F4C" stroke-width="2"/>
<rect x="1" y="26" width="311" height="78" fill="#FFD87D" stroke="#B33F4C" stroke-width="2"/>
<path d="M66.6953 84.4922C63.4453 84.4922 60.5469 83.8359 58 82.5234C55.4531 81.2109 53.4531 79.3125 52 76.8281C50.5469 74.3281 49.8203 71.2969 49.8203 67.7344V66.1641C49.8203 62.8828 50.4844 59.9844 51.8125 57.4688C53.1562 54.9375 55.0625 52.9609 57.5312 51.5391C60.0156 50.1016 62.9609 49.3828 66.3672 49.3828C68.7422 49.3828 71 49.7031 73.1406 50.3438C75.2969 50.9688 77.2969 52.0469 79.1406 53.5781V62.3672H73.1641L72.3438 57.3281C71.5469 56.7812 70.6875 56.3516 69.7656 56.0391C68.8438 55.7266 67.8047 55.5703 66.6484 55.5703C64.0547 55.5703 61.9688 56.4922 60.3906 58.3359C58.8125 60.1641 58.0234 62.7578 58.0234 66.1172V67.7344C58.0234 69.8281 58.3906 71.6719 59.125 73.2656C59.8594 74.8438 60.8828 76.0781 62.1953 76.9688C63.5234 77.8594 65.0547 78.3047 66.7891 78.3047C67.7109 78.3047 68.6484 78.2109 69.6016 78.0234C70.5547 77.8203 71.4766 77.5547 72.3672 77.2266L73.1875 72.3984H79.1875V81C77.8281 81.9375 76.0938 82.7578 73.9844 83.4609C71.875 84.1484 69.4453 84.4922 66.6953 84.4922ZM98.0547 84.4922C95.6953 84.4922 93.5234 84.0625 91.5391 83.2031C89.5703 82.3281 87.8594 81.1094 86.4062 79.5469C84.9531 77.9844 83.8281 76.1562 83.0312 74.0625C82.25 71.9531 81.8594 69.6641 81.8594 67.1953V66.6562C81.8594 64.2031 82.25 61.9297 83.0312 59.8359C83.8281 57.7422 84.9453 55.9141 86.3828 54.3516C87.8359 52.7891 89.5469 51.5703 91.5156 50.6953C93.4844 49.8203 95.6484 49.3828 98.0078 49.3828C100.32 49.3828 102.469 49.8203 104.453 50.6953C106.438 51.5703 108.172 52.7891 109.656 54.3516C111.156 55.9141 112.32 57.7422 113.148 59.8359C113.977 61.9297 114.391 64.2031 114.391 66.6562V67.1953C114.391 69.6641 113.977 71.9531 113.148 74.0625C112.32 76.1562 111.164 77.9844 109.68 79.5469C108.195 81.1094 106.461 82.3281 104.477 83.2031C102.492 84.0625 100.352 84.4922 98.0547 84.4922ZM98.0547 78.2578C100.633 78.2578 102.633 77.25 104.055 75.2344C105.492 73.2031 106.211 70.5234 106.211 67.1953V66.6094C106.211 63.3438 105.492 60.7031 104.055 58.6875C102.617 56.6562 100.602 55.6406 98.0078 55.6406C95.2734 55.6406 93.2656 56.6406 91.9844 58.6406C90.7188 60.6406 90.0859 63.2969 90.0859 66.6094V67.1953C90.0859 70.5391 90.7344 73.2188 92.0312 75.2344C93.3281 77.25 95.3359 78.2578 98.0547 78.2578ZM116.453 84V79.1953L119.969 78.4453V55.4531L116.453 54.7031V49.875H132.555L140.805 72.3516H140.945L148.961 49.875H164.875V54.7031L161.336 55.4531V78.4453L164.875 79.1953V84H149.594V79.1953L153.273 78.4453V73.9922L153.461 57.9375L153.32 57.9141L143.664 84H137.195L127.398 58.2188L127.234 58.2422L127.797 72.8672V78.4453L131.758 79.1953V84H116.453ZM166.281 84V79.1953L169.82 78.4453V55.4531L166.281 54.7031V49.875H193.539V59.7188H187.328L187.141 56.2031H178.047V63.2109H188.945V69.5156H178.047V77.6484H187.586L187.773 73.9688H193.914V84H166.281ZM208.656 84V79.1953L212.195 78.4453V55.4531L208.656 54.7031V49.875H223.938V54.7031L220.398 55.4531V78.4453L223.938 79.1953V84H208.656ZM225.789 84V79.1953L229.305 78.4453V55.4531L225.789 54.7031V49.875H237.672L251.359 71.7188H251.5V55.4531L247.023 54.7031V49.875H262.328V54.7031L258.789 55.4531V84H250.68L236.734 62.625H236.594V78.4453L241.094 79.1953V84H225.789Z" fill="#B33F4C"/>
</svg>
