<svg width="280" height="130" viewBox="0 0 280 130" fill="none" xmlns="http://www.w3.org/2000/svg">
<rect x="1" y="1" width="278" height="128" fill="#F9D3E0" stroke="#3F52A0" stroke-width="2"/>
<path d="M123.5 53.7188H111.281V49.9688C111.281 48.2188 111.125 47.1042 110.812 46.625C110.5 46.1458 109.979 45.9062 109.25 45.9062C108.458 45.9062 107.854 46.2292 107.438 46.875C107.042 47.5208 106.844 48.5 106.844 49.8125C106.844 51.5 107.073 52.7708 107.531 53.625C107.969 54.4792 109.208 55.5104 111.25 56.7188C117.104 60.1979 120.792 63.0521 122.312 65.2812C123.833 67.5104 124.594 71.1042 124.594 76.0625C124.594 79.6667 124.167 82.3229 123.312 84.0312C122.479 85.7396 120.854 87.1771 118.438 88.3438C116.021 89.4896 113.208 90.0625 110 90.0625C106.479 90.0625 103.469 89.3958 100.969 88.0625C98.4896 86.7292 96.8646 85.0312 96.0938 82.9688C95.3229 80.9062 94.9375 77.9792 94.9375 74.1875V70.875H107.156V77.0312C107.156 78.9271 107.323 80.1458 107.656 80.6875C108.01 81.2292 108.625 81.5 109.5 81.5C110.375 81.5 111.021 81.1562 111.438 80.4688C111.875 79.7812 112.094 78.7604 112.094 77.4062C112.094 74.4271 111.688 72.4792 110.875 71.5625C110.042 70.6458 107.99 69.1146 104.719 66.9688C101.448 64.8021 99.2812 63.2292 98.2188 62.25C97.1562 61.2708 96.2708 59.9167 95.5625 58.1875C94.875 56.4583 94.5312 54.25 94.5312 51.5625C94.5312 47.6875 95.0208 44.8542 96 43.0625C97 41.2708 98.6042 39.875 100.812 38.875C103.021 37.8542 105.688 37.3438 108.812 37.3438C112.229 37.3438 115.135 37.8958 117.531 39C119.948 40.1042 121.542 41.5 122.312 43.1875C123.104 44.8542 123.5 47.6979 123.5 51.7188V53.7188ZM141.906 38.4062V89H128.75V38.4062H141.906ZM173.688 38.4062V48.5312H165.875V89H152.719V48.5312H144.938V38.4062H173.688ZM176.688 38.4062H198.625V48.5312H189.844V58.125H198.062V67.75H189.844V78.875H199.5V89H176.688V38.4062Z" fill="#3F52A0"/>
</svg>
