<svg width="792" height="511" viewBox="0 0 792 511" fill="none" xmlns="http://www.w3.org/2000/svg">
<path d="M778.432 177.212C792.875 185.549 792.964 199.063 778.611 207.417L271.617 502.074C257.335 510.411 233.931 510.411 219.489 502.074L13.6386 383.255C-0.803552 374.882 -0.892811 361.404 13.4601 353.068L520.454 58.4104C534.736 50.0559 558.14 50.0559 572.582 58.4104L778.432 177.212Z" stroke="#B43F4D" stroke-width="3" stroke-miterlimit="10"/>
<path d="M778.432 127.745C792.875 136.082 792.964 149.595 778.611 157.932L271.617 452.607C257.335 460.944 233.931 460.944 219.489 452.607L13.6386 333.823C-0.803552 325.487 -0.892811 311.973 13.4601 303.636L520.508 8.92535C534.789 0.588686 558.193 0.588686 572.635 8.92535L778.432 127.745ZM148.974 374.328C164.38 383.254 189.301 383.254 204.618 374.328C219.935 365.403 219.846 350.979 204.44 342.088C189.034 333.198 164.13 333.163 148.813 342.088C133.496 351.014 133.568 365.403 148.974 374.31V374.328ZM631.118 67.7104C629.967 67.117 628.691 66.8074 627.396 66.8074C626.101 66.8074 624.825 67.117 623.674 67.7104C623.222 67.8608 622.83 68.1494 622.551 68.5355C622.273 68.9216 622.123 69.3855 622.123 69.8615C622.123 70.3375 622.273 70.8015 622.551 71.1876C622.83 71.5737 623.222 71.8623 623.674 72.0126L669.446 98.3794C670.601 98.9602 671.876 99.2627 673.169 99.2627C674.461 99.2627 675.736 98.9602 676.891 98.3794C677.34 98.2243 677.73 97.9328 678.006 97.5456C678.282 97.1585 678.43 96.6948 678.43 96.2193C678.43 95.7438 678.282 95.2802 678.006 94.893C677.73 94.5058 677.34 94.2144 676.891 94.0593L631.118 67.7104Z" fill="#FFD87E" stroke="#B43F4D" stroke-width="3" stroke-miterlimit="10"/>
<path d="M778.611 157.932L271.617 452.607C257.335 460.943 233.931 460.943 219.489 452.607L13.6388 333.823C6.35517 329.628 2.73124 324.111 2.74909 318.613V344.069C2.74909 349.568 6.31947 355.084 13.6388 359.279L219.346 478.063C233.789 486.4 257.139 486.4 271.474 478.063L778.468 183.388C785.609 179.246 789.179 173.837 789.179 168.393V142.954C789.304 148.381 785.734 153.79 778.611 157.932Z" fill="#B43F4D" stroke="#B43F4D" stroke-width="3" stroke-miterlimit="10"/>
<path d="M204.44 342.088C219.846 351.014 219.935 365.42 204.618 374.328C189.301 383.236 164.38 383.254 148.974 374.328C133.568 365.402 133.514 350.996 148.813 342.106C164.112 333.216 189.034 333.198 204.44 342.088Z" fill="#FFD87E" stroke="#B43F4D" stroke-width="3" stroke-miterlimit="10"/>
<path d="M676.783 94.0595C677.233 94.2146 677.623 94.506 677.899 94.8932C678.175 95.2804 678.323 95.744 678.323 96.2195C678.323 96.695 678.175 97.1586 677.899 97.5458C677.623 97.933 677.233 98.2245 676.783 98.3795C675.628 98.9604 674.354 99.2629 673.061 99.2629C671.768 99.2629 670.494 98.9604 669.339 98.3795L623.709 72.0128C623.258 71.8625 622.865 71.5738 622.586 71.1877C622.308 70.8016 622.158 70.3377 622.158 69.8617C622.158 69.3857 622.308 68.9218 622.586 68.5357C622.865 68.1496 623.258 67.8609 623.709 67.7106C624.86 67.1172 626.137 66.8076 627.432 66.8076C628.726 66.8076 630.003 67.1172 631.154 67.7106L676.783 94.0595Z" fill="#B43F4D" stroke="#B43F4D" stroke-width="3" stroke-miterlimit="10"/>
<path d="M138.263 424.027L82.4755 391.894C81.1908 390.97 80.1416 389.756 79.4128 388.351C78.684 386.946 78.2961 385.39 78.2803 383.807C78.2803 380.719 80.1726 379.291 82.4755 380.63L138.263 412.852C139.542 413.761 140.588 414.959 141.317 416.349C142.046 417.738 142.437 419.28 142.458 420.849C142.458 423.938 140.583 425.366 138.263 424.027Z" fill="#B43F4D"/>
</svg>
