<svg width="280" height="130" viewBox="0 0 280 130" fill="none" xmlns="http://www.w3.org/2000/svg">
<rect x="1" y="1" width="278" height="128" fill="#F9D3E0" stroke="#B33F4C" stroke-width="2"/>
<path d="M63.625 38.4062H85.9062V48.5312H76.7812V58.125H84.9062V67.75H76.7812V89H63.625V38.4062ZM102.281 38.4062V89H89.125V38.4062H102.281ZM137.75 57.0312H124.594V52.4375C124.594 49.5417 124.469 47.7292 124.219 47C123.969 46.2708 123.375 45.9062 122.438 45.9062C121.625 45.9062 121.073 46.2188 120.781 46.8438C120.49 47.4688 120.344 49.0729 120.344 51.6562V75.9375C120.344 78.2083 120.49 79.7083 120.781 80.4375C121.073 81.1458 121.656 81.5 122.531 81.5C123.49 81.5 124.135 81.0938 124.469 80.2812C124.823 79.4688 125 77.8854 125 75.5312V69.5312H122.344V61.8438H137.75V89H129.469L128.25 85.375C127.354 86.9375 126.219 88.1146 124.844 88.9062C123.49 89.6771 121.885 90.0625 120.031 90.0625C117.823 90.0625 115.75 89.5312 113.812 88.4688C111.896 87.3854 110.438 86.0521 109.438 84.4688C108.438 82.8854 107.812 81.2292 107.562 79.5C107.312 77.75 107.188 75.1354 107.188 71.6562V56.625C107.188 51.7917 107.448 48.2812 107.969 46.0938C108.49 43.9062 109.979 41.9062 112.438 40.0938C114.917 38.2604 118.115 37.3438 122.031 37.3438C125.885 37.3438 129.083 38.1354 131.625 39.7188C134.167 41.3021 135.823 43.1875 136.594 45.375C137.365 47.5417 137.75 50.6979 137.75 54.8438V57.0312ZM183.469 38.4062V89H171.969V54.8438L167.375 89H159.219L154.375 55.625V89H142.875V38.4062H159.906C160.406 41.4479 160.938 45.0312 161.5 49.1562L163.312 62.0312L166.312 38.4062H183.469ZM211.469 38.4062L219 89H205.531L204.875 79.9062H200.156L199.375 89H185.75L192.438 38.4062H211.469ZM204.5 70.9375C203.833 65.2083 203.167 58.1354 202.5 49.7188C201.167 59.3854 200.333 66.4583 200 70.9375H204.5Z" fill="#B33F4C"/>
</svg>
