<svg width="439" height="159" viewBox="0 0 439 159" fill="none" xmlns="http://www.w3.org/2000/svg">
<rect x="7.14941" width="432" height="136" transform="rotate(3.01279 7.14941 0)" fill="#B33F4C"/>
<path d="M68.0656 35.7056L65.371 95.0829L77.1089 95.6156L76.4347 110.471L45.3934 109.063L48.7622 34.8295L68.0656 35.7056ZM84.5262 36.4526L116.714 37.9133L116.04 52.7691L103.155 52.1844L102.517 66.2607L114.575 66.808L113.935 80.9301L101.876 80.3829L101.135 96.7059L115.303 97.3489L114.629 112.205L81.1574 110.686L84.5262 36.4526ZM161.189 39.9316L160.515 54.7874L149.053 54.2672L146.358 113.645L127.055 112.769L129.749 53.3912L118.332 52.8731L119.006 38.0173L161.189 39.9316ZM175.816 40.5954L175.514 47.2438C175.358 50.698 174.815 53.5373 173.887 55.7618C172.961 57.9558 171.438 59.7858 169.319 61.2518C167.232 62.6886 164.893 63.6239 162.3 64.0576L162.543 58.693C164.423 57.7675 165.525 56.4391 165.849 54.7079L162.731 54.5664L163.39 40.0315L175.816 40.5954ZM221.244 65.1704L203.316 64.3568L203.566 58.8546C203.682 56.287 203.527 54.6412 203.1 53.9173C202.674 53.1935 201.926 52.8073 200.856 52.7587C199.694 52.706 198.786 53.1396 198.132 54.0594C197.508 54.9806 197.153 56.4041 197.065 58.3299C196.953 60.8059 197.204 62.6857 197.82 63.9695C198.405 65.2519 200.155 66.8476 203.07 68.7564C211.428 74.251 216.649 78.6843 218.732 82.0563C220.815 85.4282 221.691 90.7518 221.361 98.0268C221.121 103.315 220.317 107.184 218.95 109.634C217.614 112.085 215.134 114.086 211.51 115.636C207.888 117.157 203.723 117.81 199.016 117.596C193.85 117.362 189.478 116.183 185.898 114.061C182.349 111.939 180.078 109.34 179.085 106.262C178.091 103.185 177.72 98.8644 177.973 93.3011L178.193 88.4409L196.121 89.2544L195.711 98.2871C195.585 101.069 195.748 102.868 196.201 103.685C196.685 104.503 197.569 104.942 198.853 105C200.136 105.058 201.107 104.597 201.764 103.616C202.452 102.636 202.841 101.153 202.931 99.1661C203.129 94.795 202.663 91.9099 201.532 90.5108C200.37 89.1103 197.461 86.727 192.805 83.3607C188.15 79.9639 185.076 77.5118 183.582 76.0044C182.088 74.497 180.879 72.4511 179.955 69.8669C179.062 67.284 178.704 64.0209 178.883 60.0777C179.141 54.3922 180.048 50.2676 181.604 47.704C183.191 45.1418 185.637 43.2006 188.944 41.8804C192.252 40.5296 196.199 39.9583 200.784 40.1663C205.797 40.3938 210.024 41.3974 213.466 43.177C216.939 44.958 219.184 47.1121 220.203 49.6394C221.253 52.1375 221.645 56.3364 221.377 62.2359L221.244 65.1704ZM286.444 68.1292L268.516 67.3157L268.766 61.8135C268.883 59.2458 268.728 57.6001 268.301 56.8762C267.874 56.1523 267.126 55.7661 266.056 55.7176C264.895 55.6649 263.987 56.0984 263.332 57.0183C262.709 57.9395 262.353 59.363 262.266 61.2888C262.153 63.7647 262.405 65.6446 263.02 66.9284C263.606 68.2108 265.356 69.8064 268.271 71.7153C276.629 77.2099 281.849 81.6431 283.932 85.0151C286.015 88.3871 286.891 93.7106 286.561 100.986C286.321 106.274 285.518 110.143 284.151 112.592C282.814 115.044 280.334 117.044 276.711 118.595C273.089 120.116 268.924 120.769 264.217 120.555C259.051 120.321 254.678 119.142 251.099 117.02C247.55 114.898 245.279 112.299 244.285 109.221C243.291 106.144 242.921 101.823 243.173 96.26L243.394 91.3997L261.322 92.2133L260.912 101.246C260.786 104.028 260.949 105.827 261.402 106.644C261.886 107.462 262.769 107.901 264.053 107.959C265.337 108.017 266.307 107.556 266.965 106.575C267.652 105.595 268.041 104.112 268.131 102.125C268.33 97.7538 267.863 94.8687 266.732 93.4697C265.571 92.0692 262.662 89.6859 258.005 86.3196C253.351 82.9228 250.276 80.4707 248.783 78.9633C247.289 77.4559 246.08 75.41 245.156 72.8257C244.262 70.2429 243.905 66.9798 244.084 63.0366C244.342 57.3511 245.249 53.2265 246.805 50.6629C248.391 48.1007 250.838 46.1594 254.145 44.8392C257.453 43.4885 261.399 42.9171 265.984 43.1252C270.998 43.3527 275.225 44.3563 278.667 46.1359C282.139 47.9169 284.384 50.071 285.403 52.5983C286.454 55.0964 286.845 59.2952 286.577 65.1948L286.444 68.1292ZM295.167 46.0117L327.354 47.4724L326.68 62.3282L313.796 61.7435L313.157 75.8198L325.216 76.3671L324.575 90.4893L312.516 89.942L311.776 106.265L325.944 106.908L325.269 121.764L291.798 120.245L295.167 46.0117ZM334.232 47.7845L366.42 49.2452L365.746 64.101L352.861 63.5163L352.222 77.5927L364.281 78.1399L363.64 92.2621L351.582 91.7149L350.841 108.038L365.009 108.681L364.335 123.537L330.863 122.018L334.232 47.7845ZM393.105 50.4563L387.542 106.212L373.237 105.562L372.747 49.5324L393.105 50.4563ZM388.897 109.765L388.223 124.621L370.891 123.834L371.566 108.978L388.897 109.765Z" fill="#F9D3E0"/>
</svg>
