<svg width="979" height="336" viewBox="0 0 979 336" fill="none" xmlns="http://www.w3.org/2000/svg">
<path d="M3.40625 9.78906H61.6094C100.411 9.78906 126.648 11.2865 140.32 14.2812C154.122 17.276 165.32 24.9583 173.914 37.3281C182.638 49.5677 187 69.1641 187 96.1172C187 120.727 183.94 137.263 177.82 145.727C171.701 154.19 159.656 159.268 141.688 160.961C157.964 164.997 168.901 170.401 174.5 177.172C180.099 183.943 183.549 190.193 184.852 195.922C186.284 201.521 187 217.081 187 242.602V326H110.633V220.922C110.633 203.995 109.266 193.513 106.531 189.477C103.927 185.44 96.9609 183.422 85.6328 183.422V326H3.40625V9.78906ZM85.6328 63.8906V134.203C94.8776 134.203 101.323 132.966 104.969 130.492C108.745 127.888 110.633 119.62 110.633 105.688V88.3047C110.633 78.2786 108.81 71.7031 105.164 68.5781C101.648 65.4531 95.138 63.8906 85.6328 63.8906ZM219.031 9.78906H356.141V73.0703H301.258V133.031H352.625V193.188H301.258V262.719H361.609V326H219.031V9.78906ZM527.43 9.78906L574.5 326H490.32L486.219 269.164H456.727L451.844 326H366.688L408.484 9.78906H527.43ZM483.875 213.109C479.708 177.302 475.542 133.096 471.375 80.4922C463.042 140.909 457.833 185.115 455.75 213.109H483.875ZM780.555 147.68H698.328V92.6016C698.328 76.5859 697.417 66.625 695.594 62.7188C693.901 58.6823 690.06 56.6641 684.07 56.6641C677.299 56.6641 673.003 59.0729 671.18 63.8906C669.357 68.7083 668.445 79.125 668.445 95.1406V242.016C668.445 257.38 669.357 267.406 671.18 272.094C673.003 276.781 677.104 279.125 683.484 279.125C689.604 279.125 693.576 276.781 695.398 272.094C697.352 267.406 698.328 256.404 698.328 239.086V199.438H780.555V211.742C780.555 244.424 778.211 267.602 773.523 281.273C768.966 294.945 758.745 306.924 742.859 317.211C727.104 327.497 707.638 332.641 684.461 332.641C660.372 332.641 640.516 328.279 624.891 319.555C609.266 310.831 598.914 298.786 593.836 283.422C588.758 267.927 586.219 244.685 586.219 213.695V121.312C586.219 98.526 587 81.4688 588.562 70.1406C590.125 58.6823 594.747 47.6797 602.43 37.1328C610.242 26.5859 620.984 18.3177 634.656 12.3281C648.458 6.20833 664.279 3.14844 682.117 3.14844C706.336 3.14844 726.323 7.83594 742.078 17.2109C757.833 26.5859 768.185 38.3047 773.133 52.3672C778.081 66.2995 780.555 88.0443 780.555 117.602V147.68ZM975.672 9.78906V73.0703H926.844V326H844.617V73.0703H795.984V9.78906H975.672Z" fill="#F9D3E0"/>
<path d="M3.40625 9.78906V6.78906H0.40625V9.78906H3.40625ZM140.32 14.2812L139.678 17.2118L139.684 17.213L140.32 14.2812ZM173.914 37.3281L171.45 39.0398L171.461 39.0547L171.471 39.0694L173.914 37.3281ZM141.688 160.961L141.406 157.974L140.965 163.873L141.688 160.961ZM184.852 195.922L181.926 196.587L181.935 196.626L181.945 196.665L184.852 195.922ZM187 326V329H190V326H187ZM110.633 326H107.633V329H110.633V326ZM106.531 189.477L104.01 191.103L104.029 191.131L104.047 191.159L106.531 189.477ZM85.6328 183.422V180.422H82.6328V183.422H85.6328ZM85.6328 326V329H88.6328V326H85.6328ZM3.40625 326H0.40625V329H3.40625V326ZM85.6328 63.8906V60.8906H82.6328V63.8906H85.6328ZM85.6328 134.203H82.6328V137.203H85.6328V134.203ZM104.969 130.492L106.653 132.975L106.663 132.968L106.672 132.962L104.969 130.492ZM105.164 68.5781L103.171 70.8204L103.191 70.8383L103.212 70.8559L105.164 68.5781ZM3.40625 12.7891H61.6094V6.78906H3.40625V12.7891ZM61.6094 12.7891C100.448 12.7891 126.37 14.2966 139.678 17.2118L140.962 11.3507C126.927 8.27629 100.375 6.78906 61.6094 6.78906V12.7891ZM139.684 17.213C152.692 20.0356 163.258 27.2478 171.45 39.0398L176.378 35.6165C167.383 22.6689 155.552 14.5165 140.956 11.3495L139.684 17.213ZM171.471 39.0694C179.643 50.5351 184 69.3545 184 96.1172H190C190 68.9736 185.633 48.6004 176.357 35.5869L171.471 39.0694ZM184 96.1172C184 108.315 183.24 118.404 181.755 126.431C180.262 134.498 178.077 140.252 175.389 143.969L180.251 147.484C183.684 142.738 186.088 135.991 187.655 127.522C189.23 119.012 190 108.529 190 96.1172H184ZM175.389 143.969C170.043 151.362 159.109 156.306 141.406 157.974L141.969 163.948C160.203 162.23 173.358 157.018 180.251 147.484L175.389 143.969ZM140.965 163.873C157.102 167.875 167.23 173.088 172.188 179.084L176.812 175.26C170.572 167.714 158.825 162.12 142.41 158.049L140.965 163.873ZM172.188 179.084C177.624 185.657 180.767 191.486 181.926 196.587L187.777 195.257C186.332 188.899 182.574 182.228 176.812 175.26L172.188 179.084ZM181.945 196.665C182.574 199.125 183.107 204.121 183.466 211.929C183.821 219.643 184 229.862 184 242.602H190C190 229.82 189.821 219.499 189.46 211.653C189.103 203.901 188.561 198.317 187.758 195.178L181.945 196.665ZM184 242.602V326H190V242.602H184ZM187 323H110.633V329H187V323ZM113.633 326V220.922H107.633V326H113.633ZM113.633 220.922C113.633 212.396 113.289 205.4 112.582 199.977C111.893 194.693 110.808 190.441 109.015 187.794L104.047 191.159C104.988 192.548 105.955 195.556 106.633 200.753C107.293 205.813 107.633 212.521 107.633 220.922H113.633ZM109.052 187.85C107.2 184.98 104.024 183.165 100.188 182.054C96.3264 180.935 91.4398 180.422 85.6328 180.422V186.422C91.1539 186.422 95.4144 186.918 98.5187 187.817C101.649 188.724 103.258 189.937 104.01 191.103L109.052 187.85ZM82.6328 183.422V326H88.6328V183.422H82.6328ZM85.6328 323H3.40625V329H85.6328V323ZM6.40625 326V9.78906H0.40625V326H6.40625ZM82.6328 63.8906V134.203H88.6328V63.8906H82.6328ZM85.6328 137.203C94.9451 137.203 102.202 135.995 106.653 132.975L103.284 128.01C100.444 129.937 94.8101 131.203 85.6328 131.203V137.203ZM106.672 132.962C109.525 130.994 111.157 127.318 112.142 123.006C113.157 118.558 113.633 112.755 113.633 105.688H107.633C107.633 112.553 107.164 117.849 106.292 121.67C105.389 125.626 104.188 127.386 103.266 128.023L106.672 132.962ZM113.633 105.688V88.3047H107.633V105.688H113.633ZM113.633 88.3047C113.633 83.1351 113.166 78.6918 112.157 75.0521C111.15 71.4217 109.545 68.3823 107.116 66.3004L103.212 70.8559C104.429 71.8989 105.558 73.7098 106.375 76.655C107.189 79.5907 107.633 83.4482 107.633 88.3047H113.633ZM107.157 66.3359C102.753 62.4214 95.2357 60.8906 85.6328 60.8906V66.8906C95.0404 66.8906 100.543 68.4848 103.171 70.8204L107.157 66.3359ZM219.031 9.78906V6.78906H216.031V9.78906H219.031ZM356.141 9.78906H359.141V6.78906H356.141V9.78906ZM356.141 73.0703V76.0703H359.141V73.0703H356.141ZM301.258 73.0703V70.0703H298.258V73.0703H301.258ZM301.258 133.031H298.258V136.031H301.258V133.031ZM352.625 133.031H355.625V130.031H352.625V133.031ZM352.625 193.188V196.188H355.625V193.188H352.625ZM301.258 193.188V190.188H298.258V193.188H301.258ZM301.258 262.719H298.258V265.719H301.258V262.719ZM361.609 262.719H364.609V259.719H361.609V262.719ZM361.609 326V329H364.609V326H361.609ZM219.031 326H216.031V329H219.031V326ZM219.031 12.7891H356.141V6.78906H219.031V12.7891ZM353.141 9.78906V73.0703H359.141V9.78906H353.141ZM356.141 70.0703H301.258V76.0703H356.141V70.0703ZM298.258 73.0703V133.031H304.258V73.0703H298.258ZM301.258 136.031H352.625V130.031H301.258V136.031ZM349.625 133.031V193.188H355.625V133.031H349.625ZM352.625 190.188H301.258V196.188H352.625V190.188ZM298.258 193.188V262.719H304.258V193.188H298.258ZM301.258 265.719H361.609V259.719H301.258V265.719ZM358.609 262.719V326H364.609V262.719H358.609ZM361.609 323H219.031V329H361.609V323ZM222.031 326V9.78906H216.031V326H222.031ZM527.43 9.78906L530.397 9.34736L530.016 6.78906H527.43V9.78906ZM574.5 326V329H577.98L577.467 325.558L574.5 326ZM490.32 326L487.328 326.216L487.529 329H490.32V326ZM486.219 269.164L489.211 268.948L489.01 266.164H486.219V269.164ZM456.727 269.164V266.164H453.973L453.738 268.907L456.727 269.164ZM451.844 326V329H454.597L454.833 326.257L451.844 326ZM366.688 326L363.713 325.607L363.265 329H366.688V326ZM408.484 9.78906V6.78906H405.855L405.51 9.39594L408.484 9.78906ZM483.875 213.109V216.109H487.244L486.855 212.763L483.875 213.109ZM471.375 80.4922L474.366 80.2553L468.403 80.0823L471.375 80.4922ZM455.75 213.109L452.758 212.887L452.518 216.109H455.75V213.109ZM524.462 10.2308L571.533 326.442L577.467 325.558L530.397 9.34736L524.462 10.2308ZM574.5 323H490.32V329H574.5V323ZM493.313 325.784L489.211 268.948L483.227 269.38L487.328 326.216L493.313 325.784ZM486.219 266.164H456.727V272.164H486.219V266.164ZM453.738 268.907L448.855 325.743L454.833 326.257L459.716 269.421L453.738 268.907ZM451.844 323H366.688V329H451.844V323ZM369.662 326.393L411.458 10.1822L405.51 9.39594L363.713 325.607L369.662 326.393ZM408.484 12.7891H527.43V6.78906H408.484V12.7891ZM486.855 212.763C482.694 177.004 478.531 132.838 474.366 80.2553L468.384 80.7291C472.553 133.355 476.723 177.6 480.895 213.456L486.855 212.763ZM468.403 80.0823C460.069 140.507 454.849 184.792 452.758 212.887L458.742 213.332C460.818 185.438 466.015 141.311 474.347 80.9021L468.403 80.0823ZM455.75 216.109H483.875V210.109H455.75V216.109ZM780.555 147.68V150.68H783.555V147.68H780.555ZM698.328 147.68H695.328V150.68H698.328V147.68ZM695.594 62.7188L692.827 63.8789L692.85 63.9336L692.875 63.9874L695.594 62.7188ZM671.18 63.8906L668.374 62.8289L671.18 63.8906ZM671.18 272.094L668.384 273.181L671.18 272.094ZM695.398 272.094L692.629 270.94L692.615 270.973L692.602 271.006L695.398 272.094ZM698.328 199.438V196.438H695.328V199.438H698.328ZM780.555 199.438H783.555V196.438H780.555V199.438ZM773.523 281.273L770.686 280.3L770.681 280.313L770.677 280.325L773.523 281.273ZM742.859 317.211L741.229 314.693L741.219 314.699L742.859 317.211ZM593.836 283.422L590.985 284.356L590.987 284.363L593.836 283.422ZM588.562 70.1406L591.534 70.5505L591.535 70.546L588.562 70.1406ZM602.43 37.1328L600.019 35.3471L600.012 35.3568L600.005 35.3665L602.43 37.1328ZM634.656 12.3281L635.86 15.076L635.872 15.0706L634.656 12.3281ZM773.133 52.3672L770.303 53.3629L770.306 53.3712L773.133 52.3672ZM780.555 144.68H698.328V150.68H780.555V144.68ZM701.328 147.68V92.6016H695.328V147.68H701.328ZM701.328 92.6016C701.328 84.5496 701.099 77.9543 700.632 72.8458C700.175 67.8559 699.465 63.921 698.312 61.4501L692.875 63.9874C693.545 65.4227 694.202 68.4215 694.657 73.3925C695.101 78.2449 695.328 84.6379 695.328 92.6016H701.328ZM698.36 61.5586C697.247 58.9038 695.382 56.8583 692.839 55.522C690.356 54.2173 687.376 53.6641 684.07 53.6641V59.6641C686.754 59.6641 688.69 60.1199 690.048 60.8335C691.346 61.5154 692.248 62.4972 692.827 63.8789L698.36 61.5586ZM684.07 53.6641C680.355 53.6641 677.036 54.3216 674.302 55.8539C671.509 57.4199 669.523 59.7932 668.374 62.8289L673.986 64.9523C674.66 63.1704 675.733 61.9304 677.237 61.0875C678.8 60.211 681.015 59.6641 684.07 59.6641V53.6641ZM668.374 62.8289C667.309 65.6419 666.601 69.7934 666.14 75.0549C665.674 80.3829 665.445 87.0861 665.445 95.1406H671.445C671.445 87.1795 671.672 80.6665 672.117 75.5779C672.569 70.4228 673.227 66.9571 673.986 64.9523L668.374 62.8289ZM665.445 95.1406V242.016H671.445V95.1406H665.445ZM665.445 242.016C665.445 249.747 665.674 256.193 666.141 261.33C666.602 266.402 667.313 270.428 668.384 273.181L673.976 271.006C673.223 269.072 672.567 265.741 672.117 260.787C671.672 255.898 671.445 249.649 671.445 242.016H665.445ZM668.384 273.181C669.527 276.121 671.447 278.436 674.135 279.972C676.77 281.478 679.948 282.125 683.484 282.125V276.125C680.64 276.125 678.577 275.6 677.111 274.762C675.698 273.955 674.655 272.754 673.976 271.006L668.384 273.181ZM683.484 282.125C686.91 282.125 690.003 281.47 692.578 279.951C695.196 278.405 697.063 276.092 698.194 273.181L692.602 271.006C691.911 272.783 690.88 273.985 689.528 274.784C688.132 275.608 686.178 276.125 683.484 276.125V282.125ZM698.168 273.248C699.335 270.447 700.093 266.126 700.584 260.591C701.083 254.967 701.328 247.79 701.328 239.086H695.328C695.328 247.7 695.085 254.683 694.607 260.061C694.122 265.529 693.415 269.053 692.629 270.94L698.168 273.248ZM701.328 239.086V199.438H695.328V239.086H701.328ZM698.328 202.438H780.555V196.438H698.328V202.438ZM777.555 199.438V211.742H783.555V199.438H777.555ZM777.555 211.742C777.555 244.405 775.197 267.141 770.686 280.3L776.361 282.246C781.224 268.062 783.555 244.444 783.555 211.742H777.555ZM770.677 280.325C766.395 293.173 756.723 304.66 741.229 314.693L744.49 319.729C760.767 309.189 771.538 296.718 776.37 282.222L770.677 280.325ZM741.219 314.699C726.054 324.6 707.191 329.641 684.461 329.641V335.641C708.085 335.641 728.154 330.395 744.499 319.723L741.219 314.699ZM684.461 329.641C660.714 329.641 641.403 325.338 626.353 316.935L623.428 322.174C639.628 331.219 660.031 335.641 684.461 335.641V329.641ZM626.353 316.935C611.309 308.535 601.501 297.054 596.684 282.48L590.987 284.363C596.327 300.519 607.223 313.126 623.428 322.174L626.353 316.935ZM596.687 282.488C591.76 267.455 589.219 244.599 589.219 213.695H583.219C583.219 244.771 585.755 268.399 590.985 284.356L596.687 282.488ZM589.219 213.695V121.312H583.219V213.695H589.219ZM589.219 121.312C589.219 98.5568 590.001 81.6674 591.534 70.5505L585.591 69.7307C583.999 81.2701 583.219 98.4953 583.219 121.312H589.219ZM591.535 70.546C593.022 59.6399 597.427 49.0968 604.855 38.8991L600.005 35.3665C592.068 46.2625 587.228 57.7247 585.59 69.7353L591.535 70.546ZM604.84 38.9185C612.301 28.8471 622.601 20.8849 635.86 15.076L633.452 9.58025C619.368 15.7505 608.184 24.3247 600.019 35.3471L604.84 38.9185ZM635.872 15.0706C649.228 9.1486 664.622 6.14844 682.117 6.14844V0.148438C663.935 0.148438 647.688 3.26807 633.44 9.58562L635.872 15.0706ZM682.117 6.14844C705.965 6.14844 725.379 10.7652 740.544 19.789L743.612 14.6328C727.267 4.90664 706.707 0.148438 682.117 0.148438V6.14844ZM740.544 19.789C755.839 28.8901 765.638 40.1055 770.303 53.3629L775.963 51.3715C770.732 36.5038 759.828 24.2818 743.612 14.6328L740.544 19.789ZM770.306 53.3712C775.074 66.7984 777.555 88.115 777.555 117.602H783.555C783.555 87.9735 781.087 65.8006 775.96 51.3632L770.306 53.3712ZM777.555 117.602V147.68H783.555V117.602H777.555ZM975.672 9.78906H978.672V6.78906H975.672V9.78906ZM975.672 73.0703V76.0703H978.672V73.0703H975.672ZM926.844 73.0703V70.0703H923.844V73.0703H926.844ZM926.844 326V329H929.844V326H926.844ZM844.617 326H841.617V329H844.617V326ZM844.617 73.0703H847.617V70.0703H844.617V73.0703ZM795.984 73.0703H792.984V76.0703H795.984V73.0703ZM795.984 9.78906V6.78906H792.984V9.78906H795.984ZM972.672 9.78906V73.0703H978.672V9.78906H972.672ZM975.672 70.0703H926.844V76.0703H975.672V70.0703ZM923.844 73.0703V326H929.844V73.0703H923.844ZM926.844 323H844.617V329H926.844V323ZM847.617 326V73.0703H841.617V326H847.617ZM844.617 70.0703H795.984V76.0703H844.617V70.0703ZM798.984 73.0703V9.78906H792.984V73.0703H798.984ZM795.984 12.7891H975.672V6.78906H795.984V12.7891Z" fill="#3F52A0"/>
</svg>
