<svg width="361" height="101" viewBox="0 0 361 101" fill="none" xmlns="http://www.w3.org/2000/svg">
<rect x="12.1475" y="22" width="347.853" height="78" fill="#3F52A0" stroke="#3F52A0" stroke-width="2"/>
<rect x="1" y="11" width="347.853" height="78" fill="#F9D3E0" stroke="#3F52A0" stroke-width="2"/>
<path d="M76.5283 69.5127C73.6312 69.5127 71.0596 69.236 68.8135 68.6826C66.5674 68.1292 64.3294 67.0876 62.0996 65.5576V56.3291H68.7158L69.4482 61.0654C69.9691 61.6514 70.8887 62.1478 72.207 62.5547C73.5254 62.9453 74.9658 63.1406 76.5283 63.1406C79.8324 63.1406 81.4844 61.985 81.4844 59.6738C81.4844 58.6159 81.0775 57.7207 80.2637 56.9883C79.4499 56.2396 78.0339 55.4746 76.0156 54.6934C72.972 53.7168 70.4736 52.724 68.5205 51.7148C66.5674 50.7057 65.1107 49.5094 64.1504 48.126C63.2064 46.7425 62.7344 45.0254 62.7344 42.9746C62.7344 41.0052 63.2959 39.2881 64.4189 37.8232C65.542 36.3421 67.0882 35.1784 69.0576 34.332C71.027 33.4857 73.2812 33.0381 75.8203 32.9893C78.7174 32.9242 81.2809 33.2171 83.5107 33.8682C85.7406 34.5029 87.71 35.4714 89.4189 36.7734V45.3428H83.0713L82.0703 40.582C81.5169 40.3053 80.7275 40.0531 79.7021 39.8252C78.6768 39.5973 77.5863 39.4834 76.4307 39.4834C74.9495 39.4834 73.7207 39.7764 72.7441 40.3623C71.7676 40.9482 71.2793 41.8271 71.2793 42.999C71.2793 43.6338 71.4665 44.2035 71.8408 44.708C72.2152 45.1963 72.8743 45.6927 73.8184 46.1973C74.7624 46.6855 76.0807 47.2552 77.7734 47.9062C81.8099 49.0944 84.8698 50.5837 86.9531 52.374C89.0527 54.1481 90.1025 56.5651 90.1025 59.625C90.1025 61.7246 89.5329 63.515 88.3936 64.9961C87.2542 66.4609 85.6673 67.584 83.6328 68.3652C81.5983 69.1302 79.2301 69.5127 76.5283 69.5127ZM89.5312 69V63.9951L93.2178 63.2139V39.2637L89.5312 38.4824V33.4531H117.925V43.707H111.455L111.26 40.0449H101.787V47.3447H113.14V53.9121H101.787V62.3838H111.724L111.919 58.5508H118.315V69H89.5312ZM119.014 69V63.9951L122.7 63.2139V39.2637L119.014 38.4824V33.4531H147.407V43.707H140.938L140.742 40.0449H131.27V47.3447H142.622V53.9121H131.27V62.3838H141.206L141.401 58.5508H147.798V69H119.014ZM157.959 69V63.9951L161.621 63.2139V39.2637L157.959 38.4824V33.4531H174.731L183.325 56.8662H183.472L191.821 33.4531H208.398V38.4824L204.712 39.2637V63.2139L208.398 63.9951V69H192.48V63.9951L196.313 63.2139V58.5752L196.509 41.8516L196.362 41.8271L186.304 69H179.565L169.36 42.1445L169.189 42.1689L169.775 57.4033V63.2139L173.901 63.9951V69H157.959ZM224.771 69.5127C222.313 69.5127 220.05 69.0651 217.983 68.1699C215.933 67.2585 214.15 65.9889 212.637 64.3613C211.123 62.7337 209.951 60.8294 209.121 58.6484C208.307 56.4512 207.9 54.0667 207.9 51.4951V50.9336C207.9 48.3783 208.307 46.0101 209.121 43.8291C209.951 41.6481 211.115 39.7438 212.612 38.1162C214.126 36.4886 215.908 35.2191 217.959 34.3076C220.01 33.3962 222.264 32.9404 224.722 32.9404C227.131 32.9404 229.368 33.3962 231.436 34.3076C233.503 35.2191 235.309 36.4886 236.855 38.1162C238.418 39.7438 239.631 41.6481 240.493 43.8291C241.356 46.0101 241.787 48.3783 241.787 50.9336V51.4951C241.787 54.0667 241.356 56.4512 240.493 58.6484C239.631 60.8294 238.426 62.7337 236.88 64.3613C235.334 65.9889 233.527 67.2585 231.46 68.1699C229.393 69.0651 227.163 69.5127 224.771 69.5127ZM224.771 63.0186C227.456 63.0186 229.539 61.9688 231.021 59.8691C232.518 57.7533 233.267 54.9619 233.267 51.4951V50.8848C233.267 47.4831 232.518 44.7324 231.021 42.6328C229.523 40.5169 227.424 39.459 224.722 39.459C221.873 39.459 219.782 40.5007 218.447 42.584C217.129 44.6673 216.47 47.4342 216.47 50.8848V51.4951C216.47 54.9782 217.145 57.7695 218.496 59.8691C219.847 61.9688 221.938 63.0186 224.771 63.0186ZM241.631 69V63.9951L245.317 63.2139V39.2637L241.631 38.4824V33.4287H259.111C261.927 33.4287 264.368 33.8763 266.436 34.7715C268.503 35.6667 270.098 36.9443 271.221 38.6045C272.344 40.2484 272.905 42.2015 272.905 44.4639C272.905 46.4007 272.409 48.2155 271.416 49.9082C270.439 51.6009 269.105 52.9925 267.412 54.083L271.123 63.165L274.492 64.0195V69H264.141L259.722 56.1826L253.887 56.1094V63.2139L257.573 63.9951V69H241.631ZM253.887 49.542H259.209C260.869 49.542 262.147 49.1595 263.042 48.3945C263.937 47.6133 264.385 46.4902 264.385 45.0254C264.385 43.5117 263.929 42.2992 263.018 41.3877C262.106 40.46 260.804 39.9961 259.111 39.9961H253.887V49.542ZM273.848 69V63.9951L277.534 63.2139V39.2637L273.848 38.4824V33.4531H302.241V43.707H295.771L295.576 40.0449H286.104V47.3447H297.456V53.9121H286.104V62.3838H296.04L296.235 58.5508H302.632V69H273.848Z" fill="#3F52A0"/>
</svg>
