<svg width="922" height="140" viewBox="0 0 922 140" fill="none" xmlns="http://www.w3.org/2000/svg">
<rect x="0.84668" y="0.52832" width="921" height="139" fill="#3F52A0"/>
<path d="M58.5751 40.5593L58.4424 108.545L40.7637 108.51L40.8964 40.5248L58.5751 40.5593ZM147.388 40.7327L139.403 108.703L117.315 108.659C115.32 98.2135 113.566 86.3402 112.052 73.0397C111.341 78.7213 109.68 90.5879 107.069 108.639L85.1074 108.597L77.3456 40.5959L94.5204 40.6295L96.2797 64.3585L98.0827 87.2478C98.7497 75.4073 100.404 59.8734 103.045 40.6461L121.437 40.682C121.685 42.6701 122.315 50.146 123.325 63.1096L125.206 88.9385C126.218 72.5075 127.887 56.4277 130.214 40.6991L147.388 40.7327ZM181.444 40.7991L191.431 108.804L173.333 108.769L172.475 96.5474L166.134 96.535L165.06 108.753L146.752 108.717L155.871 40.7492L181.444 40.7991ZM171.994 84.4946C171.114 76.7943 170.236 67.2884 169.363 55.9767C167.546 68.9628 166.407 78.4648 165.948 84.4828L171.994 84.4946ZM234.06 40.9018L233.927 108.887L218.432 108.857L209.296 77.9327L209.236 108.839L194.455 108.81L194.588 40.8248L209.369 40.8536L219.219 71.4852L219.279 40.873L234.06 40.9018ZM276.808 40.9853L276.782 54.5907L266.284 54.5702L266.177 108.95L248.499 108.915L248.605 54.5357L238.149 54.5153L238.175 40.9099L276.808 40.9853ZM331.65 41.0923L331.623 54.6978L321.125 54.6773L321.019 109.057L303.34 109.023L303.447 54.6428L292.991 54.6223L293.017 41.0169L331.65 41.0923ZM376 80.9875C375.986 87.8183 375.809 92.661 375.467 95.5158C375.154 98.3427 374.141 100.93 372.429 103.278C370.745 105.627 368.46 107.428 365.574 108.682C362.688 109.936 359.327 110.56 355.492 110.552C351.852 110.545 348.578 109.951 345.669 108.769C342.788 107.56 340.468 105.764 338.709 103.381C336.95 100.998 335.905 98.4061 335.575 95.6059C335.244 92.8058 335.086 87.9064 335.099 80.9077L335.122 69.2759C335.135 62.4452 335.299 57.6164 335.612 54.7895C335.954 51.9347 336.967 49.3332 338.651 46.9849C340.363 44.6367 342.662 42.8355 345.548 41.5814C348.434 40.3272 351.795 39.7039 355.63 39.7114C359.269 39.7185 362.53 40.3267 365.411 41.5361C368.32 42.7176 370.654 44.4998 372.413 46.8828C374.172 49.2658 375.217 51.8574 375.547 54.6575C375.878 57.4576 376.036 62.357 376.022 69.3557L376 80.9875ZM358.365 58.6132C358.371 55.4498 358.193 53.4339 357.831 52.5653C357.496 51.6688 356.783 51.2195 355.692 51.2174C354.768 51.2156 354.053 51.5781 353.548 52.305C353.071 53.0039 352.829 55.1031 352.822 58.6024L352.76 90.3485C352.752 94.2957 352.901 96.7316 353.207 97.656C353.542 98.5805 354.296 99.0438 355.472 99.0461C356.676 99.0485 357.447 98.5181 357.785 97.455C358.123 96.3918 358.296 93.8586 358.304 89.8554L358.365 58.6132ZM435.33 61.8709L418.911 61.8388L418.921 56.7998C418.926 54.4482 418.719 52.9501 418.3 52.3054C417.881 51.6607 417.182 51.3374 416.202 51.3355C415.138 51.3334 414.326 51.7657 413.764 52.6325C413.231 53.4993 412.962 54.8145 412.959 56.5782C412.954 58.8458 413.259 60.554 413.872 61.703C414.458 62.852 416.121 64.241 418.861 65.87C426.719 70.5605 431.666 74.4054 433.704 77.4049C435.742 80.4043 436.754 85.2354 436.741 91.8981C436.732 96.7412 436.151 100.309 434.999 102.603C433.874 104.896 431.687 106.824 428.437 108.385C425.186 109.918 421.405 110.681 417.094 110.672C412.363 110.663 408.32 109.759 404.964 107.961C401.636 106.163 399.457 103.877 398.426 101.104C397.396 98.3301 396.886 94.3958 396.896 89.3008L396.904 84.8496L413.323 84.8817L413.307 93.1541C413.302 95.7017 413.523 97.3398 413.969 98.0685C414.444 98.7973 415.269 99.1629 416.445 99.1652C417.621 99.1674 418.489 98.7072 419.051 97.7845C419.641 96.8618 419.937 95.4906 419.941 93.671C419.949 89.6677 419.408 87.0492 418.319 85.8153C417.201 84.5813 414.448 82.5183 410.058 79.6263C405.669 76.7063 402.761 74.587 401.336 73.2684C399.911 71.9499 398.725 70.1279 397.777 67.8025C396.858 65.4771 396.402 62.5088 396.409 58.8975C396.419 53.6904 397.085 49.8844 398.405 47.4795C399.753 45.0745 401.913 43.2031 404.883 41.8651C407.853 40.4992 411.438 39.8203 415.637 39.8285C420.228 39.8375 424.132 40.5869 427.348 42.077C430.593 43.567 432.731 45.4468 433.762 47.7164C434.821 49.9581 435.346 53.7804 435.335 59.1834L435.33 61.8709ZM483.073 41.3879L482.941 109.373L465.262 109.339L465.318 80.7839L460.027 80.7736L459.971 109.328L442.292 109.294L442.425 41.3085L460.104 41.343L460.056 65.6565L465.347 65.6668L465.395 41.3534L483.073 41.3879ZM530.531 81.2892C530.517 88.1199 530.34 92.9626 529.998 95.8175C529.685 98.6443 528.672 101.232 526.96 103.58C525.276 105.928 522.99 107.73 520.105 108.984C517.219 110.238 513.858 110.861 510.023 110.854C506.383 110.847 503.109 110.252 500.2 109.071C497.319 107.861 494.999 106.065 493.24 103.682C491.481 101.299 490.436 98.7077 490.106 95.9076C489.775 93.1074 489.617 88.208 489.63 81.2093L489.653 69.5775C489.666 62.7468 489.83 57.918 490.143 55.0911C490.485 52.2363 491.498 49.6348 493.182 47.2865C494.894 44.9383 497.193 43.1371 500.079 41.883C502.965 40.6288 506.326 40.0055 510.161 40.013C513.8 40.0201 517.061 40.6284 519.942 41.8378C522.851 43.0192 525.185 44.8014 526.944 47.1844C528.703 49.5674 529.748 52.159 530.078 54.9591C530.409 57.7593 530.567 62.6587 530.553 69.6574L530.531 81.2892ZM512.896 58.9149C512.902 55.7515 512.724 53.7355 512.362 52.8669C512.027 51.9704 511.314 51.5211 510.223 51.519C509.299 51.5172 508.584 51.8797 508.079 52.6066C507.602 53.3056 507.359 55.4047 507.353 58.904L507.291 90.6501C507.283 94.5973 507.432 97.0332 507.738 97.9576C508.072 98.8821 508.827 99.3455 510.003 99.3478C511.207 99.3501 511.978 98.8197 512.316 97.7566C512.654 96.6934 512.827 94.1602 512.835 90.157L512.896 58.9149ZM603.759 41.6234L595.773 109.593L573.686 109.55C571.69 99.1042 569.936 87.231 568.422 73.9305C567.711 79.6121 566.05 91.4786 563.44 109.53L541.478 109.487L533.716 41.4867L550.891 41.5202L552.65 65.2493L554.453 88.1386C555.12 76.2981 556.774 60.7642 559.415 41.5369L577.808 41.5728C578.056 43.5609 578.685 51.0367 579.695 64.0003L581.577 89.8292C582.589 73.3982 584.258 57.3185 586.584 41.5899L603.759 41.6234ZM662.806 81.5473C662.793 88.3781 662.615 93.2208 662.274 96.0756C661.96 98.9025 660.947 101.49 659.235 103.838C657.551 106.187 655.266 107.988 652.38 109.242C649.494 110.496 646.133 111.119 642.298 111.112C638.659 111.105 635.384 110.51 632.475 109.329C629.594 108.12 627.274 106.323 625.515 103.94C623.756 101.557 622.711 98.9659 622.381 96.1657C622.05 93.3656 621.892 88.4662 621.906 81.4675L621.928 69.8357C621.942 63.005 622.105 58.1762 622.418 55.3493C622.76 52.4945 623.773 49.893 625.457 47.5447C627.169 45.1965 629.468 43.3953 632.354 42.1412C635.24 40.887 638.601 40.2637 642.436 40.2712C646.075 40.2783 649.336 40.8865 652.217 42.0959C655.126 43.2774 657.46 45.0596 659.219 47.4426C660.978 49.8256 662.023 52.4172 662.353 55.2173C662.684 58.0174 662.842 62.9169 662.829 69.9155L662.806 81.5473ZM645.171 59.173C645.177 56.0096 644.999 53.9937 644.637 53.1251C644.302 52.2286 643.589 51.7793 642.498 51.7772C641.574 51.7754 640.859 52.1379 640.354 52.8648C639.877 53.5637 639.635 55.6629 639.628 59.1622L639.566 90.9083C639.558 94.8555 639.707 97.2914 640.013 98.2158C640.348 99.1403 641.103 99.6037 642.278 99.6059C643.482 99.6083 644.253 99.0779 644.591 98.0148C644.929 96.9516 645.102 94.4184 645.11 90.4152L645.171 59.173ZM669.518 41.7518L699.459 41.8102L699.432 55.4157L687.17 55.3917L687.145 68.2833L698.063 68.3046L698.038 81.2382L687.12 81.2169L687.064 109.772L669.386 109.737L669.518 41.7518ZM703.784 41.8187L733.724 41.8771L733.698 55.4825L721.436 55.4586L721.411 68.3502L732.329 68.3715L732.304 81.3051L721.386 81.2838L721.33 109.838L703.651 109.804L703.784 41.8187ZM790.917 41.9887L777.941 85.3414L777.893 109.949L761.516 109.917L761.564 85.3095L749.219 41.9073L765.47 41.9391C767.992 55.1855 769.402 64.1047 769.701 68.6964C770.695 61.4477 772.35 52.5345 774.667 41.957L790.917 41.9887ZM834.302 81.8821C834.288 88.7128 834.111 93.5556 833.769 96.4104C833.456 99.2372 832.443 101.825 830.731 104.173C829.046 106.521 826.761 108.322 823.875 109.577C820.99 110.831 817.629 111.454 813.794 111.447C810.154 111.44 806.88 110.845 803.971 109.664C801.09 108.454 798.77 106.658 797.011 104.275C795.252 101.892 794.207 99.3006 793.877 96.5005C793.546 93.7003 793.388 88.8009 793.401 81.8023L793.424 70.1704C793.437 63.3397 793.601 58.5109 793.914 55.6841C794.256 52.8293 795.269 50.2277 796.953 47.8794C798.665 45.5312 800.964 43.73 803.85 42.4759C806.736 41.2218 810.097 40.5984 813.932 40.6059C817.571 40.613 820.831 41.2213 823.713 42.4307C826.622 43.6121 828.956 45.3944 830.715 47.7774C832.474 50.1604 833.519 52.7519 833.849 55.552C834.18 58.3522 834.338 63.2516 834.324 70.2503L834.302 81.8821ZM816.667 59.5078C816.673 56.3444 816.495 54.3284 816.132 53.4598C815.798 52.5634 815.085 52.1141 813.993 52.1119C813.07 52.1101 812.355 52.4727 811.85 53.1995C811.372 53.8985 811.13 55.9976 811.124 59.497L811.062 91.243C811.054 95.1902 811.203 97.6261 811.509 98.5505C811.843 99.475 812.598 99.9384 813.774 99.9407C814.978 99.943 815.749 99.4126 816.087 98.3495C816.425 97.2863 816.598 94.7532 816.606 90.7499L816.667 59.5078ZM881.201 42.165L881.112 87.6004C881.102 92.7514 880.927 96.3764 880.587 98.4754C880.247 100.546 879.249 102.686 877.593 104.894C875.937 107.075 873.75 108.736 871.032 109.879C868.343 110.993 865.164 111.547 861.497 111.54C857.437 111.532 853.855 110.853 850.751 109.503C847.646 108.153 845.326 106.399 843.79 104.24C842.255 102.082 841.349 99.8125 841.074 97.4324C840.799 95.0243 840.669 89.985 840.684 82.3145L840.762 42.086L858.441 42.1205L858.341 93.0989C858.335 96.0664 858.486 97.9703 858.792 98.8108C859.126 99.6233 859.783 100.03 860.763 100.032C861.883 100.035 862.598 99.5881 862.908 98.6928C863.245 97.7697 863.417 95.6144 863.424 92.227L863.522 42.1304L881.201 42.165Z" fill="#F9D3E0"/>
</svg>
