<svg width="930" height="140" viewBox="0 0 930 140" fill="none" xmlns="http://www.w3.org/2000/svg">
<rect x="8.84668" y="0.52832" width="921" height="139" fill="#04839D"/>
<path d="M73.4442 40.6313L73.3115 108.616L57.8584 108.586L57.948 62.689L51.6856 108.574L40.7256 108.553L34.3044 63.6926L34.2168 108.54L18.7637 108.51L18.8964 40.5248L41.7821 40.5695C42.446 44.658 43.1505 49.4745 43.8955 55.0189L46.2973 72.3244L50.3905 40.5863L73.4442 40.6313ZM120.727 40.7236L120.639 86.159C120.629 91.3101 120.454 94.935 120.113 97.034C119.774 99.1049 118.776 101.245 117.12 103.453C115.464 105.633 113.277 107.295 110.559 108.437C107.869 109.552 104.691 110.105 101.023 110.098C96.9643 110.09 93.3822 109.412 90.2775 108.062C87.1727 106.712 84.8525 104.958 83.317 102.799C81.7815 100.64 80.8761 98.3711 80.6008 95.991C80.3256 93.583 80.1954 88.5436 80.2104 80.8731L80.2889 40.6446L97.9676 40.6791L97.8681 91.6576C97.8623 94.625 98.0125 96.5289 98.3188 97.3694C98.6532 98.1819 99.3103 98.5891 100.29 98.591C101.41 98.5932 102.125 98.1467 102.434 97.2514C102.772 96.3283 102.944 94.173 102.951 90.7856L103.049 40.6891L120.727 40.7236ZM168.792 70.4639L151.114 70.4294L151.137 58.5876C151.144 55.1443 150.952 53.0023 150.561 52.1617C150.199 51.2931 149.374 50.8576 148.086 50.8551C146.631 50.8523 145.706 51.3684 145.312 52.4034C144.918 53.4384 144.718 55.6776 144.711 59.121L144.649 90.6991C144.643 94.0024 144.835 96.1584 145.225 97.167C145.615 98.1756 146.495 98.6812 147.867 98.6839C149.183 98.6864 150.038 98.1842 150.432 97.1772C150.854 96.1702 151.068 93.805 151.075 90.0817L151.092 81.5573L168.771 81.5918L168.766 84.2373C168.752 91.264 168.238 96.2461 167.225 99.1836C166.239 102.121 164.036 104.692 160.617 106.897C157.225 109.102 153.038 110.2 148.055 110.19C142.876 110.18 138.608 109.234 135.253 107.352C131.897 105.469 129.676 102.876 128.591 99.5701C127.506 96.2366 126.97 91.2384 126.983 84.5757L127.021 64.7134C127.031 59.8144 127.206 56.1474 127.547 53.7125C127.887 51.2496 128.886 48.886 130.542 46.6216C132.226 44.3573 134.539 42.5842 137.481 41.3022C140.451 39.9922 143.854 39.341 147.689 39.3484C152.896 39.3586 157.191 40.3748 160.575 42.397C163.958 44.4193 166.179 46.9431 167.237 49.9687C168.295 52.9662 168.817 57.6423 168.805 63.9971L168.792 70.4639ZM215.839 40.9092L215.707 108.894L198.028 108.86L198.084 80.3053L192.793 80.295L192.737 108.85L175.058 108.815L175.191 40.8299L192.87 40.8644L192.822 65.1778L198.113 65.1881L198.161 40.8747L215.839 40.9092ZM255.858 40.9873L255.725 108.973L238.047 108.938L238.179 40.9528L255.858 40.9873ZM319.376 70.7578L301.697 70.7233L301.721 58.8816C301.727 55.4382 301.535 53.2962 301.145 52.4556C300.783 51.5871 299.958 51.1515 298.67 51.149C297.214 51.1462 296.29 51.6623 295.896 52.6973C295.502 53.7324 295.301 55.9716 295.295 59.4149L295.233 90.993C295.227 94.2964 295.418 96.4523 295.808 97.4609C296.198 98.4695 297.079 98.9751 298.451 98.9778C299.767 98.9804 300.621 98.4781 301.015 97.4711C301.437 96.4641 301.652 94.0989 301.659 90.3756L301.676 81.8512L319.354 81.8857L319.349 84.5312C319.335 91.5579 318.822 96.54 317.808 99.4775C316.823 102.415 314.62 104.986 311.2 107.191C307.809 109.396 303.621 110.494 298.638 110.484C293.459 110.474 289.192 109.528 285.836 107.646C282.481 105.763 280.26 103.17 279.175 99.864C278.089 96.5305 277.553 91.5324 277.566 84.8696L277.605 65.0073C277.615 60.1083 277.79 56.4413 278.13 54.0064C278.471 51.5435 279.47 49.1799 281.126 46.9156C282.81 44.6513 285.123 42.8781 288.065 41.5961C291.035 40.2861 294.437 39.6349 298.273 39.6424C303.48 39.6525 307.775 40.6687 311.158 42.691C314.542 44.7132 316.762 47.2371 317.82 50.2626C318.878 53.2601 319.401 57.9362 319.389 64.2911L319.376 70.7578ZM356.303 41.1834L366.29 109.188L348.192 109.153L347.334 96.9316L340.993 96.9192L339.919 109.137L321.611 109.101L330.73 41.1335L356.303 41.1834ZM346.853 84.8789C345.973 77.1786 345.095 67.6726 344.222 56.361C342.405 69.3471 341.266 78.8491 340.807 84.8671L346.853 84.8789ZM408.919 41.2861L408.786 109.271L393.291 109.241L384.155 78.3169L384.095 109.223L369.314 109.194L369.447 41.209L384.228 41.2379L394.078 71.8695L394.138 41.2572L408.919 41.2861ZM486.647 41.4378L486.558 86.8732C486.548 92.0243 486.373 95.6493 486.033 97.7482C485.693 99.8192 484.695 101.959 483.039 104.167C481.383 106.348 479.196 108.009 476.478 109.151C473.789 110.266 470.61 110.82 466.943 110.813C462.883 110.805 459.301 110.126 456.197 108.776C453.092 107.426 450.772 105.672 449.236 103.513C447.701 101.355 446.795 99.0854 446.52 96.7053C446.245 94.2972 446.115 89.2578 446.13 81.5873L446.208 41.3589L463.887 41.3934L463.787 92.3718C463.782 95.3392 463.932 97.2432 464.238 98.0836C464.572 98.8961 465.23 99.3033 466.209 99.3052C467.329 99.3074 468.044 98.8609 468.354 97.9657C468.691 97.0425 468.863 94.8872 468.87 91.4999L468.968 41.4033L486.647 41.4378ZM529.101 41.5206L529.074 55.1261L518.576 55.1056L518.47 109.485L500.791 109.451L500.897 55.0711L490.441 55.0507L490.468 41.4452L529.101 41.5206ZM550.81 41.563L550.678 109.548L532.999 109.514L533.132 41.5285L550.81 41.563ZM575.586 41.6114L575.48 95.9912L586.23 96.0121L586.203 109.618L557.774 109.562L557.907 41.5769L575.586 41.6114ZM608.34 41.6753L608.207 109.661L590.528 109.626L590.661 41.6408L608.34 41.6753ZM644.999 41.7469L644.972 55.3523L631.707 96.1009L644.893 96.1266L644.866 109.732L612.28 109.668L612.299 99.8003L625.992 55.3153L613.982 55.2918L614.009 41.6864L644.999 41.7469ZM649.618 41.7559L679.096 41.8134L679.07 55.4189L667.27 55.3958L667.245 68.2874L678.289 68.309L678.264 81.2425L667.22 81.221L667.19 96.1702L680.166 96.1955L680.139 109.801L649.485 109.741L649.618 41.7559ZM738.873 62.5063L722.454 62.4743L722.464 57.4352C722.469 55.0836 722.262 53.5855 721.843 52.9408C721.424 52.2961 720.725 51.9728 719.745 51.9709C718.681 51.9688 717.869 52.4012 717.307 53.2679C716.774 54.1347 716.505 55.4499 716.502 57.2136C716.497 59.4812 716.802 61.1895 717.415 62.3384C718.001 63.4874 719.664 64.8764 722.404 66.5054C730.262 71.1959 735.209 75.0408 737.247 78.0403C739.285 81.0397 740.297 85.8708 740.284 92.5335C740.275 97.3766 739.694 100.945 738.542 103.238C737.417 105.532 735.23 107.459 731.98 109.02C728.729 110.554 724.948 111.316 720.637 111.308C715.906 111.298 711.863 110.395 708.507 108.597C705.179 106.798 703 104.513 701.969 101.739C700.939 98.9655 700.429 95.0313 700.439 89.9362L700.447 85.4851L716.866 85.5171L716.85 93.7895C716.845 96.3371 717.066 97.9752 717.512 98.7039C717.987 99.4327 718.812 99.7983 719.988 99.8006C721.164 99.8029 722.032 99.3426 722.594 98.4199C723.184 97.4972 723.48 96.1261 723.484 94.3064C723.492 90.3032 722.951 87.6846 721.861 86.4507C720.744 85.2167 717.991 83.1537 713.601 80.2617C709.212 77.3417 706.304 75.2224 704.879 73.9038C703.454 72.5853 702.268 70.7633 701.32 68.4379C700.401 66.1125 699.945 63.1442 699.952 59.5329C699.962 54.3258 700.628 50.5198 701.948 48.1149C703.296 45.7099 705.456 43.8385 708.426 42.5005C711.396 41.1346 714.981 40.4557 719.18 40.4639C723.771 40.4729 727.675 41.2224 730.891 42.7124C734.136 44.2024 736.274 46.0823 737.305 48.3518C738.364 50.5935 738.889 54.4158 738.878 59.8188L738.873 62.5063ZM788.516 42.027L778.336 72.7035L789.349 110.014L771.083 109.978L764.001 80.822L763.944 109.965L746.265 109.93L746.398 41.9448L764.077 41.9793L764.025 68.3923L771.929 41.9946L788.516 42.027ZM810.698 42.0703L810.565 110.056L792.887 110.021L793.019 42.0358L810.698 42.0703ZM835.903 42.1195L835.797 96.4993L846.547 96.5202L846.521 110.126L818.092 110.07L818.225 42.085L835.903 42.1195ZM869.087 42.1843L868.981 96.564L879.731 96.585L879.704 110.19L851.276 110.135L851.408 42.1497L869.087 42.1843ZM922.009 62.8638L905.59 62.8317L905.6 57.7927C905.605 55.4411 905.398 53.943 904.979 53.2983C904.56 52.6536 903.861 52.3303 902.881 52.3284C901.817 52.3263 901.005 52.7586 900.443 53.6254C899.91 54.4922 899.641 55.8074 899.638 57.5711C899.633 59.8386 899.938 61.5469 900.551 62.6959C901.137 63.8448 902.8 65.2338 905.54 66.8629C913.398 71.5533 918.345 75.3983 920.383 78.3977C922.421 81.3971 923.433 86.2282 923.42 92.891C923.411 97.7341 922.83 101.302 921.678 103.596C920.553 105.889 918.366 107.816 915.116 109.378C911.865 110.911 908.084 111.674 903.773 111.665C899.042 111.656 894.999 110.752 891.643 108.954C888.315 107.156 886.136 104.87 885.105 102.096C884.075 99.323 883.565 95.3887 883.575 90.2937L883.583 85.8425L900.002 85.8746L899.986 94.147C899.981 96.6945 900.202 98.3327 900.648 99.0614C901.123 99.7902 901.948 100.156 903.124 100.158C904.3 100.16 905.168 99.7001 905.73 98.7774C906.32 97.8547 906.616 96.4835 906.62 94.6639C906.628 90.6606 906.087 88.042 904.997 86.8081C903.88 85.5742 901.127 83.5112 896.737 80.6192C892.348 77.6991 889.44 75.5798 888.015 74.2613C886.59 72.9428 885.404 71.1208 884.456 68.7954C883.537 66.47 883.081 63.5016 883.088 59.8903C883.098 54.6833 883.764 50.8773 885.084 48.4723C886.432 46.0674 888.592 44.196 891.562 42.858C894.532 41.4921 898.117 40.8132 902.316 40.8214C906.907 40.8303 910.811 41.5798 914.027 43.0698C917.272 44.5599 919.41 46.4397 920.441 48.7093C921.5 50.951 922.025 54.7733 922.014 60.1763L922.009 62.8638Z" fill="#FBD4CA"/>
</svg>
