<svg width="714" height="80" viewBox="0 0 714 80" fill="none" xmlns="http://www.w3.org/2000/svg">
<rect width="714" height="80" fill="#3F52A0"/>
<path d="M22.9844 54V50.9238L25.709 50.3965V32.0273L22.9844 31.5V28.4062H33.9355V31.5L30.8418 32.0273V50.0625H38.0664L38.3125 46.3184H42.2324V54H22.9844ZM44.0781 54V50.9238L46.8027 50.3965V32.0273L44.0781 31.5V28.4062H63.9414V35.3145H60.0039L59.7754 32.3613H51.9355V38.7949H60.6016V42.75H51.9355V50.0625H60.1973L60.4258 47.0039H64.3281V54H44.0781ZM73.3105 54V50.9238L76.0527 50.3965V32.3613H71.3945L71.1133 35.4199H67.2285V28.4062H90.0625V35.4199H86.1602L85.8789 32.3613H81.1855V50.3965L83.9453 50.9238V54H73.3105ZM100.68 54V50.9238L103.404 50.3965V32.0273L100.68 31.5V28.4062H110.998L117.977 46.248H118.082L124.832 28.4062H135.168V31.5L132.426 32.0273V50.3965L135.168 50.9238V54H124.568V50.9238L127.434 50.3965V45.4922L127.521 33.9434L127.416 33.9258L119.77 53.6484H115.885L108.062 34.084L107.957 34.1016L108.256 44.9648V50.3965L111.279 50.9238V54H100.68ZM136.996 54V50.9238L139.721 50.3965V32.0273L136.996 31.5V28.4062H156.859V35.3145H152.922L152.693 32.3613H144.854V38.7949H153.52V42.75H144.854V50.0625H153.115L153.344 47.0039H157.246V54H136.996ZM168.812 54V50.9238L171.537 50.3965V32.0273L168.812 31.5V28.4062H179.395V31.5L176.67 32.0273V50.3965L179.395 50.9238V54H168.812ZM181.363 54V50.9238L184.088 50.3965V32.0273L181.363 31.5V28.4062H189.291L200.436 46.1602L200.541 46.1426V32.0273L197.271 31.5V28.4062H207.871V31.5L205.129 32.0273V54H200.172L188.781 36.4219L188.676 36.4395V50.3965L191.963 50.9238V54H181.363ZM215.447 54V50.9238L218.189 50.3965V32.3613H213.531L213.25 35.4199H209.365V28.4062H232.199V35.4199H228.297L228.016 32.3613H223.322V50.3965L226.082 50.9238V54H215.447ZM233.992 54V50.9238L236.717 50.3965V32.0273L233.992 31.5V28.4062H246.121C249.062 28.4062 251.371 29.0859 253.047 30.4453C254.723 31.793 255.561 33.6562 255.561 36.0352C255.561 37.5469 255.174 38.9004 254.4 40.0957C253.639 41.291 252.59 42.2227 251.254 42.8906L254.506 50.4141L256.686 50.9238V54H250.463L246.525 43.8926H241.85V50.3965L244.592 50.9238V54H233.992ZM241.85 39.9375H246.033C248.975 39.9375 250.445 38.7129 250.445 36.2637C250.445 35.0801 250.082 34.1367 249.355 33.4336C248.629 32.7188 247.551 32.3613 246.121 32.3613H241.85V39.9375ZM270.467 54.3691C268.158 54.3691 266.137 53.8125 264.402 52.6992C262.668 51.5742 261.314 50.0332 260.342 48.0762C259.381 46.1191 258.9 43.8926 258.9 41.3965V41.0098C258.9 38.5254 259.381 36.3047 260.342 34.3477C261.314 32.3906 262.662 30.8496 264.385 29.7246C266.119 28.5996 268.141 28.0371 270.449 28.0371C272.758 28.0371 274.785 28.5996 276.531 29.7246C278.289 30.8496 279.654 32.3906 280.627 34.3477C281.611 36.3047 282.104 38.5254 282.104 41.0098V41.3965C282.104 43.8926 281.617 46.1191 280.645 48.0762C279.672 50.0332 278.307 51.5742 276.549 52.6992C274.803 53.8125 272.775 54.3691 270.467 54.3691ZM270.467 50.3789C272.635 50.3789 274.264 49.5586 275.354 47.918C276.443 46.2656 276.988 44.0918 276.988 41.3965V40.9746C276.988 39.2051 276.742 37.6523 276.25 36.3164C275.758 34.9688 275.025 33.9199 274.053 33.1699C273.092 32.4199 271.891 32.0449 270.449 32.0449C268.293 32.0449 266.682 32.8652 265.615 34.5059C264.561 36.1465 264.033 38.3027 264.033 40.9746V41.3965C264.033 44.0918 264.566 46.2656 265.633 47.918C266.711 49.5586 268.322 50.3789 270.467 50.3789ZM284.16 54V50.9238L286.92 50.3438V32.0977L284.16 31.5V28.4062H295.393C297.678 28.4062 299.693 28.9453 301.439 30.0234C303.186 31.0898 304.545 32.5723 305.518 34.4707C306.502 36.3574 306.994 38.5254 306.994 40.9746V41.4492C306.994 43.875 306.508 46.0371 305.535 47.9355C304.574 49.8223 303.227 51.3047 301.492 52.3828C299.758 53.4609 297.748 54 295.463 54H284.16ZM292.053 50.0801H295.199C296.617 50.0801 297.818 49.7109 298.803 48.9727C299.799 48.2227 300.555 47.1973 301.07 45.8965C301.586 44.5957 301.844 43.1133 301.844 41.4492V40.957C301.844 39.2695 301.586 37.7812 301.07 36.4922C300.555 35.1914 299.799 34.1777 298.803 33.4512C297.818 32.7129 296.617 32.3438 295.199 32.3438H292.053V50.0801ZM321.883 54.3691C319.844 54.3691 318.057 54.0176 316.521 53.3145C314.986 52.6113 313.791 51.5918 312.936 50.2559C312.08 48.9199 311.652 47.2969 311.652 45.3867V32.0273L308.928 31.5V28.4062H319.527V31.5L316.785 32.0273V45.3867C316.785 47.0742 317.236 48.3398 318.139 49.1836C319.053 50.0156 320.301 50.4316 321.883 50.4316C323.488 50.4316 324.748 50.0156 325.662 49.1836C326.576 48.3516 327.033 47.0859 327.033 45.3867V32.0273L324.309 31.5V28.4062H334.908V31.5L332.166 32.0273V45.3867C332.166 47.2969 331.732 48.9258 330.865 50.2734C330.01 51.6094 328.809 52.6289 327.262 53.332C325.727 54.0234 323.934 54.3691 321.883 54.3691ZM348.76 54.3691C346.264 54.3691 344.096 53.8535 342.256 52.8223C340.428 51.7793 339.01 50.3086 338.002 48.4102C337.006 46.5 336.508 44.2441 336.508 41.6426V40.7812C336.508 38.2969 336.988 36.0996 337.949 34.1895C338.922 32.2676 340.299 30.7617 342.08 29.6719C343.873 28.582 346.012 28.0371 348.496 28.0371C350.219 28.0371 351.842 28.2832 353.365 28.7754C354.889 29.2676 356.248 30.0176 357.443 31.0254V37.2129H353.629L353.102 33.3281C352.516 32.918 351.854 32.5957 351.115 32.3613C350.377 32.1152 349.545 31.9922 348.619 31.9922C346.451 31.9922 344.746 32.7832 343.504 34.3652C342.262 35.9355 341.641 38.0625 341.641 40.7461V41.6426C341.641 44.3379 342.285 46.4766 343.574 48.0586C344.863 49.6406 346.621 50.4316 348.848 50.4316C349.586 50.4316 350.324 50.3496 351.062 50.1855C351.812 50.0098 352.492 49.7871 353.102 49.5176L353.629 45.9141H357.443V52.0312C356.447 52.6875 355.205 53.2441 353.717 53.7012C352.229 54.1465 350.576 54.3691 348.76 54.3691ZM359.816 54V50.9238L362.541 50.3965V32.0273L359.816 31.5V28.4062H379.68V35.3145H375.742L375.514 32.3613H367.674V38.7949H376.34V42.75H367.674V50.0625H375.936L376.164 47.0039H380.066V54H359.816ZM391.633 54V50.9238L394.357 50.3965V32.0273L391.633 31.5V28.4062H401.951L408.93 46.248H409.035L415.785 28.4062H426.121V31.5L423.379 32.0273V50.3965L426.121 50.9238V54H415.521V50.9238L418.387 50.3965V45.4922L418.475 33.9434L418.369 33.9258L410.723 53.6484H406.838L399.016 34.084L398.91 34.1016L399.209 44.9648V50.3965L402.232 50.9238V54H391.633ZM434.91 54V50.9238L437.652 50.3965V45.2285L430.059 31.8516L427.598 31.5V28.4062H437.811V31.5L435.719 31.7988L439.973 39.9727L440.359 40.7988L440.465 40.7812L440.852 40.0078L445.58 31.7988L442.768 31.5V28.4062H452.787V31.5L450.256 31.8516L442.768 44.8242V50.3965L445.51 50.9238V54H434.91ZM464.617 54.3691C462.73 54.3691 461.014 54.1582 459.467 53.7363C457.92 53.3145 456.396 52.582 454.896 51.5391V45.3516H458.869L459.414 48.9902C459.93 49.4355 460.65 49.7988 461.576 50.0801C462.514 50.3496 463.527 50.4844 464.617 50.4844C466.012 50.4844 467.078 50.2031 467.816 49.6406C468.555 49.0664 468.924 48.293 468.924 47.3203C468.924 46.4062 468.572 45.6387 467.869 45.0176C467.178 44.3848 465.959 43.7988 464.213 43.2598C461.178 42.3809 458.916 41.3379 457.428 40.1309C455.939 38.9238 455.195 37.2715 455.195 35.1738C455.195 33.791 455.576 32.5723 456.338 31.5176C457.111 30.4512 458.178 29.6133 459.537 29.0039C460.896 28.3945 462.467 28.0781 464.248 28.0547C466.217 28.0312 467.957 28.2656 469.469 28.7578C470.992 29.25 472.305 29.9355 473.406 30.8145V36.5801H469.557L468.889 33.0645C468.443 32.7832 467.84 32.5371 467.078 32.3262C466.328 32.1152 465.473 32.0098 464.512 32.0098C463.281 32.0098 462.273 32.2852 461.488 32.8359C460.703 33.3867 460.311 34.1602 460.311 35.1562C460.311 36.0117 460.674 36.7266 461.4 37.3008C462.139 37.8633 463.492 38.4609 465.461 39.0938C468.285 39.8789 470.424 40.916 471.877 42.2051C473.342 43.4941 474.074 45.1875 474.074 47.2852C474.074 48.75 473.682 50.0098 472.896 51.0645C472.111 52.1191 471.004 52.9336 469.574 53.5078C468.156 54.082 466.504 54.3691 464.617 54.3691ZM476.113 54V50.9238L478.838 50.3965V32.0273L476.113 31.5V28.4062H495.977V35.3145H492.039L491.811 32.3613H483.971V38.7949H492.637V42.75H483.971V50.0625H492.232L492.461 47.0039H496.363V54H476.113ZM499.105 54V50.9238L501.83 50.3965V32.0273L499.105 31.5V28.4062H510.057V31.5L506.963 32.0273V50.0625H514.188L514.434 46.3184H518.354V54H499.105ZM520.199 54V50.9238L522.924 50.3965V32.0273L520.199 31.5V28.4062H540.572V35.4199H536.635L536.406 32.3613H528.057V39.4102H537.021V43.3652H528.057V50.3965L530.799 50.9238V54H520.199ZM557.166 54V50.9238L559.908 50.3965V32.3613H555.25L554.969 35.4199H551.084V28.4062H573.918V35.4199H570.016L569.734 32.3613H565.041V50.3965L567.801 50.9238V54H557.166ZM586.943 54.3691C584.635 54.3691 582.613 53.8125 580.879 52.6992C579.145 51.5742 577.791 50.0332 576.818 48.0762C575.857 46.1191 575.377 43.8926 575.377 41.3965V41.0098C575.377 38.5254 575.857 36.3047 576.818 34.3477C577.791 32.3906 579.139 30.8496 580.861 29.7246C582.596 28.5996 584.617 28.0371 586.926 28.0371C589.234 28.0371 591.262 28.5996 593.008 29.7246C594.766 30.8496 596.131 32.3906 597.104 34.3477C598.088 36.3047 598.58 38.5254 598.58 41.0098V41.3965C598.58 43.8926 598.094 46.1191 597.121 48.0762C596.148 50.0332 594.783 51.5742 593.025 52.6992C591.279 53.8125 589.252 54.3691 586.943 54.3691ZM586.943 50.3789C589.111 50.3789 590.74 49.5586 591.83 47.918C592.92 46.2656 593.465 44.0918 593.465 41.3965V40.9746C593.465 39.2051 593.219 37.6523 592.727 36.3164C592.234 34.9688 591.502 33.9199 590.529 33.1699C589.568 32.4199 588.367 32.0449 586.926 32.0449C584.77 32.0449 583.158 32.8652 582.092 34.5059C581.037 36.1465 580.51 38.3027 580.51 40.9746V41.3965C580.51 44.0918 581.043 46.2656 582.109 47.918C583.188 49.5586 584.799 50.3789 586.943 50.3789ZM616.422 54V50.9238L619.164 50.3965V45.2285L611.57 31.8516L609.109 31.5V28.4062H619.322V31.5L617.23 31.7988L621.484 39.9727L621.871 40.7988L621.977 40.7812L622.363 40.0078L627.092 31.7988L624.279 31.5V28.4062H634.299V31.5L631.768 31.8516L624.279 44.8242V50.3965L627.021 50.9238V54H616.422ZM647.166 54.3691C644.857 54.3691 642.836 53.8125 641.102 52.6992C639.367 51.5742 638.014 50.0332 637.041 48.0762C636.08 46.1191 635.6 43.8926 635.6 41.3965V41.0098C635.6 38.5254 636.08 36.3047 637.041 34.3477C638.014 32.3906 639.361 30.8496 641.084 29.7246C642.818 28.5996 644.84 28.0371 647.148 28.0371C649.457 28.0371 651.484 28.5996 653.23 29.7246C654.988 30.8496 656.354 32.3906 657.326 34.3477C658.311 36.3047 658.803 38.5254 658.803 41.0098V41.3965C658.803 43.8926 658.316 46.1191 657.344 48.0762C656.371 50.0332 655.006 51.5742 653.248 52.6992C651.502 53.8125 649.475 54.3691 647.166 54.3691ZM647.166 50.3789C649.334 50.3789 650.963 49.5586 652.053 47.918C653.143 46.2656 653.688 44.0918 653.688 41.3965V40.9746C653.688 39.2051 653.441 37.6523 652.949 36.3164C652.457 34.9688 651.725 33.9199 650.752 33.1699C649.791 32.4199 648.59 32.0449 647.148 32.0449C644.992 32.0449 643.381 32.8652 642.314 34.5059C641.26 36.1465 640.732 38.3027 640.732 40.9746V41.3965C640.732 44.0918 641.266 46.2656 642.332 47.918C643.41 49.5586 645.021 50.3789 647.166 50.3789ZM673.516 54.3691C671.477 54.3691 669.689 54.0176 668.154 53.3145C666.619 52.6113 665.424 51.5918 664.568 50.2559C663.713 48.9199 663.285 47.2969 663.285 45.3867V32.0273L660.561 31.5V28.4062H671.16V31.5L668.418 32.0273V45.3867C668.418 47.0742 668.869 48.3398 669.771 49.1836C670.686 50.0156 671.934 50.4316 673.516 50.4316C675.121 50.4316 676.381 50.0156 677.295 49.1836C678.209 48.3516 678.666 47.0859 678.666 45.3867V32.0273L675.941 31.5V28.4062H686.541V31.5L683.799 32.0273V45.3867C683.799 47.2969 683.365 48.9258 682.498 50.2734C681.643 51.6094 680.441 52.6289 678.895 53.332C677.359 54.0234 675.566 54.3691 673.516 54.3691Z" fill="#F9D3E0"/>
</svg>
