<svg width="280" height="130" viewBox="0 0 280 130" fill="none" xmlns="http://www.w3.org/2000/svg">
<rect x="1" y="1" width="278" height="128" fill="#F9D3E0" stroke="#B33F4C" stroke-width="2"/>
<path d="M109.875 38.4062L103.188 89H83.2188L75.625 38.4062H89.5C91.1042 52.3438 92.25 64.125 92.9375 73.75C93.625 64.0208 94.3438 55.375 95.0938 47.8125L96 38.4062H109.875ZM125.281 38.4062V89H112.125V38.4062H125.281ZM130.562 38.4062H152.5V48.5312H143.719V58.125H151.938V67.75H143.719V78.875H153.375V89H130.562V38.4062ZM206.688 38.4062L200.844 89H184.406C182.906 81.2292 181.583 72.3958 180.438 62.5C179.917 66.7292 178.698 75.5625 176.781 89H160.438L154.562 38.4062H167.344L168.688 56.0625L170.062 73.0938C170.542 64.2812 171.75 52.7188 173.688 38.4062H187.375C187.562 39.8854 188.042 45.4479 188.812 55.0938L190.25 74.3125C190.979 62.0833 192.198 50.1146 193.906 38.4062H206.688Z" fill="#B33F4C"/>
</svg>
