<svg width="591" height="324" viewBox="0 0 591 324" fill="none" xmlns="http://www.w3.org/2000/svg">
<path d="M214.719 0.789062L172.922 317H48.1172L0.65625 0.789062H87.375C97.401 87.8984 104.562 161.531 108.859 221.688C113.156 160.88 117.648 106.844 122.336 59.5781L128 0.789062H214.719ZM415.695 0.789062V212.117C415.695 236.076 414.914 252.938 413.352 262.703C411.789 272.339 407.167 282.299 399.484 292.586C391.802 302.742 381.646 310.49 369.016 315.828C356.516 321.036 341.737 323.641 324.68 323.641C305.799 323.641 289.133 320.516 274.68 314.266C260.227 308.016 249.419 299.878 242.258 289.852C235.096 279.826 230.865 269.279 229.562 258.211C228.26 247.013 227.609 223.576 227.609 187.898V0.789062H309.836V237.898C309.836 251.701 310.552 260.555 311.984 264.461C313.547 268.237 316.607 270.125 321.164 270.125C326.372 270.125 329.693 268.042 331.125 263.875C332.688 259.578 333.469 249.552 333.469 233.797V0.789062H415.695ZM447.531 0.789062H584.641V64.0703H529.758V124.031H581.125V184.188H529.758V253.719H590.109V317H447.531V0.789062Z" fill="#3F52A0"/>
</svg>
