<svg width="585" height="198" viewBox="0 0 585 198" fill="none" xmlns="http://www.w3.org/2000/svg">
<rect x="13.5469" width="573.552" height="144" transform="rotate(5.39817 13.5469 0)" fill="#B33F4C"/>
<path d="M99.3628 43.7742L83.8358 116.949L59.8001 114.68C58.6791 103.11 57.9636 90.0111 57.6538 75.3828C56.3085 81.495 53.3074 94.2434 48.6504 113.628L24.7517 111.373L23.1429 36.5809L41.8323 38.3447L41.3607 64.3481L41.0209 89.4418C42.9377 76.6218 46.3003 59.8813 51.1085 39.2202L71.1231 41.109C71.1931 43.2978 71.1262 51.4977 70.9222 65.7088L70.372 94.0098C73.1258 76.2283 76.5596 58.8951 80.6734 42.0104L99.3628 43.7742ZM147.434 48.3109L140.452 122.292L121.215 120.476L124.147 89.4033L118.39 88.86L115.457 119.933L96.2193 118.117L103.201 44.1364L122.439 45.952L119.942 72.4096L125.7 72.953L128.197 46.4954L147.434 48.3109ZM188.423 52.1792L192.454 127.199L172.759 125.341L173.054 111.953L166.154 111.302L163.757 124.491L143.834 122.611L160.595 49.5529L188.423 52.1792ZM173.744 98.7865C173.56 90.317 173.561 79.8826 173.747 67.4833C170.464 81.4344 168.269 91.6618 167.164 98.1655L173.744 98.7865ZM236.266 56.6944L234.869 71.4997L223.445 70.4216L217.86 129.597L198.623 127.782L204.207 68.6061L192.829 67.5322L194.226 52.7269L236.266 56.6944ZM250.843 58.0701L250.218 64.696C249.893 68.1383 249.213 70.9479 248.178 73.1246C247.145 75.2708 245.535 77.0244 243.347 78.3854C241.193 79.7188 238.811 80.539 236.2 80.8458L236.704 75.4995C238.627 74.6667 239.792 73.3936 240.2 71.6801L237.093 71.3869L238.46 56.9014L250.843 58.0701ZM295.019 84.8294L277.152 83.1432L277.67 77.6598C277.911 75.1009 277.837 73.4495 277.446 72.7057C277.055 71.9619 276.327 71.5397 275.26 71.4391C274.103 71.3298 273.175 71.7186 272.476 72.6055C271.808 73.4953 271.384 74.8997 271.203 76.8189C270.97 79.2865 271.13 81.1764 271.682 82.4887C272.204 83.798 273.874 85.4771 276.693 87.5257C284.773 93.421 289.771 98.1034 291.687 101.573C293.604 105.042 294.22 110.402 293.535 117.653C293.038 122.923 292.047 126.748 290.562 129.128C289.108 131.511 286.533 133.389 282.838 134.761C279.147 136.103 274.955 136.553 270.264 136.11C265.115 135.624 260.805 134.234 257.334 131.939C253.892 129.648 251.751 126.941 250.908 123.818C250.065 120.696 249.906 116.363 250.429 110.818L250.886 105.975L268.753 107.661L267.904 116.663C267.642 119.435 267.717 121.24 268.13 122.078C268.573 122.919 269.435 123.4 270.714 123.521C271.993 123.641 272.985 123.228 273.689 122.28C274.424 121.335 274.885 119.873 275.072 117.892C275.483 113.536 275.158 110.632 274.096 109.179C273.004 107.724 270.215 105.202 265.728 101.612C261.244 97.9929 258.293 95.3939 256.874 93.8155C255.456 92.237 254.348 90.1347 253.551 87.5085C252.784 84.8851 252.586 81.6086 252.957 77.6788C253.492 72.0125 254.599 67.937 256.278 65.4523C257.987 62.9704 260.526 61.1508 263.893 59.9932C267.263 58.8053 271.233 58.4269 275.802 58.8582C280.798 59.3297 284.972 60.538 288.323 62.4832C291.704 64.4313 293.842 66.6923 294.736 69.2662C295.664 71.8126 295.85 76.0255 295.295 81.9049L295.019 84.8294ZM364.305 68.7781L357.323 142.759L340.461 141.168L333.628 106.591L330.454 140.223L314.369 138.705L321.351 64.7243L337.436 66.2423L345.076 100.572L348.22 67.2601L364.305 68.7781ZM372.073 69.5112L404.151 72.5386L402.754 87.3439L389.913 86.1321L388.589 100.161L400.607 101.295L399.279 115.369L387.261 114.235L385.726 130.502L399.846 131.835L398.449 146.64L365.091 143.492L372.073 69.5112ZM449.984 76.864L440.179 108.948L446.429 151.168L428.608 149.486C427.171 141.913 426.068 132.757 425.299 122.02C424.371 126.635 423.234 131.522 421.886 136.681L418.92 148.572L400.185 146.804L411.025 106.197L407.167 72.8232L425.765 74.5784C425.907 76.6511 426.257 80.111 426.814 84.9582C427.264 88.6581 427.605 92.0405 427.839 95.1053L433.853 75.3417L449.984 76.864ZM494.902 81.1032L493.505 95.9085L482.081 94.8304L476.496 154.006L457.259 152.19L462.843 93.0148L451.465 91.941L452.862 77.1357L494.902 81.1032ZM515.499 107.112L497.038 105.37C497.711 98.8872 498.706 94.2019 500.024 91.3142C501.342 88.4265 503.826 86.0332 507.479 84.1342C511.164 82.2077 515.688 81.4974 521.049 82.0034C524.918 82.3685 528.242 83.2969 531.021 84.7886C533.8 86.2803 535.939 88.2033 537.438 90.5577C538.94 92.8816 539.968 95.3451 540.521 97.9484C541.075 100.552 541.097 104.549 540.588 109.941L539.734 118.989C539.346 123.102 538.653 126.371 537.656 128.797C536.659 131.223 534.791 133.26 532.054 134.907C529.317 136.554 526.227 137.216 522.785 136.891C518.307 136.468 515.136 134.402 513.273 130.691L512.523 138.642L495.296 137.016L497.215 116.682L514.031 118.269C513.827 121.077 514.7 122.574 516.65 122.758C518.173 122.901 519.19 122.383 519.701 121.202C520.246 119.993 520.745 116.982 521.199 112.168L522.359 99.8764C522.615 97.1652 522.588 95.3339 522.278 94.3826C522.002 93.4037 521.3 92.8611 520.173 92.7547C518.772 92.6225 517.814 93.1622 517.3 94.3738C516.789 95.555 516.33 98.3085 515.921 102.634L515.499 107.112ZM512.165 142.435L510.768 157.24L493.541 155.614L494.938 140.809L512.165 142.435ZM568.198 88.0205L559.925 143.439L545.668 142.093L547.909 86.1057L568.198 88.0205ZM561.105 147.054L559.708 161.859L542.435 160.229L543.832 145.424L561.105 147.054Z" fill="#F9D3E0"/>
</svg>
