<svg width="1596" height="686" viewBox="0 0 1596 686" fill="none" xmlns="http://www.w3.org/2000/svg">
<mask id="path-1-inside-1" fill="white">
<path fill-rule="evenodd" clip-rule="evenodd" d="M1595.17 20.4429H26.269V622H26V686H134.818L151.969 622.114H1595.17V20.4429Z"/>
</mask>
<path fill-rule="evenodd" clip-rule="evenodd" d="M1595.17 20.4429H26.269V622H26V686H134.818L151.969 622.114H1595.17V20.4429Z" fill="#1E8CA2"/>
<path d="M26.269 20.4429V18.4429H24.269V20.4429H26.269ZM1595.17 20.4429H1597.17V18.4429H1595.17V20.4429ZM26.269 622V624H28.269V622H26.269ZM26 622V620H24V622H26ZM26 686H24V688H26V686ZM134.818 686V688H136.352L136.75 686.519L134.818 686ZM151.969 622.114V620.114H150.435L150.038 621.596L151.969 622.114ZM1595.17 622.114V624.114H1597.17V622.114H1595.17ZM26.269 22.4429H1595.17V18.4429H26.269V22.4429ZM28.269 622V20.4429H24.269V622H28.269ZM26 624H26.269V620H26V624ZM28 686V622H24V686H28ZM134.818 684H26V688H134.818V684ZM150.038 621.596L132.887 685.481L136.75 686.519L153.901 622.633L150.038 621.596ZM1595.17 620.114H151.969V624.114H1595.17V620.114ZM1593.17 20.4429V622.114H1597.17V20.4429H1593.17Z" fill="#1E8CA2" mask="url(#path-1-inside-1)"/>
<mask id="path-3-inside-2" fill="white">
<path fill-rule="evenodd" clip-rule="evenodd" d="M1567.09 0H0V598V599.5V666H118.329L135.61 599.5H1567.09V0Z"/>
</mask>
<path fill-rule="evenodd" clip-rule="evenodd" d="M1567.09 0H0V598V599.5V666H118.329L135.61 599.5H1567.09V0Z" fill="#FBD4CA"/>
<path d="M0 0V-2H-2V0H0ZM1567.09 0H1569.09V-2H1567.09V0ZM0 666H-2V668H0V666ZM118.329 666V668H119.876L120.265 666.503L118.329 666ZM135.61 599.5V597.5H134.064L133.675 598.997L135.61 599.5ZM1567.09 599.5V601.5H1569.09V599.5H1567.09ZM0 2H1567.09V-2H0V2ZM2 598V0H-2V598H2ZM2 599.5V598H-2V599.5H2ZM2 666V599.5H-2V666H2ZM118.329 664H0V668H118.329V664ZM133.675 598.997L116.393 665.497L120.265 666.503L137.546 600.003L133.675 598.997ZM1567.09 597.5H135.61V601.5H1567.09V597.5ZM1565.09 0V599.5H1569.09V0H1565.09Z" fill="#1E8CA2" mask="url(#path-3-inside-2)"/>
<rect x="14" y="20" width="784" height="547" fill="#04839D"/>
<path d="M926.222 20.2588C935.399 32.2267 944.497 44.2251 953.753 56.1321C969.841 76.8399 986.022 97.4717 1002.38 118.393C993.311 130.01 984.385 141.506 975.35 153.017C960.443 172.126 945.442 191.19 930.708 210.406C929.829 211.755 928.582 212.845 927.105 213.554C925.627 214.263 923.977 214.564 922.334 214.425C912.7 214.136 903.066 214.334 892.299 214.334L966.456 118.408C954.477 102.999 942.624 87.8181 930.865 72.6679C917.937 56.1727 905.029 39.6876 892.142 23.2127C891.524 22.2773 890.997 21.2884 890.568 20.2588L926.222 20.2588Z" fill="#04839D"/>
<path d="M1058.62 20.2588C1073.38 39.2511 1088.12 58.2435 1102.87 77.2358C1113.46 90.8482 1124.09 104.445 1134.97 118.347C1127.06 128.498 1119.16 138.679 1111.24 148.891C1095.31 169.294 1079.29 189.622 1063.48 210.131C1062.51 211.606 1061.13 212.788 1059.49 213.546C1057.86 214.305 1056.04 214.609 1054.24 214.425C1045.18 214.075 1036.09 214.319 1025.91 214.319L1100.1 118.393C1092.64 108.8 1085.27 99.2683 1077.86 89.7823C1060.67 67.7244 1043.41 45.6563 1026.08 23.5781C1025.33 22.5097 1024.63 21.4015 1024.01 20.2588L1058.62 20.2588Z" fill="#04839D"/>
<path d="M990.383 20.2588L1067.04 118.408C1052.77 136.68 1038.71 154.769 1024.54 172.797C1014.53 185.617 1004.57 198.468 994.35 211.137C992.817 212.877 990.643 213.97 988.289 214.182C979.679 214.517 970.974 214.319 961.246 214.319C986.29 181.948 1010.77 150.368 1035.45 118.393L958.822 20.2588H990.383Z" fill="#04839D"/>
<path d="M856.976 20.2588C873.766 41.8802 890.557 63.5067 907.348 85.1383C915.911 96.1469 924.505 107.125 933.321 118.408L903.664 156.382C889.497 174.578 875.22 192.743 861.163 211.015C860.403 212.158 859.333 213.077 858.07 213.673C856.808 214.269 855.4 214.519 854.001 214.395C845.595 214.182 837.189 214.395 827.65 214.395L901.744 118.484L825.399 20.2588H856.976Z" fill="#04839D"/>
<path d="M1198.54 21.7815C1207.72 33.7494 1216.82 45.7478 1226.08 57.6548C1242.16 78.3626 1258.35 98.9944 1274.7 119.915C1265.63 131.533 1256.65 143.029 1247.67 154.54C1232.77 173.649 1217.76 192.713 1203.03 211.928C1202.15 213.278 1200.9 214.367 1199.43 215.077C1197.95 215.786 1196.3 216.087 1194.66 215.948C1185.02 215.659 1175.39 215.857 1164.62 215.857L1238.78 119.931C1226.77 104.506 1214.95 89.3256 1203.11 74.2515C1190.23 57.7157 1177.35 41.2103 1164.46 24.7354C1163.85 23.8 1163.32 22.8111 1162.89 21.7815H1198.54Z" fill="#04839D"/>
<path d="M1330.94 21.7815C1345.69 40.7738 1360.44 59.7662 1375.19 78.7585C1385.78 92.3709 1396.41 105.968 1407.29 119.87C1399.39 130.021 1391.48 140.202 1383.57 150.414C1367.64 170.817 1351.61 191.144 1335.81 211.654C1334.83 213.128 1333.45 214.311 1331.82 215.069C1330.18 215.827 1328.37 216.132 1326.57 215.948C1317.5 215.598 1308.42 215.841 1298.23 215.841L1372.42 119.915C1364.96 110.323 1357.59 100.791 1350.18 91.305C1332.99 69.2471 1315.73 47.1791 1298.41 25.1008C1297.65 24.0324 1296.96 22.9242 1296.33 21.7815H1330.94Z" fill="#04839D"/>
<path d="M1262.71 21.7815L1339.36 119.93C1325.09 138.202 1311.03 156.291 1296.86 174.319C1286.85 187.139 1276.89 199.99 1266.67 212.659C1265.14 214.399 1262.96 215.492 1260.61 215.704C1252 216.039 1243.37 215.841 1233.57 215.841C1258.61 183.47 1283.09 151.89 1307.77 119.915L1231.14 21.7815H1262.71Z" fill="#04839D"/>
<path d="M1403.18 21.7815C1412.36 33.7494 1421.46 45.7478 1430.71 57.6548C1446.8 78.3626 1462.98 98.9944 1479.34 119.915C1470.27 131.533 1461.28 143.029 1452.31 154.54C1437.4 173.649 1422.4 192.713 1407.67 211.928C1406.79 213.278 1405.54 214.367 1404.06 215.077C1402.59 215.786 1400.93 216.087 1399.29 215.948C1389.66 215.659 1380.02 215.857 1369.26 215.857L1443.41 119.931C1431.4 104.506 1419.58 89.3256 1407.74 74.2515C1394.87 57.7157 1381.99 41.2103 1369.1 24.7354C1368.48 23.8 1367.96 22.8111 1367.53 21.7815H1403.18Z" fill="#04839D"/>
<path d="M1467.34 21.7815L1544 119.93C1529.72 138.202 1515.67 156.291 1501.5 174.319C1491.49 187.139 1481.52 199.99 1471.31 212.659C1469.77 214.399 1467.6 215.492 1465.25 215.704C1456.64 216.039 1448.01 215.841 1438.2 215.841C1463.25 183.47 1487.73 151.89 1512.41 119.915L1435.78 21.7815H1467.34Z" fill="#04839D"/>
<path d="M1129.3 21.7815C1146.09 43.4029 1162.88 65.0294 1179.67 86.661C1188.23 97.6696 1196.83 108.648 1205.64 119.931L1175.99 157.905C1161.82 176.101 1147.54 194.266 1133.49 212.537C1132.73 213.68 1131.66 214.6 1130.39 215.196C1129.13 215.792 1127.72 216.042 1126.32 215.918C1117.92 215.704 1109.51 215.918 1099.97 215.918L1174.07 120.007L1097.72 21.7815H1129.3Z" fill="#04839D"/>
<path d="M916.625 344V335.797L923.891 334.391V285.406L916.625 284V275.75H945.828V284L937.578 285.406V333.5H956.844L957.5 323.516H967.953V344H916.625ZM1002.92 344.984C996.766 344.984 991.375 343.5 986.75 340.531C982.125 337.531 978.516 333.422 975.922 328.203C973.359 322.984 972.078 317.047 972.078 310.391V309.359C972.078 302.734 973.359 296.812 975.922 291.594C978.516 286.375 982.109 282.266 986.703 279.266C991.328 276.266 996.719 274.766 1002.88 274.766C1009.03 274.766 1014.44 276.266 1019.09 279.266C1023.78 282.266 1027.42 286.375 1030.02 291.594C1032.64 296.812 1033.95 302.734 1033.95 309.359V310.391C1033.95 317.047 1032.66 322.984 1030.06 328.203C1027.47 333.422 1023.83 337.531 1019.14 340.531C1014.48 343.5 1009.08 344.984 1002.92 344.984ZM1002.92 334.344C1008.7 334.344 1013.05 332.156 1015.95 327.781C1018.86 323.375 1020.31 317.578 1020.31 310.391V309.266C1020.31 304.547 1019.66 300.406 1018.34 296.844C1017.03 293.25 1015.08 290.453 1012.48 288.453C1009.92 286.453 1006.72 285.453 1002.88 285.453C997.125 285.453 992.828 287.641 989.984 292.016C987.172 296.391 985.766 302.141 985.766 309.266V310.391C985.766 317.578 987.188 323.375 990.031 327.781C992.906 332.156 997.203 334.344 1002.92 334.344ZM1035.92 344V335.797L1040.8 335.094L1062.5 275.75H1076.52L1098.08 335.094L1102.95 335.797V344H1079.7V335.797L1084.44 334.953L1081.44 325.578H1057.44L1054.44 334.953L1059.17 335.797V344H1035.92ZM1060.67 315.5H1078.2L1070.23 292.109L1069.58 290.047H1069.3L1068.59 292.25L1060.67 315.5ZM1107.5 344V335.797L1114.86 334.25V285.594L1107.5 284V275.75H1137.45C1143.55 275.75 1148.92 277.188 1153.58 280.062C1158.23 282.906 1161.86 286.859 1164.45 291.922C1167.08 296.953 1168.39 302.734 1168.39 309.266V310.531C1168.39 317 1167.09 322.766 1164.5 327.828C1161.94 332.859 1158.34 336.812 1153.72 339.688C1149.09 342.562 1143.73 344 1137.64 344H1107.5ZM1128.55 333.547H1136.94C1140.72 333.547 1143.92 332.562 1146.55 330.594C1149.2 328.594 1151.22 325.859 1152.59 322.391C1153.97 318.922 1154.66 314.969 1154.66 310.531V309.219C1154.66 304.719 1153.97 300.75 1152.59 297.312C1151.22 293.844 1149.2 291.141 1146.55 289.203C1143.92 287.234 1140.72 286.25 1136.94 286.25H1128.55V333.547ZM1174.34 344V335.797L1181.61 334.391V285.406L1174.34 284V275.75H1202.56V284L1195.3 285.406V334.391L1202.56 335.797V344H1174.34ZM1207.81 344V335.797L1215.08 334.391V285.406L1207.81 284V275.75H1228.95L1258.67 323.094L1258.95 323.047V285.406L1250.23 284V275.75H1278.5V284L1271.19 285.406V344H1257.97L1227.59 297.125L1227.31 297.172V334.391L1236.08 335.797V344H1207.81ZM1314.73 344.984C1307.95 344.984 1302.17 343.578 1297.39 340.766C1292.61 337.953 1288.94 334.047 1286.38 329.047C1283.84 324.047 1282.58 318.25 1282.58 311.656V309.312C1282.58 302.5 1283.84 296.5 1286.38 291.312C1288.91 286.125 1292.48 282.078 1297.11 279.172C1301.77 276.234 1307.27 274.766 1313.61 274.766C1318.48 274.766 1323.08 275.438 1327.39 276.781C1331.73 278.125 1335.5 280.141 1338.69 282.828V297.969H1328.56L1326.64 288.828C1325.39 287.766 1323.73 286.922 1321.67 286.297C1319.64 285.641 1317.3 285.312 1314.64 285.312C1310.8 285.312 1307.5 286.312 1304.75 288.312C1302 290.312 1299.89 293.109 1298.42 296.703C1296.95 300.297 1296.22 304.469 1296.22 309.219V311.656C1296.22 318.594 1297.84 324.141 1301.09 328.297C1304.34 332.422 1309.03 334.484 1315.16 334.484C1317.56 334.484 1319.77 334.25 1321.77 333.781C1323.8 333.312 1325.47 332.766 1326.78 332.141V320.562L1317.03 319.812V310.203H1340.52V337.812C1337.48 339.969 1333.83 341.703 1329.55 343.016C1325.27 344.328 1320.33 344.984 1314.73 344.984ZM915.922 490V481.797L920.797 481.094L942.5 421.75H956.516L978.078 481.094L982.953 481.797V490H959.703V481.797L964.438 480.953L961.438 471.578H937.438L934.438 480.953L939.172 481.797V490H915.922ZM940.672 461.5H958.203L950.234 438.109L949.578 436.047H949.297L948.594 438.25L940.672 461.5ZM987.5 490V481.797L994.766 480.391V431.406L987.5 430V421.75H1008.64L1038.36 469.094L1038.64 469.047V431.406L1029.92 430V421.75H1058.19V430L1050.88 431.406V490H1037.66L1007.28 443.125L1007 443.172V480.391L1015.77 481.797V490H987.5ZM1062.69 490V481.797L1069.95 480.391V431.406L1062.69 430V421.75H1090.91V430L1083.64 431.406V480.391L1090.91 481.797V490H1062.69ZM1096.16 490V481.797L1103.42 480.391V431.406L1096.16 430V421.75H1123.67L1142.28 469.328H1142.56L1160.56 421.75H1188.12V430L1180.81 431.406V480.391L1188.12 481.797V490H1159.86V481.797L1167.5 480.391V467.312L1167.73 436.516L1167.45 436.469L1147.06 489.062H1136.7L1115.84 436.891L1115.56 436.938L1116.36 465.906V480.391L1124.42 481.797V490H1096.16ZM1187.8 490V481.797L1192.67 481.094L1214.38 421.75H1228.39L1249.95 481.094L1254.83 481.797V490H1231.58V481.797L1236.31 480.953L1233.31 471.578H1209.31L1206.31 480.953L1211.05 481.797V490H1187.8ZM1212.55 461.5H1230.08L1222.11 438.109L1221.45 436.047H1221.17L1220.47 438.25L1212.55 461.5ZM1268.05 490V481.797L1275.36 480.391V432.297H1262.94L1262.19 440.453H1251.83V421.75H1312.72V440.453H1302.31L1301.56 432.297H1289.05V480.391L1296.41 481.797V490H1268.05ZM1317.5 490V481.797L1324.77 480.391V431.406L1317.5 430V421.75H1345.72V430L1338.45 431.406V480.391L1345.72 481.797V490H1317.5ZM1382.23 490.984C1376.08 490.984 1370.69 489.5 1366.06 486.531C1361.44 483.531 1357.83 479.422 1355.23 474.203C1352.67 468.984 1351.39 463.047 1351.39 456.391V455.359C1351.39 448.734 1352.67 442.812 1355.23 437.594C1357.83 432.375 1361.42 428.266 1366.02 425.266C1370.64 422.266 1376.03 420.766 1382.19 420.766C1388.34 420.766 1393.75 422.266 1398.41 425.266C1403.09 428.266 1406.73 432.375 1409.33 437.594C1411.95 442.812 1413.27 448.734 1413.27 455.359V456.391C1413.27 463.047 1411.97 468.984 1409.38 474.203C1406.78 479.422 1403.14 483.531 1398.45 486.531C1393.8 489.5 1388.39 490.984 1382.23 490.984ZM1382.23 480.344C1388.02 480.344 1392.36 478.156 1395.27 473.781C1398.17 469.375 1399.62 463.578 1399.62 456.391V455.266C1399.62 450.547 1398.97 446.406 1397.66 442.844C1396.34 439.25 1394.39 436.453 1391.8 434.453C1389.23 432.453 1386.03 431.453 1382.19 431.453C1376.44 431.453 1372.14 433.641 1369.3 438.016C1366.48 442.391 1365.08 448.141 1365.08 455.266V456.391C1365.08 463.578 1366.5 469.375 1369.34 473.781C1372.22 478.156 1376.52 480.344 1382.23 480.344ZM1418.75 490V481.797L1426.02 480.391V431.406L1418.75 430V421.75H1439.89L1469.61 469.094L1469.89 469.047V431.406L1461.17 430V421.75H1489.44V430L1482.12 431.406V490H1468.91L1438.53 443.125L1438.25 443.172V480.391L1447.02 481.797V490H1418.75Z" fill="#04839D"/>
</svg>
