<svg width="1596" height="686" viewBox="0 0 1596 686" fill="none" xmlns="http://www.w3.org/2000/svg">
<mask id="path-1-inside-1" fill="white">
<path fill-rule="evenodd" clip-rule="evenodd" d="M1595.17 20.4429H26.269V622H26V686H254L289.936 622.114H1595.17V20.4429Z"/>
</mask>
<path fill-rule="evenodd" clip-rule="evenodd" d="M1595.17 20.4429H26.269V622H26V686H254L289.936 622.114H1595.17V20.4429Z" fill="#1E8CA2"/>
<path d="M26.269 20.4429V18.4429H24.269V20.4429H26.269ZM1595.17 20.4429H1597.17V18.4429H1595.17V20.4429ZM26.269 622V624H28.269V622H26.269ZM26 622V620H24V622H26ZM26 686H24V688H26V686ZM254 686V688H255.17L255.743 686.981L254 686ZM289.936 622.114V620.114H288.766L288.193 621.134L289.936 622.114ZM1595.17 622.114V624.114H1597.17V622.114H1595.17ZM26.269 22.4429H1595.17V18.4429H26.269V22.4429ZM28.269 622V20.4429H24.269V622H28.269ZM26 624H26.269V620H26V624ZM28 686V622H24V686H28ZM254 684H26V688H254V684ZM288.193 621.134L252.257 685.019L255.743 686.981L291.679 623.095L288.193 621.134ZM1595.17 620.114H289.936V624.114H1595.17V620.114ZM1593.17 20.4429V622.114H1597.17V20.4429H1593.17Z" fill="#1E8CA2" mask="url(#path-1-inside-1)"/>
<mask id="path-3-inside-2" fill="white">
<path fill-rule="evenodd" clip-rule="evenodd" d="M1567.09 0H0V597.514V599.5V666H239.592L274.335 599.5H1567.09V0Z"/>
</mask>
<path fill-rule="evenodd" clip-rule="evenodd" d="M1567.09 0H0V597.514V599.5V666H239.592L274.335 599.5H1567.09V0Z" fill="#FBD4CA"/>
<path d="M0 0V-2H-2V0H0ZM1567.09 0H1569.09V-2H1567.09V0ZM0 666H-2V668H0V666ZM239.592 666V668H240.804L241.365 666.926L239.592 666ZM274.335 599.5V597.5H273.123L272.562 598.574L274.335 599.5ZM1567.09 599.5V601.5H1569.09V599.5H1567.09ZM0 2H1567.09V-2H0V2ZM2 597.514V0H-2V597.514H2ZM2 599.5V597.514H-2V599.5H2ZM2 666V599.5H-2V666H2ZM239.592 664H0V668H239.592V664ZM272.562 598.574L237.819 665.074L241.365 666.926L276.108 600.426L272.562 598.574ZM1567.09 597.5H274.335V601.5H1567.09V597.5ZM1565.09 0V599.5H1569.09V0H1565.09Z" fill="#1E8CA2" mask="url(#path-3-inside-2)"/>
<path d="M82.6289 640.41C79.8555 640.41 77.4466 639.837 75.4023 638.691C73.3711 637.533 71.7956 635.898 70.6758 633.789C69.569 631.667 69.0156 629.16 69.0156 626.27V625.312C69.0156 622.552 69.5495 620.111 70.6172 617.988C71.6979 615.853 73.2279 614.18 75.207 612.969C77.1992 611.758 79.5755 611.152 82.3359 611.152C84.25 611.152 86.0534 611.426 87.7461 611.973C89.4388 612.52 90.9492 613.353 92.2773 614.473V621.348H88.0391L87.4531 617.031C86.8021 616.576 86.0664 616.217 85.2461 615.957C84.4258 615.684 83.5013 615.547 82.4727 615.547C80.0638 615.547 78.1693 616.426 76.7891 618.184C75.4089 619.928 74.7188 622.292 74.7188 625.273V626.27C74.7188 629.264 75.4349 631.641 76.8672 633.398C78.2995 635.156 80.2526 636.035 82.7266 636.035C83.5469 636.035 84.3672 635.944 85.1875 635.762C86.0208 635.566 86.776 635.319 87.4531 635.02L88.0391 631.016H92.2773V637.812C91.1706 638.542 89.7904 639.16 88.1367 639.668C86.4831 640.163 84.6471 640.41 82.6289 640.41ZM94.9141 640V636.582L97.9414 635.996V615.586L94.9141 615V611.562H107.082V615L103.645 615.586V635.625H111.672L111.945 631.465H116.301V640H94.9141ZM118.352 640V636.582L121.379 635.996V615.586L118.352 615V611.562H130.109V615L127.082 615.586V635.996L130.109 636.582V640H118.352ZM145.832 640.41C143.059 640.41 140.65 639.837 138.605 638.691C136.574 637.533 134.999 635.898 133.879 633.789C132.772 631.667 132.219 629.16 132.219 626.27V625.312C132.219 622.552 132.753 620.111 133.82 617.988C134.901 615.853 136.431 614.18 138.41 612.969C140.402 611.758 142.779 611.152 145.539 611.152C147.453 611.152 149.257 611.426 150.949 611.973C152.642 612.52 154.152 613.353 155.48 614.473V621.348H151.242L150.656 617.031C150.005 616.576 149.27 616.217 148.449 615.957C147.629 615.684 146.704 615.547 145.676 615.547C143.267 615.547 141.372 616.426 139.992 618.184C138.612 619.928 137.922 622.292 137.922 625.273V626.27C137.922 629.264 138.638 631.641 140.07 633.398C141.503 635.156 143.456 636.035 145.93 636.035C146.75 636.035 147.57 635.944 148.391 635.762C149.224 635.566 149.979 635.319 150.656 635.02L151.242 631.016H155.48V637.812C154.374 638.542 152.993 639.16 151.34 639.668C149.686 640.163 147.85 640.41 145.832 640.41ZM158.117 640V636.582L161.145 635.996V615.586L158.117 615V611.562H169.738V615L166.848 615.586V625.371L176.633 615.293L176.672 615.234L173.859 615V611.562H185.559V615L182.883 615.527L174.66 623.887L183.781 636.094L186.574 636.582V640H174.484V636.582L177.141 636.348H177.16L170.891 627.715L166.848 631.816V635.996L169.738 636.582V640H158.117ZM189.543 630.195V611.562H195.246V630.195H189.543ZM189.543 640V635H195.246V640H189.543Z" fill="#04839D"/>
<path d="M86.7627 475V463.208L93.7705 462.197L124.969 376.891H145.116L176.112 462.197L183.12 463.208V475H149.698V463.208L156.504 461.995L152.191 448.519H117.691L113.379 461.995L120.185 463.208V475H86.7627ZM122.341 434.031H147.542L136.087 400.407L135.144 397.442H134.739L133.729 400.609L122.341 434.031ZM189.656 475V463.208L200.101 461.187V390.771L189.656 388.75V376.891H220.046L262.767 444.947L263.171 444.88V390.771L250.638 388.75V376.891H291.27V388.75L280.758 390.771V475H261.756L218.092 407.617L217.688 407.685V461.187L230.288 463.208V475H189.656ZM297.738 475V463.208L308.183 461.187V390.771L297.738 388.75V376.891H338.303V388.75L327.858 390.771V461.187L338.303 463.208V475H297.738ZM345.85 475V463.208L356.294 461.187V390.771L345.85 388.75V376.891H385.403L412.154 445.284H412.559L438.434 376.891H478.055V388.75L467.543 390.771V461.187L478.055 463.208V475H437.423V463.208L448.406 461.187V442.387L448.743 398.116L448.339 398.049L419.027 473.652H404.136L374.15 398.655L373.746 398.723L374.892 440.365V461.187L386.481 463.208V475H345.85ZM477.583 475V463.208L484.591 462.197L515.789 376.891H535.937L566.933 462.197L573.94 463.208V475H540.519V463.208L547.324 461.995L543.012 448.519H508.512L504.199 461.995L511.005 463.208V475H477.583ZM513.161 434.031H538.362L526.907 400.407L525.964 397.442H525.56L524.549 400.609L513.161 434.031ZM592.942 475V463.208L603.454 461.187V392.052H585.598L584.52 403.776H569.628V376.891H657.158V403.776H642.199L641.121 392.052H623.13V461.187L633.709 463.208V475H592.942ZM664.031 475V463.208L674.476 461.187V390.771L664.031 388.75V376.891H704.596V388.75L694.151 390.771V461.187L704.596 463.208V475H664.031ZM757.087 476.415C748.237 476.415 740.488 474.281 733.84 470.014C727.191 465.701 722.003 459.794 718.274 452.292C714.591 444.79 712.749 436.255 712.749 426.687V425.204C712.749 415.681 714.591 407.168 718.274 399.666C722.003 392.164 727.169 386.257 733.772 381.944C740.421 377.632 748.17 375.476 757.02 375.476C765.869 375.476 773.641 377.632 780.334 381.944C787.072 386.257 792.306 392.164 796.034 399.666C799.808 407.168 801.694 415.681 801.694 425.204V426.687C801.694 436.255 799.83 444.79 796.102 452.292C792.373 459.794 787.14 465.701 780.401 470.014C773.708 474.281 765.937 476.415 757.087 476.415ZM757.087 461.119C765.397 461.119 771.642 457.975 775.819 451.686C779.997 445.352 782.086 437.019 782.086 426.687V425.069C782.086 418.286 781.143 412.334 779.256 407.213C777.369 402.047 774.562 398.026 770.833 395.151C767.149 392.276 762.545 390.839 757.02 390.839C748.754 390.839 742.577 393.983 738.489 400.272C734.446 406.562 732.425 414.827 732.425 425.069V426.687C732.425 437.019 734.469 445.352 738.557 451.686C742.689 457.975 748.866 461.119 757.087 461.119ZM809.578 475V463.208L820.022 461.187V390.771L809.578 388.75V376.891H839.968L882.688 444.947L883.093 444.88V390.771L870.56 388.75V376.891H911.191V388.75L900.68 390.771V475H881.678L838.014 407.617L837.609 407.685V461.187L850.21 463.208V475H809.578ZM991.512 476.415C984.279 476.415 977.698 475.606 971.769 473.989C965.839 472.372 959.999 469.564 954.249 465.566V441.848H969.478L971.566 455.796C973.543 457.503 976.306 458.896 979.854 459.974C983.448 461.007 987.334 461.523 991.512 461.523C996.857 461.523 1000.95 460.445 1003.78 458.289C1006.61 456.088 1008.02 453.123 1008.02 449.395C1008.02 445.891 1006.67 442.948 1003.98 440.567C1001.33 438.142 996.655 435.896 989.962 433.829C978.327 430.46 969.657 426.462 963.952 421.835C958.247 417.208 955.395 410.874 955.395 402.833C955.395 397.532 956.854 392.86 959.774 388.817C962.739 384.729 966.827 381.518 972.038 379.182C977.249 376.846 983.269 375.633 990.097 375.543C997.644 375.453 1004.31 376.352 1010.11 378.238C1015.95 380.125 1020.98 382.753 1025.2 386.122V408.224H1010.45L1007.89 394.747C1006.18 393.669 1003.87 392.726 1000.95 391.917C998.07 391.108 994.791 390.704 991.107 390.704C986.391 390.704 982.527 391.76 979.518 393.871C976.508 395.982 975.003 398.947 975.003 402.766C975.003 406.045 976.396 408.785 979.181 410.986C982.011 413.143 987.199 415.434 994.746 417.859C1005.57 420.869 1013.77 424.845 1019.34 429.786C1024.96 434.728 1027.76 441.219 1027.76 449.26C1027.76 454.875 1026.26 459.704 1023.25 463.747C1020.24 467.79 1015.99 470.912 1010.51 473.113C1005.08 475.314 998.744 476.415 991.512 476.415ZM1082.28 476.415C1072.71 476.415 1064.4 474.438 1057.34 470.485C1050.34 466.487 1044.9 460.85 1041.04 453.572C1037.22 446.25 1035.31 437.603 1035.31 427.63V424.328C1035.31 414.805 1037.15 406.382 1040.84 399.06C1044.56 391.692 1049.84 385.92 1056.67 381.742C1063.54 377.564 1071.74 375.476 1081.27 375.476C1087.87 375.476 1094.09 376.419 1099.93 378.306C1105.77 380.192 1110.98 383.067 1115.56 386.931V410.649H1100.94L1098.92 395.758C1096.67 394.186 1094.14 392.95 1091.31 392.052C1088.48 391.108 1085.29 390.637 1081.74 390.637C1073.43 390.637 1066.89 393.669 1062.13 399.733C1057.37 405.753 1054.99 413.906 1054.99 424.193V427.63C1054.99 437.962 1057.46 446.16 1062.4 452.225C1067.34 458.289 1074.08 461.321 1082.61 461.321C1085.44 461.321 1088.27 461.007 1091.1 460.378C1093.98 459.704 1096.58 458.851 1098.92 457.817L1100.94 444.004H1115.56V467.453C1111.75 469.969 1106.98 472.103 1101.28 473.854C1095.57 475.562 1089.24 476.415 1082.28 476.415ZM1124.66 475V463.208L1135.1 461.187V390.771L1124.66 388.75V376.891H1171.15C1182.43 376.891 1191.28 379.496 1197.7 384.707C1204.13 389.873 1207.34 397.016 1207.34 406.135C1207.34 411.93 1205.86 417.118 1202.89 421.7C1199.97 426.282 1195.95 429.854 1190.83 432.414L1203.3 461.254L1211.65 463.208V475H1187.8L1172.7 436.255H1154.78V461.187L1165.29 463.208V475H1124.66ZM1154.78 421.094H1170.82C1182.09 421.094 1187.73 416.399 1187.73 407.011C1187.73 402.474 1186.34 398.857 1183.55 396.162C1180.77 393.422 1176.63 392.052 1171.15 392.052H1154.78V421.094ZM1219.54 475V463.208L1229.98 461.187V390.771L1219.54 388.75V376.891H1260.1V388.75L1249.66 390.771V461.187L1260.1 463.208V475H1219.54ZM1267.65 475V463.208L1278.09 461.187V390.771L1267.65 388.75V376.891H1314.34C1321.84 376.891 1328.31 378.216 1333.75 380.866C1339.18 383.472 1343.36 387.133 1346.28 391.85C1349.2 396.521 1350.66 401.979 1350.66 408.224C1350.66 414.468 1349.2 419.948 1346.28 424.665C1343.36 429.337 1339.18 432.976 1333.75 435.581C1328.31 438.142 1321.84 439.422 1314.34 439.422H1297.77V461.187L1308.28 463.208V475H1267.65ZM1297.77 424.261H1314.34C1319.82 424.261 1323.96 422.778 1326.74 419.813C1329.57 416.804 1330.99 412.985 1330.99 408.358C1330.99 403.642 1329.57 399.756 1326.74 396.701C1323.96 393.602 1319.82 392.052 1314.34 392.052H1297.77V424.261ZM1379.57 475V463.208L1390.08 461.187V392.052H1372.22L1371.15 403.776H1356.25V376.891H1443.79V403.776H1428.83L1427.75 392.052H1409.76V461.187L1420.34 463.208V475H1379.57Z" fill="#04839D"/>
<path d="M924.221 18.3818C933.398 30.302 942.497 42.2525 951.753 54.112C967.84 74.7372 984.022 95.2866 1000.38 116.124C991.31 127.696 982.385 139.146 973.349 150.611C958.443 169.644 943.441 188.631 928.707 207.77C927.828 209.114 926.582 210.199 925.104 210.906C923.627 211.612 921.976 211.912 920.333 211.774C910.7 211.486 901.066 211.683 890.299 211.683L964.456 116.139C952.477 100.792 940.624 85.6716 928.865 70.5819C915.936 54.1525 903.028 37.7332 890.142 21.324C889.524 20.3923 888.997 19.4073 888.567 18.3818L924.221 18.3818Z" fill="#04839D"/>
<path d="M1056.62 18.3818C1071.37 37.2984 1086.12 56.2149 1100.87 75.1314C1111.46 88.6895 1122.09 102.232 1132.96 116.079C1125.06 126.189 1117.16 136.33 1109.24 146.501C1093.31 166.823 1077.29 187.069 1061.48 207.497C1060.51 208.965 1059.13 210.143 1057.49 210.898C1055.86 211.653 1054.04 211.956 1052.24 211.773C1043.18 211.425 1034.09 211.667 1023.91 211.667L1098.1 116.124C1090.64 106.57 1083.27 97.076 1075.86 87.6279C1058.67 65.658 1041.41 43.678 1024.08 21.6879C1023.33 20.6237 1022.63 19.52 1022 18.3818L1056.62 18.3818Z" fill="#04839D"/>
<path d="M988.382 18.3818L1065.04 116.139C1050.76 134.338 1036.71 152.355 1022.54 170.311C1012.53 183.081 1002.57 195.88 992.349 208.498C990.817 210.232 988.642 211.32 986.289 211.531C977.678 211.865 968.973 211.668 959.245 211.668C984.29 179.426 1008.77 147.972 1033.45 116.124L956.821 18.3818H988.382Z" fill="#04839D"/>
<path d="M854.975 18.3818C871.766 39.917 888.556 61.4571 905.347 83.0024C913.91 93.9671 922.505 104.901 931.32 116.139L901.664 153.962C887.497 172.085 873.219 190.178 859.162 208.376C858.402 209.515 857.333 210.431 856.07 211.024C854.807 211.618 853.399 211.867 852 211.743C843.594 211.531 835.189 211.743 825.649 211.743L899.743 116.215L823.398 18.3818H854.975Z" fill="#04839D"/>
<path d="M1196.54 19.8984C1205.72 31.8186 1214.82 43.7691 1224.07 55.6286C1240.16 76.2538 1256.34 96.8032 1272.7 117.641C1263.63 129.212 1254.64 140.662 1245.67 152.127C1230.76 171.16 1215.76 190.148 1201.03 209.287C1200.15 210.631 1198.9 211.716 1197.43 212.422C1195.95 213.129 1194.3 213.429 1192.66 213.29C1183.02 213.002 1173.39 213.199 1162.62 213.199L1236.78 117.656C1224.77 102.293 1212.95 87.1731 1201.11 72.1591C1188.23 55.6893 1175.35 39.2498 1162.46 22.8406C1161.85 21.9089 1161.32 20.9239 1160.89 19.8984H1196.54Z" fill="#04839D"/>
<path d="M1328.94 19.8984C1343.69 38.815 1358.44 57.7316 1373.19 76.6482C1383.78 90.2062 1394.41 103.749 1405.29 117.595C1397.38 127.706 1389.48 137.847 1381.56 148.018C1365.63 168.34 1349.61 188.586 1333.81 209.014C1332.83 210.482 1331.45 211.66 1329.82 212.415C1328.18 213.17 1326.37 213.473 1324.57 213.29C1315.5 212.942 1306.42 213.184 1296.23 213.184L1370.42 117.641C1362.96 108.087 1355.59 98.5928 1348.18 89.1447C1330.99 67.1747 1313.73 45.1947 1296.4 23.2045C1295.65 22.1404 1294.96 21.0366 1294.33 19.8984H1328.94Z" fill="#04839D"/>
<path d="M1260.7 19.8984L1337.36 117.656C1323.09 135.854 1309.03 153.871 1294.86 171.827C1284.85 184.596 1274.89 197.396 1264.67 210.014C1263.14 211.747 1260.96 212.835 1258.61 213.047C1250 213.381 1241.37 213.183 1231.57 213.183C1256.61 180.941 1281.09 149.488 1305.77 117.64L1229.14 19.8984H1260.7Z" fill="#04839D"/>
<path d="M1401.18 19.8984C1410.36 31.8186 1419.45 43.7691 1428.71 55.6286C1444.8 76.2538 1460.98 96.8032 1477.34 117.641C1468.27 129.212 1459.28 140.662 1450.31 152.127C1435.4 171.16 1420.4 190.148 1405.67 209.287C1404.79 210.631 1403.54 211.716 1402.06 212.422C1400.58 213.129 1398.93 213.429 1397.29 213.29C1387.66 213.002 1378.02 213.199 1367.26 213.199L1441.41 117.656C1429.4 102.293 1417.58 87.1731 1405.74 72.1591C1392.87 55.6893 1379.99 39.2498 1367.1 22.8406C1366.48 21.9089 1365.95 20.9239 1365.53 19.8984H1401.18Z" fill="#04839D"/>
<path d="M1465.34 19.8984L1542 117.656C1527.72 135.854 1513.66 153.871 1499.5 171.827C1489.49 184.596 1479.52 197.396 1469.31 210.014C1467.77 211.747 1465.6 212.835 1463.25 213.047C1454.64 213.381 1446.01 213.183 1436.2 213.183C1461.25 180.941 1485.72 149.488 1510.41 117.64L1433.78 19.8984H1465.34Z" fill="#04839D"/>
<path d="M1127.3 19.8984C1144.09 41.4336 1160.88 62.9739 1177.67 84.5191C1186.23 95.4839 1194.83 106.418 1203.64 117.656L1173.99 155.479C1159.82 173.602 1145.54 191.695 1131.49 209.893C1130.73 211.032 1129.66 211.948 1128.39 212.542C1127.13 213.135 1125.72 213.384 1124.32 213.26C1115.92 213.048 1107.51 213.26 1097.97 213.26L1172.07 117.732L1095.72 19.8984H1127.3Z" fill="#04839D"/>
<path d="M32.6016 126V117.792L38.6475 116.511V77.2324L32.6016 75.9512V67.7031H58.7471V75.9512L52.7012 77.2324V91.9668H73.9219V77.2324L67.876 75.9512V67.7031H93.9814V75.9512L87.9355 77.2324V116.511L93.9814 117.792V126H67.876V117.792L73.9219 116.511V102.737H52.7012V116.511L58.7471 117.792V126H32.6016ZM93.1246 126V117.792L99.1705 116.511V77.2324L93.1246 75.9512V67.7031H139.69V84.5195H129.08L128.759 78.5137H113.224V90.4854H131.842V101.256H113.224V115.149H129.52L129.84 108.863H140.331V126H93.1246ZM141.476 126V117.792L147.522 116.511V77.2324L141.476 75.9512V67.6631H170.144C174.762 67.6631 178.765 68.3971 182.155 69.8652C185.545 71.3333 188.161 73.4287 190.003 76.1514C191.845 78.8473 192.766 82.0505 192.766 85.7607C192.766 88.9372 191.952 91.9134 190.323 94.6895C188.722 97.4655 186.533 99.7477 183.757 101.536L189.843 116.431L195.368 117.832V126H178.392L171.145 104.979L161.575 104.859V116.511L167.621 117.792V126H141.476ZM161.575 94.0889H170.304C173.027 94.0889 175.122 93.4616 176.59 92.207C178.058 90.9258 178.792 89.084 178.792 86.6816C178.792 84.1992 178.045 82.2106 176.55 80.7158C175.055 79.1943 172.92 78.4336 170.144 78.4336H161.575V94.0889ZM194.311 126V117.792L200.357 116.511V77.2324L194.311 75.9512V67.7031H240.877V84.5195H230.266L229.946 78.5137H214.411V90.4854H233.029V101.256H214.411V115.149H230.707L231.027 108.863H241.517V126H194.311ZM250.35 87.2021L243.784 83.9189C244.691 82.1038 245.399 80.2087 245.906 78.2334C246.413 76.2314 246.666 73.9092 246.666 71.2666V63.5391H257.677V71.3467C257.677 73.1351 257.33 75.0169 256.636 76.9922C255.942 78.9674 255.035 80.8493 253.913 82.6377C252.819 84.4261 251.631 85.9476 250.35 87.2021ZM284.247 126.841C279.496 126.841 275.278 126.387 271.595 125.479C267.911 124.572 264.241 122.864 260.584 120.354V105.22H271.435L272.636 112.987C273.49 113.948 274.998 114.762 277.16 115.43C279.322 116.07 281.685 116.391 284.247 116.391C289.666 116.391 292.375 114.495 292.375 110.705C292.375 108.97 291.708 107.502 290.373 106.301C289.038 105.073 286.716 103.818 283.406 102.537C278.415 100.936 274.317 99.3073 271.114 97.6523C267.911 95.9974 265.522 94.0355 263.947 91.7666C262.399 89.4977 261.625 86.6816 261.625 83.3184C261.625 80.0885 262.546 77.2725 264.388 74.8701C266.229 72.4411 268.765 70.5326 271.995 69.1445C275.225 67.7565 278.922 67.0225 283.086 66.9424C287.837 66.8356 292.041 67.3161 295.698 68.3838C299.355 69.4248 302.585 71.013 305.388 73.1484V87.2021H294.978L293.336 79.3945C292.428 78.9408 291.134 78.527 289.452 78.1533C287.771 77.7796 285.982 77.5928 284.087 77.5928C281.658 77.5928 279.643 78.0732 278.041 79.0342C276.439 79.9951 275.639 81.4365 275.639 83.3584C275.639 84.3994 275.946 85.3337 276.56 86.1611C277.174 86.9619 278.255 87.776 279.803 88.6035C281.351 89.4043 283.513 90.3385 286.289 91.4062C292.909 93.3548 297.927 95.7972 301.344 98.7334C304.787 101.643 306.509 105.607 306.509 110.625C306.509 114.068 305.575 117.005 303.706 119.434C301.838 121.836 299.235 123.678 295.898 124.959C292.562 126.214 288.678 126.841 284.247 126.841ZM320.731 126V117.792L324.815 117.191L342.192 67.7031H357.406L374.823 117.191L378.907 117.792V126H357.126V117.792L360.93 117.071L359.168 110.745H340.43L338.748 117.071L342.552 117.792V126H320.731ZM343.393 100.896H356.165L350.48 83.2383L349.839 81.1963H349.599L348.918 83.4385L343.393 100.896ZM377.37 126V117.792L383.416 116.511V77.2324L377.37 75.9512V67.7031H404.837V75.9512L397.47 77.2324V115.229H411.323L411.643 107.102H422.374V126H377.37ZM421.077 126V117.792L427.122 116.511V77.2324L421.077 75.9512V67.7031H448.543V75.9512L441.176 77.2324V115.229H455.03L455.35 107.102H466.08V126H421.077ZM479.942 126V117.792L484.026 117.191L501.403 67.7031H516.618L534.035 117.191L538.119 117.792V126H516.337V117.792L520.141 117.071L518.379 110.745H499.641L497.96 117.071L501.763 117.792V126H479.942ZM502.604 100.896H515.377L509.691 83.2383L509.05 81.1963H508.81L508.129 83.4385L502.604 100.896ZM536.581 126V117.792L542.627 116.511V77.2324L536.581 75.9512V67.7031H562.967C570.307 67.7031 576.033 69.0511 580.144 71.7471C584.254 74.443 586.31 78.4603 586.31 83.7988C586.31 86.5482 585.656 89.0173 584.348 91.2061C583.04 93.3682 581.025 95.0098 578.302 96.1309C581.799 96.8783 584.334 98.4131 585.909 100.735C587.484 103.031 588.272 105.687 588.272 108.703C588.272 114.415 586.363 118.726 582.546 121.636C578.729 124.545 573.19 126 565.93 126H536.581ZM556.681 91.8867H562.366C568.959 91.8867 572.256 89.7246 572.256 85.4004C572.256 82.9714 571.482 81.2096 569.934 80.1152C568.412 78.9941 566.09 78.4336 562.967 78.4336H556.681V91.8867ZM556.681 115.31H565.93C571.509 115.31 574.298 113.094 574.298 108.663C574.298 106.154 573.684 104.285 572.456 103.058C571.255 101.803 569.306 101.176 566.611 101.176H556.681V115.31ZM615.402 126.841C611.372 126.841 607.661 126.107 604.271 124.639C600.908 123.144 597.985 121.062 595.503 118.393C593.02 115.723 591.098 112.6 589.737 109.023C588.402 105.42 587.735 101.509 587.735 97.292V96.3711C587.735 92.1803 588.402 88.2965 589.737 84.7197C591.098 81.1429 593.007 78.0199 595.463 75.3506C597.945 72.6813 600.868 70.5993 604.231 69.1045C607.595 67.6097 611.291 66.8623 615.322 66.8623C619.273 66.8623 622.943 67.6097 626.333 69.1045C629.723 70.5993 632.686 72.6813 635.221 75.3506C637.784 78.0199 639.773 81.1429 641.187 84.7197C642.602 88.2965 643.309 92.1803 643.309 96.3711V97.292C643.309 101.509 642.602 105.42 641.187 109.023C639.773 112.6 637.797 115.723 635.262 118.393C632.726 121.062 629.763 123.144 626.373 124.639C622.983 126.107 619.326 126.841 615.402 126.841ZM615.402 116.19C619.806 116.19 623.223 114.469 625.652 111.025C628.108 107.555 629.336 102.978 629.336 97.292V96.291C629.336 90.7122 628.108 86.2012 625.652 82.7578C623.196 79.2878 619.753 77.5527 615.322 77.5527C610.651 77.5527 607.221 79.2611 605.032 82.6777C602.87 86.0944 601.789 90.6322 601.789 96.291V97.292C601.789 103.004 602.897 107.582 605.112 111.025C607.328 114.469 610.758 116.19 615.402 116.19ZM673.042 126.841C668.024 126.841 663.647 126.04 659.91 124.438C656.199 122.81 653.33 120.435 651.301 117.312C649.273 114.188 648.258 110.371 648.258 105.86V77.2324L642.252 75.9512V67.7031H668.358V75.9512L662.312 77.2324V105.86C662.312 109.384 663.233 112 665.075 113.708C666.916 115.39 669.546 116.23 672.962 116.23C680.116 116.23 683.693 112.774 683.693 105.86V77.2324L677.687 75.9512V67.7031H703.792V75.9512L697.746 77.2324V105.86C697.746 110.291 696.705 114.082 694.623 117.231C692.541 120.354 689.645 122.743 685.935 124.398C682.251 126.027 677.954 126.841 673.042 126.841ZM714.907 126V117.792L720.993 116.511V78.5938H711.984L711.624 84.8799H701.014V67.7031H755.187V84.8799H744.456L744.136 78.5938H735.047V116.511L741.133 117.792V126H714.907ZM32.2812 226V217.792L38.2871 216.511V177.232L32.2812 175.951V167.703H59.7881L73.8818 206.101H74.1221L87.8154 167.703H115.002V175.951L108.956 177.232V216.511L115.002 217.792V226H88.8965V217.792L95.1826 216.511V208.903L95.5029 181.477L95.2627 181.437L78.7666 226H67.7158L50.9795 181.957L50.6992 181.997L51.6602 206.981V216.511L58.4268 217.792V226H32.2812ZM130.081 226V217.792L136.127 216.511V206.781L119.23 176.792L113.144 175.951V167.703H138.369V175.951L134.765 176.592L142.773 192.567L143.694 194.609H144.054L145.015 192.688L154.384 176.592L148.298 175.951V167.703H173.043V175.951L166.877 176.792L150.14 205.66V216.511L156.226 217.792V226H130.081ZM206.243 226L192.79 176.552L186.183 175.951V167.703H212.489V175.951L206.003 176.872L212.369 202.938L213.29 206.701H213.53L214.491 202.897L225.902 167.703H235.592L247.603 204.539L248.444 207.062H248.684L249.365 204.539L256.172 176.872L249.485 175.951V167.703H275.27V175.951L269.064 176.552L255.011 226H242.478L232.429 195.851L231.187 191.687H230.947L229.386 196.091L219.176 226H206.243ZM303.162 226.841C299.131 226.841 295.421 226.107 292.031 224.639C288.667 223.144 285.745 221.062 283.262 218.393C280.78 215.723 278.858 212.6 277.496 209.023C276.162 205.42 275.495 201.509 275.495 197.292V196.371C275.495 192.18 276.162 188.297 277.496 184.72C278.858 181.143 280.766 178.02 283.222 175.351C285.704 172.681 288.627 170.599 291.991 169.104C295.354 167.61 299.051 166.862 303.081 166.862C307.032 166.862 310.702 167.61 314.092 169.104C317.482 170.599 320.445 172.681 322.981 175.351C325.543 178.02 327.532 181.143 328.947 184.72C330.361 188.297 331.069 192.18 331.069 196.371V197.292C331.069 201.509 330.361 205.42 328.947 209.023C327.532 212.6 325.557 215.723 323.021 218.393C320.485 221.062 317.522 223.144 314.132 224.639C310.742 226.107 307.085 226.841 303.162 226.841ZM303.162 216.19C307.566 216.19 310.982 214.469 313.412 211.025C315.867 207.555 317.095 202.978 317.095 197.292V196.291C317.095 190.712 315.867 186.201 313.412 182.758C310.956 179.288 307.512 177.553 303.081 177.553C298.41 177.553 294.98 179.261 292.791 182.678C290.629 186.094 289.548 190.632 289.548 196.291V197.292C289.548 203.004 290.656 207.582 292.871 211.025C295.087 214.469 298.517 216.19 303.162 216.19ZM330.812 226V217.792L336.858 216.511V177.232L330.812 175.951V167.663H359.48C364.098 167.663 368.102 168.397 371.492 169.865C374.882 171.333 377.498 173.429 379.34 176.151C381.182 178.847 382.103 182.05 382.103 185.761C382.103 188.937 381.288 191.913 379.66 194.689C378.059 197.465 375.87 199.748 373.094 201.536L379.18 216.431L384.705 217.832V226H367.729L360.481 204.979L350.912 204.859V216.511L356.958 217.792V226H330.812ZM350.912 194.089H359.641C362.363 194.089 364.459 193.462 365.927 192.207C367.395 190.926 368.129 189.084 368.129 186.682C368.129 184.199 367.382 182.211 365.887 180.716C364.392 179.194 362.257 178.434 359.48 178.434H350.912V194.089ZM383.648 226V217.792L389.694 216.511V177.232L383.648 175.951V167.703H409.273V175.951L403.748 177.232V194.449L422.005 176.472L422.046 176.392L415.439 175.951V167.703H442.666V175.951L437.18 177.112L420.964 192.928L438.822 216.791L444.788 217.792V226H416.68V217.792L422.526 217.352H422.606L411.515 202.177L403.748 209.744V216.511L409.273 217.792V226H383.648ZM445.733 226V214.389H459.706V226H445.733Z" fill="#1E8CA2"/>
</svg>
