<svg width="1596" height="686" viewBox="0 0 1596 686" fill="none" xmlns="http://www.w3.org/2000/svg">
<mask id="path-1-inside-1" fill="white">
<path fill-rule="evenodd" clip-rule="evenodd" d="M1595.17 20.4429H26.269V622.114H286V686H394.818L411.969 622.114H1595.17V20.4429Z"/>
</mask>
<path fill-rule="evenodd" clip-rule="evenodd" d="M1595.17 20.4429H26.269V622.114H286V686H394.818L411.969 622.114H1595.17V20.4429Z" fill="#1E8CA2"/>
<path d="M26.269 20.4429V18.4429H24.269V20.4429H26.269ZM1595.17 20.4429H1597.17V18.4429H1595.17V20.4429ZM26.269 622.114H24.269V624.114H26.269V622.114ZM286 622.114H288V620.114H286V622.114ZM286 686H284V688H286V686ZM394.818 686V688H396.352L396.75 686.519L394.818 686ZM411.969 622.114V620.114H410.435L410.038 621.596L411.969 622.114ZM1595.17 622.114V624.114H1597.17V622.114H1595.17ZM26.269 22.4429H1595.17V18.4429H26.269V22.4429ZM28.269 622.114V20.4429H24.269V622.114H28.269ZM286 620.114H26.269V624.114H286V620.114ZM288 686V622.114H284V686H288ZM394.818 684H286V688H394.818V684ZM410.038 621.596L392.887 685.481L396.75 686.519L413.901 622.633L410.038 621.596ZM1595.17 620.114H411.969V624.114H1595.17V620.114ZM1593.17 20.4429V622.114H1597.17V20.4429H1593.17Z" fill="#1E8CA2" mask="url(#path-1-inside-1)"/>
<mask id="path-3-inside-2" fill="white">
<path fill-rule="evenodd" clip-rule="evenodd" d="M1567.09 0H0V599.5H260V666H378.329L395.61 599.5H1567.09V0Z"/>
</mask>
<path fill-rule="evenodd" clip-rule="evenodd" d="M1567.09 0H0V599.5H260V666H378.329L395.61 599.5H1567.09V0Z" fill="#FBD4CA"/>
<path d="M0 0V-2H-2V0H0ZM1567.09 0H1569.09V-2H1567.09V0ZM0 599.5H-2V601.5H0V599.5ZM260 599.5H262V597.5H260V599.5ZM260 666H258V668H260V666ZM378.329 666V668H379.876L380.265 666.503L378.329 666ZM395.61 599.5V597.5H394.064L393.675 598.997L395.61 599.5ZM1567.09 599.5V601.5H1569.09V599.5H1567.09ZM0 2H1567.09V-2H0V2ZM2 599.5V0H-2V599.5H2ZM260 597.5H0V601.5H260V597.5ZM262 666V599.5H258V666H262ZM378.329 664H260V668H378.329V664ZM393.675 598.997L376.393 665.497L380.265 666.503L397.546 600.003L393.675 598.997ZM1567.09 597.5H395.61V601.5H1567.09V597.5ZM1565.09 0V599.5H1569.09V0H1565.09Z" fill="#1E8CA2" mask="url(#path-3-inside-2)"/>
<path d="M944.469 344.984C939.438 344.984 934.859 344.422 930.734 343.297C926.609 342.172 922.547 340.219 918.547 337.438V320.938H929.141L930.594 330.641C931.969 331.828 933.891 332.797 936.359 333.547C938.859 334.266 941.562 334.625 944.469 334.625C948.188 334.625 951.031 333.875 953 332.375C954.969 330.844 955.953 328.781 955.953 326.188C955.953 323.75 955.016 321.703 953.141 320.047C951.297 318.359 948.047 316.797 943.391 315.359C935.297 313.016 929.266 310.234 925.297 307.016C921.328 303.797 919.344 299.391 919.344 293.797C919.344 290.109 920.359 286.859 922.391 284.047C924.453 281.203 927.297 278.969 930.922 277.344C934.547 275.719 938.734 274.875 943.484 274.812C948.734 274.75 953.375 275.375 957.406 276.688C961.469 278 964.969 279.828 967.906 282.172V297.547H957.641L955.859 288.172C954.672 287.422 953.062 286.766 951.031 286.203C949.031 285.641 946.75 285.359 944.188 285.359C940.906 285.359 938.219 286.094 936.125 287.562C934.031 289.031 932.984 291.094 932.984 293.75C932.984 296.031 933.953 297.938 935.891 299.469C937.859 300.969 941.469 302.562 946.719 304.25C954.25 306.344 959.953 309.109 963.828 312.547C967.734 315.984 969.688 320.5 969.688 326.094C969.688 330 968.641 333.359 966.547 336.172C964.453 338.984 961.5 341.156 957.688 342.688C953.906 344.219 949.5 344.984 944.469 344.984ZM1002.12 344L980.188 284.75L974.094 284V275.75H1001.23V284L995.094 284.938L1008.5 325.203L1009.53 328.953H1009.81L1010.8 325.297L1024.2 284.938L1017.03 284V275.75H1042.91V284L1036.72 284.75L1016.14 344H1002.12ZM1078.2 344.984C1071.42 344.984 1065.64 343.578 1060.86 340.766C1056.08 337.953 1052.41 334.047 1049.84 329.047C1047.31 324.047 1046.05 318.25 1046.05 311.656V309.312C1046.05 302.5 1047.31 296.5 1049.84 291.312C1052.38 286.125 1055.95 282.078 1060.58 279.172C1065.23 276.234 1070.73 274.766 1077.08 274.766C1081.95 274.766 1086.55 275.438 1090.86 276.781C1095.2 278.125 1098.97 280.141 1102.16 282.828V297.969H1092.03L1090.11 288.828C1088.86 287.766 1087.2 286.922 1085.14 286.297C1083.11 285.641 1080.77 285.312 1078.11 285.312C1074.27 285.312 1070.97 286.312 1068.22 288.312C1065.47 290.312 1063.36 293.109 1061.89 296.703C1060.42 300.297 1059.69 304.469 1059.69 309.219V311.656C1059.69 318.594 1061.31 324.141 1064.56 328.297C1067.81 332.422 1072.5 334.484 1078.62 334.484C1081.03 334.484 1083.23 334.25 1085.23 333.781C1087.27 333.312 1088.94 332.766 1090.25 332.141V320.562L1080.5 319.812V310.203H1103.98V337.812C1100.95 339.969 1097.3 341.703 1093.02 343.016C1088.73 344.328 1083.8 344.984 1078.2 344.984ZM1114.39 320.094V309.547H1140.83V320.094H1114.39ZM1164.83 344V335.797L1172.14 334.391V286.297H1159.72L1158.97 294.453H1148.61V275.75H1209.5V294.453H1199.09L1198.34 286.297H1185.83V334.391L1193.19 335.797V344H1164.83ZM1214.28 344V335.797L1221.55 334.391V285.406L1214.28 284V275.75H1267.25V294.172H1256.75L1256.14 286.297H1235.23V303.453H1258.34V314H1235.23V333.5H1257.27L1257.88 325.344H1268.28V344H1214.28ZM1274.66 344V335.797L1280.61 334.672L1299.92 310.203L1281.73 285.172L1276.2 284V275.75H1302.88V284L1296.36 284.609L1308.08 301.016L1319.8 284.609L1313.42 284V275.75H1339.72V284L1333.67 285.172L1316.19 308.984L1335.78 334.625L1342.3 335.797V344H1314.97V335.797L1320.83 335.234L1308.17 317.891L1295.23 335.234L1300.95 335.797V344H1274.66ZM1362.27 344V335.797L1369.58 334.391V286.297H1357.16L1356.41 294.453H1346.05V275.75H1406.94V294.453H1396.53L1395.78 286.297H1383.27V334.391L1390.62 335.797V344H1362.27ZM915.922 490V481.797L920.797 481.094L942.5 421.75H956.516L978.078 481.094L982.953 481.797V490H959.703V481.797L964.438 480.953L961.438 471.578H937.438L934.438 480.953L939.172 481.797V490H915.922ZM940.672 461.5H958.203L950.234 438.109L949.578 436.047H949.297L948.594 438.25L940.672 461.5ZM987.5 490V481.797L994.766 480.391V431.406L987.5 430V421.75H1008.64L1038.36 469.094L1038.64 469.047V431.406L1029.92 430V421.75H1058.19V430L1050.88 431.406V490H1037.66L1007.28 443.125L1007 443.172V480.391L1015.77 481.797V490H987.5ZM1062.69 490V481.797L1069.95 480.391V431.406L1062.69 430V421.75H1090.91V430L1083.64 431.406V480.391L1090.91 481.797V490H1062.69ZM1096.16 490V481.797L1103.42 480.391V431.406L1096.16 430V421.75H1123.67L1142.28 469.328H1142.56L1160.56 421.75H1188.12V430L1180.81 431.406V480.391L1188.12 481.797V490H1159.86V481.797L1167.5 480.391V467.312L1167.73 436.516L1167.45 436.469L1147.06 489.062H1136.7L1115.84 436.891L1115.56 436.938L1116.36 465.906V480.391L1124.42 481.797V490H1096.16ZM1187.8 490V481.797L1192.67 481.094L1214.38 421.75H1228.39L1249.95 481.094L1254.83 481.797V490H1231.58V481.797L1236.31 480.953L1233.31 471.578H1209.31L1206.31 480.953L1211.05 481.797V490H1187.8ZM1212.55 461.5H1230.08L1222.11 438.109L1221.45 436.047H1221.17L1220.47 438.25L1212.55 461.5ZM1268.05 490V481.797L1275.36 480.391V432.297H1262.94L1262.19 440.453H1251.83V421.75H1312.72V440.453H1302.31L1301.56 432.297H1289.05V480.391L1296.41 481.797V490H1268.05ZM1317.5 490V481.797L1324.77 480.391V431.406L1317.5 430V421.75H1345.72V430L1338.45 431.406V480.391L1345.72 481.797V490H1317.5ZM1382.23 490.984C1376.08 490.984 1370.69 489.5 1366.06 486.531C1361.44 483.531 1357.83 479.422 1355.23 474.203C1352.67 468.984 1351.39 463.047 1351.39 456.391V455.359C1351.39 448.734 1352.67 442.812 1355.23 437.594C1357.83 432.375 1361.42 428.266 1366.02 425.266C1370.64 422.266 1376.03 420.766 1382.19 420.766C1388.34 420.766 1393.75 422.266 1398.41 425.266C1403.09 428.266 1406.73 432.375 1409.33 437.594C1411.95 442.812 1413.27 448.734 1413.27 455.359V456.391C1413.27 463.047 1411.97 468.984 1409.38 474.203C1406.78 479.422 1403.14 483.531 1398.45 486.531C1393.8 489.5 1388.39 490.984 1382.23 490.984ZM1382.23 480.344C1388.02 480.344 1392.36 478.156 1395.27 473.781C1398.17 469.375 1399.62 463.578 1399.62 456.391V455.266C1399.62 450.547 1398.97 446.406 1397.66 442.844C1396.34 439.25 1394.39 436.453 1391.8 434.453C1389.23 432.453 1386.03 431.453 1382.19 431.453C1376.44 431.453 1372.14 433.641 1369.3 438.016C1366.48 442.391 1365.08 448.141 1365.08 455.266V456.391C1365.08 463.578 1366.5 469.375 1369.34 473.781C1372.22 478.156 1376.52 480.344 1382.23 480.344ZM1418.75 490V481.797L1426.02 480.391V431.406L1418.75 430V421.75H1439.89L1469.61 469.094L1469.89 469.047V431.406L1461.17 430V421.75H1489.44V430L1482.12 431.406V490H1468.91L1438.53 443.125L1438.25 443.172V480.391L1447.02 481.797V490H1418.75Z" fill="#04839D"/>
<path d="M926.222 20.2588C935.399 32.2267 944.497 44.2251 953.753 56.1321C969.841 76.8399 986.023 97.4717 1002.38 118.393C993.311 130.01 984.386 141.506 975.35 153.017C960.443 172.126 945.442 191.19 930.708 210.406C929.829 211.755 928.582 212.845 927.105 213.554C925.628 214.263 923.977 214.564 922.334 214.425C912.7 214.136 903.067 214.334 892.3 214.334L966.456 118.408C954.477 102.999 942.624 87.8181 930.866 72.6679C917.937 56.1727 905.029 39.6876 892.142 23.2127C891.524 22.2773 890.997 21.2884 890.568 20.2588L926.222 20.2588Z" fill="#04839D"/>
<path d="M1058.62 20.2588C1073.38 39.2511 1088.12 58.2435 1102.87 77.2358C1113.46 90.8482 1124.09 104.445 1134.97 118.347C1127.06 128.498 1119.16 138.679 1111.24 148.891C1095.31 169.294 1079.29 189.622 1063.48 210.131C1062.51 211.606 1061.13 212.788 1059.49 213.546C1057.86 214.305 1056.04 214.609 1054.24 214.425C1045.18 214.075 1036.09 214.319 1025.91 214.319L1100.1 118.393C1092.64 108.8 1085.27 99.2683 1077.86 89.7823C1060.67 67.7244 1043.41 45.6563 1026.08 23.5781C1025.33 22.5097 1024.63 21.4015 1024.01 20.2588L1058.62 20.2588Z" fill="#04839D"/>
<path d="M990.383 20.2588L1067.04 118.408C1052.77 136.68 1038.71 154.769 1024.54 172.797C1014.53 185.617 1004.57 198.468 994.35 211.137C992.817 212.877 990.643 213.97 988.289 214.182C979.679 214.517 970.974 214.319 961.246 214.319C986.29 181.948 1010.77 150.368 1035.45 118.393L958.822 20.2588H990.383Z" fill="#04839D"/>
<path d="M856.976 20.2588C873.766 41.8802 890.557 63.5067 907.348 85.1383C915.911 96.1469 924.505 107.125 933.321 118.408L903.664 156.382C889.497 174.578 875.22 192.743 861.163 211.015C860.403 212.158 859.333 213.077 858.07 213.673C856.808 214.269 855.4 214.519 854.001 214.395C845.595 214.182 837.189 214.395 827.65 214.395L901.744 118.484L825.399 20.2588H856.976Z" fill="#04839D"/>
<path d="M1198.54 21.7815C1207.72 33.7494 1216.82 45.7478 1226.08 57.6548C1242.16 78.3626 1258.34 98.9944 1274.7 119.915C1265.63 131.533 1256.64 143.029 1247.67 154.54C1232.77 173.649 1217.76 192.713 1203.03 211.928C1202.15 213.278 1200.9 214.367 1199.43 215.077C1197.95 215.786 1196.3 216.087 1194.66 215.948C1185.02 215.659 1175.39 215.857 1164.62 215.857L1238.78 119.931C1226.77 104.506 1214.95 89.3256 1203.11 74.2515C1190.23 57.7157 1177.35 41.2103 1164.46 24.7354C1163.85 23.8 1163.32 22.8111 1162.89 21.7815H1198.54Z" fill="#04839D"/>
<path d="M1330.94 21.7815C1345.69 40.7738 1360.44 59.7662 1375.19 78.7585C1385.78 92.3709 1396.41 105.968 1407.29 119.87C1399.38 130.021 1391.48 140.202 1383.57 150.414C1367.63 170.817 1351.61 191.144 1335.81 211.654C1334.83 213.128 1333.45 214.311 1331.82 215.069C1330.18 215.827 1328.37 216.132 1326.57 215.948C1317.5 215.598 1308.42 215.841 1298.23 215.841L1372.42 119.915C1364.96 110.323 1357.59 100.791 1350.18 91.305C1332.99 69.2471 1315.73 47.1791 1298.41 25.1008C1297.65 24.0324 1296.96 22.9242 1296.33 21.7815H1330.94Z" fill="#04839D"/>
<path d="M1262.71 21.7815L1339.36 119.93C1325.09 138.202 1311.03 156.291 1296.86 174.319C1286.85 187.139 1276.89 199.99 1266.67 212.659C1265.14 214.399 1262.97 215.492 1260.61 215.704C1252 216.039 1243.38 215.841 1233.57 215.841C1258.61 183.47 1283.09 151.89 1307.77 119.915L1231.14 21.7815H1262.71Z" fill="#04839D"/>
<path d="M1403.18 21.7815C1412.36 33.7494 1421.46 45.7478 1430.71 57.6548C1446.8 78.3626 1462.98 98.9944 1479.34 119.915C1470.27 131.533 1461.28 143.029 1452.31 154.54C1437.4 173.649 1422.4 192.713 1407.67 211.928C1406.79 213.278 1405.54 214.367 1404.06 215.077C1402.59 215.786 1400.93 216.087 1399.29 215.948C1389.66 215.659 1380.02 215.857 1369.26 215.857L1443.41 119.931C1431.4 104.506 1419.58 89.3256 1407.74 74.2515C1394.87 57.7157 1381.99 41.2103 1369.1 24.7354C1368.48 23.8 1367.96 22.8111 1367.53 21.7815H1403.18Z" fill="#04839D"/>
<path d="M1467.34 21.7815L1544 119.93C1529.72 138.202 1515.67 156.291 1501.5 174.319C1491.49 187.139 1481.52 199.99 1471.31 212.659C1469.77 214.399 1467.6 215.492 1465.25 215.704C1456.64 216.039 1448.01 215.841 1438.2 215.841C1463.25 183.47 1487.73 151.89 1512.41 119.915L1435.78 21.7815H1467.34Z" fill="#04839D"/>
<path d="M1129.3 21.7815C1146.09 43.4029 1162.88 65.0294 1179.67 86.661C1188.23 97.6696 1196.83 108.648 1205.64 119.931L1175.99 157.905C1161.82 176.101 1147.54 194.266 1133.49 212.537C1132.73 213.68 1131.66 214.6 1130.39 215.196C1129.13 215.792 1127.72 216.042 1126.32 215.918C1117.92 215.704 1109.51 215.918 1099.97 215.918L1174.07 120.007L1097.72 21.7815H1129.3Z" fill="#04839D"/>
<rect x="14" y="20" width="784" height="547" fill="#04839D"/>
</svg>
