<svg width="321" height="459" viewBox="0 0 321 459" fill="none" xmlns="http://www.w3.org/2000/svg">
<path d="M631.543 149.136C631.543 172.157 631.543 433.039 631.543 456.061C631.543 456.382 631.543 456.74 631.543 457.347C630.497 456.918 629.595 456.597 628.766 456.204C525.388 408.302 422.011 360.401 318.633 312.5C317.898 312.103 317.073 311.895 316.235 311.895C315.397 311.895 314.573 312.103 313.837 312.5C210.46 360.497 106.986 408.469 3.41615 456.418C2.58672 456.775 1.79336 457.204 1 457.633V147.277C1.7573 146.991 2.55066 146.741 3.30796 146.419L313.477 2.68024C314.163 2.31736 314.826 1.9114 315.46 1.46484H316.975C317.66 1.85806 318.273 2.32277 318.994 2.68024L631.543 149.136Z" fill="#FFD87E" stroke="#B33F4C" stroke-miterlimit="10"/>
</svg>
