<svg width="177" height="109" viewBox="0 0 177 109" fill="none" xmlns="http://www.w3.org/2000/svg">
<path d="M175.85 35.4342C175.85 40.8053 175.85 101.672 175.85 107.043C175.85 107.118 175.85 107.201 175.85 107.343C175.56 107.243 175.31 107.168 175.08 107.076C146.413 95.9003 117.747 84.7245 89.08 73.5487C88.876 73.456 88.6473 73.4074 88.415 73.4074C88.1826 73.4074 87.954 73.456 87.75 73.5487C59.0833 84.7467 30.39 95.9392 1.67 107.126C1.44 107.21 1.22 107.31 1 107.41V35.0005C1.21 34.9338 1.43 34.8754 1.64 34.8004L87.65 1.26464C87.8404 1.17998 88.0241 1.08526 88.2 0.981079H88.62C88.81 1.07282 88.98 1.18124 89.18 1.26464L175.85 35.4342Z" fill="#FFD87E" stroke="#B33F4C" stroke-miterlimit="10"/>
</svg>
