<svg width="125" height="77" viewBox="0 0 125 77" fill="none" xmlns="http://www.w3.org/2000/svg">
<path d="M123.82 25.0779C123.82 28.856 123.82 71.616 123.82 75.394C123.82 75.4524 123.82 75.5025 123.82 75.6109L123.28 75.4191L62.86 51.8581C62.7153 51.7939 62.5539 51.7603 62.39 51.7603C62.2261 51.7603 62.0647 51.7939 61.92 51.8581L1.47 75.4524C1.31 75.5108 1.16 75.5859 1 75.6526V24.7776C1.15 24.7276 1.3 24.6942 1.45 24.6359L61.85 1.07492C61.9817 1.01502 62.1086 0.94816 62.23 0.874756H62.53C62.66 0.941477 62.78 1.01654 62.92 1.07492L123.82 25.0779Z" fill="#FFD87E" stroke="#B33F4C" stroke-miterlimit="10"/>
</svg>
