<svg width="886" height="541" viewBox="0 0 886 541" fill="none" xmlns="http://www.w3.org/2000/svg">
<path d="M885.51 175.464C885.408 202.637 885.51 510.539 885.51 537.713C885.51 538.123 885.51 538.533 885.374 539.269C883.916 538.745 882.661 538.349 881.473 537.854C736.506 481.367 591.555 424.833 446.622 368.251C445.585 367.768 444.417 367.514 443.23 367.514C442.042 367.514 440.874 367.768 439.837 368.251C294.723 424.927 149.574 481.556 4.39211 538.137C3.23879 538.576 2.13636 539.085 1 539.552V173.286C2.06852 172.946 3.18791 172.663 4.22251 172.253C149.28 115.719 294.355 59.1705 439.447 2.6079C440.395 2.18837 441.307 1.71577 442.178 1.19336H444.332C445.228 1.71316 446.163 2.1856 447.13 2.6079L885.51 175.464Z" fill="#FFD87E" stroke="#B33F4C" stroke-miterlimit="10"/>
</svg>
