<svg width="240" height="204" viewBox="0 0 240 204" fill="none" xmlns="http://www.w3.org/2000/svg">
<path d="M238.728 66.3916C238.728 76.5858 238.728 192.109 238.728 202.304C238.728 202.446 238.728 202.604 238.728 202.873C238.334 202.683 237.994 202.541 237.681 202.367C198.706 181.155 159.73 159.944 120.755 138.732C120.477 138.556 120.166 138.464 119.85 138.464C119.534 138.464 119.224 138.556 118.946 138.732C79.9707 159.986 40.959 181.229 1.91094 202.462C1.59823 202.62 1.29911 202.81 1 203V65.5685C1.28552 65.4418 1.58463 65.331 1.87015 65.1885L118.81 1.5382C119.069 1.37751 119.319 1.19774 119.558 1H120.129C120.387 1.17412 120.619 1.37991 120.89 1.5382L238.728 66.3916Z" fill="#F9D3E0" stroke="#3F52A0" stroke-miterlimit="10"/>
</svg>
