<svg width="664" height="761" viewBox="0 0 664 761" fill="none" xmlns="http://www.w3.org/2000/svg">
<path d="M894.245 246.704C894.245 285.008 894.245 719.079 894.245 757.383C894.245 757.918 894.245 758.513 894.245 759.524C892.763 758.81 891.486 758.275 890.311 757.621C743.864 677.92 597.416 598.22 450.969 518.519C449.926 517.858 448.758 517.511 447.571 517.511C446.384 517.511 445.216 517.858 444.174 518.519C297.727 598.378 151.143 678.198 4.42279 757.978C3.2478 758.573 2.1239 759.286 1 760V243.611C2.07281 243.135 3.19671 242.719 4.26953 242.184L443.663 3.02226C444.636 2.41846 445.574 1.743 446.473 1H448.619C449.589 1.65426 450.458 2.42747 451.479 3.02226L894.245 246.704Z" fill="#F9D3E0" stroke="#3F52A0" stroke-miterlimit="10"/>
</svg>
