<svg width="375" height="319" viewBox="0 0 375 319" fill="none" xmlns="http://www.w3.org/2000/svg">
<path d="M374 103.601C374 119.596 374 300.854 374 316.849C374 317.073 374 317.321 374 317.743C373.381 317.445 372.848 317.222 372.357 316.949C311.204 283.667 250.051 250.386 188.897 217.105C188.462 216.829 187.974 216.684 187.479 216.684C186.983 216.684 186.495 216.829 186.06 217.105C124.907 250.452 63.6964 283.783 2.42928 317.098C1.93863 317.346 1.46932 317.644 1 317.942V102.309C1.44798 102.111 1.9173 101.937 2.36528 101.713L185.847 1.84445C186.253 1.59232 186.645 1.31026 187.02 1H187.916C188.321 1.2732 188.684 1.59608 189.111 1.84445L374 103.601Z" fill="#F9D3E0" stroke="#3F52A0" stroke-miterlimit="10"/>
</svg>
