<svg width="192" height="164" viewBox="0 0 192 164" fill="none" xmlns="http://www.w3.org/2000/svg">
<path d="M191 53.2631C191 61.4106 191 153.741 191 161.888C191 162.002 191 162.129 191 162.344C190.685 162.192 190.413 162.078 190.163 161.939C159.013 144.986 127.862 128.033 96.7117 111.08C96.49 110.94 96.2416 110.866 95.9891 110.866C95.7367 110.866 95.4882 110.94 95.2665 111.08C64.116 128.067 32.9365 145.045 1.72805 162.015C1.47812 162.141 1.23906 162.293 1 162.445V52.6052C1.2282 52.504 1.46726 52.4155 1.69545 52.3016L95.1578 1.43015C95.3647 1.30172 95.5643 1.15804 95.7555 1H96.2119C96.4184 1.13917 96.6031 1.30363 96.8204 1.43015L191 53.2631Z" fill="#F9D3E0" stroke="#3F52A0" stroke-miterlimit="10"/>
</svg>
