<svg width="1050" height="340" viewBox="0 0 1050 340" fill="none" xmlns="http://www.w3.org/2000/svg">
<path d="M5.40625 11.7891H142.516V75.0703H87.6328V135.031H139V195.188H87.6328V264.719H147.984V328H5.40625V11.7891ZM171.812 11.7891H311.07V75.0703H254.039V135.031H304.82V195.188H254.039V328H171.812V11.7891ZM331.188 11.7891H470.445V75.0703H413.414V135.031H464.195V195.188H413.414V328H331.188V11.7891ZM490.562 11.7891H627.672V75.0703H572.789V135.031H624.156V195.188H572.789V264.719H633.141V328H490.562V11.7891ZM848.961 149.68H766.734V94.6016C766.734 78.5859 765.823 68.625 764 64.7188C762.307 60.6823 758.466 58.6641 752.477 58.6641C745.706 58.6641 741.409 61.0729 739.586 65.8906C737.763 70.7083 736.852 81.125 736.852 97.1406V244.016C736.852 259.38 737.763 269.406 739.586 274.094C741.409 278.781 745.51 281.125 751.891 281.125C758.01 281.125 761.982 278.781 763.805 274.094C765.758 269.406 766.734 258.404 766.734 241.086V201.438H848.961V213.742C848.961 246.424 846.617 269.602 841.93 283.273C837.372 296.945 827.151 308.924 811.266 319.211C795.51 329.497 776.044 334.641 752.867 334.641C728.779 334.641 708.922 330.279 693.297 321.555C677.672 312.831 667.32 300.786 662.242 285.422C657.164 269.927 654.625 246.685 654.625 215.695V123.312C654.625 100.526 655.406 83.4688 656.969 72.1406C658.531 60.6823 663.154 49.6797 670.836 39.1328C678.648 28.5859 689.391 20.3177 703.062 14.3281C716.865 8.20833 732.685 5.14844 750.523 5.14844C774.742 5.14844 794.729 9.83594 810.484 19.2109C826.24 28.5859 836.591 40.3047 841.539 54.3672C846.487 68.2995 848.961 90.0443 848.961 119.602V149.68ZM1044.08 11.7891V75.0703H995.25V328H913.023V75.0703H864.391V11.7891H1044.08Z" fill="#F9D3E0"/>
<path d="M5.40625 11.7891V6.78906H0.40625V11.7891H5.40625ZM142.516 11.7891H147.516V6.78906H142.516V11.7891ZM142.516 75.0703V80.0703H147.516V75.0703H142.516ZM87.6328 75.0703V70.0703H82.6328V75.0703H87.6328ZM87.6328 135.031H82.6328V140.031H87.6328V135.031ZM139 135.031H144V130.031H139V135.031ZM139 195.188V200.188H144V195.188H139ZM87.6328 195.188V190.188H82.6328V195.188H87.6328ZM87.6328 264.719H82.6328V269.719H87.6328V264.719ZM147.984 264.719H152.984V259.719H147.984V264.719ZM147.984 328V333H152.984V328H147.984ZM5.40625 328H0.40625V333H5.40625V328ZM5.40625 16.7891H142.516V6.78906H5.40625V16.7891ZM137.516 11.7891V75.0703H147.516V11.7891H137.516ZM142.516 70.0703H87.6328V80.0703H142.516V70.0703ZM82.6328 75.0703V135.031H92.6328V75.0703H82.6328ZM87.6328 140.031H139V130.031H87.6328V140.031ZM134 135.031V195.188H144V135.031H134ZM139 190.188H87.6328V200.188H139V190.188ZM82.6328 195.188V264.719H92.6328V195.188H82.6328ZM87.6328 269.719H147.984V259.719H87.6328V269.719ZM142.984 264.719V328H152.984V264.719H142.984ZM147.984 323H5.40625V333H147.984V323ZM10.4062 328V11.7891H0.40625V328H10.4062ZM171.812 11.7891V6.78906H166.812V11.7891H171.812ZM311.07 11.7891H316.07V6.78906H311.07V11.7891ZM311.07 75.0703V80.0703H316.07V75.0703H311.07ZM254.039 75.0703V70.0703H249.039V75.0703H254.039ZM254.039 135.031H249.039V140.031H254.039V135.031ZM304.82 135.031H309.82V130.031H304.82V135.031ZM304.82 195.188V200.188H309.82V195.188H304.82ZM254.039 195.188V190.188H249.039V195.188H254.039ZM254.039 328V333H259.039V328H254.039ZM171.812 328H166.812V333H171.812V328ZM171.812 16.7891H311.07V6.78906H171.812V16.7891ZM306.07 11.7891V75.0703H316.07V11.7891H306.07ZM311.07 70.0703H254.039V80.0703H311.07V70.0703ZM249.039 75.0703V135.031H259.039V75.0703H249.039ZM254.039 140.031H304.82V130.031H254.039V140.031ZM299.82 135.031V195.188H309.82V135.031H299.82ZM304.82 190.188H254.039V200.188H304.82V190.188ZM249.039 195.188V328H259.039V195.188H249.039ZM254.039 323H171.812V333H254.039V323ZM176.812 328V11.7891H166.812V328H176.812ZM331.188 11.7891V6.78906H326.188V11.7891H331.188ZM470.445 11.7891H475.445V6.78906H470.445V11.7891ZM470.445 75.0703V80.0703H475.445V75.0703H470.445ZM413.414 75.0703V70.0703H408.414V75.0703H413.414ZM413.414 135.031H408.414V140.031H413.414V135.031ZM464.195 135.031H469.195V130.031H464.195V135.031ZM464.195 195.188V200.188H469.195V195.188H464.195ZM413.414 195.188V190.188H408.414V195.188H413.414ZM413.414 328V333H418.414V328H413.414ZM331.188 328H326.188V333H331.188V328ZM331.188 16.7891H470.445V6.78906H331.188V16.7891ZM465.445 11.7891V75.0703H475.445V11.7891H465.445ZM470.445 70.0703H413.414V80.0703H470.445V70.0703ZM408.414 75.0703V135.031H418.414V75.0703H408.414ZM413.414 140.031H464.195V130.031H413.414V140.031ZM459.195 135.031V195.188H469.195V135.031H459.195ZM464.195 190.188H413.414V200.188H464.195V190.188ZM408.414 195.188V328H418.414V195.188H408.414ZM413.414 323H331.188V333H413.414V323ZM336.188 328V11.7891H326.188V328H336.188ZM490.562 11.7891V6.78906H485.562V11.7891H490.562ZM627.672 11.7891H632.672V6.78906H627.672V11.7891ZM627.672 75.0703V80.0703H632.672V75.0703H627.672ZM572.789 75.0703V70.0703H567.789V75.0703H572.789ZM572.789 135.031H567.789V140.031H572.789V135.031ZM624.156 135.031H629.156V130.031H624.156V135.031ZM624.156 195.188V200.188H629.156V195.188H624.156ZM572.789 195.188V190.188H567.789V195.188H572.789ZM572.789 264.719H567.789V269.719H572.789V264.719ZM633.141 264.719H638.141V259.719H633.141V264.719ZM633.141 328V333H638.141V328H633.141ZM490.562 328H485.562V333H490.562V328ZM490.562 16.7891H627.672V6.78906H490.562V16.7891ZM622.672 11.7891V75.0703H632.672V11.7891H622.672ZM627.672 70.0703H572.789V80.0703H627.672V70.0703ZM567.789 75.0703V135.031H577.789V75.0703H567.789ZM572.789 140.031H624.156V130.031H572.789V140.031ZM619.156 135.031V195.188H629.156V135.031H619.156ZM624.156 190.188H572.789V200.188H624.156V190.188ZM567.789 195.188V264.719H577.789V195.188H567.789ZM572.789 269.719H633.141V259.719H572.789V269.719ZM628.141 264.719V328H638.141V264.719H628.141ZM633.141 323H490.562V333H633.141V323ZM495.562 328V11.7891H485.562V328H495.562ZM848.961 149.68V154.68H853.961V149.68H848.961ZM766.734 149.68H761.734V154.68H766.734V149.68ZM764 64.7188L759.389 66.6524L759.427 66.7436L759.469 66.8332L764 64.7188ZM739.586 65.8906L734.91 64.1212L739.586 65.8906ZM739.586 274.094L734.926 275.906L739.586 274.094ZM763.805 274.094L759.189 272.171L759.166 272.226L759.145 272.282L763.805 274.094ZM766.734 201.438V196.438H761.734V201.438H766.734ZM848.961 201.438H853.961V196.438H848.961V201.438ZM841.93 283.273L837.2 281.652L837.193 281.672L837.186 281.692L841.93 283.273ZM811.266 319.211L808.548 315.014L808.54 315.019L808.532 315.024L811.266 319.211ZM662.242 285.422L657.491 286.979L657.495 286.991L662.242 285.422ZM656.969 72.1406L661.922 72.8238L661.923 72.8162L656.969 72.1406ZM670.836 39.1328L666.818 36.1567L666.806 36.1728L666.794 36.189L670.836 39.1328ZM703.062 14.3281L705.069 18.9079L705.079 18.9035L705.089 18.899L703.062 14.3281ZM841.539 54.3672L836.823 56.0267L836.825 56.0336L836.827 56.0405L841.539 54.3672ZM848.961 144.68H766.734V154.68H848.961V144.68ZM771.734 149.68V94.6016H761.734V149.68H771.734ZM771.734 94.6016C771.734 86.5202 771.505 79.8575 771.03 74.6635C770.573 69.6673 769.845 65.4204 768.531 62.6043L759.469 66.8332C759.978 67.9233 760.617 70.61 761.072 75.5748C761.508 80.3417 761.734 86.6673 761.734 94.6016H771.734ZM768.611 62.7851C767.32 59.7061 765.134 57.306 762.175 55.7515C759.317 54.2498 755.989 53.6641 752.477 53.6641V63.6641C754.953 63.6641 756.541 64.0875 757.524 64.604C758.407 65.0677 758.988 65.695 759.389 66.6524L768.611 62.7851ZM752.477 53.6641C748.541 53.6641 744.854 54.3584 741.731 56.1093C738.507 57.9164 736.216 60.6674 734.91 64.1212L744.262 67.6601C744.778 66.2961 745.547 65.4338 746.621 64.8321C747.794 64.1741 749.641 63.6641 752.477 63.6641V53.6641ZM734.91 64.1212C733.743 67.2035 733.018 71.5836 732.554 76.8806C732.081 82.2884 731.852 89.0549 731.852 97.1406H741.852C741.852 89.2107 742.078 82.7611 742.516 77.7522C742.964 72.6325 743.606 69.3954 744.262 67.6601L734.91 64.1212ZM731.852 97.1406V244.016H741.852V97.1406H731.852ZM731.852 244.016C731.852 251.779 732.081 258.291 732.556 263.511C733.02 268.622 733.749 272.88 734.926 275.906L744.246 272.282C743.6 270.62 742.961 267.521 742.515 262.606C742.078 257.8 741.852 251.616 741.852 244.016H731.852ZM734.926 275.906C736.224 279.243 738.436 281.93 741.549 283.708C744.574 285.437 748.124 286.125 751.891 286.125V276.125C749.277 276.125 747.586 275.641 746.51 275.026C745.521 274.461 744.771 273.632 744.246 272.282L734.926 275.906ZM751.891 286.125C755.561 286.125 759.033 285.425 762 283.673C765.041 281.879 767.186 279.194 768.465 275.906L759.145 272.282C758.601 273.681 757.848 274.512 756.918 275.061C755.914 275.653 754.34 276.125 751.891 276.125V286.125ZM768.42 276.017C769.714 272.912 770.489 268.325 770.982 262.768C771.489 257.062 771.734 249.82 771.734 241.086H761.734C761.734 249.67 761.492 256.588 761.022 261.884C760.538 267.33 759.849 270.588 759.189 272.171L768.42 276.017ZM771.734 241.086V201.438H761.734V241.086H771.734ZM766.734 206.438H848.961V196.438H766.734V206.438ZM843.961 201.438V213.742H853.961V201.438H843.961ZM843.961 213.742C843.961 246.391 841.595 268.834 837.2 281.652L846.659 284.895C851.64 270.369 853.961 246.458 853.961 213.742H843.961ZM837.186 281.692C833.087 293.991 823.781 305.15 808.548 315.014L813.983 323.408C830.521 312.699 841.658 299.899 846.673 284.855L837.186 281.692ZM808.532 315.024C793.76 324.669 775.299 329.641 752.867 329.641V339.641C776.789 339.641 797.26 334.326 813.999 323.398L808.532 315.024ZM752.867 329.641C729.348 329.641 710.401 325.378 695.734 317.189L690.859 325.92C707.443 335.18 728.209 339.641 752.867 339.641V329.641ZM695.734 317.189C681.077 309.005 671.632 297.899 666.99 283.853L657.495 286.991C663.009 303.674 674.267 316.656 690.859 325.92L695.734 317.189ZM666.994 283.865C662.168 269.141 659.625 246.542 659.625 215.695H649.625C649.625 246.828 652.16 270.713 657.491 286.979L666.994 283.865ZM659.625 215.695V123.312H649.625V215.695H659.625ZM659.625 123.312C659.625 100.577 660.408 83.7999 661.922 72.8238L652.016 71.4574C650.405 83.1376 649.625 100.475 649.625 123.312H659.625ZM661.923 72.8162C663.36 62.2782 667.619 52.0416 674.877 42.0766L666.794 36.189C658.688 47.3178 653.703 59.0863 652.015 71.4651L661.923 72.8162ZM674.854 42.109C682.079 32.3546 692.084 24.5963 705.069 18.9079L701.056 9.74834C686.697 16.0391 675.218 24.8173 666.818 36.1567L674.854 42.109ZM705.089 18.899C718.148 13.1088 733.258 10.1484 750.523 10.1484V0.148438C732.112 0.148438 715.581 3.30789 701.036 9.75729L705.089 18.899ZM750.523 10.1484C774.123 10.1484 793.156 14.7181 807.928 23.5078L813.041 14.9141C796.302 4.95377 775.361 0.148438 750.523 0.148438V10.1484ZM807.928 23.5078C822.915 32.4262 832.347 43.3061 836.823 56.0267L846.256 52.7077C840.836 37.3033 829.564 24.7457 813.041 14.9141L807.928 23.5078ZM836.827 56.0405C841.476 69.131 843.961 90.1622 843.961 119.602H853.961C853.961 89.9263 851.498 67.4679 846.251 52.6939L836.827 56.0405ZM843.961 119.602V149.68H853.961V119.602H843.961ZM1044.08 11.7891H1049.08V6.78906H1044.08V11.7891ZM1044.08 75.0703V80.0703H1049.08V75.0703H1044.08ZM995.25 75.0703V70.0703H990.25V75.0703H995.25ZM995.25 328V333H1000.25V328H995.25ZM913.023 328H908.023V333H913.023V328ZM913.023 75.0703H918.023V70.0703H913.023V75.0703ZM864.391 75.0703H859.391V80.0703H864.391V75.0703ZM864.391 11.7891V6.78906H859.391V11.7891H864.391ZM1039.08 11.7891V75.0703H1049.08V11.7891H1039.08ZM1044.08 70.0703H995.25V80.0703H1044.08V70.0703ZM990.25 75.0703V328H1000.25V75.0703H990.25ZM995.25 323H913.023V333H995.25V323ZM918.023 328V75.0703H908.023V328H918.023ZM913.023 70.0703H864.391V80.0703H913.023V70.0703ZM869.391 75.0703V11.7891H859.391V75.0703H869.391ZM864.391 16.7891H1044.08V6.78906H864.391V16.7891Z" fill="#B53F4E"/>
</svg>
