<svg width="847" height="217" viewBox="0 0 847 217" fill="none" xmlns="http://www.w3.org/2000/svg">
<rect x="13.0684" width="836.58" height="139.089" transform="rotate(5.34033 13.0684 0)" fill="#3F52A0"/>
<path d="M56.785 39.3108L60.2123 109.56L41.7835 107.729L42.1217 95.1975L35.6652 94.556L33.3601 106.892L14.7175 105.04L30.7452 36.7238L56.785 39.3108ZM42.8278 82.8749C42.6944 74.9452 42.7437 65.177 42.9756 53.5702C39.8372 66.6155 37.7356 76.1798 36.6706 82.2632L42.8278 82.8749ZM110.361 44.6335L103.484 113.859L87.7059 112.292L81.4683 79.8913L78.3418 111.361L63.2909 109.866L70.1683 40.6404L85.2192 42.1357L92.2134 74.309L95.3102 43.1382L110.361 44.6335ZM117.63 45.3557L131.099 46.6938C139.793 47.5575 145.626 48.54 148.596 49.6412C151.596 50.7452 153.803 52.2887 155.218 54.2716C156.633 56.2545 157.428 58.3918 157.603 60.6834C157.782 62.9465 157.545 67.3561 156.894 73.9124L154.485 98.1563C153.868 104.371 153.155 108.503 152.347 110.553C151.57 112.577 150.395 114.115 148.822 115.168C147.253 116.192 145.375 116.841 143.189 117.113C141.005 117.357 137.762 117.265 133.457 116.837L110.753 114.581L117.63 45.3557ZM134.455 58.9881L129.93 104.526C132.524 104.783 134.172 104.429 134.872 103.462C135.576 102.467 136.157 99.6603 136.616 95.0424L139.288 68.1475C139.599 65.0119 139.699 62.9923 139.587 62.0888C139.475 61.1853 139.083 60.4987 138.41 60.0288C137.74 59.5304 136.421 59.1835 134.455 58.9881ZM199.512 53.4905L194.011 108.862L204.957 109.95L203.581 123.804L174.633 120.928L181.511 51.7021L199.512 53.4905ZM245.948 58.1038L249.375 128.353L230.946 126.522L231.284 113.99L224.828 113.349L222.523 125.685L203.88 123.833L219.908 55.5168L245.948 58.1038ZM231.99 101.668C231.857 93.7382 231.906 83.97 232.138 72.3631C229 85.4084 226.898 94.9728 225.833 101.056L231.99 101.668ZM295.39 84.1741L278.671 82.5132L279.181 77.3822C279.419 74.9877 279.357 73.4414 278.994 72.7433C278.632 72.0452 277.952 71.6466 276.954 71.5475C275.871 71.4399 275 71.7996 274.342 72.6266C273.713 73.4565 273.309 74.7693 273.131 76.5652C272.901 78.8741 273.042 80.6441 273.553 81.8751C274.036 83.1033 275.591 84.6829 278.221 86.6137C285.758 92.1699 290.415 96.5764 292.193 99.8333C293.971 103.09 294.523 108.111 293.849 114.895C293.359 119.826 292.414 123.403 291.013 125.624C289.64 127.848 287.221 129.594 283.756 130.862C280.294 132.101 276.368 132.503 271.978 132.067C267.16 131.588 263.132 130.267 259.893 128.103C256.682 125.941 254.689 123.397 253.915 120.47C253.14 117.544 253.011 113.486 253.526 108.298L253.977 103.766L270.695 105.427L269.858 113.85C269.6 116.444 269.663 118.134 270.045 118.921C270.456 119.71 271.26 120.164 272.458 120.283C273.655 120.402 274.585 120.02 275.249 119.135C275.941 118.254 276.379 116.887 276.563 115.034C276.968 110.958 276.677 108.238 275.69 106.873C274.674 105.505 272.075 103.131 267.891 99.7506C263.71 96.3414 260.959 93.8947 259.639 92.4105C258.318 90.9263 257.291 88.9531 256.556 86.4909C255.851 84.0315 255.681 80.9632 256.046 77.286C256.573 71.9839 257.628 68.1737 259.211 65.8554C260.823 63.5398 263.207 61.848 266.365 60.7799C269.525 59.6834 273.243 59.3475 277.519 59.7723C282.194 60.2367 286.096 61.3872 289.224 63.2236C292.38 65.0629 294.371 67.1894 295.196 69.6032C296.053 71.9912 296.208 75.936 295.662 81.4376L295.39 84.1741ZM340.914 67.5385L339.537 81.3922L328.848 80.3302L323.347 135.702L305.345 133.914L310.846 78.5418L300.2 77.4841L301.576 63.6304L340.914 67.5385ZM396.556 94.2248L379.837 92.5638L380.347 87.4329C380.585 85.0384 380.523 83.4921 380.16 82.794C379.798 82.0959 379.118 81.6973 378.12 81.5982C377.037 81.4905 376.166 81.8503 375.508 82.6773C374.879 83.5072 374.475 84.82 374.297 86.6159C374.067 88.9248 374.208 90.6948 374.719 91.9258C375.202 93.154 376.757 94.7335 379.387 96.6644C386.924 102.221 391.581 106.627 393.359 109.884C395.137 113.141 395.689 118.161 395.015 124.946C394.525 129.877 393.58 133.453 392.179 135.675C390.806 137.899 388.387 139.645 384.922 140.913C381.46 142.152 377.534 142.554 373.144 142.118C368.326 141.639 364.298 140.318 361.059 138.153C357.848 135.992 355.855 133.448 355.081 130.521C354.306 127.594 354.177 123.537 354.692 118.349L355.143 113.816L371.861 115.477L371.024 123.901C370.767 126.495 370.829 128.185 371.211 128.971C371.622 129.761 372.426 130.215 373.624 130.334C374.821 130.453 375.751 130.07 376.415 129.186C377.107 128.305 377.545 126.938 377.729 125.085C378.134 121.009 377.843 118.288 376.856 116.924C375.84 115.556 373.241 113.182 369.057 109.801C364.876 106.392 362.125 103.945 360.805 102.461C359.484 100.977 358.457 99.0038 357.722 96.5416C357.017 94.0821 356.847 91.0138 357.212 87.3366C357.739 82.0346 358.794 78.2244 360.377 75.906C361.989 73.5905 364.374 71.8987 367.531 70.8306C370.691 69.734 374.409 69.3981 378.685 69.8229C383.36 70.2874 387.262 71.4378 390.39 73.2743C393.546 75.1136 395.537 77.2401 396.363 79.6538C397.219 82.0419 397.374 85.9867 396.828 91.4883L396.556 94.2248ZM405.821 73.9869L435.837 76.969L434.461 90.8226L422.446 89.629L421.141 102.756L432.387 103.873L431.078 117.043L419.833 115.925L418.321 131.147L431.533 132.46L430.157 146.314L398.943 143.213L405.821 73.9869ZM481.283 111.969L463.282 110.181L464.48 98.123C464.828 94.6168 464.845 92.4163 464.531 91.5215C464.248 90.6011 463.451 90.0757 462.14 89.9454C460.658 89.7981 459.665 90.232 459.161 91.2471C458.657 92.2621 458.231 94.5228 457.882 98.0289L454.688 130.183C454.354 133.547 454.335 135.762 454.632 136.827C454.93 137.893 455.776 138.496 457.173 138.634C458.513 138.767 459.433 138.341 459.934 137.354C460.464 136.37 460.917 133.983 461.294 130.192L462.156 121.512L480.157 123.3L479.89 125.994C479.179 133.149 478.162 138.172 476.838 141.063C475.543 143.957 473.045 146.357 469.343 148.264C465.671 150.173 461.297 150.875 456.223 150.371C450.95 149.847 446.697 148.461 443.466 146.211C440.236 143.961 438.231 141.099 437.454 137.625C436.679 134.123 436.629 128.979 437.303 122.195L439.312 101.97C439.808 96.9817 440.35 93.2645 440.938 90.8185C441.529 88.344 442.781 86.0358 444.692 83.8939C446.632 81.7549 449.163 80.1784 452.286 79.1645C455.441 78.125 458.971 77.7992 462.876 78.1872C468.178 78.7139 472.452 80.1748 475.697 82.5699C478.943 84.9649 480.954 87.7556 481.731 90.9418C482.511 94.0995 482.58 98.9137 481.937 105.384L481.283 111.969ZM526.998 86.0256L525.621 99.8793L514.932 98.8173L509.431 154.189L491.429 152.401L496.93 97.0289L486.284 95.9712L487.66 82.1175L526.998 86.0256ZM549.104 88.2218L542.226 157.447L524.225 155.659L531.102 86.4334L549.104 88.2218ZM593.436 133.561C592.745 140.516 592.084 145.431 591.453 148.304C590.854 151.152 589.565 153.687 587.589 155.909C585.641 158.133 583.135 159.741 580.071 160.732C577.008 161.723 573.523 162.025 569.618 161.637C565.912 161.269 562.637 160.339 559.791 158.847C556.977 157.33 554.792 155.27 553.237 152.669C551.682 150.067 550.875 147.324 550.816 144.44C550.757 141.555 551.082 136.55 551.79 129.424L552.966 117.58C553.657 110.624 554.303 105.723 554.902 102.875C555.533 100.001 556.823 97.452 558.771 95.2275C560.748 93.0058 563.268 91.3994 566.331 90.4083C569.395 89.4173 572.879 89.1157 576.784 89.5037C580.49 89.8719 583.75 90.8147 586.564 92.3321C589.41 93.8239 591.61 95.8704 593.165 98.4718C594.721 101.073 595.528 103.816 595.586 106.701C595.645 109.585 595.321 114.591 594.613 121.717L593.436 133.561ZM577.695 109.025C578.015 105.804 578.033 103.733 577.751 102.813C577.499 101.867 576.818 101.338 575.706 101.228C574.765 101.135 574.001 101.433 573.415 102.123C572.859 102.788 572.405 104.901 572.051 108.465L568.839 140.79C568.44 144.809 568.35 147.305 568.57 148.276C568.819 149.251 569.542 149.798 570.739 149.917C571.965 150.039 572.803 149.575 573.252 148.526C573.702 147.476 574.129 144.914 574.534 140.837L577.695 109.025ZM644.412 97.6905L637.534 166.916L621.756 165.349L615.519 132.948L612.392 164.418L597.342 162.923L604.219 93.6974L619.27 95.1927L626.264 127.366L629.361 96.1952L644.412 97.6905ZM703.418 103.553L702.042 117.406L691.352 116.344L685.851 171.716L667.85 169.928L673.351 114.556L662.704 113.498L664.081 99.6446L703.418 103.553ZM748.913 108.073L742.035 177.298L724.034 175.51L726.923 146.434L721.535 145.899L718.647 174.975L700.645 173.186L707.523 103.96L725.524 105.749L723.065 130.506L728.452 131.041L730.912 106.284L748.913 108.073ZM787.267 111.883L790.694 182.132L772.266 180.301L772.604 167.77L766.147 167.128L763.842 179.465L745.2 177.612L761.227 109.296L787.267 111.883ZM773.31 155.447C773.176 147.517 773.226 137.749 773.458 126.142C770.319 139.188 768.218 148.752 767.153 154.835L773.31 155.447ZM836.909 116.815L835.533 130.668L824.843 129.607L819.342 184.978L801.341 183.19L806.842 127.818L796.195 126.76L797.572 112.907L836.909 116.815Z" fill="#F9D3E0"/>
</svg>
