<svg width="847" height="217" viewBox="0 0 847 217" fill="none" xmlns="http://www.w3.org/2000/svg">
<rect x="13.0684" width="836.58" height="139.089" transform="rotate(5.34033 13.0684 0)" fill="#04839D"/>
<path d="M53.701 38.0114L48.1999 93.3834L59.146 94.4709L57.7697 108.325L28.8223 105.449L35.6998 36.2231L53.701 38.0114ZM69.0512 39.5365L99.0675 42.5185L97.6912 56.3722L85.6761 55.1785L84.372 68.3053L95.6174 69.4225L94.309 82.5921L83.0636 81.4749L81.5513 96.6968L94.7636 98.0094L93.3873 111.863L62.1738 108.762L69.0512 39.5365ZM141.74 46.758L140.364 60.6117L129.674 59.5497L124.173 114.922L106.172 113.133L111.673 57.7613L101.026 56.7035L102.403 42.8499L141.74 46.758ZM216.866 54.2216L209.989 123.447L194.254 121.884L198.897 75.1492L187.969 121.26L176.809 120.151L174.718 73.8266L170.181 119.492L154.446 117.929L161.324 48.7036L184.627 51.0187C184.897 55.2485 185.137 60.2236 185.346 65.9442L186.076 83.807L193.392 51.8895L216.866 54.2216ZM224.093 54.9396L254.109 57.9216L252.733 71.7753L240.718 70.5816L239.413 83.7084L250.659 84.8256L249.35 97.9952L238.105 96.8779L236.593 112.1L249.805 113.413L248.429 127.266L217.215 124.165L224.093 54.9396ZM312.06 84.8373L295.342 83.1763L295.851 78.0454C296.089 75.6509 296.027 74.1046 295.664 73.4065C295.302 72.7084 294.622 72.3098 293.624 72.2107C292.541 72.1031 291.67 72.4628 291.013 73.2898C290.383 74.1197 289.979 75.4325 289.801 77.2284C289.571 79.5373 289.712 81.3073 290.223 82.5383C290.706 83.7665 292.262 85.346 294.891 87.2769C302.428 92.8331 307.086 97.2396 308.863 100.496C310.641 103.753 311.193 108.774 310.519 115.558C310.029 120.49 309.084 124.066 307.683 126.287C306.311 128.511 303.892 130.257 300.426 131.525C296.964 132.765 293.038 133.166 288.648 132.73C283.831 132.251 279.802 130.93 276.563 128.766C273.352 126.604 271.359 124.06 270.585 121.134C269.811 118.207 269.681 114.149 270.197 108.961L270.647 104.429L287.365 106.09L286.528 114.513C286.271 117.107 286.333 118.798 286.716 119.584C287.127 120.373 287.931 120.827 289.128 120.946C290.325 121.065 291.256 120.683 291.919 119.799C292.611 118.917 293.049 117.55 293.233 115.698C293.638 111.621 293.347 108.901 292.36 107.536C291.344 106.169 288.745 103.794 284.561 100.414C280.38 97.0046 277.63 94.5579 276.309 93.0737C274.988 91.5895 273.961 89.6163 273.227 87.1541C272.521 84.6946 272.351 81.6263 272.716 77.9491C273.243 72.6471 274.298 68.8369 275.881 66.5185C277.493 64.203 279.878 62.5112 283.035 61.4431C286.196 60.3465 289.914 60.0106 294.19 60.4354C298.864 60.8999 302.766 62.0503 305.894 63.8868C309.051 65.7261 311.041 67.8526 311.867 70.2663C312.723 72.6544 312.878 76.5992 312.332 82.1008L312.06 84.8373ZM362.715 68.7114L355.837 137.937L337.836 136.149L340.725 107.073L335.337 106.538L332.449 135.613L314.447 133.825L321.325 64.5994L339.326 66.3878L336.867 91.1448L342.254 91.6801L344.714 66.923L362.715 68.7114ZM407.09 114.055C406.399 121.01 405.738 125.925 405.107 128.798C404.508 131.646 403.22 134.181 401.243 136.403C399.295 138.627 396.789 140.235 393.725 141.226C390.662 142.217 387.177 142.519 383.272 142.131C379.566 141.763 376.291 140.833 373.445 139.341C370.631 137.823 368.446 135.764 366.891 133.163C365.336 130.561 364.529 127.818 364.47 124.934C364.411 122.049 364.736 117.044 365.444 109.917L366.62 98.0734C367.311 91.1181 367.957 86.2164 368.556 83.3685C369.187 80.495 370.477 77.9459 372.425 75.7213C374.402 73.4996 376.922 71.8933 379.985 70.9022C383.049 69.9111 386.533 69.6096 390.438 69.9976C394.144 70.3657 397.404 71.3085 400.218 72.826C403.064 74.3177 405.264 76.3643 406.82 78.9657C408.375 81.5671 409.182 84.31 409.241 87.1945C409.299 90.0791 408.975 95.0845 408.267 102.211L407.09 114.055ZM391.349 89.5192C391.669 86.298 391.687 84.2272 391.405 83.3068C391.153 82.3606 390.472 81.8323 389.36 81.7218C388.419 81.6284 387.656 81.9267 387.069 82.6169C386.513 83.2814 386.059 85.3952 385.705 88.9584L382.493 121.284C382.094 125.303 382.004 127.799 382.225 128.77C382.473 129.745 383.196 130.292 384.393 130.411C385.619 130.533 386.457 130.069 386.906 129.02C387.356 127.97 387.783 125.408 388.188 121.331L391.349 89.5192ZM485.602 80.9201L470.729 149.351L448.238 147.117C447.242 136.28 446.633 124.014 446.41 110.318C445.122 116.034 442.254 127.955 437.805 146.08L415.442 143.859L414.281 73.8345L431.769 75.5719L431.208 99.913L430.774 123.403C432.628 111.41 435.853 95.7541 440.449 76.4342L459.178 78.2948C459.233 80.3442 459.132 88.0203 458.876 101.323L458.23 127.815C460.89 111.181 464.185 94.9705 468.114 79.1826L485.602 80.9201ZM543.026 86.6251L525.512 129.49L523.022 154.547L506.347 152.89L508.836 127.834L500.568 82.4068L517.115 84.0508C518.369 97.7916 518.921 107.015 518.77 111.721C520.502 104.437 523.071 95.524 526.479 84.9811L543.026 86.6251ZM583.254 131.557C582.563 138.512 581.902 143.426 581.271 146.3C580.672 149.148 579.384 151.683 577.407 153.904C575.459 156.129 572.953 157.737 569.889 158.728C566.826 159.719 563.341 160.02 559.436 159.632C555.73 159.264 552.455 158.334 549.609 156.842C546.795 155.325 544.61 153.266 543.055 150.664C541.5 148.063 540.693 145.32 540.634 142.435C540.575 139.551 540.9 134.545 541.608 127.419L542.784 115.575C543.475 108.62 544.121 103.718 544.72 100.87C545.351 97.9965 546.641 95.4475 548.589 93.2229C550.566 91.0012 553.086 89.3948 556.149 88.4038C559.213 87.4127 562.697 87.1112 566.602 87.4992C570.308 87.8673 573.568 88.8101 576.382 90.3276C579.228 91.8193 581.428 93.8659 582.984 96.4673C584.539 99.0686 585.346 101.812 585.405 104.696C585.463 107.581 585.139 112.586 584.431 119.712L583.254 131.557ZM567.513 107.021C567.833 103.8 567.852 101.729 567.569 100.808C567.317 99.8622 566.636 99.3339 565.524 99.2234C564.583 99.13 563.82 99.4283 563.233 100.118C562.677 100.783 562.223 102.897 561.869 106.46L558.657 138.785C558.258 142.805 558.168 145.3 558.389 146.272C558.637 147.247 559.36 147.793 560.557 147.912C561.783 148.034 562.621 147.57 563.07 146.521C563.52 145.472 563.947 142.909 564.352 138.833L567.513 107.021ZM634.957 95.7582L630.36 142.023C629.839 147.268 629.302 150.942 628.747 153.046C628.195 155.121 626.967 157.202 625.061 159.286C623.159 161.343 620.767 162.818 617.886 163.712C615.036 164.58 611.744 164.829 608.009 164.458C603.876 164.047 600.295 163.001 597.267 161.318C594.239 159.636 592.05 157.619 590.7 155.268C589.351 152.918 588.654 150.517 588.609 148.065C588.568 145.585 588.935 140.44 589.711 132.63L593.781 91.6674L611.782 93.4558L606.625 145.364C606.325 148.386 606.289 150.34 606.517 151.226C606.777 152.087 607.406 152.567 608.404 152.666C609.544 152.779 610.316 152.395 610.72 151.514C611.156 150.607 611.545 148.43 611.888 144.98L616.955 93.9698L634.957 95.7582ZM698.795 102.1L691.917 171.326L673.916 169.538L676.805 140.462L671.417 139.927L668.529 169.002L650.527 167.214L657.405 97.9884L675.406 99.7767L672.946 124.534L678.334 125.069L680.794 100.312L698.795 102.1ZM743.17 147.444C742.479 154.399 741.818 159.314 741.187 162.187C740.588 165.035 739.299 167.57 737.323 169.792C735.374 172.016 732.869 173.624 729.805 174.615C726.742 175.606 723.257 175.908 719.352 175.52C715.646 175.152 712.371 174.222 709.525 172.73C706.711 171.212 704.526 169.153 702.971 166.552C701.416 163.95 700.609 161.207 700.55 158.323C700.491 155.438 700.816 150.433 701.524 143.306L702.7 131.462C703.391 124.507 704.036 119.605 704.636 116.757C705.267 113.884 706.557 111.335 708.505 109.11C710.482 106.889 713.002 105.282 716.065 104.291C719.129 103.3 722.613 102.999 726.518 103.387C730.224 103.755 733.484 104.697 736.298 106.215C739.144 107.707 741.344 109.753 742.899 112.355C744.455 114.956 745.262 117.699 745.32 120.583C745.379 123.468 745.055 128.473 744.347 135.6L743.17 147.444ZM727.429 122.908C727.749 119.687 727.767 117.616 727.485 116.696C727.233 115.75 726.552 115.221 725.44 115.111C724.499 115.017 723.735 115.316 723.149 116.006C722.593 116.67 722.139 118.784 721.785 122.347L718.573 154.673C718.174 158.692 718.084 161.187 718.304 162.159C718.553 163.134 719.276 163.681 720.473 163.8C721.699 163.921 722.537 163.458 722.986 162.409C723.436 161.359 723.863 158.797 724.268 154.72L727.429 122.908ZM821.682 114.309L806.809 182.74L784.318 180.506C783.322 169.669 782.713 157.403 782.49 143.707C781.202 149.423 778.334 161.344 773.885 179.469L751.522 177.248L750.361 107.223L767.849 108.961L767.288 133.302L766.854 156.792C768.708 144.799 771.933 129.143 776.529 109.823L795.257 111.684C795.313 113.733 795.212 121.409 794.956 134.712L794.31 161.204C796.97 144.57 800.265 128.359 804.194 112.572L821.682 114.309Z" fill="#FBD4CA"/>
</svg>
