<svg width="325" height="299" viewBox="0 0 325 299" fill="none" xmlns="http://www.w3.org/2000/svg">
<g clip-path="url(#clip0)">
<path d="M295.952 244.368H201.231L162.5 298.797L116.507 244.368H29.0481C21.3441 244.368 13.9556 242.074 8.508 237.991C3.06042 233.908 0 228.371 0 222.597L0 22.5528C0 16.7786 3.06042 11.2409 8.508 7.15798C13.9556 3.07503 21.3441 0.78125 29.0481 0.78125L295.952 0.78125C303.656 0.78125 311.044 3.07503 316.492 7.15798C321.94 11.2409 325 16.7786 325 22.5528V222.597C325 228.371 321.94 233.908 316.492 237.991C311.044 242.074 303.656 244.368 295.952 244.368Z" fill="#B33F4C"/>
<path d="M138.594 61.2129V78.0879C138.594 81.9212 138.385 84.7129 137.969 86.4629C137.552 88.2129 136.688 89.8483 135.375 91.3691C134.062 92.89 132.479 93.9837 130.625 94.6504C128.771 95.3171 126.698 95.6504 124.406 95.6504C121.385 95.6504 118.875 95.3066 116.875 94.6191C114.875 93.9108 113.281 92.8171 112.094 91.3379C110.906 89.8587 110.062 88.3066 109.562 86.6816C109.062 85.0358 108.812 82.4316 108.812 78.8691V61.2129C108.812 56.5671 109.208 53.0879 110 50.7754C110.812 48.4629 112.406 46.6087 114.781 45.2129C117.177 43.8171 120.073 43.1191 123.469 43.1191C126.24 43.1191 128.719 43.6087 130.906 44.5879C133.094 45.5462 134.729 46.7233 135.812 48.1191C136.896 49.515 137.625 51.0879 138 52.8379C138.396 54.5879 138.594 57.3796 138.594 61.2129ZM125.969 56.9629C125.969 54.2754 125.833 52.5983 125.562 51.9316C125.312 51.2441 124.708 50.9004 123.75 50.9004C122.812 50.9004 122.188 51.265 121.875 51.9941C121.583 52.7025 121.438 54.3587 121.438 56.9629V81.6504C121.438 84.5879 121.573 86.3587 121.844 86.9629C122.135 87.5671 122.75 87.8691 123.688 87.8691C124.625 87.8691 125.24 87.515 125.531 86.8066C125.823 86.0983 125.969 84.5046 125.969 82.0254V56.9629ZM162.594 44.0879V94.6816H149.969V67.5566C149.969 63.64 149.875 61.2858 149.688 60.4941C149.5 59.7025 148.979 59.1087 148.125 58.7129C147.292 58.2962 145.417 58.0879 142.5 58.0879H141.25V52.1816C147.354 50.8691 151.99 48.1712 155.156 44.0879H162.594ZM197.281 61.2129V78.0879C197.281 81.9212 197.073 84.7129 196.656 86.4629C196.24 88.2129 195.375 89.8483 194.062 91.3691C192.75 92.89 191.167 93.9837 189.312 94.6504C187.458 95.3171 185.385 95.6504 183.094 95.6504C180.073 95.6504 177.562 95.3066 175.562 94.6191C173.562 93.9108 171.969 92.8171 170.781 91.3379C169.594 89.8587 168.75 88.3066 168.25 86.6816C167.75 85.0358 167.5 82.4316 167.5 78.8691V61.2129C167.5 56.5671 167.896 53.0879 168.688 50.7754C169.5 48.4629 171.094 46.6087 173.469 45.2129C175.865 43.8171 178.76 43.1191 182.156 43.1191C184.927 43.1191 187.406 43.6087 189.594 44.5879C191.781 45.5462 193.417 46.7233 194.5 48.1191C195.583 49.515 196.312 51.0879 196.688 52.8379C197.083 54.5879 197.281 57.3796 197.281 61.2129ZM184.656 56.9629C184.656 54.2754 184.521 52.5983 184.25 51.9316C184 51.2441 183.396 50.9004 182.438 50.9004C181.5 50.9004 180.875 51.265 180.562 51.9941C180.271 52.7025 180.125 54.3587 180.125 56.9629V81.6504C180.125 84.5879 180.26 86.3587 180.531 86.9629C180.823 87.5671 181.438 87.8691 182.375 87.8691C183.312 87.8691 183.927 87.515 184.219 86.8066C184.51 86.0983 184.656 84.5046 184.656 82.0254V56.9629ZM217.281 69.5879V78.3066H200.688V69.5879H217.281ZM52.9375 153.025C54.8542 153.671 56.2812 154.734 57.2188 156.213C58.1562 157.671 58.625 161.109 58.625 166.525C58.625 170.546 58.1667 173.671 57.25 175.9C56.3333 178.109 54.75 179.796 52.5 180.963C50.25 182.109 47.3646 182.682 43.8438 182.682C39.8438 182.682 36.6979 182.015 34.4062 180.682C32.1354 179.327 30.6354 177.682 29.9062 175.744C29.1979 173.786 28.8438 170.4 28.8438 165.588V161.588H41.4688V169.807C41.4688 171.994 41.5938 173.39 41.8438 173.994C42.1146 174.577 42.6979 174.869 43.5938 174.869C44.5729 174.869 45.2188 174.494 45.5312 173.744C45.8438 172.994 46 171.036 46 167.869V164.369C46 162.432 45.7812 161.015 45.3438 160.119C44.9062 159.223 44.2604 158.64 43.4062 158.369C42.5521 158.077 40.8958 157.911 38.4375 157.869V150.525C41.4375 150.525 43.2917 150.411 44 150.182C44.7083 149.952 45.2188 149.452 45.5312 148.682C45.8438 147.911 46 146.702 46 145.057V142.244C46 140.473 45.8125 139.307 45.4375 138.744C45.0833 138.182 44.5208 137.9 43.75 137.9C42.875 137.9 42.2708 138.202 41.9375 138.807C41.625 139.39 41.4688 140.65 41.4688 142.588V146.744H28.8438V142.432C28.8438 137.598 29.9479 134.338 32.1562 132.65C34.3646 130.942 37.875 130.088 42.6875 130.088C48.7083 130.088 52.7917 131.265 54.9375 133.619C57.0833 135.973 58.1562 139.244 58.1562 143.432C58.1562 146.265 57.7708 148.317 57 149.588C56.2292 150.838 54.875 151.984 52.9375 153.025ZM82.625 131.088V181.682H70V154.557C70 150.64 69.9062 148.286 69.7188 147.494C69.5312 146.702 69.0104 146.109 68.1562 145.713C67.3229 145.296 65.4479 145.088 62.5312 145.088H61.2812V139.182C67.3854 137.869 72.0208 135.171 75.1875 131.088H82.625ZM117.312 148.213V165.088C117.312 168.921 117.104 171.713 116.688 173.463C116.271 175.213 115.406 176.848 114.094 178.369C112.781 179.89 111.198 180.984 109.344 181.65C107.49 182.317 105.417 182.65 103.125 182.65C100.104 182.65 97.5938 182.307 95.5938 181.619C93.5938 180.911 92 179.817 90.8125 178.338C89.625 176.859 88.7812 175.307 88.2812 173.682C87.7812 172.036 87.5312 169.432 87.5312 165.869V148.213C87.5312 143.567 87.9271 140.088 88.7188 137.775C89.5312 135.463 91.125 133.609 93.5 132.213C95.8958 130.817 98.7917 130.119 102.188 130.119C104.958 130.119 107.438 130.609 109.625 131.588C111.812 132.546 113.448 133.723 114.531 135.119C115.615 136.515 116.344 138.088 116.719 139.838C117.115 141.588 117.312 144.38 117.312 148.213ZM104.688 143.963C104.688 141.275 104.552 139.598 104.281 138.932C104.031 138.244 103.427 137.9 102.469 137.9C101.531 137.9 100.906 138.265 100.594 138.994C100.302 139.702 100.156 141.359 100.156 143.963V168.65C100.156 171.588 100.292 173.359 100.562 173.963C100.854 174.567 101.469 174.869 102.406 174.869C103.344 174.869 103.958 174.515 104.25 173.807C104.542 173.098 104.688 171.505 104.688 169.025V143.963ZM145.938 152.994C147.792 153.744 149.219 154.869 150.219 156.369C151.219 157.848 151.719 161.39 151.719 166.994C151.719 171.077 151.323 174.088 150.531 176.025C149.74 177.963 148.198 179.557 145.906 180.807C143.615 182.036 140.542 182.65 136.688 182.65C132.938 182.65 129.969 182.057 127.781 180.869C125.594 179.682 124.021 178.109 123.062 176.15C122.125 174.192 121.656 170.932 121.656 166.369C121.656 163.307 121.885 160.65 122.344 158.4C122.823 156.15 124.302 154.348 126.781 152.994C125.219 152.244 124.042 151.057 123.25 149.432C122.479 147.786 122.094 145.702 122.094 143.182C122.094 138.827 123.302 135.567 125.719 133.4C128.135 131.213 131.75 130.119 136.562 130.119C142.125 130.119 145.969 131.275 148.094 133.588C150.219 135.9 151.281 139.202 151.281 143.494C151.281 146.223 150.927 148.192 150.219 149.4C149.531 150.609 148.104 151.807 145.938 152.994ZM138.844 142.119C138.844 140.411 138.688 139.286 138.375 138.744C138.083 138.182 137.51 137.9 136.656 137.9C135.823 137.9 135.26 138.202 134.969 138.807C134.677 139.39 134.531 140.494 134.531 142.119V145.963C134.531 147.484 134.698 148.536 135.031 149.119C135.365 149.702 135.927 149.994 136.719 149.994C137.552 149.994 138.115 149.713 138.406 149.15C138.698 148.567 138.844 147.38 138.844 145.588V142.119ZM139.094 163.15C139.094 161.213 138.896 159.932 138.5 159.307C138.104 158.661 137.479 158.338 136.625 158.338C135.792 158.338 135.188 158.65 134.812 159.275C134.458 159.88 134.281 161.171 134.281 163.15V169.713C134.281 171.9 134.479 173.307 134.875 173.932C135.292 174.557 135.938 174.869 136.812 174.869C137.708 174.869 138.312 174.557 138.625 173.932C138.938 173.286 139.094 171.848 139.094 169.619V163.15ZM171.562 156.588V165.307H154.969V156.588H171.562ZM205.281 144.525H192.656C192.656 142.171 192.625 140.692 192.562 140.088C192.521 139.463 192.271 138.942 191.812 138.525C191.375 138.109 190.771 137.9 190 137.9C189.354 137.9 188.823 138.098 188.406 138.494C187.99 138.89 187.75 139.4 187.688 140.025C187.625 140.65 187.594 141.911 187.594 143.807V151.869C188.24 150.515 189.188 149.505 190.438 148.838C191.688 148.15 193.229 147.807 195.062 147.807C197.375 147.807 199.417 148.432 201.188 149.682C202.958 150.932 204.083 152.432 204.562 154.182C205.042 155.932 205.281 158.296 205.281 161.275V165.307C205.281 168.848 205.146 171.484 204.875 173.213C204.604 174.942 203.875 176.546 202.688 178.025C201.521 179.484 199.906 180.619 197.844 181.432C195.802 182.244 193.417 182.65 190.688 182.65C187.292 182.65 184.51 182.182 182.344 181.244C180.177 180.307 178.5 178.963 177.312 177.213C176.146 175.442 175.458 173.588 175.25 171.65C175.062 169.713 174.969 165.952 174.969 160.369V153.369C174.969 147.348 175.052 143.327 175.219 141.307C175.406 139.265 176.135 137.338 177.406 135.525C178.677 133.713 180.406 132.359 182.594 131.463C184.802 130.546 187.344 130.088 190.219 130.088C193.76 130.088 196.667 130.661 198.938 131.807C201.208 132.952 202.833 134.567 203.812 136.65C204.792 138.734 205.281 141.359 205.281 144.525ZM192.656 160.307C192.656 158.515 192.458 157.286 192.062 156.619C191.667 155.952 191.021 155.619 190.125 155.619C189.25 155.619 188.604 155.942 188.188 156.588C187.792 157.213 187.594 158.452 187.594 160.307V169.463C187.594 171.692 187.781 173.15 188.156 173.838C188.552 174.525 189.198 174.869 190.094 174.869C190.635 174.869 191.198 174.609 191.781 174.088C192.365 173.546 192.656 172.109 192.656 169.775V160.307ZM235.406 131.088V164.15H239V172.775H235.406V181.682H222.781V172.775H207.781V164.15L218.688 131.088H235.406ZM222.781 164.15V142.619L217.219 164.15H222.781ZM261.125 131.088V181.682H248.5V154.557C248.5 150.64 248.406 148.286 248.219 147.494C248.031 146.702 247.51 146.109 246.656 145.713C245.823 145.296 243.948 145.088 241.031 145.088H239.781V139.182C245.885 137.869 250.521 135.171 253.688 131.088H261.125ZM290.125 152.994C291.979 153.744 293.406 154.869 294.406 156.369C295.406 157.848 295.906 161.39 295.906 166.994C295.906 171.077 295.51 174.088 294.719 176.025C293.927 177.963 292.385 179.557 290.094 180.807C287.802 182.036 284.729 182.65 280.875 182.65C277.125 182.65 274.156 182.057 271.969 180.869C269.781 179.682 268.208 178.109 267.25 176.15C266.312 174.192 265.844 170.932 265.844 166.369C265.844 163.307 266.073 160.65 266.531 158.4C267.01 156.15 268.49 154.348 270.969 152.994C269.406 152.244 268.229 151.057 267.438 149.432C266.667 147.786 266.281 145.702 266.281 143.182C266.281 138.827 267.49 135.567 269.906 133.4C272.323 131.213 275.938 130.119 280.75 130.119C286.312 130.119 290.156 131.275 292.281 133.588C294.406 135.9 295.469 139.202 295.469 143.494C295.469 146.223 295.115 148.192 294.406 149.4C293.719 150.609 292.292 151.807 290.125 152.994ZM283.031 142.119C283.031 140.411 282.875 139.286 282.562 138.744C282.271 138.182 281.698 137.9 280.844 137.9C280.01 137.9 279.448 138.202 279.156 138.807C278.865 139.39 278.719 140.494 278.719 142.119V145.963C278.719 147.484 278.885 148.536 279.219 149.119C279.552 149.702 280.115 149.994 280.906 149.994C281.74 149.994 282.302 149.713 282.594 149.15C282.885 148.567 283.031 147.38 283.031 145.588V142.119ZM283.281 163.15C283.281 161.213 283.083 159.932 282.688 159.307C282.292 158.661 281.667 158.338 280.812 158.338C279.979 158.338 279.375 158.65 279 159.275C278.646 159.88 278.469 161.171 278.469 163.15V169.713C278.469 171.9 278.667 173.307 279.062 173.932C279.479 174.557 280.125 174.869 281 174.869C281.896 174.869 282.5 174.557 282.812 173.932C283.125 173.286 283.281 171.848 283.281 169.619V163.15Z" fill="#FFD87E"/>
</g>
<defs>
<clipPath id="clip0">
<rect width="325" height="298.016" fill="white" transform="translate(0 0.78125)"/>
</clipPath>
</defs>
</svg>
