<svg width="973" height="330" viewBox="0 0 973 330" fill="none" xmlns="http://www.w3.org/2000/svg">
<path d="M0.40625 6.98926H58.6094C97.4115 6.98926 123.648 8.48665 137.32 11.4814C151.122 14.4762 162.32 22.1585 170.914 34.5283C179.638 46.7679 184 66.3643 184 93.3174C184 117.927 180.94 134.463 174.82 142.927C168.701 151.39 156.656 156.468 138.688 158.161C154.964 162.198 165.901 167.601 171.5 174.372C177.099 181.143 180.549 187.393 181.852 193.122C183.284 198.721 184 214.281 184 239.802V323.2H107.633V218.122C107.633 201.195 106.266 190.713 103.531 186.677C100.927 182.64 93.9609 180.622 82.6328 180.622V323.2H0.40625V6.98926ZM82.6328 61.0908V131.403C91.8776 131.403 98.3229 130.166 101.969 127.692C105.745 125.088 107.633 116.82 107.633 102.888V85.5049C107.633 75.4788 105.81 68.9033 102.164 65.7783C98.6484 62.6533 92.138 61.0908 82.6328 61.0908ZM216.031 6.98926H353.141V70.2705H298.258V130.231H349.625V190.388H298.258V259.919H358.609V323.2H216.031V6.98926ZM524.43 6.98926L571.5 323.2H487.32L483.219 266.364H453.727L448.844 323.2H363.688L405.484 6.98926H524.43ZM480.875 210.31C476.708 174.502 472.542 130.297 468.375 77.6924C460.042 138.109 454.833 182.315 452.75 210.31H480.875ZM777.555 144.88H695.328V89.8018C695.328 73.7861 694.417 63.8252 692.594 59.9189C690.901 55.8825 687.06 53.8643 681.07 53.8643C674.299 53.8643 670.003 56.2731 668.18 61.0908C666.357 65.9085 665.445 76.3252 665.445 92.3408V239.216C665.445 254.58 666.357 264.606 668.18 269.294C670.003 273.981 674.104 276.325 680.484 276.325C686.604 276.325 690.576 273.981 692.398 269.294C694.352 264.606 695.328 253.604 695.328 236.286V196.638H777.555V208.942C777.555 241.625 775.211 264.802 770.523 278.474C765.966 292.146 755.745 304.125 739.859 314.411C724.104 324.698 704.638 329.841 681.461 329.841C657.372 329.841 637.516 325.479 621.891 316.755C606.266 308.031 595.914 295.987 590.836 280.622C585.758 265.127 583.219 241.885 583.219 210.896V118.513C583.219 95.7262 584 78.6689 585.562 67.3408C587.125 55.8825 591.747 44.8799 599.43 34.333C607.242 23.7861 617.984 15.5179 631.656 9.52832C645.458 3.40853 661.279 0.348633 679.117 0.348633C703.336 0.348633 723.323 5.03613 739.078 14.4111C754.833 23.7861 765.185 35.5049 770.133 49.5674C775.081 63.4997 777.555 85.2445 777.555 114.802V144.88ZM972.672 6.98926V70.2705H923.844V323.2H841.617V70.2705H792.984V6.98926H972.672Z" fill="#3F52A0"/>
</svg>
