<svg width="367" height="575" viewBox="0 0 367 575" fill="none" xmlns="http://www.w3.org/2000/svg">
<path d="M70.9543 164.986C69.2465 164.985 67.6044 165.468 66.3724 166.334C65.1403 167.2 64.414 168.381 64.3457 169.63V169.856C64.3457 171.139 65.042 172.369 66.2813 173.277C67.5207 174.184 69.2016 174.693 70.9543 174.693C72.7071 174.693 74.388 174.184 75.6273 173.277C76.8667 172.369 77.563 171.139 77.563 169.856C77.5739 169.781 77.5739 169.705 77.563 169.63C77.4947 168.381 76.7683 167.2 75.5363 166.334C74.3043 165.468 72.6622 164.985 70.9543 164.986Z" fill="#B24146"/>
<path d="M6.60864 164.986C4.90077 164.985 3.25869 165.468 2.02666 166.334C0.794624 167.2 0.0683142 168.381 0 169.63L0 169.856C0 171.139 0.696266 172.369 1.93563 173.277C3.17499 174.184 4.85592 174.693 6.60864 174.693C8.36136 174.693 10.0423 174.184 11.2817 173.277C12.521 172.369 13.2173 171.139 13.2173 169.856V169.63C13.149 168.381 12.4227 167.2 11.1906 166.334C9.95859 165.468 8.31651 164.985 6.60864 164.986Z" fill="#B24146"/>
<path d="M103.116 141.442C101.809 141.442 100.532 141.726 99.4449 142.258C98.3581 142.789 97.5111 143.545 97.0109 144.429C96.5107 145.313 96.3798 146.286 96.6348 147.225C96.8898 148.163 97.5192 149.025 98.4434 149.702C99.3677 150.379 100.545 150.839 101.827 151.026C103.109 151.213 104.438 151.117 105.645 150.751C106.853 150.385 107.885 149.764 108.611 148.969C109.338 148.173 109.725 147.238 109.725 146.281C109.725 144.998 109.029 143.767 107.789 142.86C106.55 141.952 104.869 141.442 103.116 141.442Z" fill="#B24146"/>
<path d="M38.7922 141.442C37.4852 141.442 36.2075 141.726 35.1207 142.258C34.0339 142.789 33.1868 143.545 32.6866 144.429C32.1865 145.313 32.0556 146.286 32.3106 147.225C32.5656 148.163 33.195 149.025 34.1192 149.702C35.0435 150.379 36.221 150.839 37.503 151.026C38.7849 151.213 40.1137 151.117 41.3213 150.751C42.5288 150.385 43.561 149.764 44.2871 148.969C45.0133 148.173 45.4009 147.238 45.4009 146.281C45.4009 144.998 44.7046 143.767 43.4653 142.86C42.2259 141.952 40.545 141.442 38.7922 141.442Z" fill="#B24146"/>
<path d="M70.9543 117.916C69.6473 117.916 68.3696 118.2 67.2828 118.731C66.196 119.263 65.349 120.018 64.8488 120.902C64.3486 121.786 64.2177 122.759 64.4727 123.697C64.7277 124.636 65.3571 125.497 66.2813 126.174C67.2056 126.851 68.3831 127.311 69.6651 127.498C70.947 127.685 72.2758 127.589 73.4834 127.223C74.6909 126.856 75.7231 126.236 76.4492 125.441C77.1754 124.645 77.563 123.71 77.563 122.753C77.563 121.47 76.8667 120.24 75.6274 119.333C74.388 118.426 72.7071 117.916 70.9543 117.916Z" fill="#B24146"/>
<path d="M6.60864 117.916C5.30158 117.916 4.02387 118.2 2.93708 118.731C1.85029 119.263 1.00325 120.018 0.503056 120.902C0.00286343 121.786 -0.12801 122.759 0.126986 123.697C0.381982 124.636 1.01139 125.497 1.93563 126.174C2.85986 126.851 4.03741 127.311 5.31936 127.498C6.60131 127.685 7.93009 127.589 9.13766 127.223C10.3452 126.856 11.3774 126.236 12.1035 125.441C12.8297 124.645 13.2173 123.71 13.2173 122.753C13.2173 121.47 12.521 120.24 11.2817 119.333C10.0423 118.426 8.36137 117.916 6.60864 117.916Z" fill="#B24146"/>
<path d="M103.116 94.3701C101.809 94.3701 100.532 94.6539 99.4449 95.1855C98.3581 95.7172 97.5111 96.4728 97.0109 97.3569C96.5107 98.241 96.3798 99.2139 96.6348 100.152C96.8898 101.091 97.5192 101.953 98.4434 102.63C99.3677 103.306 100.545 103.767 101.827 103.954C103.109 104.141 104.438 104.045 105.645 103.679C106.853 103.312 107.885 102.692 108.611 101.897C109.338 101.101 109.725 100.165 109.725 99.2085C109.725 97.9253 109.029 96.6946 107.789 95.7872C106.55 94.8799 104.869 94.3701 103.116 94.3701Z" fill="#B24146"/>
<path d="M38.7922 94.3701C37.4852 94.3701 36.2075 94.6539 35.1207 95.1855C34.0339 95.7172 33.1868 96.4728 32.6866 97.3569C32.1865 98.241 32.0556 99.2139 32.3106 100.152C32.5656 101.091 33.195 101.953 34.1192 102.63C35.0435 103.306 36.221 103.767 37.503 103.954C38.7849 104.141 40.1137 104.045 41.3213 103.679C42.5288 103.312 43.561 102.692 44.2871 101.897C45.0133 101.101 45.4009 100.165 45.4009 99.2085C45.4009 97.9253 44.7046 96.6946 43.4653 95.7872C42.2259 94.8799 40.545 94.3701 38.7922 94.3701Z" fill="#B24146"/>
<path d="M70.9543 70.8281C69.6473 70.8281 68.3696 71.1118 67.2828 71.6433C66.196 72.1748 65.349 72.9302 64.8488 73.814C64.3486 74.6979 64.2177 75.6704 64.4727 76.6087C64.7277 77.5469 65.3571 78.4088 66.2813 79.0853C67.2056 79.7617 68.3831 80.2224 69.6651 80.409C70.947 80.5956 72.2758 80.4999 73.4834 80.1338C74.6909 79.7677 75.7231 79.1477 76.4492 78.3523C77.1754 77.5569 77.563 76.6217 77.563 75.665C77.563 74.3822 76.8667 73.1519 75.6274 72.2448C74.388 71.3377 72.7071 70.8281 70.9543 70.8281Z" fill="#B24146"/>
<path d="M6.60864 70.8281C5.30158 70.8281 4.02387 71.1118 2.93708 71.6433C1.85029 72.1748 1.00325 72.9302 0.503056 73.814C0.00286343 74.6979 -0.12801 75.6704 0.126986 76.6087C0.381982 77.5469 1.01139 78.4088 1.93563 79.0853C2.85986 79.7617 4.03741 80.2224 5.31936 80.409C6.60131 80.5956 7.93009 80.4999 9.13766 80.1338C10.3452 79.7677 11.3774 79.1477 12.1035 78.3523C12.8297 77.5569 13.2173 76.6217 13.2173 75.665C13.2173 74.3822 12.521 73.1519 11.2817 72.2448C10.0423 71.3377 8.36137 70.8281 6.60864 70.8281Z" fill="#B24146"/>
<path d="M103.116 47.2832C101.809 47.2832 100.532 47.5669 99.4449 48.0984C98.3581 48.6299 97.5111 49.3853 97.0109 50.2691C96.5107 51.1529 96.3798 52.1255 96.6348 53.0637C96.8898 54.002 97.5192 54.8639 98.4434 55.5403C99.3677 56.2168 100.545 56.6775 101.827 56.8641C103.109 57.0507 104.438 56.9549 105.645 56.5888C106.853 56.2227 107.885 55.6028 108.611 54.8074C109.338 54.0119 109.725 53.0768 109.725 52.1201C109.725 50.8373 109.029 49.607 107.789 48.6999C106.55 47.7928 104.869 47.2832 103.116 47.2832Z" fill="#B24146"/>
<path d="M38.7922 47.2832C37.4852 47.2832 36.2075 47.5669 35.1207 48.0984C34.0339 48.6299 33.1868 49.3853 32.6866 50.2691C32.1865 51.1529 32.0556 52.1255 32.3106 53.0637C32.5656 54.002 33.195 54.8639 34.1192 55.5403C35.0435 56.2168 36.221 56.6775 37.503 56.8641C38.7849 57.0507 40.1137 56.9549 41.3213 56.5888C42.5288 56.2227 43.561 55.6028 44.2871 54.8074C45.0133 54.0119 45.4009 53.0768 45.4009 52.1201C45.4009 50.8373 44.7046 49.607 43.4653 48.6999C42.2259 47.7928 40.545 47.2832 38.7922 47.2832Z" fill="#B24146"/>
<path d="M70.9543 23.7393C69.6473 23.7393 68.3696 24.023 67.2828 24.5547C66.196 25.0863 65.349 25.842 64.8488 26.7261C64.3486 27.6102 64.2177 28.583 64.4727 29.5216C64.7277 30.4601 65.3571 31.3222 66.2813 31.9989C67.2056 32.6755 68.3831 33.1364 69.6651 33.323C70.947 33.5097 72.2758 33.4139 73.4834 33.0477C74.6909 32.6815 75.7231 32.0614 76.4492 31.2657C77.1754 30.47 77.563 29.5346 77.563 28.5776C77.563 27.2944 76.8667 26.0638 75.6274 25.1564C74.388 24.249 72.7071 23.7393 70.9543 23.7393Z" fill="#B24146"/>
<path d="M6.60864 23.7393C5.30158 23.7393 4.02387 24.023 2.93708 24.5547C1.85029 25.0863 1.00325 25.842 0.503056 26.7261C0.00286343 27.6102 -0.12801 28.583 0.126986 29.5216C0.381982 30.4601 1.01139 31.3222 1.93563 31.9989C2.85986 32.6755 4.03741 33.1364 5.31936 33.323C6.60131 33.5097 7.93009 33.4139 9.13766 33.0477C10.3452 32.6815 11.3774 32.0614 12.1035 31.2657C12.8297 30.47 13.2173 29.5346 13.2173 28.5776C13.2173 27.2944 12.521 26.0638 11.2817 25.1564C10.0423 24.249 8.36137 23.7393 6.60864 23.7393Z" fill="#B24146"/>
<path d="M103.116 0.194336C101.809 0.194336 100.532 0.47813 99.4449 1.00983C98.3581 1.54153 97.5111 2.29726 97.0109 3.18145C96.5107 4.06564 96.3798 5.03857 96.6348 5.97722C96.8898 6.91587 97.5192 7.77807 98.4434 8.4548C99.3677 9.13153 100.545 9.59238 101.827 9.77909C103.109 9.9658 104.438 9.86997 105.645 9.50373C106.853 9.13749 107.885 8.51728 108.611 7.72153C109.338 6.92579 109.725 5.99024 109.725 5.0332C109.725 3.74986 109.029 2.51907 107.789 1.61161C106.55 0.704144 104.869 0.194336 103.116 0.194336V0.194336Z" fill="#B24146"/>
<path d="M38.7922 0.194336C37.4852 0.194336 36.2075 0.47813 35.1207 1.00983C34.0339 1.54153 33.1868 2.29726 32.6866 3.18145C32.1865 4.06564 32.0556 5.03857 32.3106 5.97722C32.5656 6.91587 33.195 7.77807 34.1192 8.4548C35.0435 9.13153 36.221 9.59238 37.503 9.77909C38.7849 9.9658 40.1137 9.86997 41.3213 9.50373C42.5288 9.13749 43.561 8.51728 44.2871 7.72153C45.0133 6.92579 45.4009 5.99024 45.4009 5.0332C45.4009 3.74986 44.7046 2.51907 43.4653 1.61161C42.2259 0.704144 40.545 0.194336 38.7922 0.194336V0.194336Z" fill="#B24146"/>
<path d="M328.229 164.986C326.521 164.985 324.879 165.468 323.647 166.334C322.415 167.2 321.688 168.381 321.62 169.63V169.856C321.62 171.139 322.316 172.369 323.556 173.277C324.795 174.184 326.476 174.693 328.229 174.693C329.981 174.693 331.662 174.184 332.902 173.277C334.141 172.369 334.837 171.139 334.837 169.856V169.63C334.769 168.381 334.043 167.2 332.811 166.334C331.579 165.468 329.937 164.985 328.229 164.986Z" fill="#B24146"/>
<path d="M263.926 164.986C262.219 164.985 260.576 165.468 259.344 166.334C258.112 167.2 257.386 168.381 257.318 169.63C257.307 169.705 257.307 169.781 257.318 169.856C257.318 171.139 258.014 172.369 259.253 173.277C260.493 174.184 262.174 174.693 263.926 174.693C265.679 174.693 267.36 174.184 268.599 173.277C269.839 172.369 270.535 171.139 270.535 169.856V169.63C270.467 168.381 269.74 167.2 268.508 166.334C267.276 165.468 265.634 164.985 263.926 164.986Z" fill="#B24146"/>
<path d="M199.603 164.986C197.895 164.985 196.253 165.468 195.021 166.334C193.789 167.2 193.062 168.381 192.994 169.63C192.994 169.711 192.994 169.775 192.994 169.856C192.994 171.139 193.69 172.369 194.93 173.277C196.169 174.184 197.85 174.693 199.603 174.693C201.356 174.693 203.036 174.184 204.276 173.277C205.515 172.369 206.211 171.139 206.211 169.856V169.63C206.143 168.381 205.417 167.2 204.185 166.334C202.953 165.468 201.311 164.985 199.603 164.986Z" fill="#B24146"/>
<path d="M135.279 164.986H134.971C133.316 165.038 131.749 165.542 130.578 166.399C129.407 167.256 128.719 168.403 128.648 169.614V169.84C128.647 171.088 129.304 172.287 130.482 173.189C131.66 174.09 133.268 174.624 134.971 174.678H135.279C137.032 174.678 138.713 174.168 139.952 173.261C141.191 172.354 141.888 171.123 141.888 169.84V169.614C141.814 168.368 141.085 167.191 139.854 166.328C138.622 165.466 136.983 164.985 135.279 164.986Z" fill="#B24146"/>
<path d="M360.392 141.442C359.085 141.442 357.807 141.726 356.72 142.258C355.634 142.789 354.786 143.545 354.286 144.429C353.786 145.313 353.655 146.286 353.91 147.225C354.165 148.163 354.795 149.025 355.719 149.702C356.643 150.379 357.821 150.839 359.103 151.026C360.385 151.213 361.713 151.117 362.921 150.751C364.128 150.385 365.161 149.764 365.887 148.969C366.613 148.173 367 147.238 367 146.281C367 144.998 366.304 143.767 365.065 142.86C363.825 141.952 362.145 141.442 360.392 141.442Z" fill="#B24146"/>
<path d="M296.089 141.442C294.782 141.442 293.504 141.726 292.418 142.258C291.331 142.789 290.484 143.545 289.984 144.429C289.483 145.313 289.352 146.286 289.607 147.225C289.862 148.163 290.492 149.025 291.416 149.702C292.34 150.379 293.518 150.839 294.8 151.026C296.082 151.213 297.41 151.117 298.618 150.751C299.826 150.385 300.858 149.764 301.584 148.969C302.31 148.173 302.698 147.238 302.698 146.281C302.698 144.998 302.001 143.767 300.762 142.86C299.523 141.952 297.842 141.442 296.089 141.442Z" fill="#B24146"/>
<path d="M231.765 141.442C230.458 141.442 229.18 141.726 228.093 142.258C227.007 142.789 226.159 143.545 225.659 144.429C225.159 145.313 225.028 146.286 225.283 147.225C225.538 148.163 226.168 149.025 227.092 149.702C228.016 150.379 229.194 150.839 230.476 151.026C231.758 151.213 233.086 151.117 234.294 150.751C235.501 150.385 236.534 149.764 237.26 148.969C237.986 148.173 238.374 147.238 238.374 146.281C238.374 144.998 237.677 143.767 236.438 142.86C235.199 141.952 233.518 141.442 231.765 141.442Z" fill="#B24146"/>
<path d="M167.419 141.442C166.112 141.442 164.834 141.726 163.748 142.258C162.661 142.789 161.814 143.545 161.314 144.429C160.813 145.313 160.683 146.286 160.938 147.225C161.193 148.163 161.822 149.025 162.746 149.702C163.67 150.379 164.848 150.839 166.13 151.026C167.412 151.213 168.741 151.117 169.948 150.751C171.156 150.385 172.188 149.764 172.914 148.969C173.64 148.173 174.028 147.238 174.028 146.281C174.028 144.998 173.331 143.767 172.092 142.86C170.853 141.952 169.172 141.442 167.419 141.442Z" fill="#B24146"/>
<path d="M328.229 117.916C326.922 117.916 325.644 118.2 324.557 118.731C323.47 119.263 322.623 120.018 322.123 120.902C321.623 121.786 321.492 122.759 321.747 123.697C322.002 124.636 322.632 125.497 323.556 126.174C324.48 126.851 325.658 127.311 326.939 127.498C328.221 127.685 329.55 127.589 330.758 127.223C331.965 126.856 332.997 126.236 333.724 125.441C334.45 124.645 334.837 123.71 334.837 122.753C334.837 121.47 334.141 120.24 332.902 119.333C331.662 118.426 329.981 117.916 328.229 117.916Z" fill="#B24146"/>
<path d="M263.927 117.916C262.62 117.916 261.342 118.2 260.255 118.731C259.169 119.263 258.322 120.018 257.821 120.902C257.321 121.786 257.19 122.759 257.445 123.697C257.7 124.636 258.33 125.497 259.254 126.174C260.178 126.851 261.356 127.311 262.638 127.498C263.92 127.685 265.249 127.589 266.456 127.223C267.664 126.856 268.696 126.236 269.422 125.441C270.148 124.645 270.536 123.71 270.536 122.753C270.536 121.47 269.839 120.24 268.6 119.333C267.361 118.426 265.68 117.916 263.927 117.916Z" fill="#B24146"/>
<path d="M199.603 117.916C198.296 117.916 197.018 118.2 195.931 118.731C194.844 119.263 193.997 120.018 193.497 120.902C192.997 121.786 192.866 122.759 193.121 123.697C193.376 124.636 194.006 125.497 194.93 126.174C195.854 126.851 197.032 127.311 198.314 127.498C199.595 127.685 200.924 127.589 202.132 127.223C203.339 126.856 204.372 126.236 205.098 125.441C205.824 124.645 206.211 123.71 206.211 122.753C206.211 121.47 205.515 120.24 204.276 119.333C203.036 118.426 201.356 117.916 199.603 117.916Z" fill="#B24146"/>
<path d="M135.278 117.916H134.97C133.217 117.916 131.536 118.426 130.297 119.333C129.058 120.24 128.361 121.47 128.361 122.753C128.361 124.036 129.058 125.267 130.297 126.174C131.536 127.081 133.217 127.591 134.97 127.591H135.278C137.031 127.591 138.712 127.081 139.951 126.174C141.191 125.267 141.887 124.036 141.887 122.753C141.887 121.47 141.191 120.24 139.951 119.333C138.712 118.426 137.031 117.916 135.278 117.916Z" fill="#B24146"/>
<path d="M360.392 94.3701C359.085 94.3701 357.807 94.6539 356.72 95.1855C355.634 95.7172 354.786 96.4728 354.286 97.3569C353.786 98.241 353.655 99.2139 353.91 100.152C354.165 101.091 354.795 101.953 355.719 102.63C356.643 103.306 357.821 103.767 359.103 103.954C360.385 104.141 361.713 104.045 362.921 103.679C364.128 103.312 365.161 102.692 365.887 101.897C366.613 101.101 367 100.165 367 99.2085C367 97.9253 366.304 96.6946 365.065 95.7872C363.825 94.8799 362.145 94.3701 360.392 94.3701Z" fill="#B24146"/>
<path d="M296.089 94.3701C294.782 94.3701 293.504 94.6539 292.418 95.1855C291.331 95.7172 290.484 96.4728 289.984 97.3569C289.483 98.241 289.352 99.2139 289.607 100.152C289.862 101.091 290.492 101.953 291.416 102.63C292.34 103.306 293.518 103.767 294.8 103.954C296.082 104.141 297.41 104.045 298.618 103.679C299.826 103.312 300.858 102.692 301.584 101.897C302.31 101.101 302.698 100.165 302.698 99.2085C302.698 97.9253 302.001 96.6946 300.762 95.7872C299.523 94.8799 297.842 94.3701 296.089 94.3701Z" fill="#B24146"/>
<path d="M231.765 94.3701C230.458 94.3701 229.18 94.6539 228.093 95.1855C227.007 95.7172 226.159 96.4728 225.659 97.3569C225.159 98.241 225.028 99.2139 225.283 100.152C225.538 101.091 226.168 101.953 227.092 102.63C228.016 103.306 229.194 103.767 230.476 103.954C231.758 104.141 233.086 104.045 234.294 103.679C235.501 103.312 236.534 102.692 237.26 101.897C237.986 101.101 238.374 100.165 238.374 99.2085C238.374 97.9253 237.677 96.6946 236.438 95.7872C235.199 94.8799 233.518 94.3701 231.765 94.3701Z" fill="#B24146"/>
<path d="M167.419 94.3701C166.112 94.3701 164.834 94.6539 163.748 95.1855C162.661 95.7172 161.814 96.4728 161.314 97.3569C160.813 98.241 160.683 99.2139 160.938 100.152C161.193 101.091 161.822 101.953 162.746 102.63C163.67 103.306 164.848 103.767 166.13 103.954C167.412 104.141 168.741 104.045 169.948 103.679C171.156 103.312 172.188 102.692 172.914 101.897C173.64 101.101 174.028 100.165 174.028 99.2085C174.028 97.9253 173.331 96.6946 172.092 95.7872C170.853 94.8799 169.172 94.3701 167.419 94.3701Z" fill="#B24146"/>
<path d="M328.229 70.8281C326.922 70.8281 325.644 71.1118 324.557 71.6433C323.47 72.1748 322.623 72.9302 322.123 73.814C321.623 74.6979 321.492 75.6704 321.747 76.6087C322.002 77.5469 322.632 78.4088 323.556 79.0853C324.48 79.7617 325.658 80.2224 326.939 80.409C328.221 80.5956 329.55 80.4999 330.758 80.1338C331.965 79.7677 332.997 79.1477 333.724 78.3523C334.45 77.5569 334.837 76.6217 334.837 75.665C334.837 74.3822 334.141 73.1519 332.902 72.2448C331.662 71.3377 329.981 70.8281 328.229 70.8281Z" fill="#B24146"/>
<path d="M263.927 70.8281C262.62 70.8281 261.342 71.1118 260.255 71.6433C259.169 72.1748 258.322 72.9302 257.821 73.814C257.321 74.6979 257.19 75.6704 257.445 76.6087C257.7 77.5469 258.33 78.4088 259.254 79.0853C260.178 79.7617 261.356 80.2224 262.638 80.409C263.92 80.5956 265.249 80.4999 266.456 80.1338C267.664 79.7677 268.696 79.1477 269.422 78.3523C270.148 77.5569 270.536 76.6217 270.536 75.665C270.536 74.3822 269.839 73.1519 268.6 72.2448C267.361 71.3377 265.68 70.8281 263.927 70.8281Z" fill="#B24146"/>
<path d="M199.603 70.8281C198.296 70.8281 197.018 71.1118 195.931 71.6433C194.844 72.1748 193.997 72.9302 193.497 73.814C192.997 74.6979 192.866 75.6704 193.121 76.6087C193.376 77.5469 194.006 78.4088 194.93 79.0853C195.854 79.7617 197.032 80.2224 198.314 80.409C199.595 80.5956 200.924 80.4999 202.132 80.1338C203.339 79.7677 204.372 79.1477 205.098 78.3523C205.824 77.5569 206.211 76.6217 206.211 75.665C206.211 74.3822 205.515 73.1519 204.276 72.2448C203.036 71.3377 201.356 70.8281 199.603 70.8281Z" fill="#B24146"/>
<path d="M135.278 70.8281H134.97C133.217 70.8281 131.536 71.3377 130.297 72.2448C129.058 73.1519 128.361 74.3822 128.361 75.665C128.361 76.9479 129.058 78.1782 130.297 79.0853C131.536 79.9924 133.217 80.502 134.97 80.502H135.278C137.031 80.502 138.712 79.9924 139.951 79.0853C141.191 78.1782 141.887 76.9479 141.887 75.665C141.887 74.3822 141.191 73.1519 139.951 72.2448C138.712 71.3377 137.031 70.8281 135.278 70.8281Z" fill="#B24146"/>
<path d="M360.392 47.2832C359.085 47.2832 357.807 47.5669 356.72 48.0984C355.634 48.6299 354.786 49.3853 354.286 50.2691C353.786 51.1529 353.655 52.1255 353.91 53.0637C354.165 54.002 354.795 54.8639 355.719 55.5403C356.643 56.2168 357.821 56.6775 359.103 56.8641C360.385 57.0507 361.713 56.9549 362.921 56.5888C364.128 56.2227 365.161 55.6028 365.887 54.8074C366.613 54.0119 367 53.0768 367 52.1201C367 50.8373 366.304 49.607 365.065 48.6999C363.825 47.7928 362.145 47.2832 360.392 47.2832Z" fill="#B24146"/>
<path d="M296.089 47.2832C294.782 47.2832 293.504 47.5669 292.418 48.0984C291.331 48.6299 290.484 49.3853 289.984 50.2691C289.483 51.1529 289.352 52.1255 289.607 53.0637C289.862 54.002 290.492 54.8639 291.416 55.5403C292.34 56.2168 293.518 56.6775 294.8 56.8641C296.082 57.0507 297.41 56.9549 298.618 56.5888C299.826 56.2227 300.858 55.6028 301.584 54.8074C302.31 54.0119 302.698 53.0768 302.698 52.1201C302.698 50.8373 302.001 49.607 300.762 48.6999C299.523 47.7928 297.842 47.2832 296.089 47.2832Z" fill="#B24146"/>
<path d="M231.765 47.2832C230.458 47.2832 229.18 47.5669 228.093 48.0984C227.007 48.6299 226.159 49.3853 225.659 50.2691C225.159 51.1529 225.028 52.1255 225.283 53.0637C225.538 54.002 226.168 54.8639 227.092 55.5403C228.016 56.2168 229.194 56.6775 230.476 56.8641C231.758 57.0507 233.086 56.9549 234.294 56.5888C235.501 56.2227 236.534 55.6028 237.26 54.8074C237.986 54.0119 238.374 53.0768 238.374 52.1201C238.374 50.8373 237.677 49.607 236.438 48.6999C235.199 47.7928 233.518 47.2832 231.765 47.2832Z" fill="#B24146"/>
<path d="M167.419 47.2832C166.112 47.2832 164.834 47.5669 163.748 48.0984C162.661 48.6299 161.814 49.3853 161.314 50.2691C160.813 51.1529 160.683 52.1255 160.938 53.0637C161.193 54.002 161.822 54.8639 162.746 55.5403C163.67 56.2168 164.848 56.6775 166.13 56.8641C167.412 57.0507 168.741 56.9549 169.948 56.5888C171.156 56.2227 172.188 55.6028 172.914 54.8074C173.64 54.0119 174.028 53.0768 174.028 52.1201C174.028 50.8373 173.331 49.607 172.092 48.6999C170.853 47.7928 169.172 47.2832 167.419 47.2832Z" fill="#B24146"/>
<path d="M328.229 23.7393C326.922 23.7393 325.644 24.023 324.557 24.5547C323.47 25.0863 322.623 25.842 322.123 26.7261C321.623 27.6102 321.492 28.583 321.747 29.5216C322.002 30.4601 322.632 31.3222 323.556 31.9989C324.48 32.6755 325.658 33.1364 326.939 33.323C328.221 33.5097 329.55 33.4139 330.758 33.0477C331.965 32.6815 332.997 32.0614 333.724 31.2657C334.45 30.47 334.837 29.5346 334.837 28.5776C334.837 27.2944 334.141 26.0638 332.902 25.1564C331.662 24.249 329.981 23.7393 328.229 23.7393Z" fill="#B24146"/>
<path d="M263.927 23.7393C262.62 23.7393 261.342 24.023 260.255 24.5547C259.169 25.0863 258.322 25.842 257.821 26.7261C257.321 27.6102 257.19 28.583 257.445 29.5216C257.7 30.4601 258.33 31.3222 259.254 31.9989C260.178 32.6755 261.356 33.1364 262.638 33.323C263.92 33.5097 265.249 33.4139 266.456 33.0477C267.664 32.6815 268.696 32.0614 269.422 31.2657C270.148 30.47 270.536 29.5346 270.536 28.5776C270.536 27.2944 269.839 26.0638 268.6 25.1564C267.361 24.249 265.68 23.7393 263.927 23.7393Z" fill="#B24146"/>
<path d="M199.603 23.7393C198.296 23.7393 197.018 24.023 195.931 24.5547C194.844 25.0863 193.997 25.842 193.497 26.7261C192.997 27.6102 192.866 28.583 193.121 29.5216C193.376 30.4601 194.006 31.3222 194.93 31.9989C195.854 32.6755 197.032 33.1364 198.314 33.323C199.595 33.5097 200.924 33.4139 202.132 33.0477C203.339 32.6815 204.372 32.0614 205.098 31.2657C205.824 30.47 206.211 29.5346 206.211 28.5776C206.211 27.2944 205.515 26.0638 204.276 25.1564C203.036 24.249 201.356 23.7393 199.603 23.7393Z" fill="#B24146"/>
<path d="M135.278 23.7393H134.97C133.217 23.7393 131.536 24.249 130.297 25.1564C129.058 26.0638 128.361 27.2944 128.361 28.5776C128.361 29.8609 129.058 31.0915 130.297 31.9989C131.536 32.9063 133.217 33.416 134.97 33.416H135.278C137.031 33.416 138.712 32.9063 139.951 31.9989C141.191 31.0915 141.887 29.8609 141.887 28.5776C141.887 27.2944 141.191 26.0638 139.951 25.1564C138.712 24.249 137.031 23.7393 135.278 23.7393Z" fill="#B24146"/>
<path d="M360.391 0.194336C359.084 0.194336 357.806 0.47813 356.719 1.00983C355.633 1.54153 354.785 2.29726 354.285 3.18145C353.785 4.06564 353.654 5.03857 353.909 5.97722C354.164 6.91587 354.794 7.77807 355.718 8.4548C356.642 9.13153 357.82 9.59238 359.102 9.77909C360.384 9.9658 361.712 9.86997 362.92 9.50373C364.127 9.13749 365.16 8.51728 365.886 7.72153C366.612 6.92579 367 5.99024 367 5.0332C367 3.74986 366.303 2.51907 365.064 1.61161C363.825 0.704144 362.144 0.194336 360.391 0.194336V0.194336Z" fill="#B24146"/>
<path d="M296.089 0.194336C294.782 0.194336 293.504 0.47813 292.417 1.00983C291.331 1.54153 290.484 2.29726 289.984 3.18145C289.483 4.06564 289.352 5.03857 289.607 5.97722C289.862 6.91587 290.492 7.77807 291.416 8.4548C292.34 9.13153 293.518 9.59238 294.8 9.77909C296.082 9.9658 297.41 9.86997 298.618 9.50373C299.825 9.13749 300.858 8.51728 301.584 7.72153C302.31 6.92579 302.698 5.99024 302.698 5.0332C302.698 3.74986 302.001 2.51907 300.762 1.61161C299.523 0.704144 297.842 0.194336 296.089 0.194336V0.194336Z" fill="#B24146"/>
<path d="M231.765 0.194336C230.458 0.194336 229.18 0.47813 228.093 1.00983C227.007 1.54153 226.159 2.29726 225.659 3.18145C225.159 4.06564 225.028 5.03857 225.283 5.97722C225.538 6.91587 226.168 7.77807 227.092 8.4548C228.016 9.13153 229.194 9.59238 230.476 9.77909C231.758 9.9658 233.086 9.86997 234.294 9.50373C235.501 9.13749 236.534 8.51728 237.26 7.72153C237.986 6.92579 238.374 5.99024 238.374 5.0332C238.374 3.74986 237.677 2.51907 236.438 1.61161C235.199 0.704144 233.518 0.194336 231.765 0.194336V0.194336Z" fill="#B24146"/>
<path d="M167.419 0.194336C166.112 0.194336 164.834 0.47813 163.748 1.00983C162.661 1.54153 161.814 2.29726 161.314 3.18145C160.813 4.06564 160.683 5.03857 160.938 5.97722C161.193 6.91587 161.822 7.77807 162.746 8.4548C163.67 9.13153 164.848 9.59238 166.13 9.77909C167.412 9.9658 168.74 9.86997 169.948 9.50373C171.156 9.13749 172.188 8.51728 172.914 7.72153C173.64 6.92579 174.028 5.99024 174.028 5.0332C174.028 3.74986 173.331 2.51907 172.092 1.61161C170.853 0.704144 169.172 0.194336 167.419 0.194336V0.194336Z" fill="#B24146"/>
<path d="M70.9543 353.354C69.2501 353.352 67.6112 353.833 66.3797 354.695C65.1483 355.558 64.4196 356.735 64.3457 357.981V358.191C64.3457 359.474 65.042 360.704 66.2813 361.611C67.5207 362.519 69.2016 363.028 70.9543 363.028C72.7071 363.028 74.388 362.519 75.6273 361.611C76.8667 360.704 77.563 359.474 77.563 358.191C77.5739 358.116 77.5739 358.04 77.563 357.965C77.4836 356.722 76.7525 355.549 75.5216 354.69C74.2907 353.831 72.6549 353.352 70.9543 353.354Z" fill="#B24146"/>
<path d="M6.60864 353.354C4.90443 353.352 3.26548 353.833 2.03403 354.695C0.802583 355.558 0.0738485 356.735 0 357.981L0 358.191C0 359.474 0.696266 360.704 1.93563 361.611C3.17499 362.519 4.85592 363.028 6.60864 363.028C8.36136 363.028 10.0423 362.519 11.2817 361.611C12.521 360.704 13.2173 359.474 13.2173 358.191V357.965C13.1379 356.722 12.4068 355.549 11.1759 354.69C9.94505 353.831 8.30922 353.352 6.60864 353.354Z" fill="#B24146"/>
<path d="M103.116 329.794C101.809 329.794 100.532 330.078 99.4449 330.609C98.3581 331.141 97.5111 331.896 97.0109 332.78C96.5107 333.664 96.3798 334.637 96.6348 335.575C96.8898 336.513 97.5192 337.375 98.4434 338.052C99.3677 338.728 100.545 339.189 101.827 339.376C103.109 339.562 104.438 339.467 105.645 339.101C106.853 338.734 107.885 338.114 108.611 337.319C109.338 336.523 109.725 335.588 109.725 334.631C109.725 333.348 109.029 332.118 107.789 331.211C106.55 330.304 104.869 329.794 103.116 329.794Z" fill="#B24146"/>
<path d="M38.7922 329.794C37.4852 329.794 36.2075 330.078 35.1207 330.609C34.0339 331.141 33.1868 331.896 32.6866 332.78C32.1865 333.664 32.0556 334.637 32.3106 335.575C32.5656 336.513 33.195 337.375 34.1192 338.052C35.0435 338.728 36.221 339.189 37.503 339.376C38.7849 339.562 40.1137 339.467 41.3213 339.101C42.5288 338.734 43.561 338.114 44.2871 337.319C45.0133 336.523 45.4009 335.588 45.4009 334.631C45.4009 333.348 44.7046 332.118 43.4653 331.211C42.2259 330.304 40.545 329.794 38.7922 329.794Z" fill="#B24146"/>
<path d="M70.9543 306.251C69.6473 306.251 68.3696 306.535 67.2828 307.066C66.196 307.598 65.349 308.353 64.8488 309.237C64.3486 310.121 64.2177 311.093 64.4727 312.032C64.7277 312.97 65.3571 313.832 66.2813 314.508C67.2056 315.185 68.3831 315.645 69.6651 315.832C70.947 316.018 72.2758 315.923 73.4834 315.557C74.6909 315.191 75.7231 314.571 76.4492 313.775C77.1754 312.98 77.563 312.045 77.563 311.088C77.563 309.805 76.8667 308.575 75.6274 307.668C74.388 306.761 72.7071 306.251 70.9543 306.251Z" fill="#B24146"/>
<path d="M6.60864 306.251C5.30158 306.251 4.02387 306.535 2.93708 307.066C1.85029 307.598 1.00325 308.353 0.503056 309.237C0.00286343 310.121 -0.12801 311.093 0.126986 312.032C0.381982 312.97 1.01139 313.832 1.93563 314.508C2.85986 315.185 4.03741 315.645 5.31936 315.832C6.60131 316.018 7.93009 315.923 9.13766 315.557C10.3452 315.191 11.3774 314.571 12.1035 313.775C12.8297 312.98 13.2173 312.045 13.2173 311.088C13.2173 309.805 12.521 308.575 11.2817 307.668C10.0423 306.761 8.36137 306.251 6.60864 306.251Z" fill="#B24146"/>
<path d="M103.116 282.707C101.809 282.707 100.532 282.991 99.4449 283.522C98.3581 284.054 97.5111 284.809 97.0109 285.693C96.5107 286.576 96.3798 287.549 96.6348 288.487C96.8898 289.425 97.5192 290.287 98.4434 290.963C99.3677 291.64 100.545 292.1 101.827 292.287C103.109 292.474 104.438 292.378 105.645 292.012C106.853 291.646 107.885 291.026 108.611 290.23C109.338 289.435 109.725 288.5 109.725 287.543C109.725 286.261 109.029 285.031 107.789 284.124C106.55 283.217 104.869 282.707 103.116 282.707Z" fill="#B24146"/>
<path d="M38.7922 282.707C37.4852 282.707 36.2075 282.991 35.1207 283.522C34.0339 284.054 33.1868 284.809 32.6866 285.693C32.1865 286.576 32.0556 287.549 32.3106 288.487C32.5656 289.425 33.195 290.287 34.1192 290.963C35.0435 291.64 36.221 292.1 37.503 292.287C38.7849 292.474 40.1137 292.378 41.3213 292.012C42.5288 291.646 43.561 291.026 44.2871 290.23C45.0133 289.435 45.4009 288.5 45.4009 287.543C45.4009 286.261 44.7046 285.031 43.4653 284.124C42.2259 283.217 40.545 282.707 38.7922 282.707Z" fill="#B24146"/>
<path d="M70.9543 259.162C69.6473 259.162 68.3696 259.446 67.2828 259.977C66.196 260.509 65.349 261.265 64.8488 262.149C64.3486 263.033 64.2177 264.005 64.4727 264.944C64.7277 265.882 65.3571 266.744 66.2813 267.421C67.2056 268.098 68.3831 268.558 69.6651 268.745C70.947 268.932 72.2758 268.836 73.4834 268.47C74.6909 268.103 75.7231 267.483 76.4492 266.688C77.1754 265.892 77.563 264.957 77.563 264C77.563 262.717 76.8667 261.486 75.6274 260.579C74.388 259.672 72.7071 259.162 70.9543 259.162Z" fill="#B24146"/>
<path d="M6.60864 259.162C5.30158 259.162 4.02387 259.446 2.93708 259.977C1.85029 260.509 1.00325 261.265 0.503056 262.149C0.00286343 263.033 -0.12801 264.005 0.126986 264.944C0.381982 265.882 1.01139 266.744 1.93563 267.421C2.85986 268.098 4.03741 268.558 5.31936 268.745C6.60131 268.932 7.93009 268.836 9.13766 268.47C10.3452 268.103 11.3774 267.483 12.1035 266.688C12.8297 265.892 13.2173 264.957 13.2173 264C13.2173 262.717 12.521 261.486 11.2817 260.579C10.0423 259.672 8.36137 259.162 6.60864 259.162Z" fill="#B24146"/>
<path d="M103.116 235.633C101.809 235.633 100.532 235.917 99.4449 236.448C98.3581 236.98 97.5111 237.736 97.0109 238.62C96.5107 239.504 96.3798 240.477 96.6348 241.415C96.8898 242.354 97.5192 243.216 98.4434 243.892C99.3677 244.569 100.545 245.03 101.827 245.217C103.109 245.403 104.438 245.307 105.645 244.941C106.853 244.575 107.885 243.955 108.611 243.159C109.338 242.364 109.725 241.428 109.725 240.471C109.725 239.188 109.029 237.957 107.789 237.05C106.55 236.143 104.869 235.633 103.116 235.633Z" fill="#B24146"/>
<path d="M38.7922 235.633C37.4852 235.633 36.2075 235.917 35.1207 236.448C34.0339 236.98 33.1868 237.736 32.6866 238.62C32.1865 239.504 32.0556 240.477 32.3106 241.415C32.5656 242.354 33.195 243.216 34.1192 243.892C35.0435 244.569 36.221 245.03 37.503 245.217C38.7849 245.403 40.1137 245.307 41.3213 244.941C42.5288 244.575 43.561 243.955 44.2871 243.159C45.0133 242.364 45.4009 241.428 45.4009 240.471C45.4009 239.188 44.7046 237.957 43.4653 237.05C42.2259 236.143 40.545 235.633 38.7922 235.633Z" fill="#B24146"/>
<path d="M70.9543 212.075C69.6473 212.075 68.3696 212.359 67.2828 212.89C66.196 213.422 65.349 214.177 64.8488 215.061C64.3486 215.945 64.2177 216.917 64.4727 217.856C64.7277 218.794 65.3571 219.656 66.2813 220.332C67.2056 221.009 68.3831 221.469 69.6651 221.656C70.947 221.843 72.2758 221.747 73.4834 221.381C74.6909 221.015 75.7231 220.395 76.4492 219.599C77.1754 218.804 77.563 217.869 77.563 216.912C77.563 215.629 76.8667 214.399 75.6274 213.492C74.388 212.585 72.7071 212.075 70.9543 212.075Z" fill="#B24146"/>
<path d="M6.60864 212.075C5.30158 212.075 4.02387 212.359 2.93708 212.89C1.85029 213.422 1.00325 214.177 0.503056 215.061C0.00286343 215.945 -0.12801 216.917 0.126986 217.856C0.381982 218.794 1.01139 219.656 1.93563 220.332C2.85986 221.009 4.03741 221.469 5.31936 221.656C6.60131 221.843 7.93009 221.747 9.13766 221.381C10.3452 221.015 11.3774 220.395 12.1035 219.599C12.8297 218.804 13.2173 217.869 13.2173 216.912C13.2173 215.629 12.521 214.399 11.2817 213.492C10.0423 212.585 8.36137 212.075 6.60864 212.075Z" fill="#B24146"/>
<path d="M103.116 188.529C101.809 188.529 100.532 188.813 99.4449 189.345C98.3581 189.876 97.5111 190.632 97.0109 191.516C96.5107 192.4 96.3798 193.373 96.6348 194.311C96.8898 195.249 97.5192 196.112 98.4434 196.788C99.3677 197.465 100.545 197.925 101.827 198.112C103.109 198.299 104.438 198.203 105.645 197.837C106.853 197.471 107.885 196.851 108.611 196.055C109.338 195.259 109.725 194.324 109.725 193.367C109.725 192.084 109.029 190.854 107.789 189.946C106.55 189.039 104.869 188.529 103.116 188.529Z" fill="#B24146"/>
<path d="M38.7922 188.529C37.4852 188.529 36.2075 188.813 35.1207 189.345C34.0339 189.876 33.1868 190.632 32.6866 191.516C32.1865 192.4 32.0556 193.373 32.3106 194.311C32.5656 195.249 33.195 196.112 34.1192 196.788C35.0435 197.465 36.221 197.925 37.503 198.112C38.7849 198.299 40.1137 198.203 41.3213 197.837C42.5288 197.471 43.561 196.851 44.2871 196.055C45.0133 195.259 45.4009 194.324 45.4009 193.367C45.4009 192.084 44.7046 190.854 43.4653 189.946C42.2259 189.039 40.545 188.529 38.7922 188.529Z" fill="#B24146"/>
<path d="M328.229 353.354C326.525 353.352 324.886 353.833 323.654 354.695C322.423 355.558 321.694 356.735 321.62 357.981V358.191C321.62 359.474 322.316 360.704 323.556 361.611C324.795 362.519 326.476 363.028 328.229 363.028C329.981 363.028 331.662 362.519 332.902 361.611C334.141 360.704 334.837 359.474 334.837 358.191V357.965C334.758 356.722 334.027 355.549 332.796 354.69C331.565 353.831 329.929 353.352 328.229 353.354Z" fill="#B24146"/>
<path d="M263.926 353.354C262.222 353.352 260.583 353.833 259.352 354.696C258.12 355.558 257.392 356.735 257.318 357.982C257.307 358.057 257.307 358.132 257.318 358.207C257.318 359.49 258.014 360.721 259.253 361.628C260.493 362.535 262.174 363.045 263.926 363.045C265.679 363.045 267.36 362.535 268.599 361.628C269.839 360.721 270.535 359.49 270.535 358.207V357.982C270.461 356.735 269.732 355.558 268.501 354.696C267.27 353.833 265.631 353.352 263.926 353.354Z" fill="#B24146"/>
<path d="M199.603 353.354C197.899 353.352 196.26 353.833 195.028 354.696C193.797 355.558 193.068 356.735 192.994 357.982C192.994 357.982 192.994 358.127 192.994 358.207C192.994 359.49 193.69 360.721 194.93 361.628C196.169 362.535 197.85 363.045 199.603 363.045C201.356 363.045 203.036 362.535 204.276 361.628C205.515 360.721 206.211 359.49 206.211 358.207V357.982C206.138 356.735 205.409 355.558 204.177 354.696C202.946 353.833 201.307 353.352 199.603 353.354Z" fill="#B24146"/>
<path d="M135.279 353.354H134.971C133.316 353.405 131.749 353.909 130.578 354.766C129.407 355.623 128.719 356.77 128.648 357.981V358.191C128.647 359.438 129.304 360.638 130.482 361.539C131.66 362.441 133.268 362.974 134.971 363.028H135.279C137.032 363.028 138.713 362.519 139.952 361.611C141.191 360.704 141.888 359.474 141.888 358.191V357.965C141.808 356.722 141.077 355.549 139.846 354.69C138.615 353.831 136.98 353.352 135.279 353.354Z" fill="#B24146"/>
<path d="M360.392 329.794C359.085 329.794 357.807 330.078 356.72 330.609C355.634 331.141 354.786 331.896 354.286 332.78C353.786 333.664 353.655 334.637 353.91 335.575C354.165 336.513 354.795 337.375 355.719 338.052C356.643 338.728 357.821 339.189 359.103 339.376C360.385 339.562 361.713 339.467 362.921 339.101C364.128 338.734 365.161 338.114 365.887 337.319C366.613 336.523 367 335.588 367 334.631C367 333.348 366.304 332.118 365.065 331.211C363.825 330.304 362.145 329.794 360.392 329.794Z" fill="#B24146"/>
<path d="M296.089 329.794C294.782 329.794 293.504 330.078 292.418 330.609C291.331 331.141 290.484 331.896 289.984 332.78C289.483 333.664 289.352 334.637 289.607 335.575C289.862 336.513 290.492 337.375 291.416 338.052C292.34 338.728 293.518 339.189 294.8 339.376C296.082 339.562 297.41 339.467 298.618 339.101C299.826 338.734 300.858 338.114 301.584 337.319C302.31 336.523 302.698 335.588 302.698 334.631C302.698 333.348 302.001 332.118 300.762 331.211C299.523 330.304 297.842 329.794 296.089 329.794Z" fill="#B24146"/>
<path d="M231.765 329.794C230.458 329.794 229.18 330.078 228.093 330.609C227.007 331.141 226.159 331.896 225.659 332.78C225.159 333.664 225.028 334.637 225.283 335.575C225.538 336.513 226.168 337.375 227.092 338.052C228.016 338.728 229.194 339.189 230.476 339.376C231.758 339.562 233.086 339.467 234.294 339.101C235.501 338.734 236.534 338.114 237.26 337.319C237.986 336.523 238.374 335.588 238.374 334.631C238.374 333.348 237.677 332.118 236.438 331.211C235.199 330.304 233.518 329.794 231.765 329.794Z" fill="#B24146"/>
<path d="M167.419 329.794C166.112 329.794 164.834 330.078 163.748 330.609C162.661 331.141 161.814 331.896 161.314 332.78C160.813 333.664 160.683 334.637 160.938 335.575C161.193 336.513 161.822 337.375 162.746 338.052C163.67 338.728 164.848 339.189 166.13 339.376C167.412 339.562 168.741 339.467 169.948 339.101C171.156 338.734 172.188 338.114 172.914 337.319C173.64 336.523 174.028 335.588 174.028 334.631C174.028 333.348 173.331 332.118 172.092 331.211C170.853 330.304 169.172 329.794 167.419 329.794Z" fill="#B24146"/>
<path d="M328.229 306.251C326.922 306.251 325.644 306.535 324.557 307.066C323.47 307.598 322.623 308.353 322.123 309.237C321.623 310.121 321.492 311.093 321.747 312.032C322.002 312.97 322.632 313.832 323.556 314.508C324.48 315.185 325.658 315.645 326.939 315.832C328.221 316.018 329.55 315.923 330.758 315.557C331.965 315.191 332.997 314.571 333.724 313.775C334.45 312.98 334.837 312.045 334.837 311.088C334.837 309.805 334.141 308.575 332.902 307.668C331.662 306.761 329.981 306.251 328.229 306.251Z" fill="#B24146"/>
<path d="M263.927 306.251C262.62 306.251 261.342 306.535 260.255 307.066C259.169 307.598 258.322 308.353 257.821 309.237C257.321 310.121 257.19 311.093 257.445 312.032C257.7 312.97 258.33 313.832 259.254 314.508C260.178 315.185 261.356 315.645 262.638 315.832C263.92 316.018 265.249 315.923 266.456 315.557C267.664 315.191 268.696 314.571 269.422 313.775C270.148 312.98 270.536 312.045 270.536 311.088C270.536 309.805 269.839 308.575 268.6 307.668C267.361 306.761 265.68 306.251 263.927 306.251Z" fill="#B24146"/>
<path d="M199.603 306.251C198.296 306.251 197.018 306.535 195.931 307.066C194.844 307.598 193.997 308.353 193.497 309.237C192.997 310.121 192.866 311.093 193.121 312.032C193.376 312.97 194.006 313.832 194.93 314.508C195.854 315.185 197.032 315.645 198.314 315.832C199.595 316.018 200.924 315.923 202.132 315.557C203.339 315.191 204.372 314.571 205.098 313.775C205.824 312.98 206.211 312.045 206.211 311.088C206.211 309.805 205.515 308.575 204.276 307.668C203.036 306.761 201.356 306.251 199.603 306.251Z" fill="#B24146"/>
<path d="M135.278 306.251H134.97C133.217 306.251 131.536 306.761 130.297 307.668C129.058 308.575 128.361 309.805 128.361 311.088C128.361 312.371 129.058 313.601 130.297 314.508C131.536 315.415 133.217 315.925 134.97 315.925H135.278C137.031 315.925 138.712 315.415 139.951 314.508C141.191 313.601 141.887 312.371 141.887 311.088C141.887 309.805 141.191 308.575 139.951 307.668C138.712 306.761 137.031 306.251 135.278 306.251Z" fill="#B24146"/>
<path d="M360.392 282.707C359.085 282.707 357.807 282.991 356.72 283.522C355.634 284.054 354.786 284.809 354.286 285.693C353.786 286.576 353.655 287.549 353.91 288.487C354.165 289.425 354.795 290.287 355.719 290.963C356.643 291.64 357.821 292.1 359.103 292.287C360.385 292.474 361.713 292.378 362.921 292.012C364.128 291.646 365.161 291.026 365.887 290.23C366.613 289.435 367 288.5 367 287.543C367 286.261 366.304 285.031 365.065 284.124C363.825 283.217 362.145 282.707 360.392 282.707Z" fill="#B24146"/>
<path d="M296.089 282.707C294.782 282.707 293.504 282.991 292.418 283.522C291.331 284.054 290.484 284.809 289.984 285.693C289.483 286.576 289.352 287.549 289.607 288.487C289.862 289.425 290.492 290.287 291.416 290.963C292.34 291.64 293.518 292.1 294.8 292.287C296.082 292.474 297.41 292.378 298.618 292.012C299.826 291.646 300.858 291.026 301.584 290.23C302.31 289.435 302.698 288.5 302.698 287.543C302.698 286.261 302.001 285.031 300.762 284.124C299.523 283.217 297.842 282.707 296.089 282.707Z" fill="#B24146"/>
<path d="M231.765 282.707C230.458 282.707 229.18 282.991 228.093 283.522C227.007 284.054 226.159 284.809 225.659 285.693C225.159 286.576 225.028 287.549 225.283 288.487C225.538 289.425 226.168 290.287 227.092 290.963C228.016 291.64 229.194 292.1 230.476 292.287C231.758 292.474 233.086 292.378 234.294 292.012C235.501 291.646 236.534 291.026 237.26 290.23C237.986 289.435 238.374 288.5 238.374 287.543C238.374 286.261 237.677 285.031 236.438 284.124C235.199 283.217 233.518 282.707 231.765 282.707Z" fill="#B24146"/>
<path d="M167.419 282.707C166.112 282.707 164.834 282.991 163.748 283.522C162.661 284.054 161.814 284.809 161.314 285.693C160.813 286.576 160.683 287.549 160.938 288.487C161.193 289.425 161.822 290.287 162.746 290.963C163.67 291.64 164.848 292.1 166.13 292.287C167.412 292.474 168.741 292.378 169.948 292.012C171.156 291.646 172.188 291.026 172.914 290.23C173.64 289.435 174.028 288.5 174.028 287.543C174.028 286.261 173.331 285.031 172.092 284.124C170.853 283.217 169.172 282.707 167.419 282.707Z" fill="#B24146"/>
<path d="M328.229 259.162C326.922 259.162 325.644 259.446 324.557 259.977C323.47 260.509 322.623 261.265 322.123 262.149C321.623 263.033 321.492 264.005 321.747 264.944C322.002 265.882 322.632 266.744 323.556 267.421C324.48 268.098 325.658 268.558 326.939 268.745C328.221 268.932 329.55 268.836 330.758 268.47C331.965 268.103 332.997 267.483 333.724 266.688C334.45 265.892 334.837 264.957 334.837 264C334.837 262.717 334.141 261.486 332.902 260.579C331.662 259.672 329.981 259.162 328.229 259.162Z" fill="#B24146"/>
<path d="M263.927 259.162C262.62 259.162 261.342 259.446 260.255 259.977C259.169 260.509 258.322 261.265 257.821 262.149C257.321 263.033 257.19 264.005 257.445 264.944C257.7 265.882 258.33 266.744 259.254 267.421C260.178 268.098 261.356 268.558 262.638 268.745C263.92 268.932 265.249 268.836 266.456 268.47C267.664 268.103 268.696 267.483 269.422 266.688C270.148 265.892 270.536 264.957 270.536 264C270.536 262.717 269.839 261.486 268.6 260.579C267.361 259.672 265.68 259.162 263.927 259.162Z" fill="#B24146"/>
<path d="M199.603 259.162C198.296 259.162 197.018 259.446 195.931 259.977C194.844 260.509 193.997 261.265 193.497 262.149C192.997 263.033 192.866 264.005 193.121 264.944C193.376 265.882 194.006 266.744 194.93 267.421C195.854 268.098 197.032 268.558 198.314 268.745C199.595 268.932 200.924 268.836 202.132 268.47C203.339 268.103 204.372 267.483 205.098 266.688C205.824 265.892 206.211 264.957 206.211 264C206.211 262.717 205.515 261.486 204.276 260.579C203.036 259.672 201.356 259.162 199.603 259.162Z" fill="#B24146"/>
<path d="M135.278 259.162H134.97C133.217 259.162 131.536 259.672 130.297 260.579C129.058 261.486 128.361 262.717 128.361 264C128.361 265.283 129.058 266.514 130.297 267.421C131.536 268.328 133.217 268.838 134.97 268.838H135.278C137.031 268.838 138.712 268.328 139.951 267.421C141.191 266.514 141.887 265.283 141.887 264C141.887 262.717 141.191 261.486 139.951 260.579C138.712 259.672 137.031 259.162 135.278 259.162Z" fill="#B24146"/>
<path d="M360.392 235.633C359.085 235.633 357.807 235.917 356.72 236.448C355.634 236.98 354.786 237.736 354.286 238.62C353.786 239.504 353.655 240.477 353.91 241.415C354.165 242.354 354.795 243.216 355.719 243.892C356.643 244.569 357.821 245.03 359.103 245.217C360.385 245.403 361.713 245.307 362.921 244.941C364.128 244.575 365.161 243.955 365.887 243.159C366.613 242.364 367 241.428 367 240.471C367 239.188 366.304 237.957 365.065 237.05C363.825 236.143 362.145 235.633 360.392 235.633Z" fill="#B24146"/>
<path d="M296.089 235.633C294.782 235.633 293.504 235.917 292.418 236.448C291.331 236.98 290.484 237.736 289.984 238.62C289.483 239.504 289.352 240.477 289.607 241.415C289.862 242.354 290.492 243.216 291.416 243.892C292.34 244.569 293.518 245.03 294.8 245.217C296.082 245.403 297.41 245.307 298.618 244.941C299.826 244.575 300.858 243.955 301.584 243.159C302.31 242.364 302.698 241.428 302.698 240.471C302.698 239.188 302.001 237.957 300.762 237.05C299.523 236.143 297.842 235.633 296.089 235.633Z" fill="#B24146"/>
<path d="M231.765 235.633C230.458 235.633 229.18 235.917 228.093 236.448C227.007 236.98 226.159 237.736 225.659 238.62C225.159 239.504 225.028 240.477 225.283 241.415C225.538 242.354 226.168 243.216 227.092 243.892C228.016 244.569 229.194 245.03 230.476 245.217C231.758 245.403 233.086 245.307 234.294 244.941C235.501 244.575 236.534 243.955 237.26 243.159C237.986 242.364 238.374 241.428 238.374 240.471C238.374 239.188 237.677 237.957 236.438 237.05C235.199 236.143 233.518 235.633 231.765 235.633Z" fill="#B24146"/>
<path d="M167.419 235.633C166.112 235.633 164.834 235.917 163.748 236.448C162.661 236.98 161.814 237.736 161.314 238.62C160.813 239.504 160.683 240.477 160.938 241.415C161.193 242.354 161.822 243.216 162.746 243.892C163.67 244.569 164.848 245.03 166.13 245.217C167.412 245.403 168.741 245.307 169.948 244.941C171.156 244.575 172.188 243.955 172.914 243.159C173.64 242.364 174.028 241.428 174.028 240.471C174.028 239.188 173.331 237.957 172.092 237.05C170.853 236.143 169.172 235.633 167.419 235.633Z" fill="#B24146"/>
<path d="M328.229 212.075C326.922 212.075 325.644 212.359 324.557 212.89C323.47 213.422 322.623 214.177 322.123 215.061C321.623 215.945 321.492 216.917 321.747 217.856C322.002 218.794 322.632 219.656 323.556 220.332C324.48 221.009 325.658 221.469 326.939 221.656C328.221 221.843 329.55 221.747 330.758 221.381C331.965 221.015 332.997 220.395 333.724 219.599C334.45 218.804 334.837 217.869 334.837 216.912C334.837 215.629 334.141 214.399 332.902 213.492C331.662 212.585 329.981 212.075 328.229 212.075Z" fill="#B24146"/>
<path d="M263.927 212.075C262.62 212.075 261.342 212.359 260.255 212.89C259.169 213.422 258.322 214.177 257.821 215.061C257.321 215.945 257.19 216.917 257.445 217.856C257.7 218.794 258.33 219.656 259.254 220.332C260.178 221.009 261.356 221.469 262.638 221.656C263.92 221.843 265.249 221.747 266.456 221.381C267.664 221.015 268.696 220.395 269.422 219.599C270.148 218.804 270.536 217.869 270.536 216.912C270.536 215.629 269.839 214.399 268.6 213.492C267.361 212.585 265.68 212.075 263.927 212.075Z" fill="#B24146"/>
<path d="M199.603 212.075C198.296 212.075 197.018 212.359 195.931 212.89C194.844 213.422 193.997 214.177 193.497 215.061C192.997 215.945 192.866 216.917 193.121 217.856C193.376 218.794 194.006 219.656 194.93 220.332C195.854 221.009 197.032 221.469 198.314 221.656C199.595 221.843 200.924 221.747 202.132 221.381C203.339 221.015 204.372 220.395 205.098 219.599C205.824 218.804 206.211 217.869 206.211 216.912C206.211 215.629 205.515 214.399 204.276 213.492C203.036 212.585 201.356 212.075 199.603 212.075Z" fill="#B24146"/>
<path d="M135.278 212.075H134.97C133.217 212.075 131.536 212.585 130.297 213.492C129.058 214.399 128.361 215.629 128.361 216.912C128.361 218.195 129.058 219.425 130.297 220.332C131.536 221.239 133.217 221.749 134.97 221.749H135.278C137.031 221.749 138.712 221.239 139.951 220.332C141.191 219.425 141.887 218.195 141.887 216.912C141.887 215.629 141.191 214.399 139.951 213.492C138.712 212.585 137.031 212.075 135.278 212.075Z" fill="#B24146"/>
<path d="M360.392 188.529C359.085 188.529 357.807 188.813 356.72 189.345C355.634 189.876 354.786 190.632 354.286 191.516C353.786 192.4 353.655 193.373 353.91 194.311C354.165 195.249 354.795 196.112 355.719 196.788C356.643 197.465 357.821 197.925 359.103 198.112C360.385 198.299 361.713 198.203 362.921 197.837C364.128 197.471 365.161 196.851 365.887 196.055C366.613 195.259 367 194.324 367 193.367C367 192.084 366.304 190.854 365.065 189.946C363.825 189.039 362.145 188.529 360.392 188.529Z" fill="#B24146"/>
<path d="M296.089 188.529C294.782 188.529 293.504 188.813 292.418 189.345C291.331 189.876 290.484 190.632 289.984 191.516C289.483 192.4 289.352 193.373 289.607 194.311C289.862 195.249 290.492 196.112 291.416 196.788C292.34 197.465 293.518 197.925 294.8 198.112C296.082 198.299 297.41 198.203 298.618 197.837C299.826 197.471 300.858 196.851 301.584 196.055C302.31 195.259 302.698 194.324 302.698 193.367C302.698 192.084 302.001 190.854 300.762 189.946C299.523 189.039 297.842 188.529 296.089 188.529Z" fill="#B24146"/>
<path d="M231.765 188.529C230.458 188.529 229.18 188.813 228.093 189.345C227.007 189.876 226.159 190.632 225.659 191.516C225.159 192.4 225.028 193.373 225.283 194.311C225.538 195.249 226.168 196.112 227.092 196.788C228.016 197.465 229.194 197.925 230.476 198.112C231.758 198.299 233.086 198.203 234.294 197.837C235.501 197.471 236.534 196.851 237.26 196.055C237.986 195.259 238.374 194.324 238.374 193.367C238.374 192.084 237.677 190.854 236.438 189.946C235.199 189.039 233.518 188.529 231.765 188.529Z" fill="#B24146"/>
<path d="M167.419 188.529C166.112 188.529 164.834 188.813 163.748 189.345C162.661 189.876 161.814 190.632 161.314 191.516C160.813 192.4 160.683 193.373 160.938 194.311C161.193 195.249 161.822 196.112 162.746 196.788C163.67 197.465 164.848 197.925 166.13 198.112C167.412 198.299 168.741 198.203 169.948 197.837C171.156 197.471 172.188 196.851 172.914 196.055C173.64 195.259 174.028 194.324 174.028 193.367C174.028 192.084 173.331 190.854 172.092 189.946C170.853 189.039 169.172 188.529 167.419 188.529Z" fill="#B24146"/>
<path d="M70.9543 541.671C69.2501 541.67 67.6112 542.151 66.3797 543.013C65.1483 543.876 64.4196 545.053 64.3457 546.3V546.526C64.3457 547.809 65.042 549.04 66.2813 549.947C67.5207 550.854 69.2016 551.364 70.9543 551.364C72.707 551.364 74.388 550.854 75.6273 549.947C76.8667 549.04 77.5629 547.809 77.5629 546.526C77.5731 546.451 77.5731 546.375 77.5629 546.3C77.4891 545.053 76.7604 543.876 75.5289 543.013C74.2975 542.151 72.6585 541.67 70.9543 541.671Z" fill="#B24146"/>
<path d="M6.60864 541.671C4.90443 541.67 3.26548 542.151 2.03403 543.013C0.802583 543.876 0.0738485 545.053 0 546.3L0 546.526C0 547.809 0.696266 549.04 1.93563 549.947C3.17499 550.854 4.85592 551.364 6.60864 551.364C8.36136 551.364 10.0423 550.854 11.2817 549.947C12.521 549.04 13.2173 547.809 13.2173 546.526V546.3C13.1434 545.053 12.4147 543.876 11.1833 543.013C9.95181 542.151 8.31286 541.67 6.60864 541.671Z" fill="#B24146"/>
<path d="M103.116 518.129C101.809 518.129 100.532 518.413 99.4449 518.944C98.3581 519.476 97.5111 520.231 97.0109 521.115C96.5107 521.999 96.3798 522.971 96.6348 523.909C96.8898 524.848 97.5192 525.71 98.4434 526.386C99.3677 527.063 100.545 527.523 101.827 527.71C103.109 527.896 104.438 527.801 105.645 527.435C106.853 527.068 107.885 526.449 108.611 525.653C109.338 524.858 109.725 523.922 109.725 522.966C109.725 521.683 109.029 520.453 107.789 519.546C106.55 518.639 104.869 518.129 103.116 518.129Z" fill="#B24146"/>
<path d="M38.7922 518.129C37.4852 518.129 36.2075 518.413 35.1207 518.944C34.0339 519.476 33.1868 520.231 32.6866 521.115C32.1865 521.999 32.0556 522.971 32.3106 523.909C32.5656 524.848 33.195 525.71 34.1192 526.386C35.0435 527.063 36.221 527.523 37.503 527.71C38.7849 527.896 40.1137 527.801 41.3213 527.435C42.5288 527.068 43.561 526.449 44.2871 525.653C45.0133 524.858 45.4009 523.922 45.4009 522.966C45.4009 521.683 44.7046 520.453 43.4653 519.546C42.2259 518.639 40.545 518.129 38.7922 518.129Z" fill="#B24146"/>
<path d="M70.9543 494.584C69.6473 494.584 68.3696 494.868 67.2828 495.399C66.196 495.931 65.349 496.686 64.8488 497.57C64.3486 498.455 64.2177 499.427 64.4727 500.366C64.7277 501.304 65.3571 502.166 66.2813 502.843C67.2056 503.519 68.3831 503.98 69.6651 504.167C70.947 504.353 72.2758 504.258 73.4834 503.891C74.6909 503.525 75.7231 502.905 76.4492 502.11C77.1754 501.314 77.563 500.379 77.563 499.422C77.563 498.139 76.8667 496.908 75.6274 496.001C74.388 495.094 72.7071 494.584 70.9543 494.584Z" fill="#B24146"/>
<path d="M6.60864 494.584C5.30158 494.584 4.02387 494.868 2.93708 495.399C1.85029 495.931 1.00325 496.686 0.503056 497.57C0.00286343 498.455 -0.12801 499.427 0.126986 500.366C0.381982 501.304 1.01139 502.166 1.93563 502.843C2.85986 503.519 4.03741 503.98 5.31936 504.167C6.60131 504.353 7.93009 504.258 9.13766 503.891C10.3452 503.525 11.3774 502.905 12.1035 502.11C12.8297 501.314 13.2173 500.379 13.2173 499.422C13.2173 498.139 12.521 496.908 11.2817 496.001C10.0423 495.094 8.36137 494.584 6.60864 494.584Z" fill="#B24146"/>
<path d="M103.116 471.073C101.809 471.073 100.532 471.357 99.4449 471.889C98.3581 472.42 97.5111 473.176 97.0109 474.06C96.5107 474.944 96.3798 475.916 96.6348 476.855C96.8898 477.793 97.5192 478.655 98.4434 479.332C99.3677 480.009 100.545 480.469 101.827 480.656C103.109 480.843 104.438 480.747 105.645 480.381C106.853 480.015 107.885 479.395 108.611 478.599C109.338 477.803 109.725 476.868 109.725 475.911C109.725 474.628 109.029 473.398 107.789 472.49C106.55 471.583 104.869 471.073 103.116 471.073Z" fill="#B24146"/>
<path d="M38.7922 471.073C37.4852 471.073 36.2075 471.357 35.1207 471.889C34.0339 472.42 33.1868 473.176 32.6866 474.06C32.1865 474.944 32.0556 475.916 32.3106 476.855C32.5656 477.793 33.195 478.655 34.1192 479.332C35.0435 480.009 36.221 480.469 37.503 480.656C38.7849 480.843 40.1137 480.747 41.3213 480.381C42.5288 480.015 43.561 479.395 44.2871 478.599C45.0133 477.803 45.4009 476.868 45.4009 475.911C45.4009 474.628 44.7046 473.398 43.4653 472.49C42.2259 471.583 40.545 471.073 38.7922 471.073Z" fill="#B24146"/>
<path d="M70.9543 447.496C69.6473 447.496 68.3696 447.78 67.2828 448.311C66.196 448.843 65.349 449.599 64.8488 450.483C64.3486 451.367 64.2177 452.339 64.4727 453.278C64.7277 454.216 65.3571 455.078 66.2813 455.755C67.2056 456.431 68.3831 456.892 69.6651 457.079C70.947 457.266 72.2758 457.17 73.4834 456.804C74.6909 456.437 75.7231 455.817 76.4492 455.022C77.1754 454.226 77.563 453.291 77.563 452.334C77.563 451.051 76.8667 449.82 75.6274 448.913C74.388 448.006 72.7071 447.496 70.9543 447.496Z" fill="#B24146"/>
<path d="M6.60864 447.496C5.30158 447.496 4.02387 447.78 2.93708 448.311C1.85029 448.843 1.00325 449.599 0.503056 450.483C0.00286343 451.367 -0.12801 452.339 0.126986 453.278C0.381982 454.216 1.01139 455.078 1.93563 455.755C2.85986 456.431 4.03741 456.892 5.31936 457.079C6.60131 457.266 7.93009 457.17 9.13766 456.804C10.3452 456.437 11.3774 455.817 12.1035 455.022C12.8297 454.226 13.2173 453.291 13.2173 452.334C13.2173 451.051 12.521 449.82 11.2817 448.913C10.0423 448.006 8.36137 447.496 6.60864 447.496Z" fill="#B24146"/>
<path d="M103.116 423.952C101.809 423.952 100.532 424.236 99.4449 424.768C98.3581 425.299 97.5111 426.055 97.0109 426.939C96.5107 427.823 96.3798 428.796 96.6348 429.734C96.8898 430.673 97.5192 431.535 98.4434 432.212C99.3677 432.888 100.545 433.349 101.827 433.536C103.109 433.723 104.438 433.627 105.645 433.261C106.853 432.894 107.885 432.274 108.611 431.479C109.338 430.683 109.725 429.747 109.725 428.791C109.725 427.507 109.029 426.277 107.789 425.369C106.55 424.462 104.869 423.952 103.116 423.952Z" fill="#B24146"/>
<path d="M38.7922 423.952C37.4852 423.952 36.2075 424.236 35.1207 424.768C34.0339 425.299 33.1868 426.055 32.6866 426.939C32.1865 427.823 32.0556 428.796 32.3106 429.734C32.5656 430.673 33.195 431.535 34.1192 432.212C35.0435 432.888 36.221 433.349 37.503 433.536C38.7849 433.723 40.1137 433.627 41.3213 433.261C42.5288 432.894 43.561 432.274 44.2871 431.479C45.0133 430.683 45.4009 429.747 45.4009 428.791C45.4009 427.507 44.7046 426.277 43.4653 425.369C42.2259 424.462 40.545 423.952 38.7922 423.952Z" fill="#B24146"/>
<path d="M70.9543 400.408C69.6473 400.408 68.3696 400.692 67.2828 401.224C66.196 401.755 65.349 402.511 64.8488 403.395C64.3486 404.279 64.2177 405.252 64.4727 406.191C64.7277 407.129 65.3571 407.991 66.2813 408.668C67.2056 409.344 68.3831 409.805 69.6651 409.992C70.947 410.179 72.2758 410.083 73.4834 409.717C74.6909 409.35 75.7231 408.73 76.4492 407.935C77.1754 407.139 77.563 406.204 77.563 405.247C77.563 403.963 76.8667 402.733 75.6274 401.825C74.388 400.918 72.7071 400.408 70.9543 400.408Z" fill="#B24146"/>
<path d="M6.60864 400.408C5.30158 400.408 4.02387 400.692 2.93708 401.224C1.85029 401.755 1.00325 402.511 0.503056 403.395C0.00286343 404.279 -0.12801 405.252 0.126986 406.191C0.381982 407.129 1.01139 407.991 1.93563 408.668C2.85986 409.344 4.03741 409.805 5.31936 409.992C6.60131 410.179 7.93009 410.083 9.13766 409.717C10.3452 409.35 11.3774 408.73 12.1035 407.935C12.8297 407.139 13.2173 406.204 13.2173 405.247C13.2173 403.963 12.521 402.733 11.2817 401.825C10.0423 400.918 8.36137 400.408 6.60864 400.408Z" fill="#B24146"/>
<path d="M103.116 376.865C101.809 376.865 100.532 377.149 99.4449 377.681C98.3581 378.212 97.5111 378.968 97.0109 379.852C96.5107 380.736 96.3798 381.708 96.6348 382.647C96.8898 383.585 97.5192 384.447 98.4434 385.124C99.3677 385.801 100.545 386.261 101.827 386.448C103.109 386.635 104.438 386.539 105.645 386.173C106.853 385.807 107.885 385.186 108.611 384.391C109.338 383.595 109.725 382.66 109.725 381.703C109.725 380.42 109.029 379.189 107.789 378.282C106.55 377.375 104.869 376.865 103.116 376.865Z" fill="#B24146"/>
<path d="M38.7922 376.865C37.4852 376.865 36.2075 377.149 35.1207 377.681C34.0339 378.212 33.1868 378.968 32.6866 379.852C32.1865 380.736 32.0556 381.708 32.3106 382.647C32.5656 383.585 33.195 384.447 34.1192 385.124C35.0435 385.801 36.221 386.261 37.503 386.448C38.7849 386.635 40.1137 386.539 41.3213 386.173C42.5288 385.807 43.561 385.186 44.2871 384.391C45.0133 383.595 45.4009 382.66 45.4009 381.703C45.4009 380.42 44.7046 379.189 43.4653 378.282C42.2259 377.375 40.545 376.865 38.7922 376.865Z" fill="#B24146"/>
<path d="M328.229 541.671C326.525 541.67 324.886 542.151 323.654 543.013C322.423 543.876 321.694 545.053 321.62 546.3V546.526C321.62 547.809 322.316 549.04 323.556 549.947C324.795 550.854 326.476 551.364 328.229 551.364C329.981 551.364 331.662 550.854 332.902 549.947C334.141 549.04 334.837 547.809 334.837 546.526V546.3C334.764 545.053 334.035 543.876 332.803 543.013C331.572 542.151 329.933 541.67 328.229 541.671Z" fill="#B24146"/>
<path d="M263.927 541.671C262.223 541.67 260.584 542.151 259.352 543.013C258.121 543.876 257.392 545.053 257.318 546.3C257.308 546.375 257.308 546.451 257.318 546.526C257.318 547.809 258.014 549.04 259.254 549.947C260.493 550.854 262.174 551.364 263.927 551.364C265.679 551.364 267.36 550.854 268.6 549.947C269.839 549.04 270.535 547.809 270.535 546.526V546.3C270.462 545.053 269.733 543.876 268.501 543.013C267.27 542.151 265.631 541.67 263.927 541.671Z" fill="#B24146"/>
<path d="M199.603 541.671C197.899 541.67 196.26 542.151 195.028 543.013C193.797 543.876 193.068 545.053 192.994 546.3C192.994 546.38 192.994 546.461 192.994 546.526C192.994 547.809 193.69 549.04 194.93 549.947C196.169 550.854 197.85 551.364 199.603 551.364C201.356 551.364 203.036 550.854 204.276 549.947C205.515 549.04 206.211 547.809 206.211 546.526V546.3C206.138 545.053 205.409 543.876 204.177 543.013C202.946 542.151 201.307 541.67 199.603 541.671Z" fill="#B24146"/>
<path d="M135.279 541.671H134.971C133.316 541.722 131.749 542.227 130.578 543.084C129.407 543.941 128.719 545.089 128.648 546.3V546.526C128.647 547.773 129.304 548.973 130.482 549.875C131.66 550.777 133.268 551.31 134.971 551.364H135.279C137.032 551.364 138.713 550.854 139.952 549.947C141.191 549.04 141.888 547.809 141.888 546.526V546.3C141.814 545.053 141.085 543.876 139.854 543.013C138.622 542.151 136.983 541.67 135.279 541.671Z" fill="#B24146"/>
<path d="M360.392 518.129C359.085 518.129 357.807 518.413 356.72 518.944C355.634 519.476 354.786 520.231 354.286 521.115C353.786 521.999 353.655 522.971 353.91 523.909C354.165 524.848 354.795 525.71 355.719 526.386C356.643 527.063 357.821 527.523 359.103 527.71C360.385 527.896 361.713 527.801 362.921 527.435C364.128 527.068 365.161 526.449 365.887 525.653C366.613 524.858 367 523.922 367 522.966C367 521.683 366.304 520.453 365.065 519.546C363.825 518.639 362.145 518.129 360.392 518.129Z" fill="#B24146"/>
<path d="M296.089 518.129C294.782 518.129 293.504 518.413 292.418 518.944C291.331 519.476 290.484 520.231 289.984 521.115C289.483 521.999 289.352 522.971 289.607 523.909C289.862 524.848 290.492 525.71 291.416 526.386C292.34 527.063 293.518 527.523 294.8 527.71C296.082 527.896 297.41 527.801 298.618 527.435C299.826 527.068 300.858 526.449 301.584 525.653C302.31 524.858 302.698 523.922 302.698 522.966C302.698 521.683 302.001 520.453 300.762 519.546C299.523 518.639 297.842 518.129 296.089 518.129Z" fill="#B24146"/>
<path d="M231.765 518.129C230.458 518.129 229.18 518.413 228.093 518.944C227.007 519.476 226.159 520.231 225.659 521.115C225.159 521.999 225.028 522.971 225.283 523.909C225.538 524.848 226.168 525.71 227.092 526.386C228.016 527.063 229.194 527.523 230.476 527.71C231.758 527.896 233.086 527.801 234.294 527.435C235.501 527.068 236.534 526.449 237.26 525.653C237.986 524.858 238.374 523.922 238.374 522.966C238.374 521.683 237.677 520.453 236.438 519.546C235.199 518.639 233.518 518.129 231.765 518.129Z" fill="#B24146"/>
<path d="M167.419 518.129C166.112 518.129 164.834 518.413 163.748 518.944C162.661 519.476 161.814 520.231 161.314 521.115C160.813 521.999 160.683 522.971 160.938 523.909C161.193 524.848 161.822 525.71 162.746 526.386C163.67 527.063 164.848 527.523 166.13 527.71C167.412 527.896 168.741 527.801 169.948 527.435C171.156 527.068 172.188 526.449 172.914 525.653C173.64 524.858 174.028 523.922 174.028 522.966C174.028 521.683 173.331 520.453 172.092 519.546C170.853 518.639 169.172 518.129 167.419 518.129Z" fill="#B24146"/>
<path d="M328.229 494.584C326.922 494.584 325.644 494.868 324.557 495.399C323.47 495.931 322.623 496.686 322.123 497.57C321.623 498.455 321.492 499.427 321.747 500.366C322.002 501.304 322.632 502.166 323.556 502.843C324.48 503.519 325.658 503.98 326.939 504.167C328.221 504.353 329.55 504.258 330.758 503.891C331.965 503.525 332.997 502.905 333.724 502.11C334.45 501.314 334.837 500.379 334.837 499.422C334.837 498.139 334.141 496.908 332.902 496.001C331.662 495.094 329.981 494.584 328.229 494.584Z" fill="#B24146"/>
<path d="M263.927 494.584C262.62 494.584 261.342 494.868 260.255 495.399C259.169 495.931 258.322 496.686 257.821 497.57C257.321 498.455 257.19 499.427 257.445 500.366C257.7 501.304 258.33 502.166 259.254 502.843C260.178 503.519 261.356 503.98 262.638 504.167C263.92 504.353 265.249 504.258 266.456 503.891C267.664 503.525 268.696 502.905 269.422 502.11C270.148 501.314 270.536 500.379 270.536 499.422C270.536 498.139 269.839 496.908 268.6 496.001C267.361 495.094 265.68 494.584 263.927 494.584Z" fill="#B24146"/>
<path d="M199.603 494.584C198.296 494.584 197.018 494.868 195.931 495.399C194.844 495.931 193.997 496.686 193.497 497.57C192.997 498.455 192.866 499.427 193.121 500.366C193.376 501.304 194.006 502.166 194.93 502.843C195.854 503.519 197.032 503.98 198.314 504.167C199.595 504.353 200.924 504.258 202.132 503.891C203.339 503.525 204.372 502.905 205.098 502.11C205.824 501.314 206.211 500.379 206.211 499.422C206.211 498.139 205.515 496.908 204.276 496.001C203.036 495.094 201.356 494.584 199.603 494.584Z" fill="#B24146"/>
<path d="M135.278 494.584H134.97C133.217 494.584 131.536 495.094 130.297 496.001C129.058 496.908 128.361 498.139 128.361 499.422C128.361 500.705 129.058 501.936 130.297 502.843C131.536 503.75 133.217 504.26 134.97 504.26H135.278C137.031 504.26 138.712 503.75 139.951 502.843C141.191 501.936 141.887 500.705 141.887 499.422C141.887 498.139 141.191 496.908 139.951 496.001C138.712 495.094 137.031 494.584 135.278 494.584Z" fill="#B24146"/>
<path d="M360.392 471.073C359.085 471.073 357.807 471.357 356.72 471.889C355.634 472.42 354.786 473.176 354.286 474.06C353.786 474.944 353.655 475.916 353.91 476.855C354.165 477.793 354.795 478.655 355.719 479.332C356.643 480.009 357.821 480.469 359.103 480.656C360.385 480.843 361.713 480.747 362.921 480.381C364.128 480.015 365.161 479.395 365.887 478.599C366.613 477.803 367 476.868 367 475.911C367 474.628 366.304 473.398 365.065 472.49C363.825 471.583 362.145 471.073 360.392 471.073Z" fill="#B24146"/>
<path d="M296.089 471.073C294.782 471.073 293.504 471.357 292.418 471.889C291.331 472.42 290.484 473.176 289.984 474.06C289.483 474.944 289.352 475.916 289.607 476.855C289.862 477.793 290.492 478.655 291.416 479.332C292.34 480.009 293.518 480.469 294.8 480.656C296.082 480.843 297.41 480.747 298.618 480.381C299.826 480.015 300.858 479.395 301.584 478.599C302.31 477.803 302.698 476.868 302.698 475.911C302.698 474.628 302.001 473.398 300.762 472.49C299.523 471.583 297.842 471.073 296.089 471.073Z" fill="#B24146"/>
<path d="M231.765 471.073C230.458 471.073 229.18 471.357 228.093 471.889C227.007 472.42 226.159 473.176 225.659 474.06C225.159 474.944 225.028 475.916 225.283 476.855C225.538 477.793 226.168 478.655 227.092 479.332C228.016 480.009 229.194 480.469 230.476 480.656C231.758 480.843 233.086 480.747 234.294 480.381C235.501 480.015 236.534 479.395 237.26 478.599C237.986 477.803 238.374 476.868 238.374 475.911C238.374 474.628 237.677 473.398 236.438 472.49C235.199 471.583 233.518 471.073 231.765 471.073Z" fill="#B24146"/>
<path d="M167.419 471.073C166.112 471.073 164.834 471.357 163.748 471.889C162.661 472.42 161.814 473.176 161.314 474.06C160.813 474.944 160.683 475.916 160.938 476.855C161.193 477.793 161.822 478.655 162.746 479.332C163.67 480.009 164.848 480.469 166.13 480.656C167.412 480.843 168.741 480.747 169.948 480.381C171.156 480.015 172.188 479.395 172.914 478.599C173.64 477.803 174.028 476.868 174.028 475.911C174.028 474.628 173.331 473.398 172.092 472.49C170.853 471.583 169.172 471.073 167.419 471.073Z" fill="#B24146"/>
<path d="M328.229 447.496C326.922 447.496 325.644 447.78 324.557 448.311C323.47 448.843 322.623 449.599 322.123 450.483C321.623 451.367 321.492 452.339 321.747 453.278C322.002 454.216 322.632 455.078 323.556 455.755C324.48 456.431 325.658 456.892 326.939 457.079C328.221 457.266 329.55 457.17 330.758 456.804C331.965 456.437 332.997 455.817 333.724 455.022C334.45 454.226 334.837 453.291 334.837 452.334C334.837 451.051 334.141 449.82 332.902 448.913C331.662 448.006 329.981 447.496 328.229 447.496Z" fill="#B24146"/>
<path d="M263.927 447.496C262.62 447.496 261.342 447.78 260.255 448.311C259.169 448.843 258.322 449.599 257.821 450.483C257.321 451.367 257.19 452.339 257.445 453.278C257.7 454.216 258.33 455.078 259.254 455.755C260.178 456.431 261.356 456.892 262.638 457.079C263.92 457.266 265.249 457.17 266.456 456.804C267.664 456.437 268.696 455.817 269.422 455.022C270.148 454.226 270.536 453.291 270.536 452.334C270.536 451.051 269.839 449.82 268.6 448.913C267.361 448.006 265.68 447.496 263.927 447.496Z" fill="#B24146"/>
<path d="M199.603 447.496C198.296 447.496 197.018 447.78 195.931 448.311C194.844 448.843 193.997 449.599 193.497 450.483C192.997 451.367 192.866 452.339 193.121 453.278C193.376 454.216 194.006 455.078 194.93 455.755C195.854 456.431 197.032 456.892 198.314 457.079C199.595 457.266 200.924 457.17 202.132 456.804C203.339 456.437 204.372 455.817 205.098 455.022C205.824 454.226 206.211 453.291 206.211 452.334C206.211 451.051 205.515 449.82 204.276 448.913C203.036 448.006 201.356 447.496 199.603 447.496Z" fill="#B24146"/>
<path d="M135.278 447.496H134.97C133.217 447.496 131.536 448.006 130.297 448.913C129.058 449.82 128.361 451.051 128.361 452.334C128.361 453.617 129.058 454.848 130.297 455.755C131.536 456.662 133.217 457.172 134.97 457.172H135.278C137.031 457.172 138.712 456.662 139.951 455.755C141.191 454.848 141.887 453.617 141.887 452.334C141.887 451.051 141.191 449.82 139.951 448.913C138.712 448.006 137.031 447.496 135.278 447.496Z" fill="#B24146"/>
<path d="M360.392 423.952C359.085 423.952 357.807 424.236 356.72 424.768C355.634 425.299 354.786 426.055 354.286 426.939C353.786 427.823 353.655 428.796 353.91 429.734C354.165 430.673 354.795 431.535 355.719 432.212C356.643 432.888 357.821 433.349 359.103 433.536C360.385 433.723 361.713 433.627 362.921 433.261C364.128 432.894 365.161 432.274 365.887 431.479C366.613 430.683 367 429.747 367 428.791C367 427.507 366.304 426.277 365.065 425.369C363.825 424.462 362.145 423.952 360.392 423.952Z" fill="#B24146"/>
<path d="M296.089 423.952C294.782 423.952 293.504 424.236 292.418 424.768C291.331 425.299 290.484 426.055 289.984 426.939C289.483 427.823 289.352 428.796 289.607 429.734C289.862 430.673 290.492 431.535 291.416 432.212C292.34 432.888 293.518 433.349 294.8 433.536C296.082 433.723 297.41 433.627 298.618 433.261C299.826 432.894 300.858 432.274 301.584 431.479C302.31 430.683 302.698 429.747 302.698 428.791C302.698 427.507 302.001 426.277 300.762 425.369C299.523 424.462 297.842 423.952 296.089 423.952Z" fill="#B24146"/>
<path d="M231.765 423.952C230.458 423.952 229.18 424.236 228.093 424.768C227.007 425.299 226.159 426.055 225.659 426.939C225.159 427.823 225.028 428.796 225.283 429.734C225.538 430.673 226.168 431.535 227.092 432.212C228.016 432.888 229.194 433.349 230.476 433.536C231.758 433.723 233.086 433.627 234.294 433.261C235.501 432.894 236.534 432.274 237.26 431.479C237.986 430.683 238.374 429.747 238.374 428.791C238.374 427.507 237.677 426.277 236.438 425.369C235.199 424.462 233.518 423.952 231.765 423.952Z" fill="#B24146"/>
<path d="M167.419 423.952C166.112 423.952 164.834 424.236 163.748 424.768C162.661 425.299 161.814 426.055 161.314 426.939C160.813 427.823 160.683 428.796 160.938 429.734C161.193 430.673 161.822 431.535 162.746 432.212C163.67 432.888 164.848 433.349 166.13 433.536C167.412 433.723 168.741 433.627 169.948 433.261C171.156 432.894 172.188 432.274 172.914 431.479C173.64 430.683 174.028 429.747 174.028 428.791C174.028 427.507 173.331 426.277 172.092 425.369C170.853 424.462 169.172 423.952 167.419 423.952Z" fill="#B24146"/>
<path d="M328.229 400.408C326.922 400.408 325.644 400.692 324.557 401.224C323.47 401.755 322.623 402.511 322.123 403.395C321.623 404.279 321.492 405.252 321.747 406.191C322.002 407.129 322.632 407.991 323.556 408.668C324.48 409.344 325.658 409.805 326.939 409.992C328.221 410.179 329.55 410.083 330.758 409.717C331.965 409.35 332.997 408.73 333.724 407.935C334.45 407.139 334.837 406.204 334.837 405.247C334.837 403.963 334.141 402.733 332.902 401.825C331.662 400.918 329.981 400.408 328.229 400.408Z" fill="#B24146"/>
<path d="M263.927 400.408C262.62 400.408 261.342 400.692 260.255 401.224C259.169 401.755 258.322 402.511 257.821 403.395C257.321 404.279 257.19 405.252 257.445 406.191C257.7 407.129 258.33 407.991 259.254 408.668C260.178 409.344 261.356 409.805 262.638 409.992C263.92 410.179 265.249 410.083 266.456 409.717C267.664 409.35 268.696 408.73 269.422 407.935C270.148 407.139 270.536 406.204 270.536 405.247C270.536 403.963 269.839 402.733 268.6 401.825C267.361 400.918 265.68 400.408 263.927 400.408Z" fill="#B24146"/>
<path d="M199.603 400.408C198.296 400.408 197.018 400.692 195.931 401.224C194.844 401.755 193.997 402.511 193.497 403.395C192.997 404.279 192.866 405.252 193.121 406.191C193.376 407.129 194.006 407.991 194.93 408.668C195.854 409.344 197.032 409.805 198.314 409.992C199.595 410.179 200.924 410.083 202.132 409.717C203.339 409.35 204.372 408.73 205.098 407.935C205.824 407.139 206.211 406.204 206.211 405.247C206.211 403.963 205.515 402.733 204.276 401.825C203.036 400.918 201.356 400.408 199.603 400.408Z" fill="#B24146"/>
<path d="M135.278 400.408H134.97C133.217 400.408 131.536 400.918 130.297 401.825C129.058 402.733 128.361 403.963 128.361 405.247C128.361 406.53 129.058 407.76 130.297 408.668C131.536 409.575 133.217 410.085 134.97 410.085H135.278C137.031 410.085 138.712 409.575 139.951 408.668C141.191 407.76 141.887 406.53 141.887 405.247C141.887 403.963 141.191 402.733 139.951 401.825C138.712 400.918 137.031 400.408 135.278 400.408Z" fill="#B24146"/>
<path d="M360.392 376.865C359.085 376.865 357.807 377.149 356.72 377.681C355.634 378.212 354.786 378.968 354.286 379.852C353.786 380.736 353.655 381.708 353.91 382.647C354.165 383.585 354.795 384.447 355.719 385.124C356.643 385.801 357.821 386.261 359.103 386.448C360.385 386.635 361.713 386.539 362.921 386.173C364.128 385.807 365.161 385.186 365.887 384.391C366.613 383.595 367 382.66 367 381.703C367 380.42 366.304 379.189 365.065 378.282C363.825 377.375 362.145 376.865 360.392 376.865Z" fill="#B24146"/>
<path d="M296.089 376.865C294.782 376.865 293.504 377.149 292.418 377.681C291.331 378.212 290.484 378.968 289.984 379.852C289.483 380.736 289.352 381.708 289.607 382.647C289.862 383.585 290.492 384.447 291.416 385.124C292.34 385.801 293.518 386.261 294.8 386.448C296.082 386.635 297.41 386.539 298.618 386.173C299.826 385.807 300.858 385.186 301.584 384.391C302.31 383.595 302.698 382.66 302.698 381.703C302.698 380.42 302.001 379.189 300.762 378.282C299.523 377.375 297.842 376.865 296.089 376.865Z" fill="#B24146"/>
<path d="M231.765 376.865C230.458 376.865 229.18 377.149 228.093 377.681C227.007 378.212 226.159 378.968 225.659 379.852C225.159 380.736 225.028 381.708 225.283 382.647C225.538 383.585 226.168 384.447 227.092 385.124C228.016 385.801 229.194 386.261 230.476 386.448C231.758 386.635 233.086 386.539 234.294 386.173C235.501 385.807 236.534 385.186 237.26 384.391C237.986 383.595 238.374 382.66 238.374 381.703C238.374 380.42 237.677 379.189 236.438 378.282C235.199 377.375 233.518 376.865 231.765 376.865Z" fill="#B24146"/>
<path d="M167.419 376.865C166.112 376.865 164.834 377.149 163.748 377.681C162.661 378.212 161.814 378.968 161.314 379.852C160.813 380.736 160.683 381.708 160.938 382.647C161.193 383.585 161.822 384.447 162.746 385.124C163.67 385.801 164.848 386.261 166.13 386.448C167.412 386.635 168.741 386.539 169.948 386.173C171.156 385.807 172.188 385.186 172.914 384.391C173.64 383.595 174.028 382.66 174.028 381.703C174.028 380.42 173.331 379.189 172.092 378.282C170.853 377.375 169.172 376.865 167.419 376.865Z" fill="#B24146"/>
<path d="M103.116 565.215C101.809 565.215 100.532 565.499 99.4449 566.03C98.3581 566.562 97.5111 567.318 97.0109 568.202C96.5107 569.086 96.3798 570.059 96.6348 570.997C96.8898 571.936 97.5192 572.798 98.4434 573.474C99.3677 574.151 100.545 574.612 101.827 574.799C103.109 574.985 104.438 574.89 105.645 574.523C106.853 574.157 107.885 573.537 108.611 572.741C109.338 571.946 109.725 571.01 109.725 570.053C109.725 568.77 109.029 567.539 107.789 566.632C106.55 565.725 104.869 565.215 103.116 565.215Z" fill="#B24146"/>
<path d="M38.7922 565.215C37.4852 565.215 36.2075 565.499 35.1207 566.03C34.0339 566.562 33.1868 567.318 32.6866 568.202C32.1865 569.086 32.0556 570.059 32.3106 570.997C32.5656 571.936 33.195 572.798 34.1192 573.474C35.0435 574.151 36.221 574.612 37.503 574.799C38.7849 574.985 40.1137 574.89 41.3213 574.523C42.5288 574.157 43.561 573.537 44.2871 572.741C45.0133 571.946 45.4009 571.01 45.4009 570.053C45.4009 568.77 44.7046 567.539 43.4653 566.632C42.2259 565.725 40.545 565.215 38.7922 565.215Z" fill="#B24146"/>
<path d="M360.392 565.215C359.085 565.215 357.807 565.499 356.72 566.03C355.634 566.562 354.786 567.318 354.286 568.202C353.786 569.086 353.655 570.059 353.91 570.997C354.165 571.936 354.795 572.798 355.719 573.474C356.643 574.151 357.821 574.612 359.103 574.799C360.385 574.985 361.713 574.89 362.921 574.523C364.128 574.157 365.161 573.537 365.887 572.741C366.613 571.946 367 571.01 367 570.053C367 568.77 366.304 567.539 365.065 566.632C363.825 565.725 362.145 565.215 360.392 565.215Z" fill="#B24146"/>
<path d="M296.089 565.215C294.782 565.215 293.504 565.499 292.418 566.03C291.331 566.562 290.484 567.318 289.984 568.202C289.483 569.086 289.352 570.059 289.607 570.997C289.862 571.936 290.492 572.798 291.416 573.474C292.34 574.151 293.518 574.612 294.8 574.799C296.082 574.985 297.41 574.89 298.618 574.523C299.826 574.157 300.858 573.537 301.584 572.741C302.31 571.946 302.698 571.01 302.698 570.053C302.698 568.77 302.001 567.539 300.762 566.632C299.523 565.725 297.842 565.215 296.089 565.215Z" fill="#B24146"/>
<path d="M231.765 565.215C230.458 565.215 229.18 565.499 228.093 566.03C227.007 566.562 226.159 567.318 225.659 568.202C225.159 569.086 225.028 570.059 225.283 570.997C225.538 571.936 226.168 572.798 227.092 573.474C228.016 574.151 229.194 574.612 230.476 574.799C231.758 574.985 233.086 574.89 234.294 574.523C235.501 574.157 236.534 573.537 237.26 572.741C237.986 571.946 238.374 571.01 238.374 570.053C238.374 568.77 237.677 567.539 236.438 566.632C235.199 565.725 233.518 565.215 231.765 565.215Z" fill="#B24146"/>
<path d="M167.419 565.215C166.112 565.215 164.834 565.499 163.748 566.03C162.661 566.562 161.814 567.318 161.314 568.202C160.813 569.086 160.683 570.059 160.938 570.997C161.193 571.936 161.822 572.798 162.746 573.474C163.67 574.151 164.848 574.612 166.13 574.799C167.412 574.985 168.741 574.89 169.948 574.523C171.156 574.157 172.188 573.537 172.914 572.741C173.64 571.946 174.028 571.01 174.028 570.053C174.028 568.77 173.331 567.539 172.092 566.632C170.853 565.725 169.172 565.215 167.419 565.215Z" fill="#B24146"/>
</svg>
