<svg width="403" height="144" viewBox="0 0 403 144" fill="none" xmlns="http://www.w3.org/2000/svg">
<rect x="10.0791" y="0.617188" width="394.301" height="106.459" transform="rotate(5.42011 10.0791 0.617188)" fill="#17130B"/>
<path d="M82.6208 34.7184L91.3091 35.5754C97.1013 36.1468 100.996 36.7567 102.993 37.405C105.009 38.0553 106.567 39.367 107.668 41.34C108.79 43.2956 109.153 46.2851 108.756 50.3085C108.393 53.9821 107.693 56.4055 106.655 57.5788C105.617 58.7521 103.744 59.3328 101.037 59.3208C103.407 60.1631 104.96 61.1307 105.696 62.2239C106.432 63.3171 106.855 64.3009 106.965 65.1753C107.097 66.0321 106.974 68.3654 106.599 72.175L105.371 84.6244L93.9708 83.4998L95.5181 67.8143C95.7674 65.2875 95.7176 63.7026 95.3689 63.0598C95.0396 62.4189 94.0294 62.0151 92.3384 61.8483L90.2389 83.1317L77.9645 81.9209L82.6208 34.7184ZM94.0986 44.0052L93.0632 54.5011C94.4432 54.6373 95.4236 54.5475 96.0042 54.2319C96.6062 53.8988 97.0098 52.6923 97.215 50.6126L97.4709 48.0178C97.6186 46.5211 97.4433 45.5127 96.9451 44.9925C96.4663 44.4743 95.5175 44.1452 94.0986 44.0052ZM114.808 37.8935L135.275 39.9125L134.344 49.3588L126.151 48.5507L125.268 57.5014L132.936 58.2578L132.05 67.2376L124.382 66.4812L123.358 76.8605L132.367 77.7492L131.435 87.1955L110.152 85.096L114.808 37.8935ZM139.649 40.3439L160.436 42.3945L159.505 51.8408L150.991 51.001L150.108 59.9517L157.689 60.6995L156.803 69.6794L149.223 68.9316L147.267 88.7572L134.992 87.5464L139.649 40.3439ZM163.439 42.6907L183.907 44.7097L182.975 54.1561L174.782 53.3479L173.899 62.2986L181.567 63.055L180.681 72.0348L173.013 71.2784L171.989 81.6577L180.998 82.5464L180.067 91.9928L158.783 89.8933L163.439 42.6907ZM188.28 45.1411L196.968 45.9982C202.76 46.5696 206.655 47.1794 208.652 47.8278C210.668 48.4781 212.226 49.7898 213.327 51.7628C214.449 53.7183 214.812 56.7078 214.415 60.7313C214.052 64.4048 213.352 66.8283 212.314 68.0016C211.276 69.1748 209.403 69.7555 206.696 69.7436C209.066 70.5858 210.619 71.5535 211.355 72.6467C212.091 73.7398 212.514 74.7236 212.624 75.598C212.756 76.4549 212.633 78.7882 212.258 82.5978L211.03 95.0471L199.63 93.9226L201.177 78.237C201.426 75.7102 201.377 74.1254 201.028 73.4826C200.699 72.8417 199.688 72.4379 197.997 72.2711L195.898 93.5545L183.624 92.3437L188.28 45.1411ZM199.758 54.428L198.722 64.9239C200.102 65.06 201.083 64.9703 201.663 64.6547C202.265 64.3215 202.669 63.1151 202.874 61.0354L203.13 58.4405C203.278 56.9439 203.102 55.9355 202.604 55.4153C202.125 54.8971 201.177 54.5679 199.758 54.428ZM220.467 48.3163L240.934 50.3353L240.003 59.7816L231.81 58.9734L230.927 67.9241L238.595 68.6805L237.709 77.6604L230.041 76.904L229.017 87.2833L238.026 88.172L237.094 97.6183L215.811 95.5188L220.467 48.3163ZM272.714 53.4701L268.057 100.673L257.299 99.6114L253.031 77.5232L250.914 98.9816L240.651 97.9692L245.308 50.7667L255.57 51.779L260.354 73.712L262.451 52.4578L272.714 53.4701ZM304.299 77.3699L292.025 76.1591L292.836 67.9373C293.072 65.5465 293.083 64.0462 292.868 63.4362C292.675 62.8088 292.131 62.4509 291.237 62.3627C290.226 62.263 289.549 62.5593 289.206 63.2517C288.863 63.944 288.574 65.4855 288.338 67.8763L286.175 89.8011C285.949 92.0946 285.937 93.6047 286.14 94.3313C286.343 95.0579 286.921 95.4681 287.874 95.5621C288.787 95.6522 289.415 95.3608 289.756 94.6879C290.116 94.0169 290.424 92.3889 290.679 89.8038L291.263 83.8853L303.537 85.0961L303.356 86.9329C302.875 91.8115 302.184 95.2368 301.283 97.2086C300.401 99.1824 298.699 100.82 296.176 102.122C293.673 103.425 290.691 103.906 287.231 103.565C283.636 103.21 280.736 102.267 278.532 100.734C276.328 99.2021 274.96 97.2517 274.428 94.8834C273.898 92.4956 273.861 88.9887 274.318 84.3627L275.678 70.5723C276.014 67.1708 276.381 64.6361 276.782 62.9681C277.183 61.2806 278.036 59.7063 279.338 58.245C280.659 56.7857 282.384 55.7096 284.513 55.0168C286.664 54.3065 289.071 54.0827 291.733 54.3454C295.349 54.702 298.263 55.6961 300.477 57.3275C302.691 58.959 304.064 60.8607 304.595 63.0328C305.128 65.1854 305.178 68.4678 304.742 72.88L304.299 77.3699ZM310.732 57.2205L331.199 59.2395L330.268 68.6858L322.075 67.8776L321.192 76.8283L328.86 77.5847L327.974 86.5646L320.306 85.8082L319.282 96.1875L328.291 97.0762L327.359 106.523L306.076 104.423L310.732 57.2205Z" fill="#FFD87E"/>
</svg>
