<svg width="403" height="158" viewBox="0 0 403 158" fill="none" xmlns="http://www.w3.org/2000/svg">
<rect x="10.0791" y="7.61719" width="394.301" height="106.459" transform="rotate(5.42011 10.0791 7.61719)" fill="#17130B"/>
<path d="M29.8327 28.016L42.1411 29.2302C50.3467 30.0397 55.8639 30.9036 58.6927 31.8222C61.549 32.7434 63.7568 34.6016 65.3161 37.3968C66.9056 40.1671 67.4193 44.4022 66.857 50.1021C66.3436 55.3063 65.3516 58.7395 63.8809 60.4017C62.4101 62.0638 59.7571 62.8865 55.9219 62.8696C59.2797 64.0627 61.4799 65.4336 62.5227 66.9823C63.5655 68.5309 64.1648 69.9246 64.3207 71.1633C64.5067 72.3772 64.3336 75.6827 63.8012 81.0797L62.0615 98.7162L45.9118 97.1231L48.1038 74.9019C48.4569 71.3223 48.3865 69.0771 47.8924 68.1665C47.4259 67.2586 45.9949 66.6864 43.5993 66.4501L40.625 96.6016L23.2362 94.8863L29.8327 28.016ZM46.0928 41.1724L44.626 56.0417C46.581 56.2345 47.9699 56.1074 48.7925 55.6603C49.6453 55.1883 50.2171 53.4792 50.5077 50.5329L50.8703 46.8569C51.0795 44.7366 50.8312 43.308 50.1254 42.5711C49.4471 41.8369 48.1029 41.3707 46.0928 41.1724ZM75.4316 32.5142L104.427 35.3744L103.107 48.7567L91.5003 47.6118L90.2495 60.292L101.112 61.3635L99.8573 74.085L88.9945 73.0134L87.5441 87.7174L100.307 88.9764L98.9867 102.359L68.8352 99.3844L75.4316 32.5142ZM110.622 35.9856L140.072 38.8906L138.751 52.2729L126.691 51.0832L125.44 63.7633L136.179 64.8227L134.924 77.5441L124.185 76.4848L121.414 104.571L104.026 102.856L110.622 35.9856ZM144.326 39.3103L173.321 42.1705L172.001 55.5528L160.394 54.4079L159.144 67.088L170.006 68.1596L168.751 80.8811L157.889 79.8095L156.438 94.5135L169.201 95.7725L167.881 109.155L137.729 106.181L144.326 39.3103ZM179.516 42.7816L191.825 43.9958C200.03 44.8052 205.548 45.6692 208.376 46.5878C211.233 47.509 213.44 49.3672 215 52.1624C216.589 54.9327 217.103 59.1678 216.541 64.8677C216.027 70.0719 215.035 73.5051 213.564 75.1673C212.094 76.8294 209.441 77.652 205.606 77.6352C208.963 78.8283 211.164 80.1992 212.206 81.7478C213.249 83.2965 213.848 84.6902 214.004 85.9289C214.19 87.1428 214.017 90.4483 213.485 95.8453L211.745 113.482L195.595 111.889L197.787 89.6675C198.141 86.0879 198.07 83.8427 197.576 82.9321C197.11 82.0241 195.679 81.452 193.283 81.2157L190.309 111.367L172.92 109.652L179.516 42.7816ZM195.776 55.938L194.31 70.8072C196.265 71.0001 197.654 70.873 198.476 70.4258C199.329 69.9539 199.901 68.2448 200.191 65.2985L200.554 61.6225C200.763 59.5022 200.515 58.0736 199.809 57.3367C199.131 56.6025 197.787 56.1363 195.776 55.938ZM225.115 47.2798L254.11 50.14L252.79 63.5223L241.184 62.3774L239.933 75.0575L250.796 76.1291L249.541 88.8506L238.678 87.779L237.228 102.483L249.99 103.742L248.67 117.124L218.519 114.15L225.115 47.2798ZM299.131 54.5811L292.535 121.451L277.294 119.948L271.247 88.6563L268.248 119.056L253.709 117.621L260.306 50.7511L274.845 52.1853L281.622 83.2571L284.592 53.1469L299.131 54.5811ZM343.877 88.4391L326.489 86.7237L327.638 75.0762C327.972 71.6893 327.987 69.5638 327.683 68.6997C327.409 67.8108 326.639 67.3039 325.372 67.1789C323.94 67.0377 322.981 67.4574 322.495 68.4382C322.009 69.419 321.599 71.6029 321.265 74.9897L318.201 106.05C317.881 109.299 317.864 111.438 318.152 112.468C318.44 113.497 319.258 114.078 320.608 114.211C321.902 114.339 322.79 113.926 323.274 112.973C323.785 112.022 324.221 109.716 324.582 106.054L325.409 97.6692L342.798 99.3845L342.541 101.987C341.859 108.898 340.88 113.75 339.604 116.544C338.355 119.34 335.943 121.66 332.369 123.504C328.823 125.351 324.599 126.032 319.698 125.549C314.604 125.046 310.495 123.71 307.373 121.539C304.251 119.368 302.313 116.605 301.56 113.25C300.809 109.867 300.757 104.899 301.403 98.3456L303.331 78.8091C303.806 73.9903 304.327 70.3995 304.894 68.0365C305.463 65.6459 306.67 63.4156 308.515 61.3455C310.387 59.2781 312.831 57.7536 315.847 56.7722C318.894 55.766 322.303 55.4489 326.075 55.821C331.197 56.3263 335.326 57.7345 338.462 60.0457C341.599 62.3569 343.543 65.0511 344.296 68.1282C345.052 71.1777 345.121 75.8277 344.505 82.0783L343.877 88.4391ZM352.991 59.8941L381.986 62.7543L380.666 76.1366L369.059 74.9917L367.809 87.6719L378.671 88.7434L377.416 101.465L366.554 100.393L365.103 115.097L377.866 116.356L376.546 129.739L346.394 126.764L352.991 59.8941Z" fill="#FFD87E"/>
</svg>
