<svg width="6260" height="316" viewBox="0 0 6260 316" fill="none" xmlns="http://www.w3.org/2000/svg">
<path d="M153.955 0.713867C167.968 19.5193 181.861 38.3725 195.994 57.0822C220.56 89.6208 245.269 122.04 270.243 154.913C256.398 173.168 242.77 191.232 228.973 209.32C206.21 239.346 183.303 269.301 160.805 299.495C159.465 301.618 157.561 303.331 155.305 304.445C153.048 305.56 150.527 306.032 148.017 305.811C133.307 305.356 118.597 305.668 102.156 305.668L215.392 154.937C197.1 130.725 179.001 106.871 161.045 83.0652L101.915 5.3554C100.968 3.88779 100.163 2.33358 99.5117 0.713867L153.955 0.713867Z" fill="#050606"/>
<path d="M356.126 0.713867L423.693 90.2429C439.869 111.632 456.094 132.998 472.703 154.842C460.637 170.792 448.562 186.79 436.48 202.836C412.155 234.896 387.686 266.837 363.553 299.064C362.059 301.379 359.949 303.235 357.458 304.426C354.967 305.618 352.193 306.097 349.444 305.811C335.599 305.261 321.73 305.644 306.178 305.644L419.462 154.913C408.069 139.84 396.82 124.863 385.499 109.957C359.251 75.2975 332.899 40.6215 306.442 5.92962C305.289 4.25074 304.229 2.50948 303.27 0.713867L356.126 0.713867Z" fill="#050606"/>
<path d="M251.927 0.713867L368.985 154.937C347.184 183.647 325.719 212.071 304.086 240.399C288.799 260.544 273.584 280.737 257.984 300.643C255.64 303.373 252.322 305.089 248.73 305.428C235.582 305.954 222.29 305.643 207.435 305.643C245.677 254.778 283.054 205.156 320.743 154.913L203.733 0.713867H251.927Z" fill="#050606"/>
<path d="M48.2173 0.713867L125.134 102.66C138.21 119.958 151.43 137.208 164.795 154.937L119.51 214.607C97.8769 243.198 76.0757 271.741 54.6111 300.451C53.4524 302.249 51.8195 303.696 49.8906 304.633C47.9618 305.569 45.8114 305.96 43.6744 305.763C30.8389 305.428 18.0034 305.763 3.43723 305.763L116.577 155.033L0 0.713867H48.2173Z" fill="#050606"/>
<path d="M569.788 3.10645C583.801 21.9118 597.694 40.7651 611.827 59.4748C636.393 92.0134 661.102 124.432 686.076 157.306C672.231 175.561 658.507 193.625 644.806 211.712C622.043 241.739 599.136 271.693 576.638 301.887C575.298 304.01 573.394 305.723 571.138 306.838C568.881 307.952 566.36 308.425 563.851 308.204C549.14 307.749 534.43 308.06 517.989 308.06L631.225 157.33C612.885 133.093 594.834 109.24 576.758 85.5535C557.096 59.5705 537.426 33.6353 517.748 7.74798C516.801 6.28037 515.996 4.72616 515.345 3.10645H569.788Z" fill="#050606"/>
<path d="M771.958 3.10645L839.525 92.6352C855.701 114.024 871.926 135.39 888.535 157.234C876.469 173.184 864.394 189.182 852.312 205.228C827.987 237.288 803.518 269.228 779.385 301.456C777.891 303.77 775.781 305.627 773.29 306.818C770.799 308.009 768.025 308.489 765.276 308.203C751.431 307.652 737.562 308.035 722.01 308.035L835.294 157.305C823.901 142.232 812.652 127.255 801.331 112.35C775.083 77.6898 748.731 43.014 722.274 8.32218C721.121 6.6433 720.062 4.90205 719.102 3.10645H771.958Z" fill="#050606"/>
<path d="M667.76 3.10645L784.818 157.33C763.017 186.041 741.552 214.464 719.919 242.792C704.632 262.937 689.417 283.13 673.817 303.036C671.473 305.767 668.155 307.483 664.563 307.821C651.415 308.348 638.123 308.037 623.268 308.037C661.51 257.171 698.887 207.55 736.576 157.306L619.566 3.10645H667.76Z" fill="#050606"/>
<path d="M882.262 3.10645C896.275 21.9118 910.169 40.7651 924.302 59.4748C948.867 92.0134 973.577 124.432 998.551 157.306C984.706 175.561 970.981 193.625 957.28 211.712C934.518 241.739 911.611 271.693 889.113 301.887C887.772 304.01 885.869 305.723 883.612 306.838C881.356 307.952 878.834 308.425 876.325 308.204C861.615 307.749 846.904 308.06 830.463 308.06L943.7 157.33C925.36 133.093 907.308 109.24 889.233 85.5535C869.571 59.5705 849.901 33.6353 830.223 7.74798C829.275 6.28037 828.471 4.72616 827.819 3.10645H882.262Z" fill="#050606"/>
<path d="M980.234 3.10645L1097.29 157.33C1075.49 186.041 1054.03 214.464 1032.39 242.792C1017.11 262.937 1001.89 283.13 986.291 303.036C983.948 305.767 980.629 307.483 977.037 307.821C963.889 308.348 950.597 308.037 935.743 308.037C973.985 257.171 1011.36 207.55 1049.05 157.306L932.041 3.10645H980.234Z" fill="#050606"/>
<path d="M464.049 3.10645L540.966 105.053C554.042 122.351 567.166 139.601 580.627 157.329L535.342 216.999C513.709 245.59 491.908 274.133 470.443 302.844C469.284 304.642 467.652 306.088 465.723 307.025C463.794 307.962 461.643 308.353 459.506 308.155C446.671 307.82 433.835 308.155 419.269 308.155L532.409 157.425L415.832 3.10645H464.049Z" fill="#050606"/>
<path d="M1189.93 3.10645C1203.94 21.9118 1217.84 40.7651 1231.97 59.4748C1256.54 92.0134 1281.25 124.432 1306.22 157.306C1292.37 175.561 1278.65 193.625 1264.95 211.712C1242.19 241.739 1219.28 271.693 1196.78 301.887C1195.44 304.01 1193.54 305.723 1191.28 306.838C1189.02 307.952 1186.5 308.425 1183.99 308.204C1169.28 307.749 1154.57 308.06 1138.13 308.06L1251.37 157.33C1233.03 133.093 1214.98 109.24 1196.9 85.5535C1177.24 59.5705 1157.57 33.6353 1137.89 7.74798C1136.94 6.28037 1136.14 4.72616 1135.49 3.10645H1189.93Z" fill="#050606"/>
<path d="M1392.1 3.10645L1459.67 92.6352C1475.85 114.024 1492.07 135.39 1508.68 157.234C1496.61 173.184 1484.54 189.182 1472.46 205.228C1448.13 237.288 1423.66 269.228 1399.53 301.456C1398.04 303.77 1395.93 305.627 1393.43 306.818C1390.94 308.009 1388.17 308.489 1385.42 308.203C1371.57 307.652 1357.71 308.035 1342.15 308.035L1455.44 157.305C1444.04 142.232 1432.8 127.255 1421.47 112.35C1395.23 77.6898 1368.87 43.014 1342.42 8.32218C1341.26 6.6433 1340.21 4.90205 1339.25 3.10645H1392.1Z" fill="#050606"/>
<path d="M1287.9 3.10645L1404.96 157.33C1383.16 186.041 1361.69 214.464 1340.06 242.792C1324.77 262.937 1309.56 283.13 1293.96 303.036C1291.62 305.767 1288.3 307.483 1284.71 307.821C1271.56 308.348 1258.27 308.037 1243.41 308.037C1281.65 257.171 1319.03 207.55 1356.72 157.306L1239.71 3.10645H1287.9Z" fill="#050606"/>
<path d="M1084.19 3.10645L1161.11 105.053C1174.19 122.351 1187.31 139.601 1200.77 157.329L1155.49 216.999C1133.85 245.59 1112.05 274.133 1090.59 302.844C1089.43 304.642 1087.8 306.088 1085.87 307.025C1083.94 307.962 1081.79 308.353 1079.65 308.155C1066.81 307.82 1053.98 308.155 1039.41 308.155L1152.55 157.425L1035.98 3.10645H1084.19Z" fill="#050606"/>
<path d="M1605.76 5.49902C1619.78 24.3044 1633.67 43.1575 1647.8 61.8672C1672.37 94.4057 1697.08 126.825 1722.05 159.698C1708.21 177.953 1694.48 196.017 1680.78 214.104C1658.02 244.131 1635.11 274.085 1612.61 304.279C1611.27 306.402 1609.37 308.115 1607.11 309.229C1604.86 310.344 1602.34 310.817 1599.83 310.595C1585.12 310.141 1570.41 310.452 1553.96 310.452L1667.2 159.722C1648.86 135.486 1630.81 111.632 1612.73 87.9458C1593.07 61.9629 1573.4 36.0278 1553.72 10.1405C1552.78 8.67294 1551.97 7.11873 1551.32 5.49902H1605.76Z" fill="#050606"/>
<path d="M1807.93 5.49902L1875.5 95.0278C1891.68 116.417 1907.9 137.782 1924.51 159.626C1912.44 175.577 1900.37 191.575 1888.29 207.621C1863.96 239.681 1839.49 271.621 1815.36 303.848C1813.87 306.163 1811.76 308.019 1809.27 309.211C1806.77 310.402 1804 310.881 1801.25 310.595C1787.41 310.045 1773.54 310.428 1757.99 310.428L1871.27 159.698C1859.88 144.625 1848.63 129.648 1837.31 114.742C1811.06 80.0824 1784.71 45.4065 1758.25 10.7148C1757.1 9.03588 1756.04 7.29463 1755.08 5.49902H1807.93Z" fill="#050606"/>
<path d="M1703.74 5.49902L1820.79 159.722C1798.99 188.432 1777.53 216.855 1755.89 245.183C1740.61 265.328 1725.39 285.521 1709.79 305.427C1707.45 308.157 1704.13 309.874 1700.54 310.212C1687.39 310.738 1674.1 310.427 1659.24 310.427C1697.49 259.562 1734.86 209.941 1772.55 159.698L1655.54 5.49902H1703.74Z" fill="#050606"/>
<path d="M1918.24 5.49902C1932.25 24.3044 1946.15 43.1575 1960.28 61.8672C1984.84 94.4057 2009.55 126.825 2034.53 159.698C2020.68 177.953 2006.96 196.017 1993.26 214.104C1970.49 244.131 1947.59 274.085 1925.09 304.279C1923.75 306.402 1921.85 308.115 1919.59 309.229C1917.33 310.344 1914.81 310.817 1912.3 310.595C1897.59 310.141 1882.88 310.452 1866.44 310.452L1979.68 159.722C1961.34 135.486 1943.28 111.632 1925.21 87.9458C1905.55 61.9629 1885.88 36.0278 1866.2 10.1405C1865.25 8.67294 1864.45 7.11873 1863.8 5.49902H1918.24Z" fill="#050606"/>
<path d="M2016.21 5.49902L2133.27 159.722C2111.47 188.432 2090 216.855 2068.37 245.183C2053.08 265.328 2037.87 285.521 2022.27 305.427C2019.92 308.157 2016.61 309.874 2013.01 310.212C1999.87 310.738 1986.57 310.427 1971.72 310.427C2009.96 259.562 2047.34 209.941 2085.03 159.698L1968.02 5.49902H2016.21Z" fill="#050606"/>
<path d="M1500.03 5.49902L1576.94 107.445C1590.02 124.743 1603.14 141.993 1616.6 159.722L1571.32 219.392C1549.69 247.983 1527.88 276.526 1506.42 305.236C1505.26 307.034 1503.63 308.481 1501.7 309.418C1499.77 310.354 1497.62 310.745 1495.48 310.548C1482.65 310.213 1469.81 310.548 1455.25 310.548L1568.39 159.818L1451.81 5.49902H1500.03Z" fill="#050606"/>
<path d="M2221.1 3.10645C2235.11 21.9118 2249.01 40.7651 2263.14 59.4748C2287.7 92.0134 2312.41 124.432 2337.39 157.306C2323.54 175.561 2309.82 193.625 2296.12 211.712C2273.35 241.739 2250.45 271.693 2227.95 301.887C2226.61 304.01 2224.71 305.723 2222.45 306.838C2220.19 307.952 2217.67 308.425 2215.16 308.204C2200.45 307.749 2185.74 308.06 2169.3 308.06L2282.54 157.33C2264.2 133.093 2246.15 109.24 2228.07 85.5535C2208.41 59.5705 2188.74 33.6353 2169.06 7.74798C2168.11 6.28037 2167.31 4.72616 2166.66 3.10645H2221.1Z" fill="#050606"/>
<path d="M2423.27 3.10645L2490.84 92.6352C2507.01 114.024 2523.24 135.39 2539.85 157.234C2527.78 173.184 2515.71 189.182 2503.62 205.228C2479.3 237.288 2454.83 269.228 2430.7 301.456C2429.2 303.77 2427.09 305.627 2424.6 306.818C2422.11 308.009 2419.34 308.489 2416.59 308.203C2402.74 307.652 2388.87 308.035 2373.32 308.035L2486.61 157.305C2475.21 142.232 2463.96 127.255 2452.64 112.35C2426.39 77.6898 2400.04 43.014 2373.59 8.32218C2372.43 6.6433 2371.37 4.90205 2370.41 3.10645H2423.27Z" fill="#050606"/>
<path d="M2319.07 3.10645L2436.13 157.33C2414.33 186.041 2392.86 214.464 2371.23 242.792C2355.94 262.937 2340.73 283.13 2325.13 303.036C2322.78 305.767 2319.47 307.483 2315.87 307.821C2302.73 308.348 2289.43 308.037 2274.58 308.037C2312.82 257.171 2350.2 207.55 2387.89 157.306L2270.88 3.10645H2319.07Z" fill="#050606"/>
<path d="M2115.36 3.10645L2192.28 105.053C2205.35 122.351 2218.48 139.601 2231.94 157.329L2186.65 216.999C2165.02 245.59 2143.22 274.133 2121.76 302.844C2120.6 304.642 2118.96 306.088 2117.04 307.025C2115.11 307.962 2112.96 308.353 2110.82 308.155C2097.98 307.82 2085.15 308.155 2070.58 308.155L2183.72 157.425L2067.14 3.10645H2115.36Z" fill="#050606"/>
<path d="M2636.93 5.49902C2650.94 24.3044 2664.84 43.1575 2678.97 61.8672C2703.54 94.4057 2728.25 126.825 2753.22 159.698C2739.37 177.953 2725.65 196.017 2711.95 214.104C2689.19 244.131 2666.28 274.085 2643.78 304.279C2642.44 306.402 2640.54 308.115 2638.28 309.229C2636.03 310.344 2633.5 310.817 2630.99 310.595C2616.28 310.141 2601.57 310.452 2585.13 310.452L2698.37 159.722C2680.03 135.486 2661.98 111.632 2643.9 87.9458C2624.24 62.0267 2604.57 36.1394 2584.89 10.2841C2583.94 8.81649 2583.14 7.26228 2582.49 5.64258L2636.93 5.49902Z" fill="#050606"/>
<path d="M2839.1 5.49902L2906.67 95.0278C2922.85 116.417 2939.07 137.782 2955.68 159.626C2943.61 175.577 2931.54 191.575 2919.46 207.621C2895.13 239.681 2870.66 271.621 2846.53 303.848C2845.04 306.163 2842.93 308.019 2840.43 309.211C2837.94 310.402 2835.17 310.881 2832.42 310.595C2818.58 310.045 2804.71 310.428 2789.15 310.428L2902.44 159.698C2891.05 144.625 2879.8 129.648 2868.48 114.742C2842.23 80.0824 2815.88 45.4065 2789.42 10.7148C2788.27 9.03588 2787.21 7.29463 2786.25 5.49902H2839.1Z" fill="#050606"/>
<path d="M2734.9 5.49902L2851.96 159.722C2830.16 188.432 2808.7 216.855 2787.06 245.183C2771.78 265.328 2756.56 285.521 2740.96 305.427C2738.62 308.157 2735.3 309.874 2731.71 310.212C2718.56 310.738 2705.27 310.427 2690.41 310.427C2728.65 259.562 2766.03 209.941 2803.72 159.698L2686.71 5.49902H2734.9Z" fill="#050606"/>
<path d="M2949.41 5.49902C2963.42 24.3044 2977.31 43.1575 2991.45 61.8672C3016.01 94.4057 3040.72 126.825 3065.7 159.698C3051.85 177.953 3038.13 196.017 3024.42 214.104C3001.66 244.131 2978.76 274.085 2956.26 304.279C2954.92 306.402 2953.01 308.115 2950.76 309.229C2948.5 310.344 2945.98 310.817 2943.47 310.595C2928.76 310.141 2914.05 310.452 2897.61 310.452L3010.84 159.722C2992.5 135.486 2974.45 111.632 2956.38 87.9458C2936.72 62.0267 2917.05 36.1394 2897.37 10.2841C2896.42 8.81649 2895.62 7.26228 2894.96 5.64258L2949.41 5.49902Z" fill="#050606"/>
<path d="M3047.38 5.49902L3164.44 159.722C3142.64 188.432 3121.17 216.855 3099.54 245.183C3084.25 265.328 3069.04 285.521 3053.44 305.427C3051.09 308.157 3047.77 309.874 3044.18 310.212C3031.03 310.738 3017.74 310.427 3002.89 310.427C3041.13 259.562 3078.51 209.941 3116.2 159.698L2999.19 5.49902H3047.38Z" fill="#050606"/>
<path d="M2531.19 5.49902L2608.11 107.445C2621.19 124.743 2634.31 141.993 2647.77 159.722L2602.49 219.392C2580.85 247.983 2559.05 276.526 2537.59 305.236C2536.43 307.034 2534.8 308.481 2532.87 309.418C2530.94 310.354 2528.79 310.745 2526.65 310.548C2513.82 310.213 2500.98 310.548 2486.41 310.548L2599.6 159.937L2482.98 5.49902H2531.19Z" fill="#050606"/>
<path d="M3248.52 5.49902C3262.53 24.3044 3276.42 43.1575 3290.56 61.8672C3315.12 94.4057 3339.83 126.825 3364.81 159.698C3350.96 177.953 3337.33 196.017 3323.54 214.104C3300.77 244.131 3277.87 274.085 3255.37 304.279C3254.03 306.402 3252.12 308.115 3249.87 309.229C3247.61 310.344 3245.09 310.817 3242.58 310.595C3227.87 310.141 3213.16 310.452 3196.72 310.452L3309.95 159.722C3291.66 135.509 3273.56 111.656 3255.61 87.9458C3235.85 62.0267 3216.14 36.1235 3196.48 10.2362C3195.53 8.76864 3194.73 7.21443 3194.07 5.59472L3248.52 5.49902Z" fill="#050606"/>
<path d="M3450.69 5.49902L3518.26 95.0278C3534.43 116.417 3550.66 137.782 3567.27 159.626C3555.2 175.577 3543.13 191.575 3531.04 207.621C3506.72 239.681 3482.25 271.621 3458.12 303.848C3456.62 306.163 3454.51 308.019 3452.02 309.211C3449.53 310.402 3446.75 310.881 3444.01 310.595C3430.16 310.045 3416.29 310.428 3400.74 310.428L3514.02 159.698C3502.63 144.625 3491.38 129.648 3480.06 114.742C3453.81 80.0824 3427.46 45.4065 3401.01 10.7148C3399.85 9.03588 3398.79 7.29463 3397.83 5.49902H3450.69Z" fill="#050606"/>
<path d="M3346.49 5.49902L3463.67 159.722C3441.87 188.432 3420.4 216.855 3398.77 245.183C3383.48 265.328 3368.27 285.521 3352.67 305.427C3350.32 308.153 3347 309.869 3343.41 310.212C3330.26 310.738 3316.97 310.427 3302.12 310.427C3340.36 259.562 3377.74 209.941 3415.43 159.698L3298.3 5.49902H3346.49Z" fill="#050606"/>
<path d="M3142.78 5.49902L3219.7 107.445C3232.77 124.743 3245.9 141.993 3259.36 159.722L3214.07 219.392C3192.44 247.983 3170.64 276.526 3149.17 305.236C3148.01 307.033 3146.38 308.478 3144.45 309.414C3142.52 310.351 3140.37 310.743 3138.24 310.548C3125.4 310.213 3112.57 310.548 3098 310.548L3211.14 159.818L3094.56 5.49902H3142.78Z" fill="#050606"/>
<path d="M3664.35 7.8916C3678.36 26.6969 3692.26 45.5501 3706.39 64.2598C3730.96 96.7982 3755.66 129.217 3780.64 162.091C3766.79 180.346 3753.07 198.409 3739.37 216.497C3716.61 246.523 3693.7 276.478 3671.2 306.672C3669.86 308.794 3667.96 310.508 3665.7 311.622C3663.44 312.737 3660.92 313.209 3658.41 312.988C3643.7 312.533 3628.99 312.844 3612.55 312.844L3725.79 162.114C3707.45 137.878 3689.4 114.025 3671.32 90.3384C3651.66 64.3555 3631.99 38.4204 3612.31 12.5331C3611.36 11.0655 3610.56 9.51131 3609.91 7.8916H3664.35Z" fill="#050606"/>
<path d="M3866.52 7.8916C3888.95 37.7345 3911.48 67.5774 3934.09 97.4203C3950.26 118.81 3966.49 140.175 3983.1 162.019C3971.03 177.969 3958.96 193.967 3946.87 210.013C3922.55 242.073 3898.08 274.013 3873.95 306.241C3872.45 308.556 3870.34 310.412 3867.85 311.603C3865.36 312.794 3862.59 313.274 3859.84 312.988C3845.99 312.438 3832.12 312.82 3816.57 312.82L3929.86 162.091C3918.46 147.018 3907.21 132.04 3895.89 117.135C3869.65 82.475 3843.29 47.7991 3816.84 13.1073C3815.68 11.4285 3814.62 9.68721 3813.66 7.8916H3866.52Z" fill="#050606"/>
<path d="M3762.32 7.8916L3879.5 162.115C3857.7 190.825 3836.23 219.249 3814.6 247.576C3799.31 267.721 3784.1 287.915 3768.5 307.82C3766.15 310.547 3762.84 312.262 3759.25 312.606C3746.1 313.132 3732.81 312.821 3717.95 312.821C3756.19 261.955 3793.57 212.334 3831.26 162.091L3714.13 7.8916H3762.32Z" fill="#050606"/>
<path d="M3976.83 7.8916C3990.84 26.6969 4004.73 45.5501 4018.87 64.2598C4043.43 96.7982 4068.14 129.217 4093.11 162.091C4079.27 180.346 4065.54 198.409 4051.84 216.497C4029.08 246.523 4006.17 276.478 3983.68 306.672C3982.34 308.794 3980.43 310.508 3978.18 311.622C3975.92 312.737 3973.4 313.209 3970.89 312.988C3956.18 312.533 3941.47 312.844 3925.03 312.844L4038.26 162.114C4019.92 137.878 4001.87 114.025 3983.8 90.3384C3964.13 64.3555 3944.46 38.4204 3924.79 12.5331C3923.84 11.0655 3923.03 9.51131 3922.38 7.8916H3976.83Z" fill="#050606"/>
<path d="M4074.8 7.8916L4191.98 162.115C4170.17 190.825 4148.71 219.249 4127.08 247.576C4111.79 267.721 4096.57 287.915 4080.97 307.82C4078.63 310.547 4075.31 312.262 4071.72 312.606C4058.57 313.132 4045.28 312.821 4030.43 312.821C4068.67 261.955 4106.04 212.334 4143.73 162.091L4026.6 7.8916H4074.8Z" fill="#050606"/>
<path d="M3558.61 7.8916L3635.53 109.837C3648.61 127.135 3661.73 144.386 3675.19 162.114L3629.91 221.784C3608.27 250.375 3586.47 278.918 3565.01 307.628C3563.85 309.424 3562.21 310.869 3560.28 311.806C3558.36 312.742 3556.21 313.135 3554.07 312.94C3541.23 312.605 3528.4 312.94 3513.83 312.94L3626.97 162.21L3510.4 7.8916H3558.61Z" fill="#050606"/>
<path d="M4284.49 7.8916C4298.51 26.6969 4312.4 45.5501 4326.53 64.2598C4351.1 96.7982 4375.81 129.217 4400.78 162.091C4386.94 180.346 4373.21 198.409 4359.51 216.497C4336.75 246.523 4313.84 276.478 4291.34 306.672C4290 308.794 4288.1 310.508 4285.84 311.622C4283.59 312.737 4281.06 313.209 4278.56 312.988C4263.85 312.533 4249.13 312.844 4232.69 312.844L4345.93 162.114C4327.59 137.878 4309.54 114.025 4291.46 90.3384C4271.8 64.3555 4252.13 38.4204 4232.45 12.5331C4231.51 11.0655 4230.7 9.51131 4230.05 7.8916H4284.49Z" fill="#050606"/>
<path d="M4486.66 7.8916C4509.1 37.7345 4531.62 67.5774 4554.23 97.4203C4570.41 118.81 4586.63 140.175 4603.24 162.019C4591.18 177.969 4579.1 193.967 4567.02 210.013C4542.69 242.073 4518.22 274.013 4494.09 306.241C4492.6 308.556 4490.49 310.412 4488 311.603C4485.5 312.794 4482.73 313.274 4479.98 312.988C4466.14 312.438 4452.27 312.82 4436.72 312.82L4550 162.091C4538.61 147.018 4527.36 132.04 4516.04 117.135C4489.79 82.475 4463.44 47.7991 4436.98 13.1073C4435.83 11.4285 4434.77 9.68721 4433.81 7.8916H4486.66Z" fill="#050606"/>
<path d="M4382.47 7.8916L4499.64 162.115C4477.84 190.825 4456.38 219.249 4434.74 247.576C4419.46 267.721 4404.24 287.915 4388.64 307.82C4386.3 310.547 4382.98 312.262 4379.39 312.606C4366.24 313.132 4352.95 312.821 4338.09 312.821C4376.34 261.955 4413.71 212.334 4451.4 162.091L4334.27 7.8916H4382.47Z" fill="#050606"/>
<path d="M4178.76 7.8916L4255.67 109.837C4268.75 127.135 4281.87 144.386 4295.33 162.114L4250.05 221.784C4228.42 250.375 4206.61 278.918 4185.15 307.628C4183.99 309.424 4182.36 310.869 4180.43 311.806C4178.5 312.742 4176.35 313.135 4174.21 312.94C4161.38 312.605 4148.54 312.94 4133.98 312.94L4247.12 162.21L4130.54 7.8916H4178.76Z" fill="#050606"/>
<path d="M4700.33 10.2842C4714.34 29.0896 4728.23 47.9428 4742.37 66.6525C4766.93 99.1911 4791.64 131.61 4816.61 164.484C4802.77 182.739 4789.04 200.802 4775.34 218.89C4752.58 248.917 4729.67 278.871 4707.18 309.065C4705.84 311.188 4703.93 312.901 4701.68 314.016C4699.42 315.13 4696.9 315.603 4694.39 315.381C4679.68 314.927 4664.97 315.238 4648.53 315.238L4761.76 164.508C4743.42 140.271 4725.37 116.417 4707.3 92.7312C4687.63 66.7482 4667.96 40.813 4648.29 14.9257C4647.34 13.4581 4646.53 11.9039 4645.88 10.2842H4700.33Z" fill="#050606"/>
<path d="M4902.5 10.2842C4924.93 40.1111 4947.45 69.9541 4970.06 99.8129C4986.24 121.202 5002.46 142.568 5019.07 164.411C5007.01 180.362 4994.93 196.36 4982.85 212.406C4958.53 244.466 4934.06 276.406 4909.92 308.634C4908.43 310.948 4906.32 312.804 4903.83 313.996C4901.34 315.187 4898.56 315.666 4895.81 315.381C4881.97 314.83 4868.1 315.213 4852.55 315.213L4965.83 164.483C4954.44 149.41 4943.19 134.433 4931.87 119.527C4905.62 84.8675 4879.27 50.1917 4852.81 15.4999C4851.66 13.821 4850.6 12.0798 4849.64 10.2842H4902.5Z" fill="#050606"/>
<path d="M4798.3 10.2842L4915.48 164.507C4893.67 193.217 4872.21 221.641 4850.58 249.968C4835.29 270.113 4820.07 290.306 4804.47 310.212C4802.13 312.939 4798.81 314.654 4795.22 314.997C4782.07 315.523 4768.78 315.212 4753.93 315.212C4792.17 264.347 4829.54 214.726 4867.23 164.483L4750.1 10.2842H4798.3Z" fill="#050606"/>
<path d="M5012.8 10.2842C5026.81 29.0896 5040.71 47.9428 5054.84 66.6525C5079.41 99.1911 5104.12 131.61 5129.09 164.484C5115.25 182.739 5101.52 200.802 5087.82 218.89C5065.06 248.917 5042.15 278.871 5019.65 309.065C5018.31 311.188 5016.41 312.901 5014.15 314.016C5011.89 315.13 5009.37 315.603 5006.86 315.381C4992.15 314.927 4977.44 315.238 4961 315.238L5074.24 164.508C5055.9 140.271 5037.85 116.417 5019.77 92.7312C5000.11 66.7482 4980.44 40.813 4960.76 14.9257C4959.81 13.4581 4959.01 11.9039 4958.36 10.2842H5012.8Z" fill="#050606"/>
<path d="M5110.77 10.2842L5227.95 164.507C5206.15 193.217 5184.69 221.641 5163.05 249.968C5147.77 270.113 5132.55 290.306 5116.95 310.212C5114.6 312.939 5111.29 314.654 5107.7 314.997C5094.55 315.523 5081.26 315.212 5066.4 315.212C5104.64 264.347 5142.02 214.726 5179.71 164.483L5062.58 10.2842H5110.77Z" fill="#050606"/>
<path d="M4594.59 10.2842L4671.51 112.23C4684.58 129.528 4697.71 146.778 4711.17 164.507L4665.88 224.177C4644.25 252.767 4622.45 281.31 4600.98 310.021C4599.82 311.817 4598.19 313.262 4596.26 314.198C4594.33 315.135 4592.18 315.527 4590.05 315.332C4577.21 314.997 4564.37 315.332 4549.81 315.332L4662.95 164.603L4546.37 10.2842H4594.59Z" fill="#050606"/>
<path d="M5315.66 7.8916C5329.67 26.6969 5343.57 45.5501 5357.7 64.2598C5382.27 96.7982 5406.98 129.217 5431.95 162.091C5418.11 180.346 5404.38 198.409 5390.68 216.497C5367.92 246.523 5345.01 276.478 5322.51 306.672C5321.17 308.794 5319.27 310.508 5317.01 311.622C5314.76 312.737 5312.23 313.209 5309.72 312.988C5295.01 312.533 5280.3 312.844 5263.86 312.844L5377.1 162.114C5358.76 137.878 5340.71 114.025 5322.63 90.3384C5302.97 64.3555 5283.3 38.4204 5263.62 12.5331C5262.67 11.0655 5261.87 9.51131 5261.22 7.8916H5315.66Z" fill="#050606"/>
<path d="M5517.83 7.8916C5540.27 37.7345 5562.79 67.5774 5585.4 97.4203C5601.58 118.81 5617.8 140.175 5634.41 162.019C5622.34 177.969 5610.27 193.967 5598.19 210.013C5573.86 242.073 5549.39 274.013 5525.26 306.241C5523.77 308.556 5521.66 310.412 5519.16 311.603C5516.67 312.794 5513.9 313.274 5511.15 312.988C5497.31 312.438 5483.44 312.82 5467.88 312.82L5581.17 162.091C5569.78 147.018 5558.53 132.04 5547.21 117.135C5520.96 82.475 5494.6 47.7991 5468.15 13.1073C5466.99 11.4285 5465.94 9.68721 5464.98 7.8916H5517.83Z" fill="#050606"/>
<path d="M5413.63 7.8916L5530.81 162.115C5509.01 190.825 5487.55 219.249 5465.91 247.576C5450.63 267.721 5435.41 287.915 5419.81 307.82C5417.47 310.547 5414.15 312.262 5410.56 312.606C5397.41 313.132 5384.12 312.821 5369.26 312.821C5407.51 261.955 5444.88 212.334 5482.57 162.091L5365.44 7.8916H5413.63Z" fill="#050606"/>
<path d="M5209.92 7.8916L5286.84 109.837C5299.92 127.135 5313.04 144.386 5326.5 162.114L5281.22 221.784C5259.58 250.375 5237.78 278.918 5216.32 307.628C5215.16 309.424 5213.52 310.869 5211.6 311.806C5209.67 312.742 5207.52 313.135 5205.38 312.94C5192.55 312.605 5179.71 312.94 5165.15 312.94L5278.28 162.21L5161.71 7.8916H5209.92Z" fill="#050606"/>
<path d="M5731.49 10.2842C5745.51 29.0896 5759.4 47.9428 5773.53 66.6525C5798.1 99.1911 5822.81 131.61 5847.78 164.484C5833.94 182.739 5820.21 200.802 5806.51 218.89C5783.75 248.917 5760.84 278.871 5738.34 309.065C5737 311.188 5735.1 312.901 5732.84 314.016C5730.59 315.13 5728.07 315.603 5725.56 315.381C5710.85 314.927 5696.14 315.238 5679.69 315.238L5792.93 164.508C5774.59 140.271 5756.54 116.417 5738.46 92.7312L5679.45 15.0693C5678.51 13.6017 5677.7 12.0474 5677.05 10.4277L5731.49 10.2842Z" fill="#050606"/>
<path d="M5933.67 10.2842C5956.1 40.1111 5978.62 69.9541 6001.23 99.8129C6017.41 121.202 6033.63 142.568 6050.24 164.411C6038.18 180.362 6026.1 196.36 6014.02 212.406C5989.69 244.466 5965.22 276.406 5941.09 308.634C5939.6 310.948 5937.49 312.804 5935 313.996C5932.51 315.187 5929.73 315.666 5926.98 315.381C5913.14 314.83 5899.27 315.213 5883.72 315.213L5997 164.483C5985.61 149.41 5974.36 134.433 5963.04 119.527C5936.79 84.8675 5910.44 50.1917 5883.98 15.4999C5882.83 13.821 5881.77 12.0798 5880.81 10.2842H5933.67Z" fill="#050606"/>
<path d="M5829.47 10.2842L5946.64 164.507C5924.84 193.217 5903.38 221.641 5881.75 249.968C5866.46 270.113 5851.24 290.306 5835.64 310.212C5833.3 312.939 5829.98 314.654 5826.39 314.997C5813.24 315.523 5799.95 315.212 5785.09 315.212C5823.34 264.347 5860.71 214.726 5898.4 164.483L5781.27 10.2842H5829.47Z" fill="#050606"/>
<path d="M6043.97 10.2842C6057.98 29.0896 6071.88 47.9428 6086.01 66.6525C6110.57 99.1911 6135.28 131.61 6160.26 164.484C6146.41 182.739 6132.69 200.802 6118.99 218.89C6096.22 248.917 6073.32 278.871 6050.82 309.065C6049.48 311.188 6047.58 312.901 6045.32 314.016C6043.06 315.13 6040.54 315.603 6038.03 315.381C6023.32 314.927 6008.61 315.238 5992.17 315.238L6105.41 164.508C6087.07 140.271 6069.01 116.417 6050.94 92.7312L5991.93 15.0693C5990.98 13.6017 5990.18 12.0474 5989.53 10.4277L6043.97 10.2842Z" fill="#050606"/>
<path d="M6141.94 10.2842L6259.12 164.507C6237.32 193.217 6215.85 221.641 6194.22 249.968C6178.93 270.113 6163.72 290.306 6148.12 310.212C6145.77 312.939 6142.45 314.654 6138.86 314.997C6125.72 315.523 6112.42 315.212 6097.57 315.212C6135.81 264.347 6173.19 214.726 6210.88 164.483L6093.75 10.2842H6141.94Z" fill="#050606"/>
<path d="M5625.76 10.2842L5702.67 112.23C5715.75 129.528 5728.87 146.778 5742.33 164.507L5697.05 224.177C5675.42 252.767 5653.61 281.31 5632.15 310.021C5630.99 311.817 5629.36 313.262 5627.43 314.198C5625.5 315.135 5623.35 315.527 5621.21 315.332C5608.38 314.997 5595.54 315.332 5580.98 315.332L5694.26 164.722L5577.54 10.2842H5625.76Z" fill="#050606"/>
</svg>
