<svg width="668" height="69" viewBox="0 0 668 69" fill="none" xmlns="http://www.w3.org/2000/svg">
<path d="M23.8281 26.4365H14.2822V23.5068C14.2822 22.1396 14.1602 21.2689 13.916 20.8945C13.6719 20.5202 13.265 20.333 12.6953 20.333C12.0768 20.333 11.6048 20.5853 11.2793 21.0898C10.9701 21.5944 10.8154 22.3594 10.8154 23.3848C10.8154 24.7031 10.9945 25.696 11.3525 26.3633C11.6943 27.0306 12.6628 27.8363 14.2578 28.7803C18.8314 31.4984 21.7122 33.7282 22.9004 35.4697C24.0885 37.2113 24.6826 40.0189 24.6826 43.8926C24.6826 46.7083 24.349 48.7835 23.6816 50.1182C23.0306 51.4528 21.7611 52.5758 19.873 53.4873C17.985 54.3825 15.7878 54.8301 13.2812 54.8301C10.5306 54.8301 8.17871 54.3092 6.22559 53.2676C4.28874 52.2259 3.01921 50.8994 2.41699 49.2881C1.81478 47.6768 1.51367 45.39 1.51367 42.4277V39.8398H11.0596V44.6494C11.0596 46.1305 11.1898 47.0827 11.4502 47.5059C11.7269 47.929 12.207 48.1406 12.8906 48.1406C13.5742 48.1406 14.0788 47.8721 14.4043 47.335C14.7461 46.7979 14.917 46.0003 14.917 44.9424C14.917 42.6149 14.5996 41.0931 13.9648 40.377C13.3138 39.6608 11.7106 38.4645 9.15527 36.7881C6.59993 35.0954 4.90723 33.8665 4.07715 33.1016C3.24707 32.3366 2.55534 31.2786 2.00195 29.9277C1.46484 28.5768 1.19629 26.8516 1.19629 24.752C1.19629 21.7246 1.57878 19.5111 2.34375 18.1113C3.125 16.7116 4.37826 15.6211 6.10352 14.8398C7.82878 14.0423 9.91211 13.6436 12.3535 13.6436C15.0228 13.6436 17.2933 14.0749 19.165 14.9375C21.0531 15.8001 22.2982 16.8906 22.9004 18.209C23.5189 19.5111 23.8281 21.7327 23.8281 24.874V26.4365ZM28.6797 14.4736H45.8184V22.3838H38.958V29.8789H45.3789V37.3984H38.958V46.0898H46.502V54H28.6797V14.4736ZM50.2305 14.4736H67.3691V22.3838H60.5088V29.8789H66.9297V37.3984H60.5088V46.0898H68.0527V54H50.2305V14.4736ZM103.146 26.4365H93.6006V23.5068C93.6006 22.1396 93.4785 21.2689 93.2344 20.8945C92.9902 20.5202 92.5833 20.333 92.0137 20.333C91.3952 20.333 90.9232 20.5853 90.5977 21.0898C90.2884 21.5944 90.1338 22.3594 90.1338 23.3848C90.1338 24.7031 90.3128 25.696 90.6709 26.3633C91.0127 27.0306 91.9811 27.8363 93.5762 28.7803C98.1497 31.4984 101.031 33.7282 102.219 35.4697C103.407 37.2113 104.001 40.0189 104.001 43.8926C104.001 46.7083 103.667 48.7835 103 50.1182C102.349 51.4528 101.079 52.5758 99.1914 53.4873C97.3034 54.3825 95.1061 54.8301 92.5996 54.8301C89.849 54.8301 87.4971 54.3092 85.5439 53.2676C83.6071 52.2259 82.3376 50.8994 81.7354 49.2881C81.1331 47.6768 80.832 45.39 80.832 42.4277V39.8398H90.3779V44.6494C90.3779 46.1305 90.5081 47.0827 90.7686 47.5059C91.0452 47.929 91.5254 48.1406 92.209 48.1406C92.8926 48.1406 93.3971 47.8721 93.7227 47.335C94.0645 46.7979 94.2354 46.0003 94.2354 44.9424C94.2354 42.6149 93.918 41.0931 93.2832 40.377C92.6322 39.6608 91.029 38.4645 88.4736 36.7881C85.9183 35.0954 84.2256 33.8665 83.3955 33.1016C82.5654 32.3366 81.8737 31.2786 81.3203 29.9277C80.7832 28.5768 80.5146 26.8516 80.5146 24.752C80.5146 21.7246 80.8971 19.5111 81.6621 18.1113C82.4434 16.7116 83.6966 15.6211 85.4219 14.8398C87.1471 14.0423 89.2305 13.6436 91.6719 13.6436C94.3411 13.6436 96.6117 14.0749 98.4834 14.9375C100.371 15.8001 101.617 16.8906 102.219 18.209C102.837 19.5111 103.146 21.7327 103.146 24.874V26.4365ZM118.276 14.4736V54H107.998V14.4736H118.276ZM143.855 14.4736V22.3838H137.752V54H127.474V22.3838H121.395V14.4736H143.855ZM146.949 14.4736H164.088V22.3838H157.228V29.8789H163.648V37.3984H157.228V46.0898H164.771V54H146.949V14.4736Z" fill="black"/>
<path d="M410.828 26.4365H401.282V23.5068C401.282 22.1396 401.16 21.2689 400.916 20.8945C400.672 20.5202 400.265 20.333 399.695 20.333C399.077 20.333 398.605 20.5853 398.279 21.0898C397.97 21.5944 397.815 22.3594 397.815 23.3848C397.815 24.7031 397.994 25.696 398.353 26.3633C398.694 27.0306 399.663 27.8363 401.258 28.7803C405.831 31.4984 408.712 33.7282 409.9 35.4697C411.089 37.2113 411.683 40.0189 411.683 43.8926C411.683 46.7083 411.349 48.7835 410.682 50.1182C410.031 51.4528 408.761 52.5758 406.873 53.4873C404.985 54.3825 402.788 54.8301 400.281 54.8301C397.531 54.8301 395.179 54.3092 393.226 53.2676C391.289 52.2259 390.019 50.8994 389.417 49.2881C388.815 47.6768 388.514 45.39 388.514 42.4277V39.8398H398.06V44.6494C398.06 46.1305 398.19 47.0827 398.45 47.5059C398.727 47.929 399.207 48.1406 399.891 48.1406C400.574 48.1406 401.079 47.8721 401.404 47.335C401.746 46.7979 401.917 46.0003 401.917 44.9424C401.917 42.6149 401.6 41.0931 400.965 40.377C400.314 39.6608 398.711 38.4645 396.155 36.7881C393.6 35.0954 391.907 33.8665 391.077 33.1016C390.247 32.3366 389.555 31.2786 389.002 29.9277C388.465 28.5768 388.196 26.8516 388.196 24.752C388.196 21.7246 388.579 19.5111 389.344 18.1113C390.125 16.7116 391.378 15.6211 393.104 14.8398C394.829 14.0423 396.912 13.6436 399.354 13.6436C402.023 13.6436 404.293 14.0749 406.165 14.9375C408.053 15.8001 409.298 16.8906 409.9 18.209C410.519 19.5111 410.828 21.7327 410.828 24.874V26.4365ZM415.68 14.4736H432.818V22.3838H425.958V29.8789H432.379V37.3984H425.958V46.0898H433.502V54H415.68V14.4736ZM437.23 14.4736H454.369V22.3838H447.509V29.8789H453.93V37.3984H447.509V46.0898H455.053V54H437.23V14.4736ZM492.368 31.71H482.09V24.8252C482.09 22.8232 481.976 21.5781 481.748 21.0898C481.536 20.5853 481.056 20.333 480.308 20.333C479.461 20.333 478.924 20.6341 478.696 21.2363C478.468 21.8385 478.354 23.1406 478.354 25.1426V43.502C478.354 45.4225 478.468 46.6758 478.696 47.2617C478.924 47.8477 479.437 48.1406 480.234 48.1406C480.999 48.1406 481.496 47.8477 481.724 47.2617C481.968 46.6758 482.09 45.3005 482.09 43.1357V38.1797H492.368V39.7178C492.368 43.8031 492.075 46.7002 491.489 48.4092C490.92 50.1182 489.642 51.6156 487.656 52.9014C485.687 54.1872 483.254 54.8301 480.356 54.8301C477.345 54.8301 474.863 54.2848 472.91 53.1943C470.957 52.1038 469.663 50.5983 469.028 48.6777C468.394 46.7409 468.076 43.8356 468.076 39.9619V28.4141C468.076 25.5658 468.174 23.4336 468.369 22.0176C468.564 20.5853 469.142 19.21 470.103 17.8916C471.079 16.5732 472.422 15.5397 474.131 14.791C475.856 14.026 477.834 13.6436 480.063 13.6436C483.091 13.6436 485.589 14.2295 487.559 15.4014C489.528 16.5732 490.822 18.0381 491.44 19.7959C492.059 21.5374 492.368 24.2555 492.368 27.9502V31.71ZM520.291 37.6182C520.291 41.5895 520.193 44.4053 519.998 46.0654C519.819 47.7093 519.233 49.2148 518.24 50.582C517.264 51.9492 515.937 52.999 514.261 53.7314C512.584 54.4639 510.631 54.8301 508.401 54.8301C506.285 54.8301 504.381 54.4883 502.688 53.8047C501.012 53.1048 499.661 52.0632 498.636 50.6797C497.61 49.2962 497 47.7907 496.805 46.1631C496.609 44.5355 496.512 41.6872 496.512 37.6182V30.8555C496.512 26.8841 496.601 24.0765 496.78 22.4326C496.976 20.7725 497.562 19.2588 498.538 17.8916C499.531 16.5244 500.866 15.4746 502.542 14.7422C504.218 14.0098 506.172 13.6436 508.401 13.6436C510.517 13.6436 512.413 13.9935 514.09 14.6934C515.783 15.377 517.142 16.4105 518.167 17.7939C519.192 19.1774 519.803 20.6829 519.998 22.3105C520.193 23.9382 520.291 26.7865 520.291 30.8555V37.6182ZM510.013 24.6299C510.013 22.7907 509.907 21.6188 509.695 21.1143C509.5 20.5934 509.085 20.333 508.45 20.333C507.913 20.333 507.498 20.5446 507.205 20.9678C506.928 21.3747 506.79 22.5954 506.79 24.6299V43.0869C506.79 45.3818 506.88 46.7979 507.059 47.335C507.254 47.8721 507.693 48.1406 508.377 48.1406C509.077 48.1406 509.524 47.8314 509.72 47.2129C509.915 46.5944 510.013 45.1214 510.013 42.7939V24.6299ZM524.898 14.4736H532.589C537.553 14.4736 540.906 14.7015 542.647 15.1572C544.405 15.613 545.74 16.3617 546.651 17.4033C547.563 18.445 548.132 19.6087 548.36 20.8945C548.588 22.1641 548.702 24.6706 548.702 28.4141V42.2568C548.702 45.805 548.531 48.1813 548.189 49.3857C547.864 50.5739 547.286 51.5098 546.456 52.1934C545.626 52.8607 544.601 53.3327 543.38 53.6094C542.159 53.8698 540.32 54 537.862 54H524.898V14.4736ZM535.177 21.2363V47.2373C536.658 47.2373 537.569 46.9443 537.911 46.3584C538.253 45.7562 538.424 44.1367 538.424 41.5V26.1436C538.424 24.3532 538.367 23.2057 538.253 22.7012C538.139 22.1966 537.879 21.8304 537.472 21.6025C537.065 21.3584 536.3 21.2363 535.177 21.2363ZM553.285 14.4736H570.424V22.3838H563.563V29.8789H569.984V37.3984H563.563V46.0898H571.107V54H553.285V14.4736Z" fill="black"/>
<path d="M611.015 14.9609C612.821 17.4775 614.611 20.0005 616.432 22.5043C619.598 26.8587 622.782 31.1971 626 35.5963C624.216 38.0392 622.46 40.4565 620.682 42.8771C617.749 46.8953 614.797 50.9039 611.898 54.9445C611.725 55.2286 611.48 55.4578 611.189 55.607C610.899 55.7561 610.574 55.8194 610.25 55.7898C608.355 55.7289 606.459 55.7705 604.341 55.7705L618.932 35.5995C616.575 32.3593 614.243 29.1671 611.929 25.9814L604.31 15.5821C604.188 15.3857 604.084 15.1777 604 14.9609L611.015 14.9609Z" fill="#050606"/>
<path d="M638.175 14.9609L647.347 26.9408C649.543 29.803 651.745 32.6619 654 35.5848C652.362 37.7191 650.723 39.8599 649.083 42.007C645.781 46.297 642.459 50.5709 639.183 54.8833C638.981 55.193 638.694 55.4414 638.356 55.6008C638.018 55.7602 637.641 55.8244 637.268 55.7861C635.389 55.7125 633.506 55.7637 631.395 55.7637L646.773 35.5944C645.226 33.5775 643.699 31.5734 642.162 29.5789C638.599 24.941 635.022 20.301 631.431 15.6589C631.274 15.4342 631.13 15.2012 631 14.9609H638.175Z" fill="#050606"/>
<path d="M624.416 14.9609L640 35.6082C637.098 39.452 634.24 43.2573 631.36 47.0498C629.325 49.7468 627.299 52.4502 625.222 55.1152C624.91 55.4808 624.469 55.7105 623.99 55.7558C622.24 55.8263 620.47 55.7847 618.493 55.7847C623.584 48.9748 628.56 42.3316 633.578 35.605L618 14.9609H624.416Z" fill="#050606"/>
<path d="M597.437 14.9609L607.705 28.6059C609.451 30.9212 611.216 33.23 613 35.6029L606.954 43.5894C604.067 47.4162 601.156 51.2365 598.291 55.0793C598.136 55.32 597.918 55.5136 597.66 55.6389C597.403 55.7643 597.116 55.8166 596.831 55.7902C595.117 55.7453 593.403 55.7902 591.459 55.7902L606.563 35.6157L591 14.9609H597.437Z" fill="#050606"/>
<path d="M652.437 15.957L662.705 29.2692C664.451 31.528 666.203 33.7805 668 36.0955L661.954 43.8872C659.067 47.6206 656.156 51.3478 653.291 55.0968C653.136 55.3316 652.918 55.5205 652.66 55.6428C652.403 55.7651 652.116 55.8162 651.831 55.7903C650.117 55.7466 648.403 55.7903 646.459 55.7903L661.563 36.108L646 15.957H652.437Z" fill="#050606"/>
<path d="M208.015 14.9609C209.821 17.4775 211.611 20.0005 213.432 22.5043C216.598 26.8587 219.782 31.1971 223 35.5963C221.216 38.0392 219.46 40.4565 217.682 42.8771C214.749 46.8953 211.797 50.9039 208.898 54.9445C208.725 55.2286 208.48 55.4578 208.189 55.607C207.899 55.7561 207.574 55.8194 207.25 55.7898C205.355 55.7289 203.459 55.7705 201.341 55.7705L215.932 35.5995C213.575 32.3593 211.243 29.1671 208.929 25.9814L201.31 15.5821C201.188 15.3857 201.084 15.1777 201 14.9609L208.015 14.9609Z" fill="#050606"/>
<path d="M235.175 14.9609L244.347 26.9408C246.543 29.803 248.745 32.6619 251 35.5848C249.362 37.7191 247.723 39.8599 246.083 42.007C242.781 46.297 239.459 50.5709 236.183 54.8833C235.981 55.193 235.694 55.4414 235.356 55.6008C235.018 55.7602 234.641 55.8244 234.268 55.7861C232.389 55.7125 230.506 55.7637 228.395 55.7637L243.773 35.5944C242.226 33.5775 240.699 31.5734 239.162 29.5789C235.599 24.941 232.022 20.301 228.431 15.6589C228.274 15.4342 228.13 15.2012 228 14.9609H235.175Z" fill="#050606"/>
<path d="M221.416 14.9609L237 35.6082C234.098 39.452 231.24 43.2573 228.36 47.0498C226.325 49.7468 224.299 52.4502 222.222 55.1152C221.91 55.4808 221.469 55.7105 220.99 55.7558C219.24 55.8263 217.47 55.7847 215.493 55.7847C220.584 48.9748 225.56 42.3316 230.578 35.605L215 14.9609H221.416Z" fill="#050606"/>
<path d="M194.437 14.9609L204.705 28.6059C206.451 30.9212 208.216 33.23 210 35.6029L203.954 43.5894C201.067 47.4162 198.156 51.2365 195.291 55.0793C195.136 55.32 194.918 55.5136 194.66 55.6389C194.403 55.7643 194.116 55.8166 193.831 55.7902C192.117 55.7453 190.403 55.7902 188.459 55.7902L203.563 35.6157L188 14.9609H194.437Z" fill="#050606"/>
<path d="M249.437 15.957L259.705 29.2692C261.451 31.528 263.203 33.7805 265 36.0955L258.954 43.8872C256.067 47.6206 253.156 51.3478 250.291 55.0968C250.136 55.3316 249.918 55.5205 249.66 55.6428C249.403 55.7651 249.116 55.8162 248.831 55.7903C247.117 55.7466 245.403 55.7903 243.459 55.7903L258.563 36.108L243 15.957H249.437Z" fill="#050606"/>
</svg>
