<svg width="1621" height="380" viewBox="0 0 1621 380" fill="none" xmlns="http://www.w3.org/2000/svg">
<rect x="27" y="28" width="1593" height="351" fill="#04839D" stroke="#04839D" stroke-width="2"/>
<rect x="1" y="1" width="1593" height="351" fill="#FBD4CA" stroke="#04839D" stroke-width="2"/>
<path d="M59.6244 251.579H48.2956L38.1182 226.876H49.447L59.6244 251.579Z" fill="#04839D" stroke="#04839D" stroke-width="2" stroke-miterlimit="10"/>
<path d="M75.9994 251.579H64.6706L54.4932 226.876H65.822L75.9994 251.579Z" fill="#04839D" stroke="#04839D" stroke-width="2" stroke-miterlimit="10"/>
<path d="M92.5873 251.437H81.2585L71.0811 226.734H82.4099L92.5873 251.437Z" fill="#04839D" stroke="#04839D" stroke-width="2" stroke-miterlimit="10"/>
<path d="M109.417 251.508H98.1023L87.9248 226.805H99.2394L109.417 251.508Z" fill="#04839D" stroke="#04839D" stroke-width="2" stroke-miterlimit="10"/>
<path d="M125.792 251.508H114.477L104.3 226.805H115.614L125.792 251.508Z" fill="#04839D" stroke="#04839D" stroke-width="2" stroke-miterlimit="10"/>
<path d="M142.38 251.366H131.066L120.874 226.663H132.203L142.38 251.366Z" fill="#04839D" stroke="#04839D" stroke-width="2" stroke-miterlimit="10"/>
<path d="M158.471 251.366H147.142L136.965 226.663H148.294L158.471 251.366Z" fill="#04839D" stroke="#04839D" stroke-width="2" stroke-miterlimit="10"/>
<path d="M175.059 251.224H163.73L153.553 226.521H164.882L175.059 251.224Z" fill="#FBD4CA" stroke="#04839D" stroke-width="2" stroke-miterlimit="10"/>
<path d="M191.15 251.295H179.835L169.644 226.592H180.972L191.15 251.295Z" fill="#FBD4CA" stroke="#04839D" stroke-width="2" stroke-miterlimit="10"/>
<path d="M207.112 251.337H195.798L185.62 226.635H196.935L207.112 251.337Z" fill="#FBD4CA" stroke="#04839D" stroke-width="2" stroke-miterlimit="10"/>
<path d="M38.5293 79.541V98.5605C38.5293 101.408 38.5 103.242 38.4414 104.062C38.3828 104.871 38.1133 105.604 37.6328 106.26C37.1641 106.916 36.5195 107.373 35.6992 107.631C34.8906 107.877 33.666 108 32.0254 108H28.3164V103.025C28.7617 103.061 29.084 103.078 29.2832 103.078C29.8105 103.078 30.2266 102.949 30.5312 102.691C30.8359 102.434 31.0117 102.117 31.0586 101.742C31.1055 101.367 31.1289 100.641 31.1289 99.5625V79.541H38.5293ZM54.1738 79.541L58.4102 108H50.834L50.4648 102.885H47.8105L47.3711 108H39.707L43.4688 79.541H54.1738ZM50.2539 97.8398C49.8789 94.6172 49.5039 90.6387 49.1289 85.9043C48.3789 91.3418 47.9102 95.3203 47.7227 97.8398H50.2539ZM77.2539 79.541L73.4922 108H62.2598L57.9883 79.541H65.793C66.6953 87.3809 67.3398 94.0078 67.7266 99.4219C68.1133 93.9492 68.5176 89.0859 68.9395 84.832L69.4492 79.541H77.2539ZM91.2988 79.541L95.5352 108H87.959L87.5898 102.885H84.9355L84.4961 108H76.832L80.5938 79.541H91.2988ZM87.3789 97.8398C87.0039 94.6172 86.6289 90.6387 86.2539 85.9043C85.5039 91.3418 85.0352 95.3203 84.8477 97.8398H87.3789ZM112.48 88.1543H105.607V86.0449C105.607 85.0605 105.52 84.4336 105.344 84.1641C105.168 83.8945 104.875 83.7598 104.465 83.7598C104.02 83.7598 103.68 83.9414 103.445 84.3047C103.223 84.668 103.111 85.2188 103.111 85.957C103.111 86.9062 103.24 87.6211 103.498 88.1016C103.744 88.582 104.441 89.1621 105.59 89.8418C108.883 91.7988 110.957 93.4043 111.812 94.6582C112.668 95.9121 113.096 97.9336 113.096 100.723C113.096 102.75 112.855 104.244 112.375 105.205C111.906 106.166 110.992 106.975 109.633 107.631C108.273 108.275 106.691 108.598 104.887 108.598C102.906 108.598 101.213 108.223 99.8066 107.473C98.4121 106.723 97.498 105.768 97.0645 104.607C96.6309 103.447 96.4141 101.801 96.4141 99.668V97.8047H103.287V101.268C103.287 102.334 103.381 103.02 103.568 103.324C103.768 103.629 104.113 103.781 104.605 103.781C105.098 103.781 105.461 103.588 105.695 103.201C105.941 102.814 106.064 102.24 106.064 101.479C106.064 99.8027 105.836 98.707 105.379 98.1914C104.91 97.6758 103.756 96.8145 101.916 95.6074C100.076 94.3887 98.8574 93.5039 98.2598 92.9531C97.6621 92.4023 97.1641 91.6406 96.7656 90.668C96.3789 89.6953 96.1855 88.4531 96.1855 86.9414C96.1855 84.7617 96.4609 83.168 97.0117 82.1602C97.5742 81.1523 98.4766 80.3672 99.7188 79.8047C100.961 79.2305 102.461 78.9434 104.219 78.9434C106.141 78.9434 107.775 79.2539 109.123 79.875C110.482 80.4961 111.379 81.2812 111.812 82.2305C112.258 83.168 112.48 84.7676 112.48 87.0293V88.1543ZM132.713 91.9512H125.312V86.9941C125.312 85.5527 125.23 84.6562 125.066 84.3047C124.914 83.9414 124.568 83.7598 124.029 83.7598C123.42 83.7598 123.033 83.9766 122.869 84.4102C122.705 84.8438 122.623 85.7812 122.623 87.2227V100.441C122.623 101.824 122.705 102.727 122.869 103.148C123.033 103.57 123.402 103.781 123.977 103.781C124.527 103.781 124.885 103.57 125.049 103.148C125.225 102.727 125.312 101.736 125.312 100.178V96.6094H132.713V97.7168C132.713 100.658 132.502 102.744 132.08 103.975C131.67 105.205 130.75 106.283 129.32 107.209C127.902 108.135 126.15 108.598 124.064 108.598C121.896 108.598 120.109 108.205 118.703 107.42C117.297 106.635 116.365 105.551 115.908 104.168C115.451 102.773 115.223 100.682 115.223 97.8926V89.5781C115.223 87.5273 115.293 85.9922 115.434 84.9727C115.574 83.9414 115.99 82.9512 116.682 82.002C117.385 81.0527 118.352 80.3086 119.582 79.7695C120.824 79.2188 122.248 78.9434 123.854 78.9434C126.033 78.9434 127.832 79.3652 129.25 80.209C130.668 81.0527 131.6 82.1074 132.045 83.373C132.49 84.627 132.713 86.584 132.713 89.2441V91.9512ZM135.367 79.541H140.605C144.098 79.541 146.459 79.6758 147.689 79.9453C148.932 80.2148 149.939 80.9062 150.713 82.0195C151.498 83.1211 151.891 84.8848 151.891 87.3105C151.891 89.5254 151.615 91.0137 151.064 91.7754C150.514 92.5371 149.43 92.9941 147.812 93.1465C149.277 93.5098 150.262 93.9961 150.766 94.6055C151.27 95.2148 151.58 95.7773 151.697 96.293C151.826 96.7969 151.891 98.1973 151.891 100.494V108H145.018V98.543C145.018 97.0195 144.895 96.0762 144.648 95.7129C144.414 95.3496 143.787 95.168 142.768 95.168V108H135.367V79.541ZM142.768 84.4102V90.7383C143.6 90.7383 144.18 90.627 144.508 90.4043C144.848 90.1699 145.018 89.4258 145.018 88.1719V86.6074C145.018 85.7051 144.854 85.1133 144.525 84.832C144.209 84.5508 143.623 84.4102 142.768 84.4102ZM162.174 79.541V108H154.773V79.541H162.174ZM165.145 79.541H172.598C174.613 79.541 176.16 79.6992 177.238 80.0156C178.328 80.332 179.143 80.7891 179.682 81.3867C180.232 81.9844 180.602 82.7109 180.789 83.5664C180.988 84.4102 181.088 85.7227 181.088 87.5039V89.9824C181.088 91.7988 180.9 93.123 180.525 93.9551C180.15 94.7871 179.459 95.4258 178.451 95.8711C177.455 96.3164 176.148 96.5391 174.531 96.5391H172.545V108H165.145V79.541ZM172.545 84.4102V91.6523C172.756 91.6641 172.938 91.6699 173.09 91.6699C173.77 91.6699 174.238 91.5059 174.496 91.1777C174.766 90.8379 174.9 90.1406 174.9 89.0859V86.748C174.9 85.7754 174.748 85.1426 174.443 84.8496C174.139 84.5566 173.506 84.4102 172.545 84.4102ZM198.121 79.541V85.2363H193.727V108H186.326V85.2363H181.949V79.541H198.121Z" fill="#04839D"/>
<path d="M90.5625 147.082V159.492L81.4922 204H67.3594L77.4492 157.312H63.4219V147.082H90.5625ZM127.23 166.348V185.332C127.23 189.645 126.996 192.785 126.527 194.754C126.059 196.723 125.086 198.562 123.609 200.273C122.133 201.984 120.352 203.215 118.266 203.965C116.18 204.715 113.848 205.09 111.27 205.09C107.871 205.09 105.047 204.703 102.797 203.93C100.547 203.133 98.7539 201.902 97.418 200.238C96.082 198.574 95.1328 196.828 94.5703 195C94.0078 193.148 93.7266 190.219 93.7266 186.211V166.348C93.7266 161.121 94.1719 157.207 95.0625 154.605C95.9766 152.004 97.7695 149.918 100.441 148.348C103.137 146.777 106.395 145.992 110.215 145.992C113.332 145.992 116.121 146.543 118.582 147.645C121.043 148.723 122.883 150.047 124.102 151.617C125.32 153.188 126.141 154.957 126.562 156.926C127.008 158.895 127.23 162.035 127.23 166.348ZM113.027 161.566C113.027 158.543 112.875 156.656 112.57 155.906C112.289 155.133 111.609 154.746 110.531 154.746C109.477 154.746 108.773 155.156 108.422 155.977C108.094 156.773 107.93 158.637 107.93 161.566V189.34C107.93 192.645 108.082 194.637 108.387 195.316C108.715 195.996 109.406 196.336 110.461 196.336C111.516 196.336 112.207 195.938 112.535 195.141C112.863 194.344 113.027 192.551 113.027 189.762V161.566ZM168.574 145.992L146.32 205.09H140.906L163.23 145.992H168.574ZM152.016 156.785V166.559C152.016 169.113 151.77 171.035 151.277 172.324C150.809 173.59 149.777 174.703 148.184 175.664C146.613 176.602 144.527 177.07 141.926 177.07C138.926 177.07 136.641 176.625 135.07 175.734C133.5 174.82 132.434 173.73 131.871 172.465C131.332 171.199 131.062 169.383 131.062 167.016V156.785C131.062 153.973 131.344 151.898 131.906 150.562C132.492 149.203 133.605 148.102 135.246 147.258C136.887 146.414 138.914 145.992 141.328 145.992C144 145.992 146.168 146.461 147.832 147.398C149.496 148.312 150.609 149.426 151.172 150.738C151.734 152.051 152.016 154.066 152.016 156.785ZM143.016 154.289C143.016 152.789 142.934 151.863 142.77 151.512C142.629 151.16 142.219 150.984 141.539 150.984C140.906 150.984 140.496 151.172 140.309 151.547C140.121 151.922 140.027 152.836 140.027 154.289V168.633C140.027 170.273 140.109 171.258 140.273 171.586C140.438 171.914 140.871 172.078 141.574 172.078C142.184 172.078 142.57 171.891 142.734 171.516C142.922 171.141 143.016 170.262 143.016 168.879V154.289ZM178.418 184.277V194.086C178.418 196.617 178.172 198.527 177.68 199.816C177.211 201.105 176.18 202.23 174.586 203.191C173.016 204.129 170.93 204.598 168.328 204.598C165.352 204.598 163.066 204.141 161.473 203.227C159.902 202.312 158.836 201.223 158.273 199.957C157.734 198.691 157.465 196.887 157.465 194.543V184.277C157.465 181.488 157.746 179.426 158.309 178.09C158.895 176.73 160.008 175.629 161.648 174.785C163.289 173.918 165.316 173.484 167.73 173.484C170.426 173.484 172.605 173.953 174.27 174.891C175.934 175.828 177.035 176.953 177.574 178.266C178.137 179.578 178.418 181.582 178.418 184.277ZM169.418 181.816C169.418 180.316 169.336 179.391 169.172 179.039C169.031 178.664 168.621 178.477 167.941 178.477C167.309 178.477 166.898 178.664 166.711 179.039C166.547 179.414 166.465 180.34 166.465 181.816V196.16C166.465 197.777 166.547 198.75 166.711 199.078C166.875 199.406 167.297 199.57 167.977 199.57C168.609 199.57 169.008 199.395 169.172 199.043C169.336 198.668 169.418 197.777 169.418 196.371V181.816Z" fill="#04839D"/>
<path d="M316.506 250.538H305.177L295 225.934H306.329L316.506 250.538Z" fill="#04839D" stroke="#04839D" stroke-width="2" stroke-miterlimit="10"/>
<path d="M332.881 250.538H321.552L311.375 225.934H322.704L332.881 250.538Z" fill="#04839D" stroke="#04839D" stroke-width="2" stroke-miterlimit="10"/>
<path d="M349.469 250.395H338.14L327.963 225.791H339.292L349.469 250.395Z" fill="#04839D" stroke="#04839D" stroke-width="2" stroke-miterlimit="10"/>
<path d="M366.299 250.466H354.984L344.807 225.863H356.121L366.299 250.466Z" fill="#04839D" stroke="#04839D" stroke-width="2" stroke-miterlimit="10"/>
<path d="M382.674 250.466H371.359L361.182 225.863H372.496L382.674 250.466Z" fill="#04839D" stroke="#04839D" stroke-width="2" stroke-miterlimit="10"/>
<path d="M399.262 250.324H387.948L377.756 225.721H389.085L399.262 250.324Z" fill="#04839D" stroke="#04839D" stroke-width="2" stroke-miterlimit="10"/>
<path d="M415.353 250.324H404.024L393.847 225.721H405.176L415.353 250.324Z" fill="#04839D" stroke="#04839D" stroke-width="2" stroke-miterlimit="10"/>
<path d="M431.941 250.183H420.612L410.435 225.58H421.763L431.941 250.183Z" fill="#04839D" stroke="#04839D" stroke-width="2" stroke-miterlimit="10"/>
<path d="M448.032 250.254H436.717L426.525 225.651H437.854L448.032 250.254Z" fill="#FBD4CA" stroke="#04839D" stroke-width="2" stroke-miterlimit="10"/>
<path d="M463.994 250.297H452.679L442.502 225.693H453.817L463.994 250.297Z" fill="#FBD4CA" stroke="#04839D" stroke-width="2" stroke-miterlimit="10"/>
<path d="M336.529 79.541V98.5605C336.529 101.408 336.5 103.242 336.441 104.062C336.383 104.871 336.113 105.604 335.633 106.26C335.164 106.916 334.52 107.373 333.699 107.631C332.891 107.877 331.666 108 330.025 108H326.316V103.025C326.762 103.061 327.084 103.078 327.283 103.078C327.811 103.078 328.227 102.949 328.531 102.691C328.836 102.434 329.012 102.117 329.059 101.742C329.105 101.367 329.129 100.641 329.129 99.5625V79.541H336.529ZM356.322 108V111.445H350.732C349.385 111.445 348.436 111.34 347.885 111.129C347.334 110.93 346.959 110.625 346.76 110.215C346.572 109.805 346.479 109.066 346.479 108C344.803 107.953 343.361 107.514 342.154 106.682C340.947 105.85 340.15 104.795 339.764 103.518C339.377 102.229 339.184 100.307 339.184 97.752V88.9453C339.184 87.0117 339.295 85.541 339.518 84.5332C339.752 83.5137 340.227 82.5586 340.941 81.668C341.656 80.7656 342.576 80.0859 343.701 79.6289C344.826 79.1719 346.074 78.9434 347.445 78.9434C349.098 78.9434 350.568 79.2246 351.857 79.7871C353.158 80.3496 354.125 81.0645 354.758 81.9316C355.402 82.7988 355.818 83.7012 356.006 84.6387C356.205 85.5645 356.305 86.9473 356.305 88.7871V98.0332C356.305 100.564 356.182 102.281 355.936 103.184C355.689 104.086 355.215 104.807 354.512 105.346C353.82 105.873 352.895 106.277 351.734 106.559C351.77 107.191 351.898 107.59 352.121 107.754C352.355 107.918 352.9 108 353.756 108H356.322ZM348.904 86.8535C348.904 85.5293 348.828 84.6855 348.676 84.3223C348.535 83.9473 348.236 83.7598 347.779 83.7598C347.393 83.7598 347.094 83.9121 346.883 84.2168C346.684 84.5098 346.584 85.3887 346.584 86.8535V100.143C346.584 101.795 346.648 102.814 346.777 103.201C346.918 103.588 347.234 103.781 347.727 103.781C348.23 103.781 348.553 103.559 348.693 103.113C348.834 102.668 348.904 101.607 348.904 99.9316V86.8535ZM375.904 79.541V98.5605C375.904 100.717 375.834 102.234 375.693 103.113C375.553 103.98 375.137 104.877 374.445 105.803C373.754 106.717 372.84 107.414 371.703 107.895C370.578 108.363 369.248 108.598 367.713 108.598C366.014 108.598 364.514 108.316 363.213 107.754C361.912 107.191 360.939 106.459 360.295 105.557C359.65 104.654 359.27 103.705 359.152 102.709C359.035 101.701 358.977 99.5918 358.977 96.3809V79.541H366.377V100.881C366.377 102.123 366.441 102.92 366.57 103.271C366.711 103.611 366.986 103.781 367.396 103.781C367.865 103.781 368.164 103.594 368.293 103.219C368.434 102.832 368.504 101.93 368.504 100.512V79.541H375.904ZM378.77 79.541H391.109V85.2363H386.17V90.6328H390.793V96.0469H386.17V102.305H391.602V108H378.77V79.541ZM393.746 79.541H398.984C402.477 79.541 404.838 79.6758 406.068 79.9453C407.311 80.2148 408.318 80.9062 409.092 82.0195C409.877 83.1211 410.27 84.8848 410.27 87.3105C410.27 89.5254 409.994 91.0137 409.443 91.7754C408.893 92.5371 407.809 92.9941 406.191 93.1465C407.656 93.5098 408.641 93.9961 409.145 94.6055C409.648 95.2148 409.959 95.7773 410.076 96.293C410.205 96.7969 410.27 98.1973 410.27 100.494V108H403.396V98.543C403.396 97.0195 403.273 96.0762 403.027 95.7129C402.793 95.3496 402.166 95.168 401.146 95.168V108H393.746V79.541ZM401.146 84.4102V90.7383C401.979 90.7383 402.559 90.627 402.887 90.4043C403.227 90.1699 403.396 89.4258 403.396 88.1719V86.6074C403.396 85.7051 403.232 85.1133 402.904 84.832C402.588 84.5508 402.002 84.4102 401.146 84.4102ZM428.92 79.541L423.523 97.6992V108H416.668V97.6992L411.465 79.541H418.268C419.334 85.084 419.932 88.8164 420.061 90.7383C420.471 87.7031 421.156 83.9707 422.117 79.541H428.92Z" fill="#04839D"/>
<path d="M348.637 170.727C350.723 171.57 352.328 172.836 353.453 174.523C354.578 176.188 355.141 180.172 355.141 186.477C355.141 191.07 354.695 194.457 353.805 196.637C352.914 198.816 351.18 200.609 348.602 202.016C346.023 203.398 342.566 204.09 338.23 204.09C334.012 204.09 330.672 203.422 328.211 202.086C325.75 200.75 323.98 198.98 322.902 196.777C321.848 194.574 321.32 190.906 321.32 185.773C321.32 182.328 321.578 179.34 322.094 176.809C322.633 174.277 324.297 172.25 327.086 170.727C325.328 169.883 324.004 168.547 323.113 166.719C322.246 164.867 321.812 162.523 321.812 159.688C321.812 154.789 323.172 151.121 325.891 148.684C328.609 146.223 332.676 144.992 338.09 144.992C344.348 144.992 348.672 146.293 351.062 148.895C353.453 151.496 354.648 155.211 354.648 160.039C354.648 163.109 354.25 165.324 353.453 166.684C352.68 168.043 351.074 169.391 348.637 170.727ZM340.656 158.492C340.656 156.57 340.48 155.305 340.129 154.695C339.801 154.062 339.156 153.746 338.195 153.746C337.258 153.746 336.625 154.086 336.297 154.766C335.969 155.422 335.805 156.664 335.805 158.492V162.816C335.805 164.527 335.992 165.711 336.367 166.367C336.742 167.023 337.375 167.352 338.266 167.352C339.203 167.352 339.836 167.035 340.164 166.402C340.492 165.746 340.656 164.41 340.656 162.395V158.492ZM340.938 182.152C340.938 179.973 340.715 178.531 340.27 177.828C339.824 177.102 339.121 176.738 338.16 176.738C337.223 176.738 336.543 177.09 336.121 177.793C335.723 178.473 335.523 179.926 335.523 182.152V189.535C335.523 191.996 335.746 193.578 336.191 194.281C336.66 194.984 337.387 195.336 338.371 195.336C339.379 195.336 340.059 194.984 340.41 194.281C340.762 193.555 340.938 191.938 340.938 189.43V182.152ZM393.566 165.348V184.332C393.566 188.645 393.332 191.785 392.863 193.754C392.395 195.723 391.422 197.562 389.945 199.273C388.469 200.984 386.688 202.215 384.602 202.965C382.516 203.715 380.184 204.09 377.605 204.09C374.207 204.09 371.383 203.703 369.133 202.93C366.883 202.133 365.09 200.902 363.754 199.238C362.418 197.574 361.469 195.828 360.906 194C360.344 192.148 360.062 189.219 360.062 185.211V165.348C360.062 160.121 360.508 156.207 361.398 153.605C362.312 151.004 364.105 148.918 366.777 147.348C369.473 145.777 372.73 144.992 376.551 144.992C379.668 144.992 382.457 145.543 384.918 146.645C387.379 147.723 389.219 149.047 390.438 150.617C391.656 152.188 392.477 153.957 392.898 155.926C393.344 157.895 393.566 161.035 393.566 165.348ZM379.363 160.566C379.363 157.543 379.211 155.656 378.906 154.906C378.625 154.133 377.945 153.746 376.867 153.746C375.812 153.746 375.109 154.156 374.758 154.977C374.43 155.773 374.266 157.637 374.266 160.566V188.34C374.266 191.645 374.418 193.637 374.723 194.316C375.051 194.996 375.742 195.336 376.797 195.336C377.852 195.336 378.543 194.938 378.871 194.141C379.199 193.344 379.363 191.551 379.363 188.762V160.566ZM434.91 144.992L412.656 204.09H407.242L429.566 144.992H434.91ZM418.352 155.785V165.559C418.352 168.113 418.105 170.035 417.613 171.324C417.145 172.59 416.113 173.703 414.52 174.664C412.949 175.602 410.863 176.07 408.262 176.07C405.262 176.07 402.977 175.625 401.406 174.734C399.836 173.82 398.77 172.73 398.207 171.465C397.668 170.199 397.398 168.383 397.398 166.016V155.785C397.398 152.973 397.68 150.898 398.242 149.562C398.828 148.203 399.941 147.102 401.582 146.258C403.223 145.414 405.25 144.992 407.664 144.992C410.336 144.992 412.504 145.461 414.168 146.398C415.832 147.312 416.945 148.426 417.508 149.738C418.07 151.051 418.352 153.066 418.352 155.785ZM409.352 153.289C409.352 151.789 409.27 150.863 409.105 150.512C408.965 150.16 408.555 149.984 407.875 149.984C407.242 149.984 406.832 150.172 406.645 150.547C406.457 150.922 406.363 151.836 406.363 153.289V167.633C406.363 169.273 406.445 170.258 406.609 170.586C406.773 170.914 407.207 171.078 407.91 171.078C408.52 171.078 408.906 170.891 409.07 170.516C409.258 170.141 409.352 169.262 409.352 167.879V153.289ZM444.754 183.277V193.086C444.754 195.617 444.508 197.527 444.016 198.816C443.547 200.105 442.516 201.23 440.922 202.191C439.352 203.129 437.266 203.598 434.664 203.598C431.688 203.598 429.402 203.141 427.809 202.227C426.238 201.312 425.172 200.223 424.609 198.957C424.07 197.691 423.801 195.887 423.801 193.543V183.277C423.801 180.488 424.082 178.426 424.645 177.09C425.23 175.73 426.344 174.629 427.984 173.785C429.625 172.918 431.652 172.484 434.066 172.484C436.762 172.484 438.941 172.953 440.605 173.891C442.27 174.828 443.371 175.953 443.91 177.266C444.473 178.578 444.754 180.582 444.754 183.277ZM435.754 180.816C435.754 179.316 435.672 178.391 435.508 178.039C435.367 177.664 434.957 177.477 434.277 177.477C433.645 177.477 433.234 177.664 433.047 178.039C432.883 178.414 432.801 179.34 432.801 180.816V195.16C432.801 196.777 432.883 197.75 433.047 198.078C433.211 198.406 433.633 198.57 434.312 198.57C434.945 198.57 435.344 198.395 435.508 198.043C435.672 197.668 435.754 196.777 435.754 195.371V180.816Z" fill="#04839D"/>
<path d="M594.506 251.533H583.177L573 226.93H584.329L594.506 251.533Z" fill="#04839D" stroke="#04839D" stroke-width="2" stroke-miterlimit="10"/>
<path d="M610.881 251.533H599.552L589.375 226.93H600.704L610.881 251.533Z" fill="#04839D" stroke="#04839D" stroke-width="2" stroke-miterlimit="10"/>
<path d="M627.469 251.391H616.14L605.963 226.787H617.292L627.469 251.391Z" fill="#04839D" stroke="#04839D" stroke-width="2" stroke-miterlimit="10"/>
<path d="M644.299 251.461H632.984L622.807 226.857H634.121L644.299 251.461Z" fill="#04839D" stroke="#04839D" stroke-width="2" stroke-miterlimit="10"/>
<path d="M660.674 251.461H649.359L639.182 226.857H650.496L660.674 251.461Z" fill="#04839D" stroke="#04839D" stroke-width="2" stroke-miterlimit="10"/>
<path d="M677.262 251.321H665.948L655.756 226.717H667.085L677.262 251.321Z" fill="#04839D" stroke="#04839D" stroke-width="2" stroke-miterlimit="10"/>
<path d="M693.353 251.321H682.024L671.847 226.717H683.176L693.353 251.321Z" fill="#04839D" stroke="#04839D" stroke-width="2" stroke-miterlimit="10"/>
<path d="M709.941 251.179H698.612L688.435 226.576H699.763L709.941 251.179Z" fill="#04839D" stroke="#04839D" stroke-width="2" stroke-miterlimit="10"/>
<path d="M726.032 251.25H714.717L704.525 226.647H715.854L726.032 251.25Z" fill="#04839D" stroke="#04839D" stroke-width="2" stroke-miterlimit="10"/>
<path d="M741.994 251.293H730.679L720.502 226.689H731.817L741.994 251.293Z" fill="#04839D" stroke="#04839D" stroke-width="2" stroke-miterlimit="10"/>
<path d="M635.492 79.541V108H628.092V96.0469H625.877V108H618.477V79.541H625.877V89.7188H628.092V79.541H635.492ZM653.387 79.541V85.2363H648.992V108H641.592V85.2363H637.215V79.541H653.387ZM677.908 79.541V108H671.439V88.7871L668.855 108H664.268L661.543 89.2266V108H655.074V79.541H664.654C664.936 81.252 665.234 83.2676 665.551 85.5879L666.57 92.8301L668.258 79.541H677.908ZM688.279 79.541V102.305H692.779V108H680.879V79.541H688.279Z" fill="#04839D"/>
<path d="M601.434 144.082V201H587.23V170.484C587.23 166.078 587.125 163.43 586.914 162.539C586.703 161.648 586.117 160.98 585.156 160.535C584.219 160.066 582.109 159.832 578.828 159.832H577.422V153.188C584.289 151.711 589.504 148.676 593.066 144.082H601.434ZM640.457 163.348V182.332C640.457 186.645 640.223 189.785 639.754 191.754C639.285 193.723 638.312 195.562 636.836 197.273C635.359 198.984 633.578 200.215 631.492 200.965C629.406 201.715 627.074 202.09 624.496 202.09C621.098 202.09 618.273 201.703 616.023 200.93C613.773 200.133 611.98 198.902 610.645 197.238C609.309 195.574 608.359 193.828 607.797 192C607.234 190.148 606.953 187.219 606.953 183.211V163.348C606.953 158.121 607.398 154.207 608.289 151.605C609.203 149.004 610.996 146.918 613.668 145.348C616.363 143.777 619.621 142.992 623.441 142.992C626.559 142.992 629.348 143.543 631.809 144.645C634.27 145.723 636.109 147.047 637.328 148.617C638.547 150.188 639.367 151.957 639.789 153.926C640.234 155.895 640.457 159.035 640.457 163.348ZM626.254 158.566C626.254 155.543 626.102 153.656 625.797 152.906C625.516 152.133 624.836 151.746 623.758 151.746C622.703 151.746 622 152.156 621.648 152.977C621.32 153.773 621.156 155.637 621.156 158.566V186.34C621.156 189.645 621.309 191.637 621.613 192.316C621.941 192.996 622.633 193.336 623.688 193.336C624.742 193.336 625.434 192.938 625.762 192.141C626.09 191.344 626.254 189.551 626.254 186.762V158.566ZM679.059 163.348V182.332C679.059 186.645 678.824 189.785 678.355 191.754C677.887 193.723 676.914 195.562 675.438 197.273C673.961 198.984 672.18 200.215 670.094 200.965C668.008 201.715 665.676 202.09 663.098 202.09C659.699 202.09 656.875 201.703 654.625 200.93C652.375 200.133 650.582 198.902 649.246 197.238C647.91 195.574 646.961 193.828 646.398 192C645.836 190.148 645.555 187.219 645.555 183.211V163.348C645.555 158.121 646 154.207 646.891 151.605C647.805 149.004 649.598 146.918 652.27 145.348C654.965 143.777 658.223 142.992 662.043 142.992C665.16 142.992 667.949 143.543 670.41 144.645C672.871 145.723 674.711 147.047 675.93 148.617C677.148 150.188 677.969 151.957 678.391 153.926C678.836 155.895 679.059 159.035 679.059 163.348ZM664.855 158.566C664.855 155.543 664.703 153.656 664.398 152.906C664.117 152.133 663.438 151.746 662.359 151.746C661.305 151.746 660.602 152.156 660.25 152.977C659.922 153.773 659.758 155.637 659.758 158.566V186.34C659.758 189.645 659.91 191.637 660.215 192.316C660.543 192.996 661.234 193.336 662.289 193.336C663.344 193.336 664.035 192.938 664.363 192.141C664.691 191.344 664.855 189.551 664.855 186.762V158.566ZM720.402 142.992L698.148 202.09H692.734L715.059 142.992H720.402ZM703.844 153.785V163.559C703.844 166.113 703.598 168.035 703.105 169.324C702.637 170.59 701.605 171.703 700.012 172.664C698.441 173.602 696.355 174.07 693.754 174.07C690.754 174.07 688.469 173.625 686.898 172.734C685.328 171.82 684.262 170.73 683.699 169.465C683.16 168.199 682.891 166.383 682.891 164.016V153.785C682.891 150.973 683.172 148.898 683.734 147.562C684.32 146.203 685.434 145.102 687.074 144.258C688.715 143.414 690.742 142.992 693.156 142.992C695.828 142.992 697.996 143.461 699.66 144.398C701.324 145.312 702.438 146.426 703 147.738C703.562 149.051 703.844 151.066 703.844 153.785ZM694.844 151.289C694.844 149.789 694.762 148.863 694.598 148.512C694.457 148.16 694.047 147.984 693.367 147.984C692.734 147.984 692.324 148.172 692.137 148.547C691.949 148.922 691.855 149.836 691.855 151.289V165.633C691.855 167.273 691.938 168.258 692.102 168.586C692.266 168.914 692.699 169.078 693.402 169.078C694.012 169.078 694.398 168.891 694.562 168.516C694.75 168.141 694.844 167.262 694.844 165.879V151.289ZM730.246 181.277V191.086C730.246 193.617 730 195.527 729.508 196.816C729.039 198.105 728.008 199.23 726.414 200.191C724.844 201.129 722.758 201.598 720.156 201.598C717.18 201.598 714.895 201.141 713.301 200.227C711.73 199.312 710.664 198.223 710.102 196.957C709.562 195.691 709.293 193.887 709.293 191.543V181.277C709.293 178.488 709.574 176.426 710.137 175.09C710.723 173.73 711.836 172.629 713.477 171.785C715.117 170.918 717.145 170.484 719.559 170.484C722.254 170.484 724.434 170.953 726.098 171.891C727.762 172.828 728.863 173.953 729.402 175.266C729.965 176.578 730.246 178.582 730.246 181.277ZM721.246 178.816C721.246 177.316 721.164 176.391 721 176.039C720.859 175.664 720.449 175.477 719.77 175.477C719.137 175.477 718.727 175.664 718.539 176.039C718.375 176.414 718.293 177.34 718.293 178.816V193.16C718.293 194.777 718.375 195.75 718.539 196.078C718.703 196.406 719.125 196.57 719.805 196.57C720.438 196.57 720.836 196.395 721 196.043C721.164 195.668 721.246 194.777 721.246 193.371V178.816Z" fill="#04839D"/>
<path d="M865.506 251.533H854.177L844 226.93H855.329L865.506 251.533Z" fill="#04839D" stroke="#04839D" stroke-width="2" stroke-miterlimit="10"/>
<path d="M881.881 251.533H870.552L860.375 226.93H871.704L881.881 251.533Z" fill="#04839D" stroke="#04839D" stroke-width="2" stroke-miterlimit="10"/>
<path d="M898.469 251.391H887.14L876.963 226.787H888.292L898.469 251.391Z" fill="#04839D" stroke="#04839D" stroke-width="2" stroke-miterlimit="10"/>
<path d="M915.299 251.461H903.984L893.807 226.857H905.121L915.299 251.461Z" fill="#04839D" stroke="#04839D" stroke-width="2" stroke-miterlimit="10"/>
<path d="M931.674 251.461H920.359L910.182 226.857H921.496L931.674 251.461Z" fill="#04839D" stroke="#04839D" stroke-width="2" stroke-miterlimit="10"/>
<path d="M948.262 251.321H936.948L926.756 226.717H938.085L948.262 251.321Z" fill="#04839D" stroke="#04839D" stroke-width="2" stroke-miterlimit="10"/>
<path d="M964.353 251.321H953.024L942.847 226.717H954.175L964.353 251.321Z" fill="#04839D" stroke="#04839D" stroke-width="2" stroke-miterlimit="10"/>
<path d="M980.941 251.179H969.612L959.435 226.576H970.763L980.941 251.179Z" fill="#04839D" stroke="#04839D" stroke-width="2" stroke-miterlimit="10"/>
<path d="M997.032 251.25H985.717L975.525 226.647H986.854L997.032 251.25Z" fill="#04839D" stroke="#04839D" stroke-width="2" stroke-miterlimit="10"/>
<path d="M1012.99 251.293H1001.68L991.502 226.689H1002.82L1012.99 251.293Z" fill="#04839D" stroke="#04839D" stroke-width="2" stroke-miterlimit="10"/>
<path d="M904.756 91.9512H897.355V86.9941C897.355 85.5527 897.273 84.6562 897.109 84.3047C896.957 83.9414 896.611 83.7598 896.072 83.7598C895.463 83.7598 895.076 83.9766 894.912 84.4102C894.748 84.8438 894.666 85.7812 894.666 87.2227V100.441C894.666 101.824 894.748 102.727 894.912 103.148C895.076 103.57 895.445 103.781 896.02 103.781C896.57 103.781 896.928 103.57 897.092 103.148C897.268 102.727 897.355 101.736 897.355 100.178V96.6094H904.756V97.7168C904.756 100.658 904.545 102.744 904.123 103.975C903.713 105.205 902.793 106.283 901.363 107.209C899.945 108.135 898.193 108.598 896.107 108.598C893.939 108.598 892.152 108.205 890.746 107.42C889.34 106.635 888.408 105.551 887.951 104.168C887.494 102.773 887.266 100.682 887.266 97.8926V89.5781C887.266 87.5273 887.336 85.9922 887.477 84.9727C887.617 83.9414 888.033 82.9512 888.725 82.002C889.428 81.0527 890.395 80.3086 891.625 79.7695C892.867 79.2188 894.291 78.9434 895.896 78.9434C898.076 78.9434 899.875 79.3652 901.293 80.209C902.711 81.0527 903.643 82.1074 904.088 83.373C904.533 84.627 904.756 86.584 904.756 89.2441V91.9512ZM923.09 88.1543H916.217V86.0449C916.217 85.0605 916.129 84.4336 915.953 84.1641C915.777 83.8945 915.484 83.7598 915.074 83.7598C914.629 83.7598 914.289 83.9414 914.055 84.3047C913.832 84.668 913.721 85.2188 913.721 85.957C913.721 86.9062 913.85 87.6211 914.107 88.1016C914.354 88.582 915.051 89.1621 916.199 89.8418C919.492 91.7988 921.566 93.4043 922.422 94.6582C923.277 95.9121 923.705 97.9336 923.705 100.723C923.705 102.75 923.465 104.244 922.984 105.205C922.516 106.166 921.602 106.975 920.242 107.631C918.883 108.275 917.301 108.598 915.496 108.598C913.516 108.598 911.822 108.223 910.416 107.473C909.021 106.723 908.107 105.768 907.674 104.607C907.24 103.447 907.023 101.801 907.023 99.668V97.8047H913.896V101.268C913.896 102.334 913.99 103.02 914.178 103.324C914.377 103.629 914.723 103.781 915.215 103.781C915.707 103.781 916.07 103.588 916.305 103.201C916.551 102.814 916.674 102.24 916.674 101.479C916.674 99.8027 916.445 98.707 915.988 98.1914C915.52 97.6758 914.365 96.8145 912.525 95.6074C910.686 94.3887 909.467 93.5039 908.869 92.9531C908.271 92.4023 907.773 91.6406 907.375 90.668C906.988 89.6953 906.795 88.4531 906.795 86.9414C906.795 84.7617 907.07 83.168 907.621 82.1602C908.184 81.1523 909.086 80.3672 910.328 79.8047C911.57 79.2305 913.07 78.9434 914.828 78.9434C916.75 78.9434 918.385 79.2539 919.732 79.875C921.092 80.4961 921.988 81.2812 922.422 82.2305C922.867 83.168 923.09 84.7676 923.09 87.0293V88.1543ZM941.723 88.1543H934.85V86.0449C934.85 85.0605 934.762 84.4336 934.586 84.1641C934.41 83.8945 934.117 83.7598 933.707 83.7598C933.262 83.7598 932.922 83.9414 932.688 84.3047C932.465 84.668 932.354 85.2188 932.354 85.957C932.354 86.9062 932.482 87.6211 932.74 88.1016C932.986 88.582 933.684 89.1621 934.832 89.8418C938.125 91.7988 940.199 93.4043 941.055 94.6582C941.91 95.9121 942.338 97.9336 942.338 100.723C942.338 102.75 942.098 104.244 941.617 105.205C941.148 106.166 940.234 106.975 938.875 107.631C937.516 108.275 935.934 108.598 934.129 108.598C932.148 108.598 930.455 108.223 929.049 107.473C927.654 106.723 926.74 105.768 926.307 104.607C925.873 103.447 925.656 101.801 925.656 99.668V97.8047H932.529V101.268C932.529 102.334 932.623 103.02 932.811 103.324C933.01 103.629 933.355 103.781 933.848 103.781C934.34 103.781 934.703 103.588 934.938 103.201C935.184 102.814 935.307 102.24 935.307 101.479C935.307 99.8027 935.078 98.707 934.621 98.1914C934.152 97.6758 932.998 96.8145 931.158 95.6074C929.318 94.3887 928.1 93.5039 927.502 92.9531C926.904 92.4023 926.406 91.6406 926.008 90.668C925.621 89.6953 925.428 88.4531 925.428 86.9414C925.428 84.7617 925.703 83.168 926.254 82.1602C926.816 81.1523 927.719 80.3672 928.961 79.8047C930.203 79.2305 931.703 78.9434 933.461 78.9434C935.383 78.9434 937.018 79.2539 938.365 79.875C939.725 80.4961 940.621 81.2812 941.055 82.2305C941.5 83.168 941.723 84.7676 941.723 87.0293V88.1543Z" fill="#04839D"/>
<path d="M872.434 144.082V201H858.23V170.484C858.23 166.078 858.125 163.43 857.914 162.539C857.703 161.648 857.117 160.98 856.156 160.535C855.219 160.066 853.109 159.832 849.828 159.832H848.422V153.188C855.289 151.711 860.504 148.676 864.066 144.082H872.434ZM911.457 163.348V182.332C911.457 186.645 911.223 189.785 910.754 191.754C910.285 193.723 909.312 195.562 907.836 197.273C906.359 198.984 904.578 200.215 902.492 200.965C900.406 201.715 898.074 202.09 895.496 202.09C892.098 202.09 889.273 201.703 887.023 200.93C884.773 200.133 882.98 198.902 881.645 197.238C880.309 195.574 879.359 193.828 878.797 192C878.234 190.148 877.953 187.219 877.953 183.211V163.348C877.953 158.121 878.398 154.207 879.289 151.605C880.203 149.004 881.996 146.918 884.668 145.348C887.363 143.777 890.621 142.992 894.441 142.992C897.559 142.992 900.348 143.543 902.809 144.645C905.27 145.723 907.109 147.047 908.328 148.617C909.547 150.188 910.367 151.957 910.789 153.926C911.234 155.895 911.457 159.035 911.457 163.348ZM897.254 158.566C897.254 155.543 897.102 153.656 896.797 152.906C896.516 152.133 895.836 151.746 894.758 151.746C893.703 151.746 893 152.156 892.648 152.977C892.32 153.773 892.156 155.637 892.156 158.566V186.34C892.156 189.645 892.309 191.637 892.613 192.316C892.941 192.996 893.633 193.336 894.688 193.336C895.742 193.336 896.434 192.938 896.762 192.141C897.09 191.344 897.254 189.551 897.254 186.762V158.566ZM950.059 163.348V182.332C950.059 186.645 949.824 189.785 949.355 191.754C948.887 193.723 947.914 195.562 946.438 197.273C944.961 198.984 943.18 200.215 941.094 200.965C939.008 201.715 936.676 202.09 934.098 202.09C930.699 202.09 927.875 201.703 925.625 200.93C923.375 200.133 921.582 198.902 920.246 197.238C918.91 195.574 917.961 193.828 917.398 192C916.836 190.148 916.555 187.219 916.555 183.211V163.348C916.555 158.121 917 154.207 917.891 151.605C918.805 149.004 920.598 146.918 923.27 145.348C925.965 143.777 929.223 142.992 933.043 142.992C936.16 142.992 938.949 143.543 941.41 144.645C943.871 145.723 945.711 147.047 946.93 148.617C948.148 150.188 948.969 151.957 949.391 153.926C949.836 155.895 950.059 159.035 950.059 163.348ZM935.855 158.566C935.855 155.543 935.703 153.656 935.398 152.906C935.117 152.133 934.438 151.746 933.359 151.746C932.305 151.746 931.602 152.156 931.25 152.977C930.922 153.773 930.758 155.637 930.758 158.566V186.34C930.758 189.645 930.91 191.637 931.215 192.316C931.543 192.996 932.234 193.336 933.289 193.336C934.344 193.336 935.035 192.938 935.363 192.141C935.691 191.344 935.855 189.551 935.855 186.762V158.566ZM991.402 142.992L969.148 202.09H963.734L986.059 142.992H991.402ZM974.844 153.785V163.559C974.844 166.113 974.598 168.035 974.105 169.324C973.637 170.59 972.605 171.703 971.012 172.664C969.441 173.602 967.355 174.07 964.754 174.07C961.754 174.07 959.469 173.625 957.898 172.734C956.328 171.82 955.262 170.73 954.699 169.465C954.16 168.199 953.891 166.383 953.891 164.016V153.785C953.891 150.973 954.172 148.898 954.734 147.562C955.32 146.203 956.434 145.102 958.074 144.258C959.715 143.414 961.742 142.992 964.156 142.992C966.828 142.992 968.996 143.461 970.66 144.398C972.324 145.312 973.438 146.426 974 147.738C974.562 149.051 974.844 151.066 974.844 153.785ZM965.844 151.289C965.844 149.789 965.762 148.863 965.598 148.512C965.457 148.16 965.047 147.984 964.367 147.984C963.734 147.984 963.324 148.172 963.137 148.547C962.949 148.922 962.855 149.836 962.855 151.289V165.633C962.855 167.273 962.938 168.258 963.102 168.586C963.266 168.914 963.699 169.078 964.402 169.078C965.012 169.078 965.398 168.891 965.562 168.516C965.75 168.141 965.844 167.262 965.844 165.879V151.289ZM1001.25 181.277V191.086C1001.25 193.617 1001 195.527 1000.51 196.816C1000.04 198.105 999.008 199.23 997.414 200.191C995.844 201.129 993.758 201.598 991.156 201.598C988.18 201.598 985.895 201.141 984.301 200.227C982.73 199.312 981.664 198.223 981.102 196.957C980.562 195.691 980.293 193.887 980.293 191.543V181.277C980.293 178.488 980.574 176.426 981.137 175.09C981.723 173.73 982.836 172.629 984.477 171.785C986.117 170.918 988.145 170.484 990.559 170.484C993.254 170.484 995.434 170.953 997.098 171.891C998.762 172.828 999.863 173.953 1000.4 175.266C1000.96 176.578 1001.25 178.582 1001.25 181.277ZM992.246 178.816C992.246 177.316 992.164 176.391 992 176.039C991.859 175.664 991.449 175.477 990.77 175.477C990.137 175.477 989.727 175.664 989.539 176.039C989.375 176.414 989.293 177.34 989.293 178.816V193.16C989.293 194.777 989.375 195.75 989.539 196.078C989.703 196.406 990.125 196.57 990.805 196.57C991.438 196.57 991.836 196.395 992 196.043C992.164 195.668 992.246 194.777 992.246 193.371V178.816Z" fill="#04839D"/>
<path d="M1136.51 251.533H1125.18L1115 226.93H1126.33L1136.51 251.533Z" fill="#04839D" stroke="#04839D" stroke-width="2" stroke-miterlimit="10"/>
<path d="M1152.88 251.533H1141.55L1131.38 226.93H1142.7L1152.88 251.533Z" fill="#04839D" stroke="#04839D" stroke-width="2" stroke-miterlimit="10"/>
<path d="M1169.47 251.391H1158.14L1147.96 226.787H1159.29L1169.47 251.391Z" fill="#04839D" stroke="#04839D" stroke-width="2" stroke-miterlimit="10"/>
<path d="M1186.3 251.461H1174.98L1164.81 226.857H1176.12L1186.3 251.461Z" fill="#04839D" stroke="#04839D" stroke-width="2" stroke-miterlimit="10"/>
<path d="M1202.67 251.461H1191.36L1181.18 226.857H1192.5L1202.67 251.461Z" fill="#04839D" stroke="#04839D" stroke-width="2" stroke-miterlimit="10"/>
<path d="M1219.26 251.321H1207.95L1197.76 226.717H1209.08L1219.26 251.321Z" fill="#04839D" stroke="#04839D" stroke-width="2" stroke-miterlimit="10"/>
<path d="M1235.35 251.321H1224.02L1213.85 226.717H1225.18L1235.35 251.321Z" fill="#04839D" stroke="#04839D" stroke-width="2" stroke-miterlimit="10"/>
<path d="M1251.94 251.179H1240.61L1230.43 226.576H1241.76L1251.94 251.179Z" fill="#FBD4CA" stroke="#04839D" stroke-width="2" stroke-miterlimit="10"/>
<path d="M1268.03 251.25H1256.72L1246.53 226.647H1257.85L1268.03 251.25Z" fill="#FBD4CA" stroke="#04839D" stroke-width="2" stroke-miterlimit="10"/>
<path d="M1283.99 251.293H1272.68L1262.5 226.689H1273.82L1283.99 251.293Z" fill="#FBD4CA" stroke="#04839D" stroke-width="2" stroke-miterlimit="10"/>
<path d="M1159.48 79.541H1164.71C1168.21 79.541 1170.57 79.6758 1171.8 79.9453C1173.04 80.2148 1174.05 80.9062 1174.82 82.0195C1175.61 83.1211 1176 84.8848 1176 87.3105C1176 89.5254 1175.72 91.0137 1175.17 91.7754C1174.62 92.5371 1173.54 92.9941 1171.92 93.1465C1173.39 93.5098 1174.37 93.9961 1174.88 94.6055C1175.38 95.2148 1175.69 95.7773 1175.81 96.293C1175.94 96.7969 1176 98.1973 1176 100.494V108H1169.13V98.543C1169.13 97.0195 1169 96.0762 1168.76 95.7129C1168.52 95.3496 1167.9 95.168 1166.88 95.168V108H1159.48V79.541ZM1166.88 84.4102V90.7383C1167.71 90.7383 1168.29 90.627 1168.62 90.4043C1168.96 90.1699 1169.13 89.4258 1169.13 88.1719V86.6074C1169.13 85.7051 1168.96 85.1133 1168.63 84.832C1168.32 84.5508 1167.73 84.4102 1166.88 84.4102ZM1178.88 79.541H1191.22V85.2363H1186.28V90.6328H1190.91V96.0469H1186.28V102.305H1191.71V108H1178.88V79.541ZM1206.64 79.541L1210.88 108H1203.3L1202.93 102.885H1200.28L1199.84 108H1192.17L1195.93 79.541H1206.64ZM1202.72 97.8398C1202.34 94.6172 1201.97 90.6387 1201.59 85.9043C1200.84 91.3418 1200.38 95.3203 1200.19 97.8398H1202.72ZM1229.42 91.9512H1222.02V86.9941C1222.02 85.5527 1221.94 84.6562 1221.77 84.3047C1221.62 83.9414 1221.28 83.7598 1220.74 83.7598C1220.13 83.7598 1219.74 83.9766 1219.58 84.4102C1219.41 84.8438 1219.33 85.7812 1219.33 87.2227V100.441C1219.33 101.824 1219.41 102.727 1219.58 103.148C1219.74 103.57 1220.11 103.781 1220.68 103.781C1221.23 103.781 1221.59 103.57 1221.76 103.148C1221.93 102.727 1222.02 101.736 1222.02 100.178V96.6094H1229.42V97.7168C1229.42 100.658 1229.21 102.744 1228.79 103.975C1228.38 105.205 1227.46 106.283 1226.03 107.209C1224.61 108.135 1222.86 108.598 1220.77 108.598C1218.6 108.598 1216.82 108.205 1215.41 107.42C1214 106.635 1213.07 105.551 1212.62 104.168C1212.16 102.773 1211.93 100.682 1211.93 97.8926V89.5781C1211.93 87.5273 1212 85.9922 1212.14 84.9727C1212.28 83.9414 1212.7 82.9512 1213.39 82.002C1214.09 81.0527 1215.06 80.3086 1216.29 79.7695C1217.53 79.2188 1218.96 78.9434 1220.56 78.9434C1222.74 78.9434 1224.54 79.3652 1225.96 80.209C1227.38 81.0527 1228.31 82.1074 1228.75 83.373C1229.2 84.627 1229.42 86.584 1229.42 89.2441V91.9512ZM1246.98 79.541V85.2363H1242.59V108H1235.19V85.2363H1230.81V79.541H1246.98Z" fill="#04839D"/>
<path d="M1175.56 144.082V156.492L1166.49 201H1152.36L1162.45 154.312H1148.42V144.082H1175.56ZM1212.23 163.348V182.332C1212.23 186.645 1212 189.785 1211.53 191.754C1211.06 193.723 1210.09 195.562 1208.61 197.273C1207.13 198.984 1205.35 200.215 1203.27 200.965C1201.18 201.715 1198.85 202.09 1196.27 202.09C1192.87 202.09 1190.05 201.703 1187.8 200.93C1185.55 200.133 1183.75 198.902 1182.42 197.238C1181.08 195.574 1180.13 193.828 1179.57 192C1179.01 190.148 1178.73 187.219 1178.73 183.211V163.348C1178.73 158.121 1179.17 154.207 1180.06 151.605C1180.98 149.004 1182.77 146.918 1185.44 145.348C1188.14 143.777 1191.39 142.992 1195.21 142.992C1198.33 142.992 1201.12 143.543 1203.58 144.645C1206.04 145.723 1207.88 147.047 1209.1 148.617C1210.32 150.188 1211.14 151.957 1211.56 153.926C1212.01 155.895 1212.23 159.035 1212.23 163.348ZM1198.03 158.566C1198.03 155.543 1197.88 153.656 1197.57 152.906C1197.29 152.133 1196.61 151.746 1195.53 151.746C1194.48 151.746 1193.77 152.156 1193.42 152.977C1193.09 153.773 1192.93 155.637 1192.93 158.566V186.34C1192.93 189.645 1193.08 191.637 1193.39 192.316C1193.71 192.996 1194.41 193.336 1195.46 193.336C1196.52 193.336 1197.21 192.938 1197.54 192.141C1197.86 191.344 1198.03 189.551 1198.03 186.762V158.566ZM1253.57 142.992L1231.32 202.09H1225.91L1248.23 142.992H1253.57ZM1237.02 153.785V163.559C1237.02 166.113 1236.77 168.035 1236.28 169.324C1235.81 170.59 1234.78 171.703 1233.18 172.664C1231.61 173.602 1229.53 174.07 1226.93 174.07C1223.93 174.07 1221.64 173.625 1220.07 172.734C1218.5 171.82 1217.43 170.73 1216.87 169.465C1216.33 168.199 1216.06 166.383 1216.06 164.016V153.785C1216.06 150.973 1216.34 148.898 1216.91 147.562C1217.49 146.203 1218.61 145.102 1220.25 144.258C1221.89 143.414 1223.91 142.992 1226.33 142.992C1229 142.992 1231.17 143.461 1232.83 144.398C1234.5 145.312 1235.61 146.426 1236.17 147.738C1236.73 149.051 1237.02 151.066 1237.02 153.785ZM1228.02 151.289C1228.02 149.789 1227.93 148.863 1227.77 148.512C1227.63 148.16 1227.22 147.984 1226.54 147.984C1225.91 147.984 1225.5 148.172 1225.31 148.547C1225.12 148.922 1225.03 149.836 1225.03 151.289V165.633C1225.03 167.273 1225.11 168.258 1225.27 168.586C1225.44 168.914 1225.87 169.078 1226.57 169.078C1227.18 169.078 1227.57 168.891 1227.73 168.516C1227.92 168.141 1228.02 167.262 1228.02 165.879V151.289ZM1263.42 181.277V191.086C1263.42 193.617 1263.17 195.527 1262.68 196.816C1262.21 198.105 1261.18 199.23 1259.59 200.191C1258.02 201.129 1255.93 201.598 1253.33 201.598C1250.35 201.598 1248.07 201.141 1246.47 200.227C1244.9 199.312 1243.84 198.223 1243.27 196.957C1242.73 195.691 1242.46 193.887 1242.46 191.543V181.277C1242.46 178.488 1242.75 176.426 1243.31 175.09C1243.89 173.73 1245.01 172.629 1246.65 171.785C1248.29 170.918 1250.32 170.484 1252.73 170.484C1255.43 170.484 1257.61 170.953 1259.27 171.891C1260.93 172.828 1262.04 173.953 1262.57 175.266C1263.14 176.578 1263.42 178.582 1263.42 181.277ZM1254.42 178.816C1254.42 177.316 1254.34 176.391 1254.17 176.039C1254.03 175.664 1253.62 175.477 1252.94 175.477C1252.31 175.477 1251.9 175.664 1251.71 176.039C1251.55 176.414 1251.46 177.34 1251.46 178.816V193.16C1251.46 194.777 1251.55 195.75 1251.71 196.078C1251.88 196.406 1252.3 196.57 1252.98 196.57C1253.61 196.57 1254.01 196.395 1254.17 196.043C1254.34 195.668 1254.42 194.777 1254.42 193.371V178.816Z" fill="#04839D"/>
<path d="M1407.51 251.533H1396.18L1386 226.93H1397.33L1407.51 251.533Z" fill="#04839D" stroke="#04839D" stroke-width="2" stroke-miterlimit="10"/>
<path d="M1423.88 251.533H1412.55L1402.38 226.93H1413.7L1423.88 251.533Z" fill="#04839D" stroke="#04839D" stroke-width="2" stroke-miterlimit="10"/>
<path d="M1440.47 251.391H1429.14L1418.96 226.787H1430.29L1440.47 251.391Z" fill="#04839D" stroke="#04839D" stroke-width="2" stroke-miterlimit="10"/>
<path d="M1457.3 251.461H1445.98L1435.81 226.857H1447.12L1457.3 251.461Z" fill="#04839D" stroke="#04839D" stroke-width="2" stroke-miterlimit="10"/>
<path d="M1473.67 251.461H1462.36L1452.18 226.857H1463.5L1473.67 251.461Z" fill="#04839D" stroke="#04839D" stroke-width="2" stroke-miterlimit="10"/>
<path d="M1490.26 251.321H1478.95L1468.76 226.717H1480.08L1490.26 251.321Z" fill="#04839D" stroke="#04839D" stroke-width="2" stroke-miterlimit="10"/>
<path d="M1506.35 251.321H1495.02L1484.85 226.717H1496.18L1506.35 251.321Z" fill="#04839D" stroke="#04839D" stroke-width="2" stroke-miterlimit="10"/>
<path d="M1522.94 251.179H1511.61L1501.43 226.576H1512.76L1522.94 251.179Z" fill="#FBD4CA" stroke="#04839D" stroke-width="2" stroke-miterlimit="10"/>
<path d="M1539.03 251.25H1527.72L1517.53 226.647H1528.85L1539.03 251.25Z" fill="#FBD4CA" stroke="#04839D" stroke-width="2" stroke-miterlimit="10"/>
<path d="M1554.99 251.293H1543.68L1533.5 226.689H1544.82L1554.99 251.293Z" fill="#FBD4CA" stroke="#04839D" stroke-width="2" stroke-miterlimit="10"/>
<path d="M1450.05 79.541L1446.29 108H1435.06L1430.79 79.541H1438.59C1439.5 87.3809 1440.14 94.0078 1440.53 99.4219C1440.91 93.9492 1441.32 89.0859 1441.74 84.832L1442.25 79.541H1450.05ZM1468.14 79.541V98.5605C1468.14 100.717 1468.07 102.234 1467.93 103.113C1467.79 103.98 1467.38 104.877 1466.68 105.803C1465.99 106.717 1465.08 107.414 1463.94 107.895C1462.82 108.363 1461.49 108.598 1459.95 108.598C1458.25 108.598 1456.75 108.316 1455.45 107.754C1454.15 107.191 1453.18 106.459 1452.53 105.557C1451.89 104.654 1451.51 103.705 1451.39 102.709C1451.27 101.701 1451.21 99.5918 1451.21 96.3809V79.541H1458.62V100.881C1458.62 102.123 1458.68 102.92 1458.81 103.271C1458.95 103.611 1459.22 103.781 1459.63 103.781C1460.1 103.781 1460.4 103.594 1460.53 103.219C1460.67 102.832 1460.74 101.93 1460.74 100.512V79.541H1468.14ZM1471.01 79.541H1483.35V85.2363H1478.41V90.6328H1483.03V96.0469H1478.41V102.305H1483.84V108H1471.01V79.541Z" fill="#04839D"/>
<path d="M1435.56 142.082V154.492L1426.49 199H1412.36L1422.45 152.312H1408.42V142.082H1435.56ZM1472.23 161.348V180.332C1472.23 184.645 1472 187.785 1471.53 189.754C1471.06 191.723 1470.09 193.562 1468.61 195.273C1467.13 196.984 1465.35 198.215 1463.27 198.965C1461.18 199.715 1458.85 200.09 1456.27 200.09C1452.87 200.09 1450.05 199.703 1447.8 198.93C1445.55 198.133 1443.75 196.902 1442.42 195.238C1441.08 193.574 1440.13 191.828 1439.57 190C1439.01 188.148 1438.73 185.219 1438.73 181.211V161.348C1438.73 156.121 1439.17 152.207 1440.06 149.605C1440.98 147.004 1442.77 144.918 1445.44 143.348C1448.14 141.777 1451.39 140.992 1455.21 140.992C1458.33 140.992 1461.12 141.543 1463.58 142.645C1466.04 143.723 1467.88 145.047 1469.1 146.617C1470.32 148.188 1471.14 149.957 1471.56 151.926C1472.01 153.895 1472.23 157.035 1472.23 161.348ZM1458.03 156.566C1458.03 153.543 1457.88 151.656 1457.57 150.906C1457.29 150.133 1456.61 149.746 1455.53 149.746C1454.48 149.746 1453.77 150.156 1453.42 150.977C1453.09 151.773 1452.93 153.637 1452.93 156.566V184.34C1452.93 187.645 1453.08 189.637 1453.39 190.316C1453.71 190.996 1454.41 191.336 1455.46 191.336C1456.52 191.336 1457.21 190.938 1457.54 190.141C1457.86 189.344 1458.03 187.551 1458.03 184.762V156.566ZM1513.57 140.992L1491.32 200.09H1485.91L1508.23 140.992H1513.57ZM1497.02 151.785V161.559C1497.02 164.113 1496.77 166.035 1496.28 167.324C1495.81 168.59 1494.78 169.703 1493.18 170.664C1491.61 171.602 1489.53 172.07 1486.93 172.07C1483.93 172.07 1481.64 171.625 1480.07 170.734C1478.5 169.82 1477.43 168.73 1476.87 167.465C1476.33 166.199 1476.06 164.383 1476.06 162.016V151.785C1476.06 148.973 1476.34 146.898 1476.91 145.562C1477.49 144.203 1478.61 143.102 1480.25 142.258C1481.89 141.414 1483.91 140.992 1486.33 140.992C1489 140.992 1491.17 141.461 1492.83 142.398C1494.5 143.312 1495.61 144.426 1496.17 145.738C1496.73 147.051 1497.02 149.066 1497.02 151.785ZM1488.02 149.289C1488.02 147.789 1487.93 146.863 1487.77 146.512C1487.63 146.16 1487.22 145.984 1486.54 145.984C1485.91 145.984 1485.5 146.172 1485.31 146.547C1485.12 146.922 1485.03 147.836 1485.03 149.289V163.633C1485.03 165.273 1485.11 166.258 1485.27 166.586C1485.44 166.914 1485.87 167.078 1486.57 167.078C1487.18 167.078 1487.57 166.891 1487.73 166.516C1487.92 166.141 1488.02 165.262 1488.02 163.879V149.289ZM1523.42 179.277V189.086C1523.42 191.617 1523.17 193.527 1522.68 194.816C1522.21 196.105 1521.18 197.23 1519.59 198.191C1518.02 199.129 1515.93 199.598 1513.33 199.598C1510.35 199.598 1508.07 199.141 1506.47 198.227C1504.9 197.312 1503.84 196.223 1503.27 194.957C1502.73 193.691 1502.46 191.887 1502.46 189.543V179.277C1502.46 176.488 1502.75 174.426 1503.31 173.09C1503.89 171.73 1505.01 170.629 1506.65 169.785C1508.29 168.918 1510.32 168.484 1512.73 168.484C1515.43 168.484 1517.61 168.953 1519.27 169.891C1520.93 170.828 1522.04 171.953 1522.57 173.266C1523.14 174.578 1523.42 176.582 1523.42 179.277ZM1514.42 176.816C1514.42 175.316 1514.34 174.391 1514.17 174.039C1514.03 173.664 1513.62 173.477 1512.94 173.477C1512.31 173.477 1511.9 173.664 1511.71 174.039C1511.55 174.414 1511.46 175.34 1511.46 176.816V191.16C1511.46 192.777 1511.55 193.75 1511.71 194.078C1511.88 194.406 1512.3 194.57 1512.98 194.57C1513.61 194.57 1514.01 194.395 1514.17 194.043C1514.34 193.668 1514.42 192.777 1514.42 191.371V176.816Z" fill="#04839D"/>
</svg>
