<svg width="729" height="214" viewBox="0 0 729 214" fill="none" xmlns="http://www.w3.org/2000/svg">
<path d="M719.415 212.28L51.8433 199.511L1.16699 173.79L22.2204 20.7741L683.459 14.4619L723.231 33.7398L719.415 212.28Z" fill="#FFD87D" stroke="#B43F4D" stroke-width="2" stroke-miterlimit="10"/>
<path d="M683.896 13.243L3.7002 0.472656L5.38068e-05 174.144L680.195 186.914L683.896 13.243Z" fill="#B43F4D"/>
<path d="M108.171 36.0512L86.3271 103.69L85.4131 142.307L59.711 141.754L60.6251 103.137L42.7292 34.6431L68.2335 35.1919C71.7397 56.0582 73.6492 70.0991 73.962 77.3145C75.769 65.9689 78.6704 52.0316 82.6662 35.5024L108.171 36.0512ZM172.877 99.9479C172.623 110.668 172.179 118.262 171.546 122.732C170.958 127.159 169.28 131.189 166.513 134.821C163.789 138.455 160.141 141.212 155.569 143.091C150.997 144.971 145.701 145.846 139.682 145.717C133.971 145.594 128.852 144.56 124.327 142.617C119.846 140.63 116.266 137.74 113.586 133.946C110.907 130.153 109.356 126.053 108.932 121.649C108.509 117.244 108.427 109.55 108.687 98.5668L109.119 80.3127C109.373 69.593 109.794 62.0198 110.383 57.5929C111.016 53.1231 112.694 49.0714 115.418 45.4377C118.185 41.805 121.855 39.0488 126.427 37.1692C130.999 35.2896 136.295 34.4146 142.314 34.5441C148.025 34.6669 153.121 35.7216 157.602 37.7081C162.128 39.6516 165.73 42.5203 168.41 46.3142C171.089 50.108 172.641 54.2073 173.064 58.6119C173.487 63.0166 173.569 70.7105 173.309 81.6938L172.877 99.9479ZM145.961 64.2924C146.079 59.328 145.868 56.1587 145.329 54.7845C144.835 53.3673 143.732 52.6402 142.018 52.6034C140.568 52.5722 139.434 53.1192 138.617 54.2444C137.844 55.3267 137.392 58.6136 137.262 64.1053L136.083 113.925C135.936 120.12 136.088 123.947 136.537 125.407C137.029 126.869 138.199 127.619 140.044 127.659C141.933 127.699 143.161 126.891 143.728 125.232C144.294 123.574 144.652 119.604 144.801 113.322L145.961 64.2924ZM245.812 39.0127L244.125 110.316C243.933 118.4 243.535 124.083 242.93 127.367C242.326 130.607 240.686 133.934 238.012 137.349C235.339 140.72 231.85 143.26 227.546 144.97C223.286 146.636 218.279 147.408 212.523 147.284C206.153 147.147 200.554 145.971 195.727 143.758C190.9 141.544 187.319 138.72 184.982 135.285C182.646 131.85 181.302 128.261 180.951 124.517C180.601 120.729 180.569 112.817 180.854 100.779L182.348 37.6472L210.093 38.2441L208.199 118.246C208.089 122.903 208.26 125.896 208.712 127.224C209.209 128.509 210.227 129.169 211.764 129.202C213.522 129.24 214.659 128.561 215.175 127.165C215.737 125.727 216.081 122.35 216.206 117.034L218.067 38.4157L245.812 39.0127ZM276.362 39.67L296.001 40.0925C309.094 40.3742 317.935 41.0699 322.524 42.1797C327.157 43.2903 330.874 45.9637 333.675 50.1997C336.521 54.3927 337.837 61.0363 337.621 70.1304C337.425 78.4338 336.26 83.9911 334.128 86.8023C331.995 89.6135 327.891 91.2394 321.814 91.6801C327.274 93.1602 330.921 95.0628 332.756 97.388C334.591 99.7132 335.706 101.847 336.099 103.789C336.538 105.689 336.655 110.944 336.451 119.555L335.785 147.694L310.017 147.14L310.857 111.686C310.992 105.975 310.614 102.428 309.724 101.046C308.877 99.6654 306.543 98.9338 302.721 98.8516L301.582 146.958L273.837 146.361L276.362 39.67ZM303.675 58.5211L303.114 82.2449C306.233 82.312 308.418 81.9415 309.668 81.1332C310.963 80.282 311.666 77.5059 311.777 72.8051L311.916 66.94C311.996 63.5572 311.433 61.3253 310.228 60.2445C309.067 59.1646 306.882 58.5901 303.675 58.5211ZM347.094 41.1918L393.358 42.1873L392.853 63.5387L374.334 63.1402L373.855 83.3714L391.187 83.7443L390.707 104.041L373.375 103.668L372.819 127.129L393.183 127.567L392.678 148.918L344.569 147.883L347.094 41.1918ZM449.13 43.3872L462.487 150.42L434.083 149.809L433.153 130.603L423.202 130.388L421.1 149.53L392.367 148.912L408.995 42.5237L449.13 43.3872ZM432.81 111.672C431.69 99.5606 430.637 84.6151 429.651 66.8359C426.357 87.1603 424.247 102.038 423.32 111.468L432.81 111.672ZM467.733 43.7875L488.492 44.2342C501.893 44.5225 510.929 45.3323 515.601 46.6636C520.317 47.9958 523.871 50.0942 526.265 52.9589C528.659 55.8235 530.122 58.9978 530.655 62.4817C531.189 65.9218 531.337 72.6941 531.098 82.7986L530.213 120.164C529.986 129.741 529.373 136.145 528.374 139.377C527.419 142.565 525.8 145.057 523.515 146.854C521.232 148.607 518.434 149.822 515.121 150.498C511.809 151.13 506.836 151.374 500.202 151.232L465.208 150.479L467.733 43.7875ZM495.046 62.6386L493.385 132.822C497.383 132.908 499.862 132.17 500.822 130.608C501.783 129.002 502.348 124.641 502.517 117.524L503.498 76.073C503.612 71.2404 503.532 68.1398 503.256 66.7713C502.981 65.4027 502.301 64.3991 501.218 63.7604C500.135 63.0778 498.078 62.7039 495.046 62.6386ZM599.425 46.621L577.582 114.26L576.668 152.877L550.966 152.324L551.88 113.707L533.984 45.213L559.488 45.7617C562.994 66.628 564.904 80.6689 565.217 87.8843C567.024 76.5388 569.925 62.6014 573.921 46.0722L599.425 46.621ZM628.022 81.6533L601.397 81.0805C601.707 71.7247 602.659 64.9101 604.255 60.6368C605.851 56.3635 609.169 52.6767 614.209 49.5764C619.295 46.4331 625.704 44.9447 633.437 45.1111C639.016 45.2311 643.872 46.2147 648.005 48.0618C652.137 49.909 655.396 52.4406 657.781 55.6567C660.168 58.8289 661.889 62.2505 662.945 65.9215C664.001 69.5925 664.437 75.3161 664.253 83.0922L663.944 96.1403C663.804 102.071 663.142 106.826 661.958 110.405C660.774 113.984 658.305 117.096 654.55 119.74C650.795 122.384 646.435 123.653 641.47 123.546C635.012 123.408 630.261 120.778 627.217 115.657L626.946 127.124L602.1 126.589L602.795 97.2642L627.047 97.786C627.039 101.83 628.441 103.882 631.253 103.942C633.45 103.99 634.854 103.141 635.467 101.396C636.125 99.6076 636.536 95.2429 636.7 88.3015L637.12 70.5745C637.212 66.6645 636.989 64.0443 636.449 62.7141C635.954 61.3408 634.893 60.6367 633.268 60.6017C631.247 60.5582 629.929 61.431 629.316 63.2199C628.703 64.965 628.323 68.9567 628.175 75.1952L628.022 81.6533ZM626.816 132.594L626.311 153.945L601.466 153.411L601.971 132.059L626.816 132.594Z" fill="#FFD87E"/>
</svg>
