<svg width="1613" height="604" viewBox="0 0 1613 604" fill="none" xmlns="http://www.w3.org/2000/svg">
<path d="M195.195 288.6V589H117.08V462.828H93.7012V589H15.5859V288.6H93.7012V396.031H117.08V288.6H195.195ZM306.754 288.6V589H228.638V288.6H306.754ZM519.249 399.186H441.134V371.91C441.134 354.716 440.392 343.954 438.907 339.625C437.423 335.296 433.898 333.131 428.331 333.131C423.507 333.131 420.229 334.986 418.497 338.697C416.765 342.408 415.9 351.933 415.9 367.271V511.441C415.9 524.924 416.765 533.831 418.497 538.16C420.229 542.366 423.693 544.469 428.888 544.469C434.578 544.469 438.413 542.057 440.392 537.232C442.495 532.408 443.546 523.007 443.546 509.029V473.404H427.775V427.76H519.249V589H470.079L462.843 567.477C457.524 576.754 450.782 583.743 442.618 588.443C434.578 593.02 425.053 595.309 414.044 595.309C400.932 595.309 388.624 592.154 377.12 585.846C365.74 579.413 357.081 571.497 351.144 562.096C345.206 552.695 341.495 542.861 340.011 532.594C338.527 522.203 337.784 506.679 337.784 486.021V396.773C337.784 368.076 339.331 347.232 342.423 334.244C345.515 321.256 354.36 309.381 368.956 298.619C383.676 287.734 402.664 282.291 425.919 282.291C448.803 282.291 467.791 286.992 482.882 296.393C497.973 305.794 507.807 316.988 512.384 329.977C516.961 342.841 519.249 361.581 519.249 386.197V399.186ZM731.188 288.6V589H653.073V462.828H629.694V589H551.579V288.6H629.694V396.031H653.073V288.6H731.188ZM842.746 288.6V528.883H890.246V589H764.631V288.6H842.746ZM989.373 288.6V589H911.258V288.6H989.373ZM1201.87 399.186H1123.75V371.91C1123.75 354.716 1123.01 343.954 1121.53 339.625C1120.04 335.296 1116.52 333.131 1110.95 333.131C1106.13 333.131 1102.85 334.986 1101.12 338.697C1099.39 342.408 1098.52 351.933 1098.52 367.271V511.441C1098.52 524.924 1099.39 533.831 1101.12 538.16C1102.85 542.366 1106.31 544.469 1111.51 544.469C1117.2 544.469 1121.03 542.057 1123.01 537.232C1125.11 532.408 1126.17 523.007 1126.17 509.029V473.404H1110.39V427.76H1201.87V589H1152.7L1145.46 567.477C1140.14 576.754 1133.4 583.743 1125.24 588.443C1117.2 593.02 1107.67 595.309 1096.66 595.309C1083.55 595.309 1071.24 592.154 1059.74 585.846C1048.36 579.413 1039.7 571.497 1033.76 562.096C1027.83 552.695 1024.11 542.861 1022.63 532.594C1021.15 522.203 1020.4 506.679 1020.4 486.021V396.773C1020.4 368.076 1021.95 347.232 1025.04 334.244C1028.14 321.256 1036.98 309.381 1051.58 298.619C1066.3 287.734 1085.28 282.291 1108.54 282.291C1131.42 282.291 1150.41 286.992 1165.5 296.393C1180.59 305.794 1190.43 316.988 1195 329.977C1199.58 342.841 1201.87 361.581 1201.87 386.197V399.186ZM1413.81 288.6V589H1335.69V462.828H1312.31V589H1234.2V288.6H1312.31V396.031H1335.69V288.6H1413.81ZM1604.59 288.6V348.717H1558.21V589H1480.09V348.717H1433.89V288.6H1604.59Z" fill="#F9D3E0"/>
<path d="M195.195 288.6H203.195V280.6H195.195V288.6ZM195.195 589V597H203.195V589H195.195ZM117.08 589H109.08V597H117.08V589ZM117.08 462.828H125.08V454.828H117.08V462.828ZM93.7012 462.828V454.828H85.7012V462.828H93.7012ZM93.7012 589V597H101.701V589H93.7012ZM15.5859 589H7.58594V597H15.5859V589ZM15.5859 288.6V280.6H7.58594V288.6H15.5859ZM93.7012 288.6H101.701V280.6H93.7012V288.6ZM93.7012 396.031H85.7012V404.031H93.7012V396.031ZM117.08 396.031V404.031H125.08V396.031H117.08ZM117.08 288.6V280.6H109.08V288.6H117.08ZM187.195 288.6V589H203.195V288.6H187.195ZM195.195 581H117.08V597H195.195V581ZM125.08 589V462.828H109.08V589H125.08ZM117.08 454.828H93.7012V470.828H117.08V454.828ZM85.7012 462.828V589H101.701V462.828H85.7012ZM93.7012 581H15.5859V597H93.7012V581ZM23.5859 589V288.6H7.58594V589H23.5859ZM15.5859 296.6H93.7012V280.6H15.5859V296.6ZM85.7012 288.6V396.031H101.701V288.6H85.7012ZM93.7012 404.031H117.08V388.031H93.7012V404.031ZM125.08 396.031V288.6H109.08V396.031H125.08ZM117.08 296.6H195.195V280.6H117.08V296.6ZM306.754 288.6H314.754V280.6H306.754V288.6ZM306.754 589V597H314.754V589H306.754ZM228.638 589H220.638V597H228.638V589ZM228.638 288.6V280.6H220.638V288.6H228.638ZM298.754 288.6V589H314.754V288.6H298.754ZM306.754 581H228.638V597H306.754V581ZM236.638 589V288.6H220.638V589H236.638ZM228.638 296.6H306.754V280.6H228.638V296.6ZM519.249 399.186V407.186H527.249V399.186H519.249ZM441.134 399.186H433.134V407.186H441.134V399.186ZM418.497 338.697L411.248 335.314L418.497 338.697ZM418.497 538.16L411.069 541.131L411.084 541.169L411.1 541.206L418.497 538.16ZM440.392 537.232L433.058 534.036L433.023 534.115L432.99 534.196L440.392 537.232ZM443.546 473.404H451.546V465.404H443.546V473.404ZM427.775 473.404H419.775V481.404H427.775V473.404ZM427.775 427.76V419.76H419.775V427.76H427.775ZM519.249 427.76H527.249V419.76H519.249V427.76ZM519.249 589V597H527.249V589H519.249ZM470.079 589L462.496 591.549L464.329 597H470.079V589ZM462.843 567.477L470.426 564.927L464.754 548.058L455.903 563.497L462.843 567.477ZM442.618 588.443L446.576 595.396L446.593 595.386L446.61 595.376L442.618 588.443ZM377.12 585.846L373.184 592.81L373.229 592.835L373.274 592.86L377.12 585.846ZM340.011 532.594L332.091 533.725L332.093 533.738L340.011 532.594ZM368.956 298.619L373.704 305.058L373.713 305.051L368.956 298.619ZM512.384 329.977L504.839 332.635L504.843 332.647L504.847 332.658L512.384 329.977ZM519.249 391.186H441.134V407.186H519.249V391.186ZM449.134 399.186V371.91H433.134V399.186H449.134ZM449.134 371.91C449.134 363.223 448.947 356.031 448.558 350.393C448.186 345 447.591 340.287 446.475 337.03L431.34 342.22C431.708 343.293 432.226 346.125 432.596 351.494C432.95 356.617 433.134 363.403 433.134 371.91H449.134ZM446.475 337.03C445.199 333.307 442.853 330.096 439.336 327.937C435.95 325.858 432.097 325.131 428.331 325.131V341.131C430.131 341.131 430.824 341.486 430.964 341.572C431.025 341.61 431.049 341.634 431.077 341.67C431.112 341.715 431.219 341.868 431.34 342.22L446.475 337.03ZM428.331 325.131C424.917 325.131 421.447 325.787 418.314 327.56C415.099 329.38 412.753 332.089 411.248 335.314L425.747 342.08C425.876 341.803 425.983 341.669 426.032 341.614C426.078 341.563 426.122 341.526 426.195 341.485C426.34 341.402 426.921 341.131 428.331 341.131V325.131ZM411.248 335.314C409.735 338.556 409.016 343.119 408.582 347.9C408.118 353.002 407.9 359.486 407.9 367.271H423.9C423.9 359.719 424.114 353.771 424.516 349.348C424.717 347.138 424.956 345.41 425.211 344.111C425.337 343.467 425.459 342.975 425.565 342.614C425.617 342.436 425.662 342.303 425.696 342.21C425.73 342.116 425.749 342.076 425.747 342.08L411.248 335.314ZM407.9 367.271V511.441H423.9V367.271H407.9ZM407.9 511.441C407.9 518.326 408.119 524.203 408.587 529.008C409.039 533.657 409.771 537.885 411.069 541.131L425.925 535.189C425.492 534.106 424.925 531.716 424.511 527.459C424.113 523.357 423.9 518.04 423.9 511.441H407.9ZM411.1 541.206C412.532 544.685 414.875 547.686 418.242 549.73C421.532 551.728 425.233 552.469 428.888 552.469V536.469C427.348 536.469 426.719 536.158 426.546 536.053C426.449 535.995 426.194 535.842 425.895 535.114L411.1 541.206ZM428.888 552.469C432.856 552.469 436.808 551.622 440.291 549.431C443.825 547.208 446.27 543.982 447.793 540.269L432.99 534.196C432.534 535.307 432.073 535.699 431.772 535.888C431.42 536.109 430.609 536.469 428.888 536.469V552.469ZM447.725 540.429C449.256 536.918 450.152 532.422 450.708 527.453C451.278 522.354 451.546 516.189 451.546 509.029H435.546C435.546 515.847 435.288 521.372 434.807 525.674C434.311 530.106 433.631 532.722 433.058 534.036L447.725 540.429ZM451.546 509.029V473.404H435.546V509.029H451.546ZM443.546 465.404H427.775V481.404H443.546V465.404ZM435.775 473.404V427.76H419.775V473.404H435.775ZM427.775 435.76H519.249V419.76H427.775V435.76ZM511.249 427.76V589H527.249V427.76H511.249ZM519.249 581H470.079V597H519.249V581ZM477.662 586.451L470.426 564.927L455.26 570.026L462.496 591.549L477.662 586.451ZM455.903 563.497C451.191 571.716 445.405 577.608 438.627 581.51L446.61 595.376C456.16 589.878 463.857 581.792 469.783 571.456L455.903 563.497ZM438.661 581.491C432.037 585.261 423.93 587.309 414.044 587.309V603.309C426.177 603.309 437.119 600.779 446.576 595.396L438.661 581.491ZM414.044 587.309C402.278 587.309 391.293 584.494 380.967 578.831L373.274 592.86C385.956 599.815 399.587 603.309 414.044 603.309V587.309ZM381.057 578.881C370.625 572.985 363.025 565.926 357.908 557.824L344.38 566.368C351.137 577.067 360.856 585.842 373.184 592.81L381.057 578.881ZM357.908 557.824C352.526 549.303 349.241 540.526 347.929 531.449L332.093 533.738C333.75 545.196 337.886 556.086 344.38 566.368L357.908 557.824ZM347.931 531.462C346.529 521.652 345.784 506.589 345.784 486.021H329.784C329.784 506.769 330.524 522.754 332.091 533.725L347.931 531.462ZM345.784 486.021V396.773H329.784V486.021H345.784ZM345.784 396.773C345.784 368.156 347.345 348.113 350.205 336.097L334.641 332.391C331.317 346.352 329.784 367.995 329.784 396.773H345.784ZM350.205 336.097C352.725 325.515 360.083 315.101 373.704 305.058L364.209 292.18C348.637 303.661 338.306 316.997 334.641 332.391L350.205 336.097ZM373.713 305.051C386.723 295.43 403.91 290.291 425.919 290.291V274.291C401.418 274.291 380.629 280.037 364.2 292.187L373.713 305.051ZM425.919 290.291C447.731 290.291 465.147 294.77 478.652 303.183L487.112 289.602C470.435 279.213 449.876 274.291 425.919 274.291V290.291ZM478.652 303.183C492.655 311.906 501.022 321.805 504.839 332.635L519.929 327.318C514.592 312.171 503.291 299.681 487.112 289.602L478.652 303.183ZM504.847 332.658C508.964 344.23 511.249 361.884 511.249 386.197H527.249C527.249 361.279 524.958 341.452 519.921 327.295L504.847 332.658ZM511.249 386.197V399.186H527.249V386.197H511.249ZM731.188 288.6H739.188V280.6H731.188V288.6ZM731.188 589V597H739.188V589H731.188ZM653.073 589H645.073V597H653.073V589ZM653.073 462.828H661.073V454.828H653.073V462.828ZM629.694 462.828V454.828H621.694V462.828H629.694ZM629.694 589V597H637.694V589H629.694ZM551.579 589H543.579V597H551.579V589ZM551.579 288.6V280.6H543.579V288.6H551.579ZM629.694 288.6H637.694V280.6H629.694V288.6ZM629.694 396.031H621.694V404.031H629.694V396.031ZM653.073 396.031V404.031H661.073V396.031H653.073ZM653.073 288.6V280.6H645.073V288.6H653.073ZM723.188 288.6V589H739.188V288.6H723.188ZM731.188 581H653.073V597H731.188V581ZM661.073 589V462.828H645.073V589H661.073ZM653.073 454.828H629.694V470.828H653.073V454.828ZM621.694 462.828V589H637.694V462.828H621.694ZM629.694 581H551.579V597H629.694V581ZM559.579 589V288.6H543.579V589H559.579ZM551.579 296.6H629.694V280.6H551.579V296.6ZM621.694 288.6V396.031H637.694V288.6H621.694ZM629.694 404.031H653.073V388.031H629.694V404.031ZM661.073 396.031V288.6H645.073V396.031H661.073ZM653.073 296.6H731.188V280.6H653.073V296.6ZM842.746 288.6H850.746V280.6H842.746V288.6ZM842.746 528.883H834.746V536.883H842.746V528.883ZM890.246 528.883H898.246V520.883H890.246V528.883ZM890.246 589V597H898.246V589H890.246ZM764.631 589H756.631V597H764.631V589ZM764.631 288.6V280.6H756.631V288.6H764.631ZM834.746 288.6V528.883H850.746V288.6H834.746ZM842.746 536.883H890.246V520.883H842.746V536.883ZM882.246 528.883V589H898.246V528.883H882.246ZM890.246 581H764.631V597H890.246V581ZM772.631 589V288.6H756.631V589H772.631ZM764.631 296.6H842.746V280.6H764.631V296.6ZM989.373 288.6H997.373V280.6H989.373V288.6ZM989.373 589V597H997.373V589H989.373ZM911.258 589H903.258V597H911.258V589ZM911.258 288.6V280.6H903.258V288.6H911.258ZM981.373 288.6V589H997.373V288.6H981.373ZM989.373 581H911.258V597H989.373V581ZM919.258 589V288.6H903.258V589H919.258ZM911.258 296.6H989.373V280.6H911.258V296.6ZM1201.87 399.186V407.186H1209.87V399.186H1201.87ZM1123.75 399.186H1115.75V407.186H1123.75V399.186ZM1101.12 338.697L1093.87 335.314L1101.12 338.697ZM1101.12 538.16L1093.69 541.131L1093.7 541.169L1093.72 541.206L1101.12 538.16ZM1123.01 537.232L1115.68 534.036L1115.64 534.115L1115.61 534.196L1123.01 537.232ZM1126.17 473.404H1134.17V465.404H1126.17V473.404ZM1110.39 473.404H1102.39V481.404H1110.39V473.404ZM1110.39 427.76V419.76H1102.39V427.76H1110.39ZM1201.87 427.76H1209.87V419.76H1201.87V427.76ZM1201.87 589V597H1209.87V589H1201.87ZM1152.7 589L1145.12 591.549L1146.95 597H1152.7V589ZM1145.46 567.477L1153.05 564.927L1147.37 548.058L1138.52 563.497L1145.46 567.477ZM1125.24 588.443L1129.2 595.396L1129.21 595.386L1129.23 595.376L1125.24 588.443ZM1059.74 585.846L1055.8 592.81L1055.85 592.835L1055.89 592.86L1059.74 585.846ZM1022.63 532.594L1014.71 533.725L1014.71 533.738L1022.63 532.594ZM1051.58 298.619L1056.32 305.058L1056.33 305.051L1051.58 298.619ZM1195 329.977L1187.46 332.635L1187.46 332.647L1187.47 332.658L1195 329.977ZM1201.87 391.186H1123.75V407.186H1201.87V391.186ZM1131.75 399.186V371.91H1115.75V399.186H1131.75ZM1131.75 371.91C1131.75 363.223 1131.57 356.031 1131.18 350.393C1130.81 345 1130.21 340.287 1129.09 337.03L1113.96 342.22C1114.33 343.293 1114.85 346.125 1115.22 351.494C1115.57 356.617 1115.75 363.403 1115.75 371.91H1131.75ZM1129.09 337.03C1127.82 333.307 1125.47 330.096 1121.96 327.937C1118.57 325.858 1114.72 325.131 1110.95 325.131V341.131C1112.75 341.131 1113.44 341.486 1113.58 341.572C1113.65 341.61 1113.67 341.634 1113.7 341.67C1113.73 341.715 1113.84 341.868 1113.96 342.22L1129.09 337.03ZM1110.95 325.131C1107.54 325.131 1104.07 325.787 1100.93 327.56C1097.72 329.38 1095.37 332.089 1093.87 335.314L1108.37 342.08C1108.5 341.803 1108.6 341.669 1108.65 341.614C1108.7 341.563 1108.74 341.526 1108.81 341.485C1108.96 341.402 1109.54 341.131 1110.95 341.131V325.131ZM1093.87 335.314C1092.35 338.556 1091.64 343.119 1091.2 347.9C1090.74 353.002 1090.52 359.486 1090.52 367.271H1106.52C1106.52 359.719 1106.73 353.771 1107.14 349.348C1107.34 347.138 1107.58 345.41 1107.83 344.111C1107.96 343.467 1108.08 342.975 1108.18 342.614C1108.24 342.436 1108.28 342.303 1108.32 342.21C1108.35 342.116 1108.37 342.076 1108.37 342.08L1093.87 335.314ZM1090.52 367.271V511.441H1106.52V367.271H1090.52ZM1090.52 511.441C1090.52 518.326 1090.74 524.203 1091.21 529.008C1091.66 533.657 1092.39 537.885 1093.69 541.131L1108.54 535.189C1108.11 534.106 1107.54 531.716 1107.13 527.459C1106.73 523.357 1106.52 518.04 1106.52 511.441H1090.52ZM1093.72 541.206C1095.15 544.685 1097.49 547.686 1100.86 549.73C1104.15 551.728 1107.85 552.469 1111.51 552.469V536.469C1109.97 536.469 1109.34 536.158 1109.17 536.053C1109.07 535.995 1108.81 535.842 1108.51 535.114L1093.72 541.206ZM1111.51 552.469C1115.48 552.469 1119.43 551.622 1122.91 549.431C1126.44 547.208 1128.89 543.982 1130.41 540.269L1115.61 534.196C1115.15 535.307 1114.69 535.699 1114.39 535.888C1114.04 536.109 1113.23 536.469 1111.51 536.469V552.469ZM1130.34 540.429C1131.88 536.918 1132.77 532.422 1133.33 527.453C1133.9 522.354 1134.17 516.189 1134.17 509.029H1118.17C1118.17 515.847 1117.91 521.372 1117.43 525.674C1116.93 530.106 1116.25 532.722 1115.68 534.036L1130.34 540.429ZM1134.17 509.029V473.404H1118.17V509.029H1134.17ZM1126.17 465.404H1110.39V481.404H1126.17V465.404ZM1118.39 473.404V427.76H1102.39V473.404H1118.39ZM1110.39 435.76H1201.87V419.76H1110.39V435.76ZM1193.87 427.76V589H1209.87V427.76H1193.87ZM1201.87 581H1152.7V597H1201.87V581ZM1160.28 586.451L1153.05 564.927L1137.88 570.026L1145.12 591.549L1160.28 586.451ZM1138.52 563.497C1133.81 571.716 1128.02 577.608 1121.25 581.51L1129.23 595.376C1138.78 589.878 1146.48 581.792 1152.4 571.456L1138.52 563.497ZM1121.28 581.491C1114.66 585.261 1106.55 587.309 1096.66 587.309V603.309C1108.8 603.309 1119.74 600.779 1129.2 595.396L1121.28 581.491ZM1096.66 587.309C1084.9 587.309 1073.91 584.494 1063.59 578.831L1055.89 592.86C1068.58 599.815 1082.21 603.309 1096.66 603.309V587.309ZM1063.68 578.881C1053.24 572.985 1045.64 565.926 1040.53 557.824L1027 566.368C1033.76 577.067 1043.48 585.842 1055.8 592.81L1063.68 578.881ZM1040.53 557.824C1035.15 549.303 1031.86 540.526 1030.55 531.449L1014.71 533.738C1016.37 545.196 1020.51 556.086 1027 566.368L1040.53 557.824ZM1030.55 531.462C1029.15 521.652 1028.4 506.589 1028.4 486.021H1012.4C1012.4 506.769 1013.14 522.754 1014.71 533.725L1030.55 531.462ZM1028.4 486.021V396.773H1012.4V486.021H1028.4ZM1028.4 396.773C1028.4 368.156 1029.96 348.113 1032.83 336.097L1017.26 332.391C1013.94 346.352 1012.4 367.995 1012.4 396.773H1028.4ZM1032.83 336.097C1035.34 325.515 1042.7 315.101 1056.32 305.058L1046.83 292.18C1031.26 303.661 1020.93 316.997 1017.26 332.391L1032.83 336.097ZM1056.33 305.051C1069.34 295.43 1086.53 290.291 1108.54 290.291V274.291C1084.04 274.291 1063.25 280.037 1046.82 292.187L1056.33 305.051ZM1108.54 290.291C1130.35 290.291 1147.77 294.77 1161.27 303.183L1169.73 289.602C1153.05 279.213 1132.5 274.291 1108.54 274.291V290.291ZM1161.27 303.183C1175.28 311.906 1183.64 321.805 1187.46 332.635L1202.55 327.318C1197.21 312.171 1185.91 299.681 1169.73 289.602L1161.27 303.183ZM1187.47 332.658C1191.58 344.23 1193.87 361.884 1193.87 386.197H1209.87C1209.87 361.279 1207.58 341.452 1202.54 327.295L1187.47 332.658ZM1193.87 386.197V399.186H1209.87V386.197H1193.87ZM1413.81 288.6H1421.81V280.6H1413.81V288.6ZM1413.81 589V597H1421.81V589H1413.81ZM1335.69 589H1327.69V597H1335.69V589ZM1335.69 462.828H1343.69V454.828H1335.69V462.828ZM1312.31 462.828V454.828H1304.31V462.828H1312.31ZM1312.31 589V597H1320.31V589H1312.31ZM1234.2 589H1226.2V597H1234.2V589ZM1234.2 288.6V280.6H1226.2V288.6H1234.2ZM1312.31 288.6H1320.31V280.6H1312.31V288.6ZM1312.31 396.031H1304.31V404.031H1312.31V396.031ZM1335.69 396.031V404.031H1343.69V396.031H1335.69ZM1335.69 288.6V280.6H1327.69V288.6H1335.69ZM1405.81 288.6V589H1421.81V288.6H1405.81ZM1413.81 581H1335.69V597H1413.81V581ZM1343.69 589V462.828H1327.69V589H1343.69ZM1335.69 454.828H1312.31V470.828H1335.69V454.828ZM1304.31 462.828V589H1320.31V462.828H1304.31ZM1312.31 581H1234.2V597H1312.31V581ZM1242.2 589V288.6H1226.2V589H1242.2ZM1234.2 296.6H1312.31V280.6H1234.2V296.6ZM1304.31 288.6V396.031H1320.31V288.6H1304.31ZM1312.31 404.031H1335.69V388.031H1312.31V404.031ZM1343.69 396.031V288.6H1327.69V396.031H1343.69ZM1335.69 296.6H1413.81V280.6H1335.69V296.6ZM1604.59 288.6H1612.59V280.6H1604.59V288.6ZM1604.59 348.717V356.717H1612.59V348.717H1604.59ZM1558.21 348.717V340.717H1550.21V348.717H1558.21ZM1558.21 589V597H1566.21V589H1558.21ZM1480.09 589H1472.09V597H1480.09V589ZM1480.09 348.717H1488.09V340.717H1480.09V348.717ZM1433.89 348.717H1425.89V356.717H1433.89V348.717ZM1433.89 288.6V280.6H1425.89V288.6H1433.89ZM1596.59 288.6V348.717H1612.59V288.6H1596.59ZM1604.59 340.717H1558.21V356.717H1604.59V340.717ZM1550.21 348.717V589H1566.21V348.717H1550.21ZM1558.21 581H1480.09V597H1558.21V581ZM1488.09 589V348.717H1472.09V589H1488.09ZM1480.09 340.717H1433.89V356.717H1480.09V340.717ZM1441.89 348.717V288.6H1425.89V348.717H1441.89ZM1433.89 296.6H1604.59V280.6H1433.89V296.6Z" fill="#3F52A0"/>
<path d="M696.93 8.59961V68.7168H650.543V309H572.428V68.7168H526.227V8.59961H696.93ZM894.352 8.59961V309H816.236V182.828H792.857V309H714.742V8.59961H792.857V116.031H816.236V8.59961H894.352ZM925.895 8.59961H1056.15V68.7168H1004.01V125.68H1052.81V182.828H1004.01V248.883H1061.34V309H925.895V8.59961Z" fill="#F9D3E0"/>
<path d="M696.93 8.59961H704.93V0.599609H696.93V8.59961ZM696.93 68.7168V76.7168H704.93V68.7168H696.93ZM650.543 68.7168V60.7168H642.543V68.7168H650.543ZM650.543 309V317H658.543V309H650.543ZM572.428 309H564.428V317H572.428V309ZM572.428 68.7168H580.428V60.7168H572.428V68.7168ZM526.227 68.7168H518.227V76.7168H526.227V68.7168ZM526.227 8.59961V0.599609H518.227V8.59961H526.227ZM688.93 8.59961V68.7168H704.93V8.59961H688.93ZM696.93 60.7168H650.543V76.7168H696.93V60.7168ZM642.543 68.7168V309H658.543V68.7168H642.543ZM650.543 301H572.428V317H650.543V301ZM580.428 309V68.7168H564.428V309H580.428ZM572.428 60.7168H526.227V76.7168H572.428V60.7168ZM534.227 68.7168V8.59961H518.227V68.7168H534.227ZM526.227 16.5996H696.93V0.599609H526.227V16.5996ZM894.352 8.59961H902.352V0.599609H894.352V8.59961ZM894.352 309V317H902.352V309H894.352ZM816.236 309H808.236V317H816.236V309ZM816.236 182.828H824.236V174.828H816.236V182.828ZM792.857 182.828V174.828H784.857V182.828H792.857ZM792.857 309V317H800.857V309H792.857ZM714.742 309H706.742V317H714.742V309ZM714.742 8.59961V0.599609H706.742V8.59961H714.742ZM792.857 8.59961H800.857V0.599609H792.857V8.59961ZM792.857 116.031H784.857V124.031H792.857V116.031ZM816.236 116.031V124.031H824.236V116.031H816.236ZM816.236 8.59961V0.599609H808.236V8.59961H816.236ZM886.352 8.59961V309H902.352V8.59961H886.352ZM894.352 301H816.236V317H894.352V301ZM824.236 309V182.828H808.236V309H824.236ZM816.236 174.828H792.857V190.828H816.236V174.828ZM784.857 182.828V309H800.857V182.828H784.857ZM792.857 301H714.742V317H792.857V301ZM722.742 309V8.59961H706.742V309H722.742ZM714.742 16.5996H792.857V0.599609H714.742V16.5996ZM784.857 8.59961V116.031H800.857V8.59961H784.857ZM792.857 124.031H816.236V108.031H792.857V124.031ZM824.236 116.031V8.59961H808.236V116.031H824.236ZM816.236 16.5996H894.352V0.599609H816.236V16.5996ZM925.895 8.59961V0.599609H917.895V8.59961H925.895ZM1056.15 8.59961H1064.15V0.599609H1056.15V8.59961ZM1056.15 68.7168V76.7168H1064.15V68.7168H1056.15ZM1004.01 68.7168V60.7168H996.01V68.7168H1004.01ZM1004.01 125.68H996.01V133.68H1004.01V125.68ZM1052.81 125.68H1060.81V117.68H1052.81V125.68ZM1052.81 182.828V190.828H1060.81V182.828H1052.81ZM1004.01 182.828V174.828H996.01V182.828H1004.01ZM1004.01 248.883H996.01V256.883H1004.01V248.883ZM1061.34 248.883H1069.34V240.883H1061.34V248.883ZM1061.34 309V317H1069.34V309H1061.34ZM925.895 309H917.895V317H925.895V309ZM925.895 16.5996H1056.15V0.599609H925.895V16.5996ZM1048.15 8.59961V68.7168H1064.15V8.59961H1048.15ZM1056.15 60.7168H1004.01V76.7168H1056.15V60.7168ZM996.01 68.7168V125.68H1012.01V68.7168H996.01ZM1004.01 133.68H1052.81V117.68H1004.01V133.68ZM1044.81 125.68V182.828H1060.81V125.68H1044.81ZM1052.81 174.828H1004.01V190.828H1052.81V174.828ZM996.01 182.828V248.883H1012.01V182.828H996.01ZM1004.01 256.883H1061.34V240.883H1004.01V256.883ZM1053.34 248.883V309H1069.34V248.883H1053.34ZM1061.34 301H925.895V317H1061.34V301ZM933.895 309V8.59961H917.895V309H933.895Z" fill="#3F52A0"/>
</svg>
