<svg width="1535" height="704" viewBox="0 0 1535 704" fill="none" xmlns="http://www.w3.org/2000/svg">
<path d="M231.152 332.263V688H138.647V538.586H110.962V688H18.457V332.263H110.962V459.484H138.647V332.263H231.152ZM361.011 332.263V688H268.506V332.263H361.011ZM594.141 439.929H508.228V413.562C508.228 401.257 507.129 393.42 504.932 390.051C502.734 386.682 499.072 384.997 493.945 384.997C488.379 384.997 484.131 387.268 481.201 391.809C478.418 396.35 477.026 403.234 477.026 412.463C477.026 424.328 478.638 433.264 481.86 439.27C484.937 445.275 493.652 452.526 508.008 461.022C549.17 485.485 575.098 505.554 585.791 521.228C596.484 536.901 601.831 562.17 601.831 597.033C601.831 622.375 598.828 641.052 592.822 653.063C586.963 665.075 575.537 675.183 558.545 683.386C541.553 691.442 521.777 695.471 499.219 695.471C474.463 695.471 453.296 690.783 435.718 681.408C418.286 672.033 406.86 660.095 401.44 645.593C396.021 631.091 393.311 610.51 393.311 583.85V560.559H479.224V603.845C479.224 617.175 480.396 625.744 482.739 629.553C485.229 633.361 489.551 635.266 495.703 635.266C501.855 635.266 506.396 632.849 509.326 628.015C512.402 623.181 513.94 616.003 513.94 606.481C513.94 585.534 511.084 571.838 505.371 565.393C499.512 558.947 485.083 548.181 462.085 533.093C439.087 517.858 423.853 506.799 416.382 499.914C408.911 493.029 402.686 483.508 397.705 471.35C392.871 459.191 390.454 443.664 390.454 424.768C390.454 397.521 393.896 377.6 400.781 365.002C407.812 352.404 419.092 342.59 434.619 335.559C450.146 328.381 468.896 324.792 490.869 324.792C514.893 324.792 535.327 328.674 552.173 336.438C569.165 344.201 580.371 354.016 585.791 365.881C591.357 377.6 594.141 397.595 594.141 425.866V439.929ZM817.383 332.263V403.454H762.451V688H669.946V403.454H615.234V332.263H817.383ZM1049.85 540.563C1049.85 576.306 1048.97 601.647 1047.22 616.589C1045.61 631.384 1040.33 644.934 1031.4 657.238C1022.61 669.543 1010.67 678.991 995.581 685.583C980.493 692.175 962.915 695.471 942.847 695.471C923.804 695.471 906.665 692.395 891.431 686.242C876.343 679.943 864.185 670.568 854.956 658.117C845.728 645.666 840.234 632.116 838.477 617.468C836.719 602.819 835.84 577.185 835.84 540.563V479.699C835.84 443.957 836.646 418.688 838.257 403.894C840.015 388.952 845.288 375.329 854.077 363.024C863.013 350.72 875.024 341.271 890.112 334.68C905.2 328.088 922.778 324.792 942.847 324.792C961.89 324.792 978.955 327.941 994.043 334.24C1009.28 340.393 1021.51 349.694 1030.74 362.146C1039.97 374.597 1045.46 388.146 1047.22 402.795C1048.97 417.443 1049.85 443.078 1049.85 479.699V540.563ZM957.349 423.669C957.349 407.116 956.396 396.569 954.492 392.028C952.734 387.341 948.999 384.997 943.286 384.997C938.452 384.997 934.717 386.901 932.08 390.71C929.59 394.372 928.345 405.358 928.345 423.669V589.782C928.345 610.437 929.15 623.181 930.762 628.015C932.52 632.849 936.475 635.266 942.627 635.266C948.926 635.266 952.954 632.482 954.712 626.916C956.47 621.35 957.349 608.093 957.349 587.146V423.669ZM1084.57 332.263H1150.05C1193.7 332.263 1223.22 333.947 1238.6 337.316C1254.13 340.686 1266.72 349.328 1276.39 363.244C1286.21 377.014 1291.11 399.06 1291.11 429.382C1291.11 457.067 1287.67 475.671 1280.79 485.192C1273.9 494.714 1260.35 500.427 1240.14 502.331C1258.45 506.872 1270.75 512.951 1277.05 520.568C1283.35 528.186 1287.23 535.217 1288.7 541.662C1290.31 547.961 1291.11 565.466 1291.11 594.177V688H1205.2V569.787C1205.2 550.744 1203.66 538.952 1200.59 534.411C1197.66 529.87 1189.82 527.6 1177.08 527.6V688H1084.57V332.263ZM1177.08 393.127V472.229C1187.48 472.229 1194.73 470.837 1198.83 468.054C1203.08 465.124 1205.2 455.822 1205.2 440.148V420.593C1205.2 409.313 1203.15 401.916 1199.05 398.4C1195.09 394.885 1187.77 393.127 1177.08 393.127ZM1524.24 332.263L1456.79 559.24V688H1371.09V559.24L1306.05 332.263H1391.09C1404.42 401.55 1411.89 448.205 1413.5 472.229C1418.63 434.289 1427.2 387.634 1439.21 332.263H1524.24Z" fill="#FBD4CA"/>
<path d="M231.152 332.263H239.152V324.263H231.152V332.263ZM231.152 688V696H239.152V688H231.152ZM138.647 688H130.647V696H138.647V688ZM138.647 538.586H146.647V530.586H138.647V538.586ZM110.962 538.586V530.586H102.962V538.586H110.962ZM110.962 688V696H118.962V688H110.962ZM18.457 688H10.457V696H18.457V688ZM18.457 332.263V324.263H10.457V332.263H18.457ZM110.962 332.263H118.962V324.263H110.962V332.263ZM110.962 459.484H102.962V467.484H110.962V459.484ZM138.647 459.484V467.484H146.647V459.484H138.647ZM138.647 332.263V324.263H130.647V332.263H138.647ZM223.152 332.263V688H239.152V332.263H223.152ZM231.152 680H138.647V696H231.152V680ZM146.647 688V538.586H130.647V688H146.647ZM138.647 530.586H110.962V546.586H138.647V530.586ZM102.962 538.586V688H118.962V538.586H102.962ZM110.962 680H18.457V696H110.962V680ZM26.457 688V332.263H10.457V688H26.457ZM18.457 340.263H110.962V324.263H18.457V340.263ZM102.962 332.263V459.484H118.962V332.263H102.962ZM110.962 467.484H138.647V451.484H110.962V467.484ZM146.647 459.484V332.263H130.647V459.484H146.647ZM138.647 340.263H231.152V324.263H138.647V340.263ZM361.011 332.263H369.011V324.263H361.011V332.263ZM361.011 688V696H369.011V688H361.011ZM268.506 688H260.506V696H268.506V688ZM268.506 332.263V324.263H260.506V332.263H268.506ZM353.011 332.263V688H369.011V332.263H353.011ZM361.011 680H268.506V696H361.011V680ZM276.506 688V332.263H260.506V688H276.506ZM268.506 340.263H361.011V324.263H268.506V340.263ZM594.141 439.929V447.929H602.141V439.929H594.141ZM508.228 439.929H500.228V447.929H508.228V439.929ZM481.201 391.809L474.479 387.472L474.429 387.549L474.38 387.628L481.201 391.809ZM481.86 439.27L488.981 435.623L488.946 435.554L488.91 435.487L481.86 439.27ZM508.008 461.022L512.095 454.145L512.089 454.142L512.082 454.138L508.008 461.022ZM592.822 653.063L585.667 649.486L585.649 649.521L585.632 649.556L592.822 653.063ZM558.545 683.386L561.972 690.614L561.998 690.602L562.023 690.59L558.545 683.386ZM435.718 681.408L431.928 688.454L431.941 688.46L431.953 688.467L435.718 681.408ZM393.311 560.559V552.559H385.311V560.559H393.311ZM479.224 560.559H487.224V552.559H479.224V560.559ZM482.739 629.553L475.926 633.746L475.983 633.839L476.043 633.931L482.739 629.553ZM509.326 628.015L502.577 623.72L502.53 623.793L502.485 623.868L509.326 628.015ZM505.371 565.393L511.358 560.086L511.324 560.048L511.291 560.011L505.371 565.393ZM462.085 533.093L457.667 539.762L457.682 539.772L457.697 539.782L462.085 533.093ZM397.705 471.35L390.271 474.305L390.286 474.344L390.302 474.382L397.705 471.35ZM400.781 365.002L393.796 361.103L393.778 361.134L393.761 361.165L400.781 365.002ZM434.619 335.559L437.919 342.846L437.948 342.833L437.976 342.82L434.619 335.559ZM552.173 336.438L548.824 343.703L548.836 343.709L548.848 343.714L552.173 336.438ZM585.791 365.881L578.514 369.205L578.539 369.259L578.565 369.313L585.791 365.881ZM594.141 431.929H508.228V447.929H594.141V431.929ZM516.228 439.929V413.562H500.228V439.929H516.228ZM516.228 413.562C516.228 407.217 515.947 401.774 515.326 397.345C514.742 393.175 513.735 388.904 511.633 385.681L498.231 394.421C498.209 394.388 498.417 394.714 498.699 395.673C498.969 396.593 499.243 397.868 499.481 399.566C499.959 402.973 500.228 407.601 500.228 413.562H516.228ZM511.633 385.681C507.552 379.424 500.936 376.997 493.945 376.997V392.997C497.208 392.997 497.917 393.939 498.231 394.421L511.633 385.681ZM493.945 376.997C485.76 376.997 478.934 380.565 474.479 387.472L487.924 396.146C489.327 393.97 490.998 392.997 493.945 392.997V376.997ZM474.38 387.628C470.448 394.044 469.026 402.706 469.026 412.463H485.026C485.026 403.762 486.388 398.655 488.022 395.989L474.38 387.628ZM469.026 412.463C469.026 424.802 470.659 435.315 474.811 443.052L488.91 435.487C486.616 431.212 485.026 423.854 485.026 412.463H469.026ZM474.74 442.917C476.995 447.319 480.889 451.453 485.588 455.362C490.386 459.354 496.543 463.533 503.933 467.907L512.082 454.138C505.117 450.016 499.738 446.321 495.821 443.062C491.804 439.72 489.802 437.226 488.981 435.623L474.74 442.917ZM503.921 467.9C524.336 480.033 540.811 490.981 553.429 500.747C566.138 510.584 574.53 518.917 579.182 525.736L592.4 516.719C586.359 507.865 576.44 498.326 563.222 488.095C549.912 477.792 532.842 466.475 512.095 454.145L503.921 467.9ZM579.182 525.736C588.483 539.368 593.831 562.617 593.831 597.033H609.831C609.831 561.723 604.486 534.435 592.4 516.719L579.182 525.736ZM593.831 597.033C593.831 622.048 590.817 639.185 585.667 649.486L599.978 656.641C606.839 642.918 609.831 622.702 609.831 597.033H593.831ZM585.632 649.556C580.828 659.406 571.094 668.444 555.067 676.181L562.023 690.59C579.981 681.921 593.098 670.745 600.012 656.571L585.632 649.556ZM555.118 676.157C539.389 683.615 520.825 687.471 499.219 687.471V703.471C522.729 703.471 543.716 699.27 561.972 690.614L555.118 676.157ZM499.219 687.471C475.463 687.471 455.654 682.974 439.482 674.349L431.953 688.467C450.938 698.592 473.463 703.471 499.219 703.471V687.471ZM439.507 674.363C423.295 665.643 413.503 655.016 408.934 642.792L393.947 648.393C400.218 665.173 413.277 678.423 431.928 688.454L439.507 674.363ZM408.934 642.792C404.007 629.608 401.311 610.141 401.311 583.85H385.311C385.311 610.878 388.034 632.574 393.947 648.393L408.934 642.792ZM401.311 583.85V560.559H385.311V583.85H401.311ZM393.311 568.559H479.224V552.559H393.311V568.559ZM471.224 560.559V603.845H487.224V560.559H471.224ZM471.224 603.845C471.224 610.701 471.522 616.572 472.176 621.353C472.798 625.902 473.849 630.37 475.926 633.746L489.553 625.36C489.286 624.926 488.579 623.206 488.029 619.185C487.511 615.397 487.224 610.319 487.224 603.845H471.224ZM476.043 633.931C480.507 640.757 487.902 643.266 495.703 643.266V627.266C491.199 627.266 489.952 625.965 489.435 625.175L476.043 633.931ZM495.703 643.266C504.355 643.266 511.64 639.632 516.168 632.161L502.485 623.868C501.153 626.066 499.356 627.266 495.703 627.266V643.266ZM516.075 632.31C520.346 625.599 521.94 616.623 521.94 606.481H505.94C505.94 615.383 504.459 620.762 502.577 623.72L516.075 632.31ZM521.94 606.481C521.94 595.701 521.21 586.445 519.63 578.865C518.076 571.416 515.546 564.811 511.358 560.086L499.384 570.699C500.909 572.419 502.664 575.885 503.967 582.132C505.242 588.249 505.94 596.314 505.94 606.481H521.94ZM511.291 560.011C504.626 552.68 489.291 541.373 466.473 526.404L457.697 539.782C480.875 554.988 494.397 565.214 499.452 570.774L511.291 560.011ZM466.503 526.423C443.455 511.156 428.738 500.422 421.803 494.031L410.96 505.797C418.967 513.176 434.719 524.561 457.667 539.762L466.503 526.423ZM421.803 494.031C415.407 488.137 409.77 479.697 405.108 468.317L390.302 474.382C395.601 487.318 402.415 497.922 410.96 505.797L421.803 494.031ZM405.139 468.394C400.806 457.495 398.454 443.064 398.454 424.768H382.454C382.454 444.264 384.936 460.887 390.271 474.305L405.139 468.394ZM398.454 424.768C398.454 397.859 401.912 379.615 407.801 368.838L393.761 361.165C385.881 375.584 382.454 397.184 382.454 424.768H398.454ZM407.767 368.901C413.82 358.056 423.659 349.304 437.919 342.846L431.319 328.271C414.524 335.876 401.805 346.753 393.796 361.103L407.767 368.901ZM437.976 342.82C452.197 336.247 469.738 332.792 490.869 332.792V316.792C468.055 316.792 448.096 320.515 431.262 328.297L437.976 342.82ZM490.869 332.792C514.064 332.792 533.29 336.544 548.824 343.703L555.521 329.172C537.364 320.804 515.721 316.792 490.869 316.792V332.792ZM548.848 343.714C564.836 351.019 574.179 359.713 578.514 369.205L593.068 362.557C586.564 348.318 573.494 337.384 555.497 329.161L548.848 343.714ZM578.565 369.313C583.303 379.289 586.141 397.702 586.141 425.866H602.141C602.141 397.487 599.412 375.91 593.017 362.448L578.565 369.313ZM586.141 425.866V439.929H602.141V425.866H586.141ZM817.383 332.263H825.383V324.263H817.383V332.263ZM817.383 403.454V411.454H825.383V403.454H817.383ZM762.451 403.454V395.454H754.451V403.454H762.451ZM762.451 688V696H770.451V688H762.451ZM669.946 688H661.946V696H669.946V688ZM669.946 403.454H677.946V395.454H669.946V403.454ZM615.234 403.454H607.234V411.454H615.234V403.454ZM615.234 332.263V324.263H607.234V332.263H615.234ZM809.383 332.263V403.454H825.383V332.263H809.383ZM817.383 395.454H762.451V411.454H817.383V395.454ZM754.451 403.454V688H770.451V403.454H754.451ZM762.451 680H669.946V696H762.451V680ZM677.946 688V403.454H661.946V688H677.946ZM669.946 395.454H615.234V411.454H669.946V395.454ZM623.234 403.454V332.263H607.234V403.454H623.234ZM615.234 340.263H817.383V324.263H615.234V340.263ZM1047.22 616.589L1039.27 615.654L1039.27 615.688L1039.26 615.723L1047.22 616.589ZM1031.4 657.238L1024.92 652.538L1024.9 652.563L1024.89 652.588L1031.4 657.238ZM891.431 686.242L888.349 693.625L888.392 693.643L888.435 693.66L891.431 686.242ZM838.257 403.894L830.312 402.959L830.308 402.993L830.304 403.027L838.257 403.894ZM854.077 363.024L847.604 358.324L847.586 358.349L847.567 358.375L854.077 363.024ZM994.043 334.24L990.961 341.623L991.004 341.641L991.047 341.658L994.043 334.24ZM954.492 392.028L947.002 394.837L947.055 394.981L947.115 395.122L954.492 392.028ZM932.08 390.71L925.503 386.156L925.483 386.184L925.465 386.211L932.08 390.71ZM930.762 628.015L923.172 630.544L923.206 630.647L923.243 630.749L930.762 628.015ZM1041.85 540.563C1041.85 576.3 1040.97 601.225 1039.27 615.654L1055.16 617.524C1056.98 602.07 1057.85 576.311 1057.85 540.563H1041.85ZM1039.26 615.723C1037.81 629.101 1033.06 641.335 1024.92 652.538L1037.87 661.939C1047.61 648.533 1053.4 633.667 1055.17 617.455L1039.26 615.723ZM1024.89 652.588C1017.01 663.614 1006.26 672.186 992.378 678.252L998.784 692.914C1015.07 685.797 1028.2 675.472 1037.91 661.888L1024.89 652.588ZM992.378 678.252C978.496 684.317 962.048 687.471 942.847 687.471V703.471C963.782 703.471 982.49 700.032 998.784 692.914L992.378 678.252ZM942.847 687.471C924.669 687.471 908.57 684.536 894.426 678.824L888.435 693.66C904.76 700.253 922.938 703.471 942.847 703.471V687.471ZM894.513 678.86C880.679 673.085 869.705 664.582 861.383 653.354L848.529 662.881C858.664 676.555 872.006 686.802 888.349 693.625L894.513 678.86ZM861.383 653.354C852.939 641.961 848.003 629.712 846.42 616.515L830.534 618.421C832.465 634.52 838.516 649.371 848.529 662.881L861.383 653.354ZM846.42 616.515C844.725 602.395 843.84 577.196 843.84 540.563H827.84C827.84 577.173 828.712 603.244 830.534 618.421L846.42 616.515ZM843.84 540.563V479.699H827.84V540.563H843.84ZM843.84 479.699C843.84 443.958 844.65 419.078 846.21 404.76L830.304 403.027C828.641 418.299 827.84 443.956 827.84 479.699H843.84ZM846.202 404.828C847.801 391.234 852.578 378.887 860.587 367.674L847.567 358.375C837.998 371.771 832.228 386.671 830.312 402.959L846.202 404.828ZM860.55 367.725C868.581 356.667 879.42 348.081 893.315 342.011L886.909 327.349C870.628 334.462 857.445 344.772 847.604 358.324L860.55 367.725ZM893.315 342.011C907.197 335.946 923.645 332.792 942.847 332.792V316.792C921.912 316.792 903.203 320.23 886.909 327.349L893.315 342.011ZM942.847 332.792C961.004 332.792 976.997 335.793 990.961 341.623L997.125 326.858C980.914 320.09 962.776 316.792 942.847 316.792V332.792ZM991.047 341.658C1005 347.293 1016.01 355.714 1024.31 366.909L1037.16 357.382C1027.01 343.675 1013.55 333.492 997.039 326.822L991.047 341.658ZM1024.31 366.909C1032.75 378.302 1037.69 390.551 1039.27 403.748L1055.16 401.842C1053.23 385.742 1047.18 370.891 1037.16 357.382L1024.31 366.909ZM1039.27 403.748C1040.97 417.868 1041.85 443.067 1041.85 479.699H1057.85C1057.85 443.089 1056.98 417.019 1055.16 401.842L1039.27 403.748ZM1041.85 479.699V540.563H1057.85V479.699H1041.85ZM965.349 423.669C965.349 415.27 965.108 408.231 964.602 402.625C964.117 397.252 963.332 392.421 961.87 388.935L947.115 395.122C947.557 396.177 948.2 398.89 948.667 404.064C949.113 409.004 949.349 415.515 949.349 423.669H965.349ZM961.983 389.219C960.576 385.467 958.175 382.206 954.624 379.978C951.157 377.803 947.209 376.997 943.286 376.997V392.997C945.076 392.997 945.852 393.363 946.12 393.531C946.305 393.647 946.651 393.903 947.002 394.837L961.983 389.219ZM943.286 376.997C935.963 376.997 929.709 380.08 925.503 386.156L938.658 395.264C939.724 393.723 940.941 392.997 943.286 392.997V376.997ZM925.465 386.211C924.077 388.252 923.252 390.665 922.694 392.853C922.106 395.159 921.665 397.836 921.329 400.795C920.658 406.717 920.345 414.38 920.345 423.669H936.345C936.345 414.647 936.654 407.661 937.228 402.597C937.515 400.064 937.852 398.163 938.198 396.807C938.574 395.333 938.838 394.999 938.695 395.208L925.465 386.211ZM920.345 423.669V589.782H936.345V423.669H920.345ZM920.345 589.782C920.345 600.189 920.547 608.726 920.965 615.336C921.365 621.67 921.999 627.025 923.172 630.544L938.351 625.485C937.913 624.17 937.338 620.736 936.933 614.326C936.545 608.192 936.345 600.03 936.345 589.782H920.345ZM923.243 630.749C924.67 634.671 927.179 638.021 930.875 640.279C934.456 642.468 938.548 643.266 942.627 643.266V627.266C940.554 627.266 939.592 626.855 939.218 626.627C938.958 626.468 938.612 626.192 938.28 625.281L923.243 630.749ZM942.627 643.266C946.938 643.266 951.233 642.308 954.92 639.76C958.662 637.174 961.033 633.466 962.341 629.325L947.083 624.507C946.633 625.933 946.111 626.399 945.825 626.596C945.484 626.832 944.615 627.266 942.627 627.266V643.266ZM962.341 629.325C963.534 625.545 964.23 619.995 964.672 613.328C965.128 606.453 965.349 597.708 965.349 587.146H949.349C949.349 597.531 949.13 605.887 948.707 612.269C948.27 618.859 947.647 622.721 947.083 624.507L962.341 629.325ZM965.349 587.146V423.669H949.349V587.146H965.349ZM1084.57 332.263V324.263H1076.57V332.263H1084.57ZM1238.6 337.316L1236.89 345.131L1236.89 345.133L1236.9 345.134L1238.6 337.316ZM1276.39 363.244L1269.82 367.809L1269.85 367.848L1269.88 367.887L1276.39 363.244ZM1240.14 502.331L1239.39 494.366L1238.21 510.096L1240.14 502.331ZM1288.7 541.662L1280.9 543.435L1280.92 543.54L1280.95 543.645L1288.7 541.662ZM1291.11 688V696H1299.11V688H1291.11ZM1205.2 688H1197.2V696H1205.2V688ZM1200.59 534.411L1193.86 538.748L1193.91 538.824L1193.96 538.898L1200.59 534.411ZM1177.08 527.6V519.6H1169.08V527.6H1177.08ZM1177.08 688V696H1185.08V688H1177.08ZM1084.57 688H1076.57V696H1084.57V688ZM1177.08 393.127V385.127H1169.08V393.127H1177.08ZM1177.08 472.229H1169.08V480.229H1177.08V472.229ZM1198.83 468.054L1203.32 474.674L1203.35 474.657L1203.37 474.639L1198.83 468.054ZM1199.05 398.4L1193.73 404.38L1193.79 404.428L1193.84 404.474L1199.05 398.4ZM1084.57 340.263H1150.05V324.263H1084.57V340.263ZM1150.05 340.263C1193.8 340.263 1222.48 341.974 1236.89 345.131L1240.31 329.502C1223.96 325.92 1193.6 324.263 1150.05 324.263V340.263ZM1236.9 345.134C1250.31 348.044 1261.22 355.433 1269.82 367.809L1282.96 358.68C1272.22 343.223 1257.94 333.327 1240.3 329.498L1236.9 345.134ZM1269.88 367.887C1278.22 379.593 1283.11 399.567 1283.11 429.382H1299.11C1299.11 398.552 1294.19 374.434 1282.91 358.601L1269.88 367.887ZM1283.11 429.382C1283.11 442.939 1282.27 453.986 1280.67 462.643C1279.04 471.41 1276.75 477.117 1274.3 480.505L1287.27 489.88C1291.7 483.746 1294.58 475.391 1296.4 465.554C1298.24 455.608 1299.11 443.511 1299.11 429.382H1283.11ZM1274.3 480.505C1269.48 487.172 1258.89 492.529 1239.39 494.366L1240.89 510.296C1261.81 508.325 1278.32 502.256 1287.27 489.88L1274.3 480.505ZM1238.21 510.096C1256.15 514.545 1266.3 520.117 1270.89 525.666L1283.22 515.47C1275.21 505.785 1260.74 499.199 1242.06 494.566L1238.21 510.096ZM1270.89 525.666C1276.75 532.757 1279.81 538.666 1280.9 543.435L1296.5 539.889C1294.65 531.768 1289.95 523.614 1283.22 515.47L1270.89 525.666ZM1280.95 543.645C1281.52 545.889 1282.11 551.056 1282.52 559.883C1282.91 568.46 1283.11 579.877 1283.11 594.177H1299.11C1299.11 579.765 1298.91 568.074 1298.5 559.147C1298.1 550.469 1297.48 543.734 1296.45 539.679L1280.95 543.645ZM1283.11 594.177V688H1299.11V594.177H1283.11ZM1291.11 680H1205.2V696H1291.11V680ZM1213.2 688V569.787H1197.2V688H1213.2ZM1213.2 569.787C1213.2 560.099 1212.81 552.006 1211.98 545.626C1211.2 539.614 1209.88 533.873 1207.21 529.924L1193.96 538.898C1194.36 539.49 1195.36 541.915 1196.11 547.696C1196.82 553.108 1197.2 560.433 1197.2 569.787H1213.2ZM1207.31 530.074C1204.38 525.531 1199.6 523.026 1194.74 521.618C1189.81 520.191 1183.83 519.6 1177.08 519.6V535.6C1183.07 535.6 1187.38 536.144 1190.28 536.986C1191.71 537.4 1192.63 537.838 1193.19 538.192C1193.73 538.532 1193.86 538.748 1193.86 538.748L1207.31 530.074ZM1169.08 527.6V688H1185.08V527.6H1169.08ZM1177.08 680H1084.57V696H1177.08V680ZM1092.57 688V332.263H1076.57V688H1092.57ZM1169.08 393.127V472.229H1185.08V393.127H1169.08ZM1177.08 480.229C1187.66 480.229 1197.07 478.915 1203.32 474.674L1194.34 461.434C1192.38 462.759 1187.3 464.229 1177.08 464.229V480.229ZM1203.37 474.639C1208.07 471.4 1210.24 465.788 1211.41 460.661C1212.66 455.174 1213.2 448.255 1213.2 440.148H1197.2C1197.2 447.716 1196.68 453.284 1195.81 457.099C1194.85 461.274 1193.84 461.778 1194.29 461.468L1203.37 474.639ZM1213.2 440.148V420.593H1197.2V440.148H1213.2ZM1213.2 420.593C1213.2 414.536 1212.66 409.085 1211.37 404.448C1210.09 399.836 1207.92 395.469 1204.25 392.326L1193.84 404.474C1194.28 404.847 1195.18 405.937 1195.95 408.722C1196.72 411.482 1197.2 415.371 1197.2 420.593H1213.2ZM1204.36 392.421C1198.04 386.8 1188.03 385.127 1177.08 385.127V401.127C1187.51 401.127 1192.15 402.969 1193.73 404.38L1204.36 392.421ZM1524.24 332.263L1531.91 334.542L1534.97 324.263H1524.24V332.263ZM1456.79 559.24L1449.12 556.961L1448.79 558.077V559.24H1456.79ZM1456.79 688V696H1464.79V688H1456.79ZM1371.09 688H1363.09V696H1371.09V688ZM1371.09 559.24H1379.09V558.117L1378.78 557.037L1371.09 559.24ZM1306.05 332.263V324.263H1295.44L1298.36 334.466L1306.05 332.263ZM1391.09 332.263L1398.94 330.751L1397.7 324.263H1391.09V332.263ZM1413.5 472.229L1405.52 472.764L1421.43 473.3L1413.5 472.229ZM1439.21 332.263V324.263H1432.76L1431.39 330.567L1439.21 332.263ZM1516.57 329.984L1449.12 556.961L1464.46 561.519L1531.91 334.542L1516.57 329.984ZM1448.79 559.24V688H1464.79V559.24H1448.79ZM1456.79 680H1371.09V696H1456.79V680ZM1379.09 688V559.24H1363.09V688H1379.09ZM1378.78 557.037L1313.75 330.059L1298.36 334.466L1363.4 561.444L1378.78 557.037ZM1306.05 340.263H1391.09V324.263H1306.05V340.263ZM1383.23 333.774C1396.58 403.134 1403.95 449.311 1405.52 472.764L1421.48 471.693C1419.83 447.099 1412.26 399.965 1398.94 330.751L1383.23 333.774ZM1421.43 473.3C1426.52 435.643 1435.04 389.211 1447.03 333.959L1431.39 330.567C1419.35 386.057 1410.74 432.935 1405.57 471.157L1421.43 473.3ZM1439.21 340.263H1524.24V324.263H1439.21V340.263Z" fill="#04839D"/>
<path d="M641.785 8.2627V79.4541H586.854V364H494.349V79.4541H439.637V8.2627H641.785ZM875.574 8.2627V364H783.069V214.586H755.384V364H662.879V8.2627H755.384V135.484H783.069V8.2627H875.574ZM912.928 8.2627H1067.18V79.4541H1005.43V146.91H1063.22V214.586H1005.43V292.809H1073.33V364H912.928V8.2627Z" fill="#FBD4CA"/>
<path d="M641.785 8.2627H649.785V0.262695H641.785V8.2627ZM641.785 79.4541V87.4541H649.785V79.4541H641.785ZM586.854 79.4541V71.4541H578.854V79.4541H586.854ZM586.854 364V372H594.854V364H586.854ZM494.349 364H486.349V372H494.349V364ZM494.349 79.4541H502.349V71.4541H494.349V79.4541ZM439.637 79.4541H431.637V87.4541H439.637V79.4541ZM439.637 8.2627V0.262695H431.637V8.2627H439.637ZM633.785 8.2627V79.4541H649.785V8.2627H633.785ZM641.785 71.4541H586.854V87.4541H641.785V71.4541ZM578.854 79.4541V364H594.854V79.4541H578.854ZM586.854 356H494.349V372H586.854V356ZM502.349 364V79.4541H486.349V364H502.349ZM494.349 71.4541H439.637V87.4541H494.349V71.4541ZM447.637 79.4541V8.2627H431.637V79.4541H447.637ZM439.637 16.2627H641.785V0.262695H439.637V16.2627ZM875.574 8.2627H883.574V0.262695H875.574V8.2627ZM875.574 364V372H883.574V364H875.574ZM783.069 364H775.069V372H783.069V364ZM783.069 214.586H791.069V206.586H783.069V214.586ZM755.384 214.586V206.586H747.384V214.586H755.384ZM755.384 364V372H763.384V364H755.384ZM662.879 364H654.879V372H662.879V364ZM662.879 8.2627V0.262695H654.879V8.2627H662.879ZM755.384 8.2627H763.384V0.262695H755.384V8.2627ZM755.384 135.484H747.384V143.484H755.384V135.484ZM783.069 135.484V143.484H791.069V135.484H783.069ZM783.069 8.2627V0.262695H775.069V8.2627H783.069ZM867.574 8.2627V364H883.574V8.2627H867.574ZM875.574 356H783.069V372H875.574V356ZM791.069 364V214.586H775.069V364H791.069ZM783.069 206.586H755.384V222.586H783.069V206.586ZM747.384 214.586V364H763.384V214.586H747.384ZM755.384 356H662.879V372H755.384V356ZM670.879 364V8.2627H654.879V364H670.879ZM662.879 16.2627H755.384V0.262695H662.879V16.2627ZM747.384 8.2627V135.484H763.384V8.2627H747.384ZM755.384 143.484H783.069V127.484H755.384V143.484ZM791.069 135.484V8.2627H775.069V135.484H791.069ZM783.069 16.2627H875.574V0.262695H783.069V16.2627ZM912.928 8.2627V0.262695H904.928V8.2627H912.928ZM1067.18 8.2627H1075.18V0.262695H1067.18V8.2627ZM1067.18 79.4541V87.4541H1075.18V79.4541H1067.18ZM1005.43 79.4541V71.4541H997.433V79.4541H1005.43ZM1005.43 146.91H997.433V154.91H1005.43V146.91ZM1063.22 146.91H1071.22V138.91H1063.22V146.91ZM1063.22 214.586V222.586H1071.22V214.586H1063.22ZM1005.43 214.586V206.586H997.433V214.586H1005.43ZM1005.43 292.809H997.433V300.809H1005.43V292.809ZM1073.33 292.809H1081.33V284.809H1073.33V292.809ZM1073.33 364V372H1081.33V364H1073.33ZM912.928 364H904.928V372H912.928V364ZM912.928 16.2627H1067.18V0.262695H912.928V16.2627ZM1059.18 8.2627V79.4541H1075.18V8.2627H1059.18ZM1067.18 71.4541H1005.43V87.4541H1067.18V71.4541ZM997.433 79.4541V146.91H1013.43V79.4541H997.433ZM1005.43 154.91H1063.22V138.91H1005.43V154.91ZM1055.22 146.91V214.586H1071.22V146.91H1055.22ZM1063.22 206.586H1005.43V222.586H1063.22V206.586ZM997.433 214.586V292.809H1013.43V214.586H997.433ZM1005.43 300.809H1073.33V284.809H1005.43V300.809ZM1065.33 292.809V364H1081.33V292.809H1065.33ZM1073.33 356H912.928V372H1073.33V356ZM920.928 364V8.2627H904.928V364H920.928Z" fill="#1E8CA2"/>
</svg>
