<svg width="597" height="330" viewBox="0 0 597 330" fill="none" xmlns="http://www.w3.org/2000/svg">
<path d="M217.719 3.78906L175.922 320H51.1172L3.65625 3.78906H90.375C100.401 90.8984 107.562 164.531 111.859 224.688C116.156 163.88 120.648 109.844 125.336 62.5781L131 3.78906H217.719ZM418.695 3.78906V215.117C418.695 239.076 417.914 255.938 416.352 265.703C414.789 275.339 410.167 285.299 402.484 295.586C394.802 305.742 384.646 313.49 372.016 318.828C359.516 324.036 344.737 326.641 327.68 326.641C308.799 326.641 292.133 323.516 277.68 317.266C263.227 311.016 252.419 302.878 245.258 292.852C238.096 282.826 233.865 272.279 232.562 261.211C231.26 250.013 230.609 226.576 230.609 190.898V3.78906H312.836V240.898C312.836 254.701 313.552 263.555 314.984 267.461C316.547 271.237 319.607 273.125 324.164 273.125C329.372 273.125 332.693 271.042 334.125 266.875C335.688 262.578 336.469 252.552 336.469 236.797V3.78906H418.695ZM450.531 3.78906H587.641V67.0703H532.758V127.031H584.125V187.188H532.758V256.719H593.109V320H450.531V3.78906Z" fill="#F9D3E0"/>
<path d="M217.719 3.78906L220.693 4.18218L221.141 0.789062H217.719V3.78906ZM175.922 320V323H178.551L178.896 320.393L175.922 320ZM51.1172 320L48.1504 320.445L48.5339 323H51.1172V320ZM3.65625 3.78906V0.789062H0.172369L0.689481 4.23435L3.65625 3.78906ZM90.375 3.78906L93.3553 3.44604L93.0495 0.789062H90.375V3.78906ZM111.859 224.688L108.867 224.901L114.852 224.899L111.859 224.688ZM125.336 62.5781L128.321 62.8742L128.322 62.8658L125.336 62.5781ZM131 3.78906V0.789062H128.275L128.014 3.50136L131 3.78906ZM214.745 3.39594L172.948 319.607L178.896 320.393L220.693 4.18218L214.745 3.39594ZM175.922 317H51.1172V323H175.922V317ZM54.084 319.555L6.62302 3.34377L0.689481 4.23435L48.1504 320.445L54.084 319.555ZM3.65625 6.78906H90.375V0.789062H3.65625V6.78906ZM87.3947 4.13209C97.4178 91.2159 104.574 164.803 108.867 224.901L114.852 224.474C110.551 164.26 103.384 90.581 93.3553 3.44604L87.3947 4.13209ZM114.852 224.899C119.147 164.112 123.637 110.105 128.321 62.8742L122.351 62.2821C117.66 109.582 113.165 163.648 108.867 224.476L114.852 224.899ZM128.322 62.8658L133.986 4.07677L128.014 3.50136L122.35 62.2904L128.322 62.8658ZM131 6.78906H217.719V0.789062H131V6.78906ZM418.695 3.78906H421.695V0.789062H418.695V3.78906ZM416.352 265.703L419.313 266.183L419.314 266.177L416.352 265.703ZM402.484 295.586L404.877 297.396L404.883 297.388L404.888 297.381L402.484 295.586ZM372.016 318.828L373.169 321.597L373.177 321.594L373.184 321.591L372.016 318.828ZM232.562 261.211L229.583 261.557L229.583 261.561L232.562 261.211ZM230.609 3.78906V0.789062H227.609V3.78906H230.609ZM312.836 3.78906H315.836V0.789062H312.836V3.78906ZM314.984 267.461L312.168 268.494L312.189 268.551L312.212 268.608L314.984 267.461ZM334.125 266.875L331.306 265.85L331.297 265.875L331.288 265.9L334.125 266.875ZM336.469 3.78906V0.789062H333.469V3.78906H336.469ZM415.695 3.78906V215.117H421.695V3.78906H415.695ZM415.695 215.117C415.695 239.077 414.91 255.724 413.389 265.229L419.314 266.177C420.918 256.151 421.695 239.074 421.695 215.117H415.695ZM413.39 265.223C411.926 274.255 407.562 283.774 400.081 293.791L404.888 297.381C412.772 286.825 417.653 276.422 419.313 266.183L413.39 265.223ZM400.092 293.776C392.751 303.481 383.032 310.915 370.848 316.065L373.184 321.591C386.26 316.064 396.853 308.004 404.877 297.396L400.092 293.776ZM370.862 316.059C358.809 321.081 344.44 323.641 327.68 323.641V329.641C345.034 329.641 360.222 326.992 373.169 321.597L370.862 316.059ZM327.68 323.641C309.129 323.641 292.881 320.57 278.87 314.512L276.489 320.019C291.385 326.461 308.47 329.641 327.68 329.641V323.641ZM278.87 314.512C264.781 308.419 254.466 300.582 247.699 291.108L242.817 294.595C250.372 305.173 261.672 313.612 276.489 320.019L278.87 314.512ZM247.699 291.108C240.8 281.449 236.779 271.374 235.542 260.86L229.583 261.561C230.95 273.183 235.393 284.202 242.817 294.595L247.699 291.108ZM235.542 260.864C234.264 249.87 233.609 226.612 233.609 190.898H227.609C227.609 226.539 228.257 250.156 229.583 261.557L235.542 260.864ZM233.609 190.898V3.78906H227.609V190.898H233.609ZM230.609 6.78906H312.836V0.789062H230.609V6.78906ZM309.836 3.78906V240.898H315.836V3.78906H309.836ZM309.836 240.898C309.836 247.841 310.016 253.594 310.383 258.132C310.744 262.596 311.302 266.133 312.168 268.494L317.801 266.428C317.234 264.883 316.718 262.04 316.363 257.649C316.014 253.333 315.836 247.758 315.836 240.898H309.836ZM312.212 268.608C313.2 270.996 314.738 272.943 316.876 274.262C318.991 275.567 321.476 276.125 324.164 276.125V270.125C322.295 270.125 320.972 269.739 320.026 269.156C319.105 268.587 318.331 267.702 317.756 266.314L312.212 268.608ZM324.164 276.125C327.151 276.125 329.884 275.529 332.155 274.104C334.468 272.652 336.052 270.497 336.962 267.85L331.288 265.9C330.766 267.42 329.973 268.389 328.966 269.021C327.917 269.68 326.385 270.125 324.164 270.125V276.125ZM336.944 267.9C337.876 265.339 338.481 261.406 338.874 256.366C339.273 251.245 339.469 244.714 339.469 236.797H333.469C333.469 244.635 333.274 250.995 332.892 255.9C332.503 260.886 331.937 264.114 331.306 265.85L336.944 267.9ZM339.469 236.797V3.78906H333.469V236.797H339.469ZM336.469 6.78906H418.695V0.789062H336.469V6.78906ZM450.531 3.78906V0.789062H447.531V3.78906H450.531ZM587.641 3.78906H590.641V0.789062H587.641V3.78906ZM587.641 67.0703V70.0703H590.641V67.0703H587.641ZM532.758 67.0703V64.0703H529.758V67.0703H532.758ZM532.758 127.031H529.758V130.031H532.758V127.031ZM584.125 127.031H587.125V124.031H584.125V127.031ZM584.125 187.188V190.188H587.125V187.188H584.125ZM532.758 187.188V184.188H529.758V187.188H532.758ZM532.758 256.719H529.758V259.719H532.758V256.719ZM593.109 256.719H596.109V253.719H593.109V256.719ZM593.109 320V323H596.109V320H593.109ZM450.531 320H447.531V323H450.531V320ZM450.531 6.78906H587.641V0.789062H450.531V6.78906ZM584.641 3.78906V67.0703H590.641V3.78906H584.641ZM587.641 64.0703H532.758V70.0703H587.641V64.0703ZM529.758 67.0703V127.031H535.758V67.0703H529.758ZM532.758 130.031H584.125V124.031H532.758V130.031ZM581.125 127.031V187.188H587.125V127.031H581.125ZM584.125 184.188H532.758V190.188H584.125V184.188ZM529.758 187.188V256.719H535.758V187.188H529.758ZM532.758 259.719H593.109V253.719H532.758V259.719ZM590.109 256.719V320H596.109V256.719H590.109ZM593.109 317H450.531V323H593.109V317ZM453.531 320V3.78906H447.531V320H453.531Z" fill="#3F52A0"/>
</svg>
