<svg width="507" height="185" viewBox="0 0 507 185" fill="none" xmlns="http://www.w3.org/2000/svg">
<rect x="13.0811" width="495.894" height="138.485" transform="rotate(5.42011 13.0811 0)" fill="#857142"/>
<path d="M151.298 44.9511L132.766 130.503L104.65 127.73C103.396 114.185 102.623 98.8527 102.333 81.7331C100.729 88.879 97.1538 103.782 91.6082 126.443L63.653 123.685L62.1407 36.1562L84.0024 38.3127L83.3217 68.7395L82.7999 98.1026C85.1064 83.1101 89.1241 63.537 94.853 39.3831L118.265 41.6925C118.336 44.2542 118.217 53.8494 117.908 70.4782L117.124 103.593C120.435 82.7991 124.539 62.5328 129.436 42.7945L151.298 44.9511ZM155.788 45.394L193.311 49.0955L191.602 66.4138L176.582 64.9321L174.964 81.3417L189.021 82.7285L187.397 99.1915L173.34 97.8048L171.463 116.834L187.979 118.463L186.271 135.781L147.251 131.932L155.788 45.394ZM201.328 49.8864L223.778 52.1009C230.869 52.8005 236.178 53.8818 239.704 55.345C243.265 56.8118 246.001 59.3485 247.912 62.9552C249.827 66.5263 250.415 72.0534 249.677 79.5366C249.177 84.5967 248.028 88.0454 246.227 89.8828C244.463 91.7236 241.193 92.9483 236.42 93.5569C241.506 95.246 244.841 97.5539 246.423 100.481C248.009 103.372 248.524 107.632 247.969 113.262L247.178 121.28C246.601 127.124 245.497 131.387 243.866 134.068C242.269 136.753 239.959 138.469 236.935 139.214C233.911 139.959 227.874 139.885 218.823 138.992L192.792 136.424L201.328 49.8864ZM222.371 66.9123L220.473 86.1548C221.438 86.2141 222.189 86.2701 222.723 86.3228C224.932 86.5408 226.393 86.1451 227.104 85.1358C227.819 84.0909 228.429 81.0028 228.935 75.8714C229.202 73.1632 229.139 71.25 228.746 70.1318C228.356 68.9779 227.765 68.218 226.974 67.8521C226.218 67.4897 224.684 67.1764 222.371 66.9123ZM219.144 99.6246L216.756 123.838C219.938 124.044 222 123.744 222.943 122.937C223.922 122.134 224.584 119.987 224.928 116.495L225.724 108.423C226.09 104.717 225.919 102.434 225.213 101.573C224.506 100.711 222.483 100.062 219.144 99.6246ZM326.28 88.6584L305.381 86.5967L306.013 80.1826C306.309 77.1893 306.229 75.2565 305.776 74.3842C305.322 73.5118 304.472 73.0142 303.224 72.8911C301.87 72.7576 300.782 73.2079 299.961 74.2423C299.175 75.2802 298.671 76.9216 298.45 79.1666C298.165 82.0529 298.342 84.2653 298.982 85.8037C299.586 87.3385 301.533 89.3115 304.821 91.7228C314.247 98.6615 320.073 104.166 322.298 108.235C324.523 112.305 325.217 118.58 324.381 127.061C323.773 133.225 322.594 137.697 320.845 140.475C319.131 143.256 316.109 145.441 311.779 147.028C307.452 148.581 302.545 149.086 297.057 148.545C291.035 147.951 285.998 146.302 281.947 143.6C277.931 140.901 275.438 137.723 274.468 134.065C273.497 130.407 273.332 125.335 273.972 118.85L274.531 113.184L295.43 115.246L294.391 125.776C294.072 129.018 294.151 131.131 294.63 132.114C295.144 133.1 296.15 133.667 297.646 133.815C299.143 133.962 300.306 133.483 301.134 132.378C301.999 131.275 302.545 129.566 302.774 127.25C303.276 122.154 302.91 118.754 301.675 117.049C300.404 115.34 297.153 112.375 291.92 108.153C286.691 103.895 283.25 100.839 281.598 98.985C279.946 97.1309 278.66 94.6653 277.74 91.5881C276.856 88.5145 276.641 84.6792 277.094 80.0824C277.748 73.4544 279.064 68.6907 281.041 65.7914C283.054 62.8956 286.033 60.7787 289.979 59.4409C293.928 58.0674 298.576 57.6443 303.921 58.1716C309.765 58.7481 314.643 60.1828 318.554 62.4756C322.502 64.772 324.992 67.4284 326.026 70.4449C327.099 73.4292 327.296 78.3601 326.618 85.2375L326.28 88.6584ZM360.347 65.5728L351.81 152.111L329.307 149.891L337.844 63.353L360.347 65.5728ZM414.707 70.9352L412.998 88.2534L399.636 86.9353L392.807 156.155L370.304 153.935L377.133 84.7154L363.823 83.4025L365.531 66.0842L414.707 70.9352ZM419.838 71.4413L457.361 75.1428L455.653 92.4611L440.633 90.9795L439.014 107.389L453.072 108.776L451.448 125.239L437.39 123.852L435.513 142.881L452.03 144.51L450.321 161.828L411.302 157.979L419.838 71.4413Z" fill="#FFD87E"/>
</svg>
